<svg xmlns="http://www.w3.org/2000/svg" id="Layer_2" data-name="Layer 2" viewBox="0 0 228.3 78.73"><defs><style>.cls-2{fill:#ff991e}.cls-3{fill:#fff}</style></defs><g id="OBJECTS"><path d="M226.68 51.48c.28-.93.38-3.87.3-14.39-.02-2.12-.03-3.95 0-4.3 0-1.07-.25-2.15-.72-3.1l-9.36-18.98c-.12-.23-.25-.45-.39-.65-.32-.52-.74-.93-1.15-1.33-.17-.17-.35-.34-.51-.51a.388.388 0 0 0-.15-.11c-9.77-4.66-29.07-5.36-38.2.32-.56-.84-1.97-2.46-4.64-2.46-2.29.04-5.46.02-8.81 0-7.13-.05-11.65-.06-12.86.21-.14-.04-.36-.11-.49-.15l-.1-.03c-.07-.02-.14-.03-.21-.02-.42.05-2.77.03-5.49 0-11.51-.13-15.79-.02-17.02.48-11.35-3.13-30.82-3.89-39.22 6.49-4.69-5.78-11.36-8.41-21.5-8.52-4.22-.17-14.48-.16-20.48 3.48-.08-.15-.16-.3-.22-.42l-.12-.22c-.03-.05-.06-.1-.1-.14-.14-.13-.29-.27-.43-.41-.39-.38-.8-.77-1.26-1.1-.39-.24-.84-.46-1.27-.67-.21-.1-.42-.2-.61-.3a.414.414 0 0 0-.19-.05c-.33-.03-.66-.09-.74-.12a.492.492 0 0 0-.21-.04H7c-3.86-.02-7 3.12-7 6.98v40.17c0 .37.04.73.08 1.07.03.26.07.52.07.78 0 .07.02.14.05.21l9.82 19.91a7.034 7.034 0 0 0 6.28 3.91h20.1c7.21-.58 7.09-6.3 6.99-11.35 0-.48-.02-.96-.02-1.44h2.95c4.2 9.01 11.93 13.27 24.27 13.37 7.18.4 20.01-.22 26.27-8.61 5.17 6.18 12.34 9.11 22.53 9.19l1.84-.06c7.52-.25 16.01-.52 19.63-4.59 4.41 3.13 10.43 4.72 17.9 4.72.51.02 1.02.02 1.52.02 7.65 0 14.29-1.82 18.47-5.08 4.78 4.37 13.73 4.68 20.94 4.92l1.85.07c10.41.4 19.28-3.04 23.72-9.24 3.51-4.9 4.01-11.09 1.44-17.92Z"/><path d="M158.76 73.83c-7.59 0-13.63-1.65-17.99-4.9-3.54 4.58-13.32 4.54-21.4 4.83-9.95-.08-17.29-2.92-22.54-9.52-5.17 7.54-15.95 9.5-26.22 8.93-11.73-.1-19.73-3.99-23.98-13.37h-3.77c-.01 5.56 1.11 12.19-6.5 12.79H16.3a6.54 6.54 0 0 1-5.83-3.63L.65 49.06c-.02-.61-.17-1.22-.15-1.83V7.05C.5 3.47 3.42.55 7 .55h33.52c.19.09.69.15.91.17.59.3 1.29.6 1.85.95.56.41 1.1.98 1.61 1.45.07.13.54 1.02.59 1.13C50.42.96 59.14.27 66.13.56c9.89.11 16.75 2.62 21.52 8.83 7.81-10.44 27.22-10.15 39.27-6.78.75-1 21.04-.33 22.53-.51.11.03.65.21.74.22 1.37-.48 15.24-.12 21.68-.22 3.24 0 4.46 2.67 4.46 2.67 8.8-5.9 28.29-5.28 38.15-.57.53.58 1.19 1.09 1.6 1.77.13.2.26.41.37.62l9.36 18.97c.44.88.67 1.88.67 2.88-.1 1.11.3 18.16-.33 18.69 6.5 16.93-7.1 27.34-24.6 26.65-7.68-.3-17.84-.24-22.78-5.15-4.5 3.72-12.1 5.47-20.01 5.22Z" class="cls-3"/><path d="M160.27 74.36c-.5 0-1.01 0-1.52-.02-7.47 0-13.49-1.59-17.9-4.72-3.62 4.07-12.11 4.35-19.63 4.59l-1.83.06c-10.18-.09-17.36-3.01-22.53-9.19-6.26 8.39-19.09 9.01-26.27 8.61-12.34-.1-20.07-4.35-24.27-13.37h-2.95c0 .47.01.96.02 1.44.1 5.05.22 10.78-6.99 11.35H16.3c-2.65 0-5.11-1.53-6.28-3.91L.21 49.28a.465.465 0 0 1-.05-.21c0-.26-.04-.52-.07-.78-.04-.35-.09-.7-.08-1.07V7.05C0 3.19 3.14.05 7 .05h33.52c.07 0 .14.02.21.04.08.04.42.1.74.12.06 0 .13.02.19.05.19.1.4.2.61.3.43.21.88.42 1.27.67.46.33.87.72 1.26 1.1.15.14.29.28.43.41.04.04.08.09.1.14l.12.22c.06.12.14.27.22.42 6-3.63 16.27-3.64 20.48-3.47 10.14.11 16.81 2.74 21.5 8.52 8.4-10.38 27.88-9.61 39.22-6.49 1.23-.5 5.51-.6 17.02-.48 2.72.03 5.07.05 5.49 0 .07 0 .14 0 .21.02l.1.03c.13.04.35.11.49.15 1.21-.27 5.73-.26 12.86-.21 3.35.02 6.52.04 8.81 0 2.67 0 4.08 1.62 4.64 2.46 9.13-5.68 28.43-4.98 38.2-.32.06.03.11.07.15.11.16.17.33.34.51.51.41.4.84.82 1.15 1.33.13.2.27.42.39.65l9.36 18.98c.47.95.72 2.02.72 3.1-.03.35-.02 2.18 0 4.3.08 10.52-.02 13.46-.3 14.39 2.57 6.82 2.07 13.01-1.44 17.92-4.44 6.19-13.31 9.63-23.72 9.24l-1.85-.07c-7.22-.25-16.16-.55-20.95-4.92-4.18 3.26-10.82 5.08-18.47 5.08Zm-19.5-5.93c.1 0 .21.03.3.1 4.27 3.19 10.22 4.8 17.69 4.8h.02c8.16.27 15.5-1.65 19.68-5.11.2-.17.49-.15.67.03 4.42 4.39 13.39 4.7 20.6 4.94l1.85.07c10.07.39 18.62-2.9 22.87-8.82 3.34-4.66 3.77-10.59 1.25-17.15a.514.514 0 0 1 .06-.48c.34-1 .27-9.82.24-14.09-.02-2.63-.03-4.01 0-4.35 0-.87-.22-1.79-.62-2.61l-9.36-18.97c-.1-.19-.21-.38-.33-.56-.26-.43-.63-.78-1.01-1.16-.16-.16-.33-.32-.48-.48-9.73-4.59-28.92-5.23-37.57.58a.497.497 0 0 1-.73-.2c-.04-.1-1.14-2.38-4.01-2.38-2.3.04-5.47.02-8.83 0-5.29-.04-11.88-.08-12.68.2-.08.03-.16.03-.24.02-.08-.01-.51-.14-.73-.21-.61.04-2.45.03-5.51 0-5.08-.06-15.65-.17-16.63.38-.12.16-.27.17-.46.11C115.55-.05 95.97-.89 88.05 9.68c-.09.12-.24.2-.4.2-.16 0-.3-.07-.4-.2-4.5-5.86-11.02-8.53-21.13-8.64-4.25-.17-14.7-.16-20.37 3.61a.508.508 0 0 1-.73-.21c-.04-.08-.3-.58-.46-.88l-.08-.15c-.13-.12-.25-.24-.38-.36-.37-.35-.75-.72-1.12-.99-.32-.2-.74-.4-1.15-.6-.19-.09-.37-.18-.55-.27-.21-.02-.59-.07-.86-.16H7c-3.31.02-6 2.72-6 6.02v40.18c0 .31.03.61.07.94.03.25.06.51.08.76l9.77 19.82c1 2.04 3.12 3.35 5.39 3.35h20.06c6.23-.5 6.13-5.27 6.03-10.33-.01-.66-.03-1.32-.03-1.96 0-.28.22-.5.5-.5h3.77c.2 0 .37.12.46.29 3.99 8.82 11.47 12.97 23.53 13.08 7.15.39 19.98-.22 25.8-8.71.09-.13.24-.21.39-.22.16 0 .31.06.41.19 5 6.28 12.04 9.24 22.15 9.33l1.81-.06c7.52-.25 16.05-.52 19.19-4.58.1-.13.25-.19.4-.19Z"/><path d="M93.34 33.15s-.02-.05-.03-.07l-8.98-17.51a.498.498 0 0 0-.3-.25.485.485 0 0 0-.39.04L42.82 37.44c-.24.13-.33.42-.21.66l9.09 18.26c.46 1.24 1.04 2.39 1.67 3.37l.08.16c.03.06.07.11.12.15.5.75.96 1.34 1.44 1.85 3.3 3.52 8.55 5.3 15.6 5.3h4.83c7.05 0 12.29-1.79 15.57-5.3 3.27-3.51 4.93-8.92 4.93-16.07 0-5.19-.88-9.45-2.6-12.66Z"/><path d="m49.45 25.63-9.39-18.8a.482.482 0 0 0-.39-.27.477.477 0 0 0-.44.18L6.61 46.91c-.12.15-.15.36-.06.54l9.31 18.87a.5.5 0 0 0 .45.28h20.06c.28 0 .5-.22.5-.5V53.81h12.06c.28 0 .5-.22.5-.5v-8.14c0-.08-.02-.16-.06-.23l-.84-1.59h.39c.28 0 .5-.22.5-.5V26.12c.09-.15.1-.33.03-.49Z"/><path d="M7 7.05h32.62v16.92H27.06v2.33h12.56v8.14H27.06v12.79H7V7.05Z" class="cls-2"/><path d="M27.06 47.73H7c-.28 0-.5-.22-.5-.5V7.05c0-.28.22-.5.5-.5h32.62c.28 0 .5.22.5.5v16.92c0 .28-.22.5-.5.5H27.56v1.33h12.06c.28 0 .5.22.5.5v8.14c0 .28-.22.5-.5.5H27.56v12.29c0 .28-.22.5-.5.5Zm-19.56-1h19.06V34.44c0-.28.22-.5.5-.5h12.06V26.8H27.06c-.28 0-.5-.22-.5-.5v-2.33c0-.28.22-.5.5-.5h12.06V7.55H7.5v39.18Z"/><path d="M61.31 7.05h4.83c6.98 0 12.05 1.65 15.23 4.94 3.18 3.3 4.77 8.47 4.77 15.52s-1.6 12.3-4.8 15.73c-3.2 3.43-8.27 5.15-15.2 5.15h-4.83c-6.94 0-12.02-1.71-15.23-5.15-3.22-3.43-4.83-8.67-4.83-15.73s1.6-12.23 4.8-15.52c3.2-3.29 8.29-4.94 15.26-4.94Z" class="cls-2"/><path d="M66.13 48.89H61.3c-7.05 0-12.3-1.78-15.6-5.3-3.29-3.51-4.96-8.92-4.96-16.07s1.66-12.5 4.94-15.87c3.28-3.38 8.54-5.09 15.62-5.09h4.83c7.08 0 12.33 1.71 15.59 5.09s4.91 8.72 4.91 15.87-1.66 12.56-4.93 16.07c-3.28 3.52-8.52 5.3-15.57 5.3ZM61.31 7.55c-6.8 0-11.82 1.61-14.9 4.79-3.09 3.18-4.66 8.29-4.66 15.18s1.58 12.07 4.69 15.39c3.1 3.31 8.1 4.99 14.87 4.99h4.83c6.76 0 11.75-1.68 14.84-4.99 3.09-3.32 4.66-8.5 4.66-15.39s-1.56-11.99-4.63-15.18c-3.07-3.18-8.07-4.79-14.87-4.79h-4.83Zm74.4 38.76c.11-.09.18-.23.18-.38V28.02c0-.08-.02-.15-.05-.22l-9.31-18.87a.488.488 0 0 0-.34-.27.49.49 0 0 0-.42.1L90.52 37.82c-.18.15-.23.4-.13.6l9.34 19.13s.01.03.02.04c.88 1.82 2.02 3.41 3.41 4.74 3.74 3.6 9.2 5.43 16.22 5.43s12.39-.67 16.18-2c.2-.07.33-.26.33-.47V47.91c0-.08-.02-.15-.05-.22l-.63-1.28s.07.01.1.02c.14.02.29-.02.41-.11Z"/><path d="M110.84 26.18v3.2c.78.08 2.13.12 4.07.12 3.64 0 6.9-.12 9.77-.35l1.4-.12v17.38c-3.76 1.32-9.1 1.98-16.02 1.98s-12.21-1.76-15.87-5.29c-3.66-3.53-5.49-8.77-5.49-15.73s1.8-12.08 5.41-15.38c3.6-3.29 8.97-4.94 16.11-4.94 2.98 0 5.8.17 8.46.52 2.65.35 4.54.7 5.67 1.05l1.74.52v17.91c-3.37-.58-8.45-.87-15.23-.87Z" class="cls-2"/><path d="M110.06 48.89c-7.02 0-12.48-1.83-16.22-5.43-3.75-3.61-5.65-9.02-5.65-16.09S90.06 15 93.76 11.62c3.68-3.37 9.22-5.07 16.44-5.07 2.99 0 5.86.18 8.52.53 2.71.36 4.59.7 5.75 1.06l1.74.52c.21.06.36.26.36.48v17.91c0 .15-.06.29-.18.38a.5.5 0 0 1-.41.11c-3.25-.56-8.17-.85-14.65-.86v2.24c.79.05 1.99.08 3.57.08 3.61 0 6.88-.12 9.73-.35l1.39-.12c.14-.01.28.04.38.13.1.09.16.23.16.37v17.39c0 .21-.13.4-.33.47-3.79 1.33-9.24 2-16.18 2Zm.14-41.34c-6.97 0-12.27 1.62-15.77 4.81-3.48 3.18-5.24 8.23-5.24 15.01s1.8 11.96 5.34 15.37c3.55 3.42 8.77 5.15 15.53 5.15s11.85-.62 15.52-1.83V29.58l-.85.07c-2.87.23-6.17.35-9.81.35-1.98 0-3.33-.04-4.12-.12a.5.5 0 0 1-.45-.5v-3.2c0-.28.22-.5.5-.5 6.4 0 11.35.26 14.73.78V9.52l-1.39-.42c-1.1-.34-2.98-.69-5.59-1.03a65.49 65.49 0 0 0-8.39-.52Zm70.58 19.71-9.31-18.87a.488.488 0 0 0-.34-.27c-.15-.03-.31 0-.42.1l-15.52 12.77-6.22-12.6a.504.504 0 0 0-.56-.27c-.23.05-.39.25-.39.49v18.28l-16.66 13.7a.51.51 0 0 0-.13.61l8.25 16.02c.82 2.38 2.08 4.38 3.73 5.94 3.28 3.1 8.51 4.67 15.55 4.67h1.51c7.08 0 12.33-1.56 15.6-4.64 3.29-3.09 4.95-7.9 4.95-14.29V27.48c0-.08-.02-.15-.05-.22Z"/><path d="M151.89 8.6h19.13v22.33c0 6.28-1.6 10.92-4.8 13.93-3.2 3-8.29 4.51-15.26 4.51h-1.51c-6.94 0-12.01-1.51-15.2-4.53-3.2-3.02-4.8-7.65-4.8-13.9V8.6h19.07v24.48c0 .5.15.9.46 1.19.31.29.71.44 1.19.44s.89-.15 1.22-.47c.33-.31.49-.7.49-1.16V8.6Z" class="cls-2"/><path d="M150.96 49.86h-1.51c-7.04 0-12.27-1.57-15.55-4.67-3.29-3.11-4.95-7.9-4.95-14.26V8.6c0-.28.22-.5.5-.5h19.07c.28 0 .5.22.5.5v24.48c0 .36.1.63.31.83.43.41 1.26.41 1.73-.03.23-.22.34-.47.34-.8V8.6c0-.28.22-.5.5-.5h19.13c.28 0 .5.22.5.5v22.33c0 6.39-1.67 11.2-4.95 14.29-3.28 3.08-8.53 4.64-15.6 4.64ZM129.95 9.1v21.83c0 6.07 1.56 10.62 4.64 13.53 3.09 2.92 8.09 4.4 14.86 4.4h1.51c6.81 0 11.83-1.47 14.92-4.37 3.08-2.89 4.64-7.45 4.64-13.56V9.1h-18.13v23.98c0 .6-.22 1.12-.65 1.53-.85.8-2.29.79-3.1.03-.41-.39-.62-.91-.62-1.56V9.1h-18.07Zm90.4 39.87c-.16-.33-.43-.81-.76-1.41-.4-.72-.92-1.65-1.45-2.69.59.2 1.13.41 1.63.64.15.07.33.06.48-.03.14-.09.23-.25.23-.42V28.43c0-.08-.02-.15-.05-.22l-9.31-18.87a.5.5 0 0 0-.67-.23l-35.06 16.96c-.12.06-.21.17-.26.29s-.03.27.03.39l3.54 6.68-3.86-2.6a.516.516 0 0 0-.51-.03c-.16.09-.27.26-.27.44v14.48c0 .08.02.15.05.22l9.31 18.87c.05.11.14.19.25.24l1.58.7c1.06.45 3.04.89 6.05 1.34 2.96.45 6.41.67 10.25.67 6.78 0 11.88-1.12 15.16-3.34 3.35-2.26 5.05-5.49 5.05-9.6 0-2.31-.46-4.22-1.41-5.85Z"/><path d="M194.04 7.05c3.18 0 6.15.2 8.92.61 2.77.41 4.76.82 5.96 1.25l1.74.64v16.63c-3.14-1.43-7.44-2.15-12.91-2.15v1.51c5.04.39 8.66 1.39 10.87 3.02 2.21 1.63 3.31 4.09 3.31 7.38 0 3.95-1.61 7.02-4.83 9.19-3.22 2.17-8.18 3.26-14.88 3.26-3.84 0-7.23-.22-10.17-.67-2.95-.44-4.92-.88-5.93-1.31l-1.57-.7V31.23c.35.15.87.37 1.57.64.7.27 2.26.62 4.68 1.05 2.42.43 5.03.64 7.82.64v-1.39c-4.73-.35-8.3-1.36-10.7-3.02-2.4-1.67-3.6-4.57-3.6-8.72s1.65-7.41 4.94-9.8c3.29-2.38 8.22-3.58 14.77-3.58Z" class="cls-2"/><path d="M192.24 48.89c-3.84 0-7.29-.23-10.25-.67-3.01-.45-4.99-.89-6.05-1.34l-1.58-.7a.505.505 0 0 1-.3-.46V31.24a.504.504 0 0 1 .7-.46c.34.15.86.36 1.55.63.66.26 2.21.6 4.59 1.02 2.23.39 4.66.61 7.23.63v-.43c-4.57-.39-8.1-1.42-10.48-3.07-2.53-1.76-3.82-4.83-3.82-9.13s1.73-7.73 5.15-10.2c3.37-2.44 8.43-3.67 15.06-3.67 3.19 0 6.21.21 9 .62 2.79.41 4.82.84 6.05 1.27l1.75.64c.2.07.33.26.33.47v16.63c0 .17-.09.33-.23.42-.14.09-.32.11-.48.03-2.97-1.35-7.07-2.06-12.2-2.1v.55c4.88.42 8.46 1.46 10.67 3.08 2.33 1.72 3.52 4.34 3.52 7.79 0 4.11-1.7 7.34-5.05 9.6-3.29 2.22-8.39 3.34-15.16 3.34Zm-17.17-3.5 1.27.57c.96.41 2.92.84 5.8 1.27 2.91.44 6.31.66 10.1.66 6.57 0 11.49-1.07 14.6-3.17 3.1-2.09 4.61-4.96 4.61-8.77 0-3.16-1.02-5.44-3.11-6.98-2.12-1.56-5.69-2.55-10.61-2.93a.501.501 0 0 1-.46-.5v-1.51c0-.28.22-.5.5-.5 5.11 0 9.28.64 12.41 1.89V9.9l-1.42-.52c-1.16-.41-3.14-.82-5.86-1.22-2.73-.4-5.71-.61-8.85-.61-6.41 0-11.28 1.17-14.48 3.48-3.19 2.3-4.73 5.38-4.73 9.39s1.14 6.75 3.39 8.31c2.32 1.61 5.83 2.6 10.45 2.94.26.02.46.24.46.5v1.39c0 .28-.22.5-.5.5-2.81 0-5.47-.22-7.91-.65-2.48-.44-4.04-.79-4.77-1.07-.34-.13-.63-.25-.89-.35v13.4Z"/><path d="M80.34 26.63s-7.54 9.13-16.83 9.13-16.83-9.13-16.83-9.13 7.54-9.13 16.83-9.13 16.83 9.13 16.83 9.13Z" class="cls-3"/><path d="M63.5 36.26c-9.42 0-16.91-8.93-17.22-9.31a.511.511 0 0 1 0-.64c.31-.38 7.79-9.31 17.22-9.31s16.91 8.93 17.22 9.31c.15.19.15.45 0 .64-.31.38-7.79 9.31-17.22 9.31Zm-16.17-9.63c1.43 1.6 8.2 8.63 16.17 8.63s14.74-7.04 16.17-8.63C78.24 25.03 71.47 18 63.5 18s-14.74 7.04-16.17 8.63Z"/><path d="M70.18 26.63c0 3.69-2.99 6.68-6.68 6.68s-6.68-2.99-6.68-6.68 2.99-6.68 6.68-6.68 6.68 2.99 6.68 6.68Z" style="fill:#00bf9f"/><path d="M63.5 33.81c-3.96 0-7.18-3.22-7.18-7.18s3.22-7.18 7.18-7.18 7.18 3.22 7.18 7.18-3.22 7.18-7.18 7.18Zm0-13.36c-3.41 0-6.18 2.77-6.18 6.18s2.77 6.18 6.18 6.18 6.18-2.77 6.18-6.18-2.77-6.18-6.18-6.18Z"/><path d="M63.5 31.27c-2.56 0-4.64-2.08-4.64-4.64s2.08-4.64 4.64-4.64 4.64 2.08 4.64 4.64-2.08 4.64-4.64 4.64Z" style="fill:#004ca2"/><path d="M63.5 31.77c-2.83 0-5.14-2.3-5.14-5.14s2.3-5.14 5.14-5.14 5.14 2.3 5.14 5.14-2.3 5.14-5.14 5.14Zm0-9.28c-2.28 0-4.14 1.86-4.14 4.14s1.86 4.14 4.14 4.14 4.14-1.86 4.14-4.14-1.86-4.14-4.14-4.14Zm-6.67-3.24c-.09 0-.17-.02-.25-.07-1.08-.63-3.2-3.21-3.2-6.33 0-.28.22-.5.5-.5s.5.22.5.5c0 2.73 1.93 5.02 2.7 5.47.24.14.32.45.18.68-.09.16-.26.25-.43.25Zm-5.5 3.27c-.07 0-.14-.01-.2-.04-1.66-.75-3.86-2.25-4.91-5.15a.501.501 0 0 1 .94-.34c.93 2.58 2.9 3.91 4.38 4.58.25.11.36.41.25.66a.49.49 0 0 1-.46.29Zm-4.66 4.61h-.02c-1.85-.08-3.88-1.8-4.57-2.96a.504.504 0 0 1 .17-.69c.24-.14.54-.07.69.17.58.97 2.33 2.41 3.76 2.47.28.01.49.25.48.52-.01.27-.23.48-.5.48ZM63.54 18c-.28 0-.5-.22-.5-.5v-6.78c0-.28.22-.5.5-.5s.5.22.5.5v6.78c0 .28-.22.5-.5.5Zm6.71 1.25c-.17 0-.34-.09-.43-.25a.493.493 0 0 1 .18-.68c.77-.45 2.7-2.73 2.7-5.47 0-.28.22-.5.5-.5s.5.22.5.5c0 3.12-2.12 5.7-3.2 6.33-.08.05-.17.07-.25.07Zm5.5 3.27c-.19 0-.37-.11-.46-.29-.11-.25 0-.55.25-.66 1.48-.67 3.45-2 4.38-4.58a.501.501 0 0 1 .94.34c-1.05 2.9-3.25 4.41-4.91 5.15-.07.03-.14.04-.2.04Zm4.65 4.61c-.27 0-.49-.21-.5-.48-.01-.28.2-.51.48-.52 1.43-.06 3.18-1.51 3.76-2.47a.502.502 0 1 1 .86.52c-.69 1.16-2.72 2.87-4.57 2.96h-.02Z"/><path d="M63.54 18c-.28 0-.5-.22-.5-.5v-6.78c0-.28.22-.5.5-.5s.5.22.5.5v6.78c0 .28-.22.5-.5.5Z"/></g></svg>