<svg xmlns="http://www.w3.org/2000/svg" data-name="Layer 2" viewBox="0 0 158.99 136.62"><path d="M107.36 4.69c-9.97 0-19.6 2.82-27.86 8.16-8.27-5.34-17.89-8.16-27.86-8.16C23.16 4.69 0 27.85 0 56.32c0 26.79 18.46 46.82 33.94 58.91 13.62 10.63 33.64 21.4 45.56 21.4 11.92 0 31.94-10.76 45.56-21.4C140.54 103.14 159 83.11 159 56.32c0-28.47-23.16-51.63-51.63-51.63Z"/><path d="M79.49 131.44c-11.81 0-31.7-10.71-45.25-21.29C18.85 98.13.5 78.22.5 51.63.5 23.44 23.44.5 51.63.5c10.05 0 19.6 2.84 27.86 8.25C87.76 3.34 97.31.5 107.36.5c28.19 0 51.13 22.94 51.13 51.13 0 26.59-18.35 46.49-33.75 58.52-13.55 10.58-33.44 21.29-45.25 21.29Z" style="fill:#fff"/><path d="M79.49 131.94c-11.92 0-31.94-10.76-45.56-21.4C18.46 98.45 0 78.42 0 51.63 0 23.16 23.16 0 51.63 0c9.97 0 19.6 2.82 27.86 8.16C87.76 2.82 97.39 0 107.36 0c28.47 0 51.63 23.16 51.63 51.63 0 26.79-18.46 46.82-33.94 58.91-13.62 10.63-33.64 21.4-45.56 21.4ZM51.63 1C23.71 1 1 23.71 1 51.63c0 26.39 18.25 46.17 33.55 58.12 13.48 10.53 33.25 21.18 44.94 21.18 11.69 0 31.46-10.66 44.94-21.18 15.31-11.95 33.55-31.74 33.55-58.12C157.98 23.71 135.27 1 107.35 1c-9.89 0-19.43 2.83-27.59 8.17a.5.5 0 0 1-.55 0C71.06 3.83 61.52 1 51.63 1Z"/><path d="M79.49 126.03c-9.19 0-27.21-8.66-41.92-20.14C23.12 94.61 5.9 76.04 5.9 51.63S26.42 5.9 51.63 5.9c10.19 0 19.92 3.34 27.86 9.48 7.94-6.14 17.67-9.48 27.86-9.48 25.21 0 45.73 20.51 45.73 45.73s-17.22 42.98-31.67 54.26c-14.71 11.48-32.73 20.14-41.92 20.14Z" style="fill:#00bf9f"/><path d="M79.49 126.53c-9.29 0-27.45-8.71-42.23-20.25C22.73 94.93 5.4 76.24 5.4 51.63S26.14 5.4 51.63 5.4c10.19 0 19.82 3.23 27.86 9.35 8.05-6.12 17.67-9.35 27.86-9.35 25.49 0 46.23 20.74 46.23 46.23s-17.33 43.3-31.86 54.65c-14.79 11.54-32.94 20.25-42.23 20.25ZM51.63 6.4C26.69 6.4 6.4 26.69 6.4 51.63s17.12 42.65 31.48 53.86c14.63 11.42 32.52 20.04 41.61 20.04 9.09 0 26.98-8.61 41.61-20.04 14.36-11.21 31.47-29.66 31.47-53.86S132.29 6.4 107.36 6.4c-10.1 0-19.62 3.24-27.56 9.38-.18.14-.43.14-.61 0C71.26 9.65 61.73 6.4 51.63 6.4Z"/><path d="M79.49 120.63c-6.86 0-23.57-7.26-38.6-19-13.5-10.54-29.59-27.77-29.59-50s18.1-40.32 40.33-40.32c10.51 0 20.4 4.03 27.86 11.21 7.47-7.18 17.35-11.21 27.86-11.21 22.23 0 40.32 18.09 40.32 40.32s-16.09 39.46-29.59 50c-15.03 11.74-31.74 19-38.6 19Z" style="fill:#9a7eff"/><path d="M79.49 121.13c-6.94 0-23.79-7.31-38.9-19.11C27 91.41 10.81 74.06 10.81 51.63s18.31-40.82 40.82-40.82c10.42 0 20.3 3.91 27.86 11.02 7.56-7.11 17.44-11.02 27.86-11.02 22.51 0 40.82 18.31 40.82 40.82s-16.2 39.78-29.78 50.39c-15.11 11.8-31.96 19.11-38.9 19.11ZM51.63 11.81c-21.96 0-39.82 17.86-39.82 39.82s15.99 39.13 29.4 49.6c14.94 11.67 31.51 18.89 38.29 18.89 6.78 0 23.34-7.22 38.29-18.89 13.41-10.47 29.4-27.58 29.4-49.6s-17.86-39.82-39.82-39.82c-10.32 0-20.1 3.93-27.52 11.07-.19.19-.5.19-.69 0-7.42-7.14-17.19-11.07-27.52-11.07Z"/><path d="M107.36 16.19c-11.32 0-21.38 5.33-27.86 13.59-6.49-8.26-16.54-13.59-27.86-13.59-19.57 0-35.44 15.87-35.44 35.44 0 37.57 52.8 64.11 63.3 64.11s63.3-26.54 63.3-64.11c0-19.57-15.87-35.44-35.44-35.44Z" style="fill:#ffd70e"/><path d="M79.49 116.24c-10.61 0-63.8-26.76-63.8-64.61 0-19.82 16.12-35.94 35.94-35.94 10.87 0 20.99 4.83 27.86 13.29 6.87-8.45 16.99-13.29 27.86-13.29 19.82 0 35.94 16.12 35.94 35.94 0 37.85-53.19 64.61-63.8 64.61ZM51.63 16.69c-19.26 0-34.94 15.67-34.94 34.94 0 37.27 52.36 63.61 62.8 63.61 10.44 0 62.8-26.34 62.8-63.61 0-19.26-15.67-34.94-34.94-34.94-10.77 0-20.78 4.88-27.47 13.4-.19.24-.6.24-.79 0-6.69-8.51-16.7-13.4-27.47-13.4Z"/><path d="M133.91 61.41c-.22-.25-.53-.24-.93.04-.45.32-.86.87-1.22 1.67-1.05 2.38-1.98 4.26-2.78 5.56-.81 1.3-1.85 2.42-3.15 3.28-1.81 1.19-3.15 1.02-3.99-.49 3.86-3.35 6.45-6.59 7.97-9.38 1.51-2.81 2.26-5.37 2.24-7.85-.02-2.12-.58-3.53-1.73-4.36-1.14-.83-2.67-.97-4.58-.35-2.14.69-4.07 1.97-5.76 3.99-1.69 2.02-2.99 4.51-3.89 7.5-.31 1.01-.53 2.04-.72 3.07-1.63.98-3.02 1.69-4.09 2.1.75-2.96 1.09-5.45 1.02-7.53-.06-1.8-.41-3.1-1.06-3.91-.65-.82-1.48-1.13-2.48-.94-1.14.22-2.16.88-3.04 2.01-.88 1.13-1.56 2.53-2.05 4.19-.49 1.67-.71 3.34-.66 5.02.05 1.97.36 3.61.93 4.91-.99 2.85-2.5 6.74-4.56 11.72-.71-9.11-1.12-16.61-1.25-22.4-.03-1.36-.27-2.3-.73-2.83-.46-.53-1.14-.74-2.06-.65-1.21.12-2.1.54-2.7 1.26-.6.72-.9 1.93-.91 3.63.01.9.03 1.8.04 2.7.03 1.84.08 3.79.17 5.83-1.62.7-3.08 1.16-4.35 1.37-.33-3.98-1.35-7.27-3.04-9.94s-3.88-4-6.6-4.02c-2.22-.02-4.24.8-6.08 2.46-1.84 1.66-3.3 3.96-4.39 6.93-.98 2.69-1.53 5.75-1.67 9.2-.2-.22-.42-.35-.68-.39-.54-.07-1.04.21-1.48.86-1.38 1.99-2.83 3.31-4.35 3.96-1.52.65-3.32.69-5.38.09-.82-.24-1.75-.67-2.8-1.3-1.05-.63-2.54-1.62-4.46-3-3.29-2.37-5.96-4.33-8.07-5.81.31-1.39.58-3.1.81-5.13.54-4.8 1.08-9.66 1.62-14.58.61-5.32 1.77-9.17 3.51-11.62 1.73-2.44 4.11-3.66 7.15-3.5 1.73.09 3 .74 3.82 2 .82 1.25 1.2 2.93 1.15 5-.03 1.09-.16 2.32-.41 3.68-.17 1.17-.26 1.98-.27 2.42-.03 1.23.22 2.22.77 2.95.54.74 1.31 1.17 2.29 1.28 1.37.16 2.47-.68 3.28-2.52.81-1.84 1.24-4.33 1.3-7.44.08-4.59-.86-8.35-2.8-11.21-1.94-2.86-4.76-4.24-8.48-4.23-2.27 0-4.44.5-6.5 1.41-2.06.92-3.91 2.23-5.54 3.88-1.88 1.91-3.36 4.12-4.45 6.67-1.09 2.55-1.78 5.77-2.08 9.77-.45 5.82-.89 11.56-1.32 17.23-.21-.12-.42-.23-.62-.35-2.49-1.42-4.44-2.04-5.87-1.89-1.43.15-2.12.95-2.12 2.64 0 1.37.48 2.94 1.46 4.75.97 1.8 2.28 3.49 3.99 4.91 3.11 2.59 5.62 2.4 7.4-.6 1.71 1.68 3.52 3.56 5.41 5.66 2.09 2.25 3.91 4.01 5.42 5.29 1.51 1.28 3.19 2.28 5.04 2.95 2.63.95 4.94.95 6.88.07 1.94-.88 3.97-2.86 6.07-5.98.29-.44.51-.98.69-1.57.17.99.38 1.98.67 2.93.77 2.59 1.93 4.75 3.5 6.42 1.56 1.68 3.47 2.6 5.71 2.69 2.65.1 5.03-1.27 7.1-4.01 2.07-2.74 3.42-6.38 4.07-10.8 1.83-.26 3.53-.81 5.13-1.58.1 1.61.22 3.26.35 4.97.28 3.51.86 6.01 1.75 7.48.89 1.47 2.09 2.03 3.59 1.65 1.35-.34 2.53-1.2 3.56-2.56 1.02-1.35 2.21-3.67 3.55-6.9 1.18-2.83 2.23-5.53 3.18-8.1 1.38.14 2.83-.08 4.34-.66.8-.3 1.56-.69 2.3-1.13.32 3.53 1.3 6.09 2.9 7.46 1.85 1.59 4.35 1.3 7.37-.93 1.99-1.46 3.63-3.31 4.99-5.36 1.36-2.05 2.43-4.21 3.24-6.42.5-1.34.75-2.61.75-3.85 0-.72-.11-1.2-.34-1.45Zm-54.3 21.87c-.87 1.37-1.9 2.04-3.08 2.01-1.07-.03-2-.83-2.79-2.39-.78-1.56-1.16-3.78-1.14-6.64.03-3.65.53-6.44 1.5-8.41.97-1.97 2.17-2.94 3.62-2.93h.27c-.11.84-.17 1.67-.17 2.51 0 1.99.29 3.87.89 5.65.6 1.78 1.47 3.22 2.61 4.29-.29 2.57-.86 4.54-1.73 5.91Zm41.34-16.53c-.08-2.6.28-5 1.08-7.14.79-2.14 1.8-3.41 3.01-3.89.59-.24 1.06-.2 1.41.11.35.31.53.83.55 1.57.03 1.45-.49 2.99-1.56 4.66s-2.56 3.31-4.49 4.82v-.13Z"/><path d="M133.96 56.71c-.23-.26-.54-.25-.93.02-.46.31-.87.86-1.23 1.66-1.05 2.37-1.98 4.25-2.79 5.55-.81 1.3-1.85 2.41-3.16 3.25-1.81 1.17-3.16.99-4-.54 3.87-3.32 6.47-6.54 7.99-9.33 1.52-2.81 2.26-5.38 2.24-7.87-.02-2.13-.59-3.56-1.74-4.4-1.15-.84-2.68-.98-4.59-.37-2.15.69-4.08 1.97-5.76 3.99-1.69 2.02-2.99 4.51-3.89 7.49-.31 1.01-.53 2.03-.73 3.07-1.64.97-3.02 1.68-4.1 2.08.75-2.95 1.09-5.44 1.02-7.51-.06-1.8-.41-3.09-1.06-3.91-.65-.82-1.48-1.13-2.48-.94-1.14.22-2.16.88-3.04 2-.88 1.13-1.57 2.52-2.05 4.18-.49 1.66-.71 3.33-.67 5 .05 1.96.36 3.6.93 4.9-.99 2.84-2.5 6.72-4.56 11.67-.71-9.09-1.12-16.56-1.24-22.33-.03-1.35-.27-2.29-.73-2.82-.46-.53-1.14-.74-2.06-.65-1.21.12-2.11.53-2.7 1.25-.59.72-.9 1.92-.91 3.62.01.9.03 1.79.04 2.69.03 1.83.08 3.77.16 5.81-1.62.7-3.08 1.15-4.35 1.36-.33-3.96-1.35-7.24-3.03-9.9-1.69-2.66-3.88-3.98-6.6-4-2.22-.02-4.24.8-6.08 2.45-1.84 1.65-3.3 3.94-4.39 6.9-.98 2.68-1.52 5.73-1.67 9.17-.2-.21-.42-.35-.68-.38-.54-.07-1.04.21-1.48.86-1.38 1.98-2.83 3.3-4.35 3.96-1.52.66-3.32.7-5.38.11-.82-.23-1.75-.66-2.8-1.29-1.05-.63-2.55-1.6-4.46-2.98-3.29-2.35-5.97-4.3-8.08-5.76.31-1.39.58-3.11.82-5.14.54-4.8 1.08-9.67 1.62-14.59.61-5.32 1.77-9.17 3.5-11.62 1.73-2.44 4.11-3.64 7.15-3.48 1.73.1 3 .75 3.82 2 .82 1.25 1.2 2.92 1.15 4.99-.03 1.09-.16 2.31-.41 3.67-.17 1.17-.26 1.97-.27 2.41-.03 1.23.22 2.21.77 2.95.54.73 1.31 1.17 2.29 1.28 1.37.16 2.47-.68 3.28-2.51.81-1.83 1.24-4.31 1.3-7.41.08-4.57-.86-8.33-2.81-11.18-1.95-2.86-4.77-4.24-8.49-4.25-2.27 0-4.44.48-6.5 1.38-2.06.91-3.91 2.21-5.54 3.86-1.88 1.9-3.36 4.11-4.45 6.66-1.09 2.56-1.78 5.78-2.09 9.79-.45 5.83-.89 11.6-1.33 17.29-.21-.11-.42-.23-.63-.35-2.5-1.4-4.45-2-5.9-1.83-1.44.17-2.13 1-2.13 2.7 0 1.39.48 2.96 1.46 4.76.98 1.79 2.3 3.46 4.01 4.85 3.12 2.54 5.64 2.32 7.43-.7 1.72 1.66 3.52 3.53 5.42 5.61 2.1 2.23 3.92 3.98 5.43 5.24 1.51 1.26 3.2 2.26 5.05 2.91 2.64.93 4.95.92 6.88.04 1.94-.88 3.97-2.86 6.07-5.98.29-.44.51-.97.69-1.57.17.99.38 1.97.67 2.92.77 2.58 1.93 4.72 3.5 6.39 1.56 1.67 3.47 2.59 5.71 2.67 2.65.1 5.03-1.26 7.1-3.99 2.07-2.73 3.42-6.35 4.07-10.75 1.83-.26 3.53-.8 5.13-1.57.1 1.6.22 3.25.35 4.95.27 3.5.85 5.99 1.75 7.46.89 1.47 2.09 2.03 3.59 1.66 1.35-.33 2.53-1.19 3.56-2.53 1.02-1.34 2.21-3.64 3.56-6.86a212 212 0 0 0 3.19-8.07c1.38.14 2.83-.07 4.35-.64.8-.3 1.56-.68 2.31-1.11.32 3.53 1.3 6.1 2.9 7.48 1.85 1.61 4.36 1.35 7.39-.85 1.99-1.44 3.65-3.26 5.01-5.29a30.9 30.9 0 0 0 3.26-6.4c.5-1.34.75-2.61.75-3.86 0-.73-.11-1.22-.34-1.47ZM79.61 78.29c-.87 1.36-1.89 2.03-3.08 2-1.07-.03-2-.83-2.79-2.38-.78-1.55-1.16-3.76-1.14-6.61.03-3.63.53-6.42 1.5-8.38.97-1.96 2.17-2.93 3.62-2.91h.27c-.11.83-.16 1.67-.17 2.5 0 1.98.29 3.86.89 5.63.6 1.77 1.47 3.2 2.61 4.27-.29 2.56-.86 4.53-1.73 5.89Zm41.35-16.37c-.08-2.6.28-5.01 1.08-7.15.79-2.14 1.81-3.41 3.02-3.89.59-.23 1.06-.19 1.41.12.35.31.53.84.55 1.58.03 1.45-.49 2.99-1.56 4.67-1.07 1.67-2.56 3.3-4.5 4.8v-.13Z" style="fill:#ff7ec8"/><path d="M76.33 89.06h-.29c-2.34-.09-4.38-1.04-6.05-2.83-1.6-1.7-2.81-3.92-3.61-6.59-.13-.43-.25-.89-.36-1.38-.03.05-.07.11-.1.16-2.12 3.16-4.24 5.23-6.28 6.16-2.08.95-4.52.94-7.25-.02-1.85-.65-3.6-1.66-5.2-3-1.57-1.31-3.41-3.09-5.48-5.28-1.71-1.88-3.37-3.61-4.97-5.17-.83 1.2-1.82 1.91-2.95 2.11-1.46.26-3.1-.35-4.89-1.8-1.67-1.35-3.06-3.04-4.13-5-1.02-1.89-1.52-3.52-1.52-5 0-1.92.87-2.99 2.58-3.2 1.56-.18 3.57.43 6.14 1.86.41-5.44.84-10.94 1.27-16.51.31-4.07 1-7.33 2.12-9.95 1.11-2.58 2.64-4.88 4.56-6.82 1.7-1.72 3.61-3.05 5.69-3.97 2.17-.95 4.38-1.43 6.7-1.42 3.89 0 6.89 1.51 8.9 4.47 2.01 2.94 2.98 6.8 2.9 11.47-.06 3.16-.51 5.72-1.34 7.6-.91 2.04-2.18 2.99-3.79 2.81-1.12-.13-2.01-.62-2.64-1.48-.61-.82-.9-1.92-.87-3.25.01-.46.1-1.27.28-2.47.24-1.34.37-2.55.4-3.61.05-1.96-.31-3.55-1.07-4.71-.73-1.11-1.85-1.69-3.43-1.78-2.81-.15-5.07.95-6.72 3.27-1.67 2.37-2.82 6.2-3.41 11.38-.54 4.92-1.08 9.78-1.62 14.59-.21 1.88-.47 3.51-.75 4.86 1.43.99 3.11 2.2 5.04 3.58l2.78 1.99c2.16 1.54 3.6 2.46 4.43 2.95 1 .6 1.9 1.01 2.68 1.24 1.93.55 3.63.52 5.04-.09 1.43-.62 2.82-1.89 4.13-3.78.7-1.01 1.45-1.14 1.96-1.07.05 0 .11.02.16.03.2-3.17.75-6.03 1.65-8.49 1.11-3.01 2.63-5.4 4.52-7.1 1.91-1.71 4.05-2.58 6.35-2.58h.06c2.89.02 5.25 1.44 7.01 4.23 1.65 2.6 2.68 5.82 3.06 9.58 1.03-.22 2.16-.58 3.39-1.09-.08-1.96-.13-3.8-.15-5.48l-.04-2.69c.01-1.84.35-3.13 1.02-3.94s1.69-1.29 3.03-1.43c1.09-.11 1.92.16 2.49.82.54.63.81 1.65.85 3.13.12 5.4.48 12.2 1.08 20.21 1.56-3.8 2.8-7 3.69-9.53-.54-1.32-.84-2.96-.89-4.9-.04-1.71.19-3.45.69-5.16.5-1.71 1.22-3.17 2.14-4.35.95-1.21 2.07-1.95 3.34-2.19 1.18-.23 2.2.16 2.97 1.12.72.91 1.11 2.29 1.17 4.21.06 1.9-.21 4.1-.81 6.69.84-.38 1.82-.9 2.93-1.56.21-1.11.43-2.03.7-2.9.91-3.01 2.25-5.59 3.99-7.67 1.7-2.04 3.66-3.4 5.99-4.14 2.04-.65 3.74-.51 5.04.44 1.29.94 1.92 2.51 1.94 4.8.02 2.55-.73 5.2-2.3 8.11-1.64 3-4.32 6.17-7.78 9.19.26.36.56.57.9.66.57.14 1.3-.07 2.18-.64 1.19-.77 2.2-1.81 3-3.09.75-1.2 1.65-3 2.76-5.49.39-.87.86-1.5 1.4-1.87.86-.6 1.4-.16 1.59.06.32.36.46.93.47 1.8 0 1.31-.25 2.63-.78 4.04-.86 2.32-1.98 4.51-3.31 6.5-1.48 2.21-3.21 4.03-5.13 5.42-4.05 2.92-6.59 2.06-8.02.82-1.58-1.37-2.58-3.74-2.99-7.05-.58.31-1.15.57-1.71.78-1.45.54-2.85.77-4.19.7-.93 2.49-1.96 5.09-3.06 7.73-1.37 3.26-2.58 5.61-3.62 6.97-1.1 1.45-2.39 2.36-3.83 2.72-1.7.42-3.13-.23-4.13-1.88-.94-1.54-1.53-4.05-1.82-7.68-.11-1.45-.21-2.86-.31-4.24-1.38.6-2.8 1.02-4.24 1.25-.69 4.35-2.07 7.92-4.11 10.61-2.11 2.78-4.54 4.19-7.22 4.19ZM66.19 76.07h.03c.23.01.42.18.46.41.19 1.09.4 2.03.65 2.86.75 2.52 1.89 4.6 3.38 6.19 1.49 1.59 3.29 2.43 5.36 2.51 2.47.09 4.7-1.18 6.68-3.79 1.99-2.63 3.33-6.17 3.98-10.52.03-.22.21-.39.42-.42 1.7-.24 3.38-.76 4.98-1.53a.49.49 0 0 1 .47.02.5.5 0 0 1 .25.4c.1 1.6.22 3.25.35 4.95.27 3.42.83 5.85 1.68 7.24.77 1.28 1.77 1.75 3.04 1.43 1.22-.3 2.32-1.09 3.28-2.35.99-1.3 2.16-3.57 3.49-6.75a211.7 211.7 0 0 0 3.18-8.05.5.5 0 0 1 .52-.32c1.29.13 2.68-.07 4.12-.61.73-.27 1.45-.62 2.23-1.08.15-.09.33-.09.48-.01.15.08.25.23.27.4.31 3.4 1.26 5.88 2.73 7.15 1.68 1.46 3.95 1.16 6.77-.88 1.83-1.32 3.47-3.06 4.88-5.17a30.53 30.53 0 0 0 3.21-6.29c.48-1.29.71-2.5.71-3.69 0-.81-.15-1.07-.21-1.14s-.02-.02-.02-.02-.08 0-.25.12c-.39.27-.74.76-1.06 1.45-1.12 2.53-2.04 4.36-2.82 5.61-.88 1.41-1.99 2.55-3.31 3.4-1.12.72-2.11.98-2.97.77-.71-.18-1.3-.68-1.75-1.49a.502.502 0 0 1 .11-.62c3.52-3.02 6.24-6.2 7.88-9.19 1.49-2.76 2.2-5.25 2.18-7.63-.02-1.95-.52-3.26-1.53-4-1.03-.75-2.42-.85-4.14-.3-2.15.69-3.95 1.94-5.53 3.83-1.65 1.97-2.92 4.43-3.8 7.31-.27.89-.5 1.84-.71 3.01-.03.14-.11.26-.24.34-1.66.99-3.07 1.71-4.18 2.12-.17.07-.37.03-.51-.1a.487.487 0 0 1-.15-.5c.74-2.92 1.07-5.34 1.01-7.38-.05-1.67-.37-2.89-.95-3.62-.54-.68-1.18-.92-2-.76-1.04.2-1.94.79-2.74 1.82-.84 1.08-1.5 2.43-1.97 4.01-.47 1.61-.69 3.24-.65 4.85.05 1.9.35 3.48.88 4.71.05.12.06.25.01.37-1.04 2.99-2.58 6.92-4.57 11.7a.5.5 0 0 1-.96-.15c-.7-8.95-1.11-16.47-1.24-22.36-.03-1.53-.35-2.2-.6-2.5-.34-.4-.88-.55-1.63-.47-1.09.11-1.86.46-2.36 1.07-.52.62-.78 1.73-.79 3.3l.04 2.68c.03 1.77.08 3.72.16 5.8 0 .21-.11.4-.3.48-1.64.71-3.14 1.17-4.47 1.4a.495.495 0 0 1-.39-.1.494.494 0 0 1-.19-.35c-.32-3.83-1.32-7.09-2.96-9.68-1.6-2.52-3.62-3.75-6.18-3.77h-.06c-2.08 0-3.94.76-5.68 2.32-1.77 1.59-3.2 3.84-4.25 6.7-.94 2.58-1.49 5.61-1.64 9.02 0 .2-.14.38-.33.45s-.4.02-.54-.13c-.12-.13-.25-.21-.38-.23-.13-.02-.51-.07-1.01.65-1.42 2.05-2.96 3.44-4.56 4.13-1.63.71-3.56.75-5.72.13-.87-.25-1.85-.7-2.92-1.34-.84-.5-2.31-1.44-4.5-3l-2.78-1.99c-2.05-1.47-3.82-2.74-5.3-3.76a.486.486 0 0 1-.2-.52c.31-1.38.58-3.09.81-5.08.54-4.8 1.08-9.66 1.62-14.59.62-5.43 1.8-9.31 3.59-11.85 1.86-2.62 4.41-3.86 7.59-3.69 1.89.1 3.31.85 4.21 2.23.87 1.33 1.29 3.11 1.23 5.28-.03 1.11-.17 2.37-.41 3.75-.16 1.13-.25 1.92-.26 2.34-.03 1.11.2 2 .67 2.63.47.63 1.1.98 1.95 1.08 1.14.13 2.05-.6 2.77-2.22.78-1.76 1.2-4.19 1.26-7.22.08-4.46-.84-8.12-2.72-10.89-1.84-2.7-4.48-4.02-8.08-4.03-2.15.03-4.26.44-6.3 1.34-1.96.86-3.78 2.13-5.38 3.75-1.83 1.85-3.29 4.04-4.35 6.51-1.08 2.52-1.75 5.67-2.05 9.63-.45 5.83-.89 11.6-1.33 17.29-.01.17-.11.32-.26.4a.51.51 0 0 1-.48 0l-.63-.35c-2.38-1.33-4.26-1.92-5.59-1.77-1.2.14-1.69.78-1.69 2.2 0 1.3.46 2.78 1.4 4.52 1.01 1.85 2.32 3.43 3.88 4.7 1.55 1.26 2.92 1.8 4.08 1.59.98-.18 1.86-.9 2.6-2.16.08-.13.21-.22.36-.24.16-.02.31.03.41.14 1.74 1.68 3.57 3.58 5.44 5.64 2.03 2.16 3.85 3.91 5.38 5.19 1.51 1.26 3.15 2.21 4.89 2.82 2.48.88 4.67.9 6.51.06 1.87-.85 3.84-2.81 5.86-5.81.24-.36.44-.83.62-1.43.06-.21.26-.36.48-.36Zm10.43 4.72h-.1c-1.26-.04-2.35-.93-3.22-2.66-.81-1.61-1.21-3.91-1.19-6.84.03-3.68.55-6.57 1.55-8.59 1.06-2.14 2.43-3.22 4.07-3.19H78c.14 0 .28.07.37.17.09.11.14.25.12.39-.11.8-.16 1.62-.16 2.43 0 1.92.29 3.76.87 5.47.58 1.7 1.41 3.07 2.48 4.07.12.11.17.26.16.42-.3 2.63-.9 4.68-1.8 6.1-.94 1.48-2.09 2.23-3.42 2.23Zm.82-20.27c-1.12.11-2.06.98-2.88 2.62-.94 1.89-1.42 4.64-1.45 8.16-.02 2.77.34 4.92 1.08 6.38.69 1.38 1.49 2.08 2.35 2.11 1.02.05 1.87-.55 2.64-1.77.79-1.24 1.34-3.07 1.62-5.43-1.1-1.1-1.96-2.54-2.56-4.3-.61-1.81-.92-3.76-.92-5.79 0-.66.04-1.33.1-1.99Zm2.17 17.77Zm41.36-15.74a.513.513 0 0 1-.5-.49v-.12c-.08-2.67.29-5.14 1.11-7.34.84-2.26 1.92-3.63 3.3-4.18.96-.38 1.58-.1 1.93.21.47.41.7 1.05.72 1.95.03 1.56-.5 3.17-1.64 4.95-1.15 1.79-2.7 3.44-4.61 4.92a.5.5 0 0 1-.31.1Zm4.78-11.31c-.13 0-.29.03-.51.11-1.09.43-2.01 1.64-2.74 3.6-.68 1.83-1.03 3.86-1.06 6.06 1.46-1.24 2.67-2.59 3.59-4.03 1.02-1.6 1.51-3.03 1.48-4.38-.01-.59-.14-1-.38-1.22-.05-.05-.16-.14-.39-.14Z"/></svg>