<svg xmlns="http://www.w3.org/2000/svg" width="102" height="102" fill="none"><path fill="#E5A0FA" fill-rule="evenodd" stroke="#26132B" d="M92.148 72.465c-.665 1.85-1.27 3.638-1.956 5.382l-3.017 8.262-4.338 10.37a3 3 0 0 1-4.075 1.542l-13.845-6.707c-17.199-8.063-42.388-20.222-51.823-26.999-14.22-10.212-15.57-33.18.126-42.944 11.916-7.413 17.727-3.213 24.728-.213l7.864 3.127a.493.493 0 0 0 .673-.394C47.967 13.641 55.78 7.066 64.55 3.364c15.936-6.727 32.453-2.192 35.678 25.215 1.557 13.253-3.037 29.839-8.08 43.886Z" clip-rule="evenodd"/><path fill="#26132B" d="m71.046 61.004 1.285 10.905c.345 2.924 4.065 3.56 5.202.844 4.264-10.188 8.76-24.531 7.496-35.354-2.125-18.18-13.102-21.178-23.7-16.704-7.444 3.142-9.57 14.91-9.796 22.432-.048 1.6 1.266 2.87 2.867 2.884l5.24.045c2.212.02 3.644 2.345 2.664 4.329l-1.485 3.006a3 3 0 0 0 2.307 4.304l5.324.685a3 3 0 0 1 2.596 2.624Z"/><path fill="#26132B" d="m69.156 63.606 1.599 11.177c.337 2.354-2.06 4.143-4.209 3.126-11.376-5.38-28.972-14.088-35.47-18.742-9.447-6.765-10.329-22.001.113-28.49 7.507-4.665 14.874-1.166 18.501 1.846.712.591 1.007 1.524.884 2.44l-1.322 9.853a3 3 0 0 0 2.635 3.38l4.105.466c2.138.243 3.333 2.59 2.272 4.46l-.974 1.718a3 3 0 0 0 1.898 4.394l7.71 1.883a3 3 0 0 1 2.258 2.489Z"/></svg>