<svg xmlns="http://www.w3.org/2000/svg" id="Layer_2" data-name="Layer 2" viewBox="0 0 141.15 143.21"><defs><style>.cls-2{fill:#ff7ec8}.cls-3{fill:#fff}</style></defs><g id="OBJECTS"><path d="M138.5 80.22c1.3-2.09 2.65-4.26 2.65-6.61S139.8 69.1 138.5 67c-1.06-1.7-2.06-3.31-2.35-4.95-.3-1.72.11-3.7.52-5.62.5-2.38 1.01-4.83.24-6.96-.79-2.18-2.79-3.74-4.73-5.25-1.59-1.25-3.1-2.42-3.95-3.89-.86-1.49-1.15-3.48-1.43-5.41-.35-2.41-.71-4.91-2.18-6.66-1.48-1.76-3.87-2.54-6.19-3.3-1.85-.61-3.76-1.23-5.07-2.33-1.31-1.1-2.25-2.87-3.16-4.58-1.15-2.16-2.34-4.39-4.33-5.55-1.97-1.14-4.49-1.07-6.92-.99-1.95.06-3.97.12-5.6-.47-1.58-.58-2.99-1.85-4.49-3.19-1.83-1.64-3.72-3.35-6.02-3.75-2.21-.38-4.53.54-6.77 1.44-1.83.73-3.72 1.49-5.48 1.49s-3.65-.76-5.48-1.49c-2.24-.9-4.56-1.83-6.77-1.44-2.3.4-4.19 2.11-6.02 3.75-1.5 1.35-2.91 2.62-4.49 3.19-1.62.59-3.64.53-5.6.47-2.43-.08-4.95-.15-6.92.99-1.99 1.15-3.18 3.39-4.33 5.55-.91 1.71-1.86 3.49-3.16 4.58-1.31 1.1-3.22 1.73-5.07 2.33-2.32.76-4.72 1.54-6.19 3.3-1.47 1.75-1.83 4.24-2.18 6.66-.28 1.93-.57 3.93-1.43 5.41-.85 1.47-2.36 2.64-3.95 3.89-1.93 1.51-3.93 3.07-4.73 5.25-.78 2.13-.26 4.58.24 6.96.4 1.92.82 3.9.52 5.62-.29 1.64-1.29 3.25-2.35 4.95-1.3 2.09-2.65 4.26-2.65 6.61s1.35 4.51 2.65 6.61c1.06 1.7 2.06 3.31 2.35 4.95.3 1.72-.11 3.7-.52 5.62-.5 2.38-1.01 4.83-.24 6.96.79 2.18 2.79 3.74 4.73 5.25 1.59 1.25 3.1 2.42 3.95 3.89.86 1.49 1.15 3.48 1.43 5.41.35 2.41.71 4.91 2.18 6.66 1.48 1.76 3.87 2.54 6.19 3.3 1.85.61 3.76 1.23 5.07 2.33 1.31 1.1 2.25 2.87 3.16 4.58 1.15 2.16 2.34 4.39 4.33 5.55 1.97 1.14 4.49 1.06 6.92.99 1.95-.06 3.97-.12 5.6.47 1.58.58 2.99 1.85 4.49 3.19 1.83 1.64 3.72 3.35 6.02 3.75 2.21.39 4.53-.54 6.77-1.44 1.83-.73 3.72-1.49 5.48-1.49s3.65.76 5.48 1.49c1.88.76 3.82 1.53 5.7 1.53.36 0 .72-.03 1.07-.09 2.3-.4 4.19-2.1 6.02-3.75 1.5-1.35 2.91-2.62 4.49-3.19 1.63-.59 3.65-.53 5.6-.47 2.43.08 4.95.15 6.92-.99 1.99-1.15 3.18-3.39 4.33-5.55.91-1.71 1.86-3.49 3.16-4.58 1.31-1.1 3.22-1.73 5.07-2.33 2.32-.76 4.72-1.54 6.19-3.3 1.47-1.75 1.83-4.24 2.18-6.66.28-1.93.57-3.93 1.43-5.41.85-1.47 2.36-2.64 3.95-3.89 1.93-1.51 3.93-3.07 4.73-5.25.78-2.13.26-4.58-.24-6.96-.4-1.92-.82-3.9-.52-5.62.29-1.64 1.29-3.25 2.35-4.95Z"/><path d="M140.65 69.6c0 4.03-4.32 7.63-5 11.47-.69 3.95 2.12 8.81.78 12.49-1.37 3.75-6.66 5.65-8.64 9.06-1.99 3.44-1.01 8.98-3.56 12-2.55 3.03-8.17 3.02-11.21 5.57-3.02 2.54-3.98 8.09-7.42 10.08-3.41 1.97-8.69.05-12.43 1.42-3.68 1.34-6.48 6.23-10.43 6.92-3.84.68-8.14-2.94-12.17-2.94-4.03 0-8.33 3.62-12.17 2.94-3.95-.69-6.74-5.58-10.43-6.92-3.75-1.37-9.03.55-12.43-1.42-3.44-1.99-4.4-7.54-7.42-10.08-3.03-2.55-8.66-2.54-11.21-5.57-2.54-3.02-1.56-8.56-3.56-12-1.97-3.41-7.27-5.31-8.64-9.06-1.34-3.68 1.47-8.55.78-12.49-.68-3.84-5-7.44-5-11.47s4.32-7.63 5-11.47c.69-3.95-2.12-8.81-.78-12.49 1.37-3.75 6.66-5.65 8.64-9.06 1.99-3.44 1.01-8.98 3.56-12 2.55-3.03 8.17-3.02 11.21-5.57 3.02-2.54 3.98-8.09 7.42-10.08 3.41-1.97 8.69-.05 12.43-1.42C51.65 6.17 54.45 1.28 58.4.59c3.84-.68 8.14 2.94 12.17 2.94S78.9-.09 82.74.58c3.95.69 6.74 5.58 10.43 6.92 3.75 1.37 9.03-.55 12.43 1.42 3.44 1.99 4.4 7.54 7.42 10.08 3.03 2.55 8.66 2.54 11.21 5.57 2.54 3.02 1.56 8.56 3.56 12 1.97 3.41 7.27 5.31 8.64 9.06 1.34 3.68-1.47 8.55-.78 12.49.68 3.84 5 7.44 5 11.47Z" class="cls-3"/><path d="M81.76 139.2c-1.88 0-3.82-.78-5.7-1.53-1.83-.73-3.72-1.49-5.48-1.49-1.76 0-3.65.76-5.48 1.49-2.24.9-4.56 1.83-6.77 1.44-2.3-.4-4.19-2.11-6.02-3.75-1.5-1.35-2.91-2.62-4.49-3.19-1.62-.59-3.65-.53-5.6-.47-2.43.08-4.95.15-6.92-.99-1.99-1.16-3.18-3.39-4.33-5.55-.91-1.71-1.86-3.49-3.16-4.58-1.31-1.1-3.22-1.73-5.07-2.33-2.32-.76-4.72-1.54-6.19-3.3-1.47-1.75-1.83-4.24-2.18-6.66-.28-1.93-.57-3.93-1.43-5.41-.85-1.47-2.36-2.64-3.95-3.89-1.93-1.51-3.93-3.07-4.73-5.25-.78-2.13-.26-4.58.24-6.96.4-1.92.82-3.9.52-5.62-.29-1.64-1.29-3.25-2.35-4.95C1.37 74.12.02 71.95.02 69.6s1.35-4.51 2.65-6.61c1.06-1.7 2.06-3.31 2.35-4.95.3-1.72-.11-3.7-.52-5.62-.5-2.37-1.01-4.83-.24-6.96.79-2.18 2.79-3.74 4.73-5.25 1.59-1.25 3.1-2.42 3.95-3.89.86-1.49 1.15-3.48 1.43-5.41.35-2.41.71-4.91 2.18-6.66 1.48-1.76 3.87-2.54 6.19-3.3 1.85-.6 3.76-1.23 5.07-2.33 1.31-1.1 2.25-2.87 3.16-4.58 1.15-2.16 2.34-4.39 4.33-5.55 1.97-1.14 4.48-1.07 6.92-.99 1.95.06 3.97.12 5.6-.47 1.58-.58 2.99-1.85 4.49-3.19C54.14 2.2 56.03.49 58.33.09c2.21-.39 4.53.54 6.77 1.44 1.83.73 3.72 1.49 5.48 1.49s3.65-.76 5.48-1.49C78.3.63 80.62-.3 82.83.09c2.3.4 4.19 2.11 6.02 3.75 1.5 1.35 2.91 2.62 4.49 3.19 1.62.59 3.65.53 5.6.47 2.43-.08 4.95-.15 6.92.99 1.99 1.16 3.18 3.39 4.33 5.55.91 1.71 1.86 3.49 3.16 4.58 1.31 1.1 3.22 1.73 5.07 2.33 2.32.76 4.72 1.54 6.19 3.3 1.47 1.75 1.83 4.24 2.18 6.66.28 1.93.57 3.93 1.43 5.41.85 1.47 2.36 2.64 3.95 3.89 1.93 1.51 3.93 3.07 4.73 5.25.78 2.13.26 4.58-.24 6.96-.4 1.92-.82 3.9-.52 5.62.29 1.64 1.29 3.25 2.35 4.95 1.3 2.09 2.65 4.26 2.65 6.61s-1.35 4.51-2.65 6.61c-1.06 1.7-2.06 3.31-2.35 4.95-.3 1.72.11 3.7.52 5.62.5 2.37 1.01 4.83.24 6.96-.79 2.18-2.79 3.74-4.73 5.25-1.59 1.25-3.1 2.42-3.95 3.89-.86 1.49-1.15 3.48-1.43 5.41-.35 2.41-.71 4.91-2.18 6.66-1.48 1.76-3.87 2.54-6.19 3.3-1.85.6-3.76 1.23-5.07 2.33-1.31 1.1-2.25 2.87-3.16 4.58-1.15 2.16-2.34 4.39-4.33 5.55-1.97 1.14-4.49 1.06-6.92.99-1.95-.06-3.97-.12-5.6.47-1.58.58-2.99 1.85-4.49 3.19-1.83 1.65-3.72 3.35-6.02 3.75-.35.06-.71.09-1.07.09Zm-11.19-4.02c1.95 0 3.94.8 5.86 1.57 2.21.89 4.29 1.72 6.22 1.38 2.02-.35 3.8-1.96 5.53-3.51 1.5-1.35 3.06-2.75 4.82-3.39 1.81-.66 3.92-.59 5.97-.53 2.4.07 4.66.14 6.38-.85 1.75-1.01 2.82-3.02 3.95-5.15.96-1.8 1.95-3.66 3.4-4.88 1.46-1.23 3.47-1.88 5.41-2.52 2.29-.75 4.45-1.46 5.74-2.99 1.29-1.53 1.61-3.78 1.95-6.16.29-2.02.59-4.12 1.55-5.77.95-1.63 2.6-2.93 4.2-4.18 1.82-1.42 3.71-2.9 4.4-4.8.68-1.86.22-4.07-.28-6.41-.42-2.01-.86-4.09-.52-6 .32-1.83 1.42-3.6 2.49-5.31 1.23-1.97 2.5-4.02 2.5-6.08s-1.27-4.1-2.5-6.08c-1.06-1.71-2.17-3.48-2.49-5.31-.33-1.91.1-3.99.52-6 .49-2.34.95-4.55.28-6.41-.7-1.91-2.58-3.38-4.4-4.8-1.6-1.25-3.25-2.54-4.2-4.17-.96-1.66-1.26-3.75-1.55-5.77-.34-2.38-.67-4.62-1.95-6.16-1.29-1.54-3.45-2.25-5.74-2.99-1.94-.63-3.95-1.29-5.41-2.52-1.45-1.22-2.44-3.08-3.4-4.88-1.13-2.13-2.2-4.14-3.95-5.15-1.72-1-3.99-.93-6.39-.85-2.05.06-4.16.13-5.97-.53-1.76-.64-3.31-2.04-4.82-3.39-1.73-1.55-3.51-3.15-5.53-3.51-1.93-.34-4.02.5-6.23 1.38-1.92.77-3.9 1.57-5.86 1.57s-3.94-.8-5.86-1.57c-2.21-.89-4.29-1.73-6.22-1.38-2.02.35-3.8 1.96-5.53 3.51-1.5 1.35-3.06 2.75-4.82 3.39-1.81.66-3.92.59-5.97.53-2.4-.08-4.66-.15-6.38.85-1.75 1.01-2.82 3.02-3.95 5.15-.96 1.8-1.95 3.66-3.4 4.88-1.46 1.23-3.47 1.88-5.41 2.52-2.29.75-4.45 1.45-5.74 2.99-1.29 1.53-1.61 3.78-1.95 6.16-.29 2.02-.59 4.12-1.55 5.77-.95 1.63-2.6 2.93-4.2 4.18-1.82 1.42-3.71 2.9-4.4 4.8-.68 1.86-.22 4.07.28 6.41.42 2.01.86 4.09.52 6-.32 1.83-1.42 3.6-2.49 5.31-1.23 1.97-2.5 4.02-2.5 6.08s1.27 4.1 2.5 6.08C4.54 77.4 5.64 79.17 5.97 81c.34 1.91-.1 3.99-.52 6-.49 2.34-.95 4.55-.28 6.41.7 1.91 2.58 3.38 4.4 4.8 1.6 1.25 3.25 2.54 4.2 4.18.96 1.66 1.26 3.75 1.55 5.77.34 2.38.67 4.62 1.95 6.16 1.29 1.54 3.45 2.25 5.74 2.99 1.94.63 3.95 1.29 5.41 2.52 1.45 1.22 2.44 3.08 3.4 4.88 1.13 2.13 2.2 4.14 3.95 5.15 1.72 1 3.99.93 6.38.85 2.05-.06 4.17-.13 5.97.53 1.76.64 3.31 2.04 4.82 3.39 1.73 1.55 3.51 3.15 5.52 3.51 1.93.34 4.02-.5 6.22-1.38 1.92-.77 3.9-1.57 5.86-1.57Z"/><path d="M133.89 69.6c0 3.63-4.29 6.85-4.89 10.3-.62 3.56 2.3 8.04 1.09 11.36-1.23 3.38-6.36 4.93-8.13 8-1.79 3.1-.59 8.31-2.88 11.04-2.3 2.73-7.64 2.44-10.38 4.74-2.72 2.29-3.36 7.61-6.46 9.4-3.07 1.78-7.99-.32-11.37.91-3.32 1.21-5.74 5.99-9.3 6.61-3.46.61-7.36-3.05-10.99-3.05s-7.54 3.65-10.99 3.05c-3.56-.62-5.98-5.4-9.3-6.61-3.38-1.23-8.3.86-11.37-.91-3.1-1.79-3.74-7.11-6.46-9.4-2.73-2.3-8.08-2.01-10.38-4.74-2.29-2.72-1.08-7.94-2.87-11.04-1.78-3.07-6.9-4.62-8.13-8-1.21-3.32 1.71-7.8 1.09-11.36-.61-3.46-4.89-6.67-4.89-10.3s4.29-6.85 4.89-10.3c.62-3.56-2.3-8.04-1.09-11.35 1.23-3.38 6.36-4.93 8.13-8 1.79-3.1.59-8.31 2.88-11.04 2.3-2.73 7.64-2.44 10.38-4.74 2.73-2.29 3.36-7.61 6.46-9.4 3.07-1.78 7.99.32 11.37-.91 3.32-1.21 5.74-5.99 9.3-6.61 3.46-.61 7.36 3.05 10.99 3.05s7.54-3.65 10.99-3.05c3.56.62 5.98 5.4 9.3 6.61 3.38 1.23 8.3-.86 11.37.91 3.1 1.79 3.74 7.11 6.46 9.4 2.73 2.3 8.08 2.01 10.38 4.74 2.29 2.72 1.08 7.94 2.87 11.04 1.78 3.07 6.9 4.62 8.13 8 1.21 3.32-1.71 7.8-1.09 11.36.61 3.46 4.89 6.67 4.89 10.3Z" style="fill:#ffd70e"/><path d="M80.77 132.53c-1.73 0-3.5-.8-5.23-1.58-1.66-.75-3.39-1.53-4.97-1.53s-3.3.78-4.97 1.53c-2.02.91-4.11 1.86-6.11 1.51-2.08-.36-3.75-2-5.37-3.58-1.33-1.3-2.59-2.53-4.01-3.05-1.46-.53-3.33-.39-5.13-.26-2.23.17-4.53.34-6.32-.69-1.81-1.05-2.81-3.14-3.78-5.17-.78-1.62-1.58-3.3-2.75-4.28-1.18-.99-2.97-1.49-4.7-1.98-2.16-.61-4.4-1.23-5.73-2.82-1.33-1.59-1.56-3.89-1.79-6.12-.18-1.8-.37-3.65-1.14-4.99-.76-1.32-2.2-2.35-3.72-3.44-1.83-1.31-3.73-2.67-4.45-4.64-.7-1.93-.13-4.16.42-6.32.45-1.76.91-3.58.64-5.12-.26-1.47-1.25-2.92-2.3-4.46-1.28-1.87-2.6-3.81-2.6-5.94s1.32-4.06 2.6-5.94c1.05-1.53 2.04-2.98 2.3-4.46.27-1.54-.19-3.36-.64-5.12-.55-2.16-1.12-4.39-.42-6.32.72-1.97 2.61-3.33 4.45-4.64 1.52-1.09 2.96-2.12 3.72-3.44.77-1.34.96-3.19 1.14-4.99.22-2.23.45-4.53 1.79-6.12 1.34-1.59 3.57-2.22 5.73-2.82 1.73-.49 3.53-.99 4.71-1.98 1.17-.98 1.94-2.59 2.75-4.28.97-2.03 1.98-4.12 3.78-5.17 1.79-1.03 4.09-.86 6.32-.69 1.8.14 3.67.27 5.13-.26 1.42-.52 2.68-1.75 4.01-3.05 1.62-1.58 3.29-3.22 5.37-3.58 2-.35 4.09.59 6.11 1.51C67.27 9 69 9.78 70.58 9.78s3.3-.78 4.97-1.53c2.02-.91 4.11-1.86 6.11-1.51 2.08.36 3.75 2 5.37 3.58 1.33 1.3 2.59 2.53 4.01 3.05 1.46.53 3.33.39 5.13.26 2.23-.17 4.54-.34 6.32.69 1.81 1.05 2.81 3.14 3.78 5.17.78 1.62 1.58 3.3 2.75 4.28 1.18.99 2.97 1.49 4.71 1.98 2.16.61 4.39 1.23 5.73 2.82 1.33 1.59 1.56 3.89 1.79 6.12.18 1.8.37 3.65 1.14 4.99.76 1.32 2.2 2.35 3.72 3.44 1.83 1.31 3.73 2.67 4.45 4.64.7 1.93.13 4.16-.42 6.32-.45 1.76-.91 3.58-.64 5.12.26 1.47 1.25 2.92 2.3 4.46 1.28 1.87 2.6 3.81 2.6 5.94s-1.32 4.06-2.6 5.94c-1.05 1.53-2.04 2.98-2.3 4.46-.27 1.54.19 3.36.64 5.12.55 2.16 1.12 4.39.42 6.32-.72 1.97-2.61 3.33-4.45 4.64-1.52 1.09-2.96 2.12-3.72 3.44-.77 1.34-.96 3.19-1.14 4.99-.22 2.23-.45 4.53-1.79 6.12-1.34 1.59-3.57 2.22-5.73 2.82-1.73.49-3.53.99-4.71 1.98-1.17.98-1.97 2.66-2.75 4.28-.97 2.03-1.98 4.12-3.78 5.17-1.78 1.03-4.09.86-6.32.69-1.8-.14-3.67-.28-5.13.26-1.42.52-2.68 1.75-4.01 3.05-1.62 1.58-3.29 3.22-5.37 3.58-.29.05-.59.07-.88.07Zm-10.19-4.12c1.8 0 3.62.82 5.38 1.62 1.97.89 3.83 1.74 5.53 1.43 1.78-.31 3.34-1.84 4.84-3.31 1.35-1.32 2.75-2.69 4.37-3.28 1.66-.6 3.64-.46 5.55-.31 2.17.16 4.23.32 5.74-.56 1.54-.89 2.43-2.76 3.38-4.74.82-1.72 1.67-3.49 3.01-4.61 1.34-1.13 3.24-1.66 5.08-2.18 2.11-.59 4.1-1.15 5.24-2.5 1.13-1.35 1.34-3.4 1.56-5.58.19-1.9.39-3.87 1.27-5.39.87-1.5 2.46-2.64 4.01-3.75 1.79-1.28 3.48-2.49 4.09-4.17.6-1.64.09-3.62-.45-5.73-.48-1.86-.97-3.79-.66-5.54.3-1.69 1.39-3.29 2.46-4.85 1.19-1.75 2.43-3.55 2.43-5.37s-1.23-3.62-2.43-5.37c-1.06-1.55-2.16-3.16-2.46-4.85-.31-1.75.19-3.68.66-5.54.54-2.11 1.05-4.09.45-5.73-.61-1.68-2.3-2.89-4.09-4.17-1.54-1.1-3.14-2.25-4.01-3.75-.88-1.52-1.08-3.49-1.27-5.39-.22-2.17-.42-4.23-1.56-5.58-1.14-1.35-3.13-1.91-5.24-2.5-1.84-.52-3.74-1.05-5.08-2.18-1.34-1.12-2.19-2.9-3.01-4.61-.95-1.98-1.84-3.85-3.38-4.74-1.52-.88-3.57-.72-5.74-.56-1.91.14-3.88.29-5.55-.31-1.62-.59-3.02-1.96-4.37-3.28-1.51-1.48-3.07-3-4.85-3.31-1.7-.3-3.56.54-5.53 1.43-1.76.8-3.58 1.62-5.38 1.62s-3.62-.82-5.38-1.62c-1.97-.89-3.83-1.74-5.53-1.43-1.78.31-3.34 1.84-4.84 3.31-1.35 1.32-2.75 2.69-4.37 3.28-1.66.61-3.64.46-5.55.31-2.17-.17-4.23-.32-5.74.56-1.54.89-2.43 2.76-3.38 4.74-.82 1.72-1.67 3.49-3.01 4.61-1.34 1.13-3.24 1.66-5.08 2.18-2.11.59-4.1 1.15-5.24 2.5-1.13 1.35-1.34 3.4-1.56 5.58-.19 1.9-.39 3.87-1.27 5.39-.87 1.5-2.46 2.64-4.01 3.75-1.79 1.28-3.48 2.49-4.09 4.17-.6 1.64-.09 3.62.45 5.73.48 1.86.97 3.79.66 5.54-.3 1.69-1.39 3.29-2.46 4.85-1.19 1.75-2.43 3.55-2.43 5.37s1.23 3.62 2.43 5.37c1.06 1.55 2.16 3.16 2.46 4.85.31 1.75-.19 3.68-.66 5.54-.54 2.11-1.05 4.09-.45 5.73.61 1.68 2.3 2.89 4.09 4.17 1.54 1.1 3.14 2.25 4.01 3.75.88 1.52 1.08 3.49 1.27 5.39.22 2.17.42 4.23 1.56 5.58 1.14 1.35 3.13 1.91 5.24 2.5 1.84.52 3.74 1.05 5.08 2.18 1.34 1.12 2.19 2.9 3.01 4.61.95 1.98 1.84 3.85 3.38 4.74 1.52.88 3.57.72 5.74.56 1.91-.14 3.88-.29 5.55.31 1.62.59 3.02 1.96 4.37 3.28 1.51 1.48 3.07 3 4.85 3.31 1.7.3 3.56-.54 5.53-1.43 1.76-.8 3.58-1.62 5.38-1.62Z"/><path d="M51.83 22.53c-.12.05-.23.12-.34.21s-.21.22-.29.38c-.08.16-.14.36-.18.6-.04.24-.03.53.01.87.04.34.13.74.27 1.2a16.642 16.642 0 0 0 1.34 3.11c.24.42.48.77.7 1.05s.44.49.64.64c.21.15.4.26.57.32.18.06.34.09.49.08.15-.01.28-.04.4-.09.16-.07.29-.17.4-.29l-1.31-3.02a.592.592 0 0 1-.05-.27c0-.1.07-.18.21-.24l.83-.36s.1-.04.15-.05c.05-.01.1-.02.15-.01.05 0 .09.03.13.07s.08.11.12.2l1.96 4.53c.04.09.06.16.06.22s-.01.11-.04.15c-.03.04-.06.07-.11.1-.04.03-.09.05-.14.07l-.83.36c-.07.03-.13.04-.18.04a.21.21 0 0 1-.13-.05.474.474 0 0 1-.1-.1c-.03-.04-.05-.08-.07-.12l-.1-.23a4.939 4.939 0 0 1-.96 1.17c-.21.19-.44.37-.71.54-.26.17-.56.33-.89.47-.38.17-.79.3-1.23.41a4.963 4.963 0 0 1-2.74-.11c-.47-.16-.94-.41-1.4-.77-.46-.36-.9-.83-1.34-1.42-.43-.59-.84-1.33-1.22-2.2-.32-.75-.53-1.44-.63-2.08s-.11-1.22-.03-1.75.22-1.02.45-1.45c.22-.43.49-.82.81-1.16.32-.34.67-.63 1.05-.88s.77-.46 1.17-.63c.43-.19.86-.33 1.28-.43.42-.1.81-.17 1.18-.2.37-.04.71-.04 1.02-.02.31.02.57.06.79.12.02 0 .05.02.08.03.03 0 .05.03.06.05 0 .02.01.05.01.09l-.11.68c-.01.06-.04.1-.08.12-.03.01-.08.02-.15 0-.07 0-.16-.02-.26-.03h-.33c-.12.01-.25.04-.38.1Zm12.44 8.61c-.45.07-.92.09-1.38.08-.47-.01-.93-.08-1.38-.21a4.683 4.683 0 0 1-2.42-1.66c-.34-.44-.63-.98-.88-1.61-.25-.63-.44-1.38-.57-2.25-.13-.86-.16-1.63-.11-2.31.06-.68.18-1.28.38-1.8s.46-.96.77-1.34.67-.68 1.06-.93.81-.45 1.25-.6a7.99 7.99 0 0 1 2.74-.4c.47.01.93.08 1.38.21.45.13.88.32 1.29.59.41.26.78.62 1.12 1.06.34.44.63.98.88 1.61.25.64.44 1.39.57 2.25.13.86.16 1.63.11 2.31-.06.68-.18 1.28-.38 1.8s-.45.97-.77 1.34c-.32.37-.67.69-1.06.94s-.81.46-1.26.6c-.45.15-.9.25-1.35.32Zm-.18-6.6c.1.71.24 1.29.42 1.75.17.46.37.82.59 1.09.22.26.45.44.68.53.24.09.47.12.7.08.23-.03.45-.13.65-.28.2-.16.37-.39.5-.7.13-.32.21-.72.25-1.21.04-.49 0-1.09-.1-1.8s-.24-1.29-.42-1.76c-.18-.46-.37-.82-.59-1.09-.21-.26-.44-.44-.68-.53a1.39 1.39 0 0 0-1.36.2c-.2.15-.37.39-.5.7-.13.32-.22.72-.25 1.21-.04.49 0 1.09.1 1.8Zm11.78 6.47a8.04 8.04 0 0 1-1.36-.29c-.45-.14-.87-.33-1.27-.57-.4-.25-.76-.55-1.08-.92-.32-.37-.59-.81-.8-1.32-.21-.51-.35-1.11-.43-1.79a10.2 10.2 0 0 1 .05-2.32c.11-.87.28-1.62.51-2.26.23-.64.52-1.19.85-1.63.33-.45.7-.81 1.1-1.08a4.98 4.98 0 0 1 2.64-.86c.47-.02.93 0 1.38.05.46.06.91.15 1.36.29.45.14.88.33 1.27.57s.76.55 1.08.91.59.8.8 1.32c.21.51.35 1.11.42 1.79.07.68.05 1.45-.05 2.32-.11.87-.28 1.62-.51 2.26-.24.64-.52 1.19-.84 1.63-.33.45-.69.81-1.1 1.09-.4.28-.83.49-1.27.63-.44.14-.9.22-1.37.25-.47.02-.93 0-1.39-.05Zm1.57-6.42c-.09.71-.11 1.31-.06 1.8s.14.89.28 1.21c.14.31.31.54.52.69a1.367 1.367 0 0 0 1.37.17c.24-.09.46-.28.67-.55.21-.27.4-.64.56-1.1.16-.47.29-1.05.38-1.77.09-.71.11-1.31.06-1.8s-.14-.89-.28-1.2-.31-.54-.52-.69a1.45 1.45 0 0 0-.66-.27c-.23-.03-.47 0-.7.1-.23.1-.46.28-.67.55-.21.27-.4.64-.56 1.1-.16.47-.29 1.05-.38 1.77Zm8.92-3.32c.08-.19.16-.34.25-.47.09-.12.2-.21.33-.27.13-.06.28-.08.46-.06.18.02.4.08.65.18l3.83 1.57c.4.16.78.35 1.15.57.37.22.7.47 1 .76.3.29.55.62.75 1 .2.38.33.81.39 1.3s.04 1.04-.06 1.65c-.1.61-.31 1.29-.61 2.04-.36.89-.74 1.62-1.14 2.21-.4.59-.81 1.06-1.22 1.42-.42.36-.84.61-1.27.76-.43.15-.86.23-1.29.24s-.85-.04-1.26-.15a9.93 9.93 0 0 1-1.2-.4l-3.75-1.54c-.25-.1-.45-.21-.59-.33a.874.874 0 0 1-.29-.36.743.743 0 0 1-.04-.42c.02-.15.07-.32.15-.5l3.77-9.21Zm6.94 7.98c.27-.66.46-1.28.58-1.86.12-.58.14-1.12.07-1.59-.07-.48-.24-.89-.51-1.25s-.64-.64-1.14-.85l-3.77 9.21c.5.2.97.24 1.43.14.46-.11.89-.33 1.29-.67s.78-.78 1.12-1.32c.34-.54.65-1.14.92-1.8Zm-41.12 78.23c.09-.18.19-.33.28-.44s.21-.2.35-.24c.13-.04.29-.05.46-.02.18.03.39.11.63.24l3.42 1.74c.3.15.5.31.61.48.11.17.17.33.16.49 0 .16-.04.32-.11.47-.07.15-.14.28-.2.41l-4.43 8.68 1.05.36c.14.05.27.1.41.15.14.05.27.09.39.13.12.04.22.08.31.12s.16.07.2.09c.09.05.15.1.19.16.04.06.03.14-.02.24l-.36.71c-.05.09-.13.16-.25.2-.12.04-.27.01-.44-.07l-6.56-3.35c-.24-.12-.42-.25-.55-.37a.866.866 0 0 1-.25-.38.75.75 0 0 1 0-.42c.04-.15.1-.31.19-.49l4.52-8.87Zm16.53 12.38c-.11.64-.27 1.2-.48 1.66-.21.46-.45.85-.73 1.16-.28.31-.59.56-.93.73-.34.18-.7.3-1.07.38-.38.08-.77.11-1.17.09-.4-.01-.8-.05-1.2-.12-.38-.07-.76-.16-1.14-.27-.37-.11-.72-.26-1.04-.44-.32-.18-.61-.41-.87-.68-.26-.27-.46-.6-.62-.99-.16-.39-.25-.84-.29-1.35-.04-.51 0-1.1.12-1.78l1.13-6.61c.03-.2.08-.37.14-.51.06-.14.15-.25.26-.34.11-.08.26-.13.44-.16.18-.02.4 0 .67.04l3.78.64c.33.06.57.15.73.27.16.13.26.27.3.42.05.16.06.32.04.48s-.04.31-.07.45l-1.49 8.71c-.01.09 0 .15.04.19.04.04.08.07.13.08.2.03.39 0 .56-.07.17-.08.32-.21.46-.39.13-.17.25-.39.35-.64.1-.25.17-.53.22-.83l1.33-7.82c.02-.1.05-.18.11-.26.06-.08.16-.1.31-.08l.88.15c.05 0 .1.02.15.03.05.01.09.04.13.07.04.03.06.08.07.13.01.06.01.13 0 .23l-1.26 7.39Zm8.58-2.58c.1.7.21 1.3.33 1.8.13.5.26.92.4 1.26.14.34.29.61.45.82.16.2.31.35.47.46.15.1.3.17.45.19.15.02.28.03.41 0 .14-.02.27-.05.38-.11s.21-.11.29-.17c.08-.06.15-.11.21-.16.05-.05.1-.07.13-.08.04 0 .09.01.13.06l.45.53.04.08c0 .03 0 .05-.02.08-.02.02-.04.04-.05.06-.16.16-.36.33-.62.51-.25.18-.55.35-.88.51-.33.16-.71.31-1.12.44-.41.13-.85.23-1.31.29a6.5 6.5 0 0 1-1.33.05c-.46-.02-.91-.1-1.36-.24a4.99 4.99 0 0 1-1.3-.62c-.42-.27-.8-.63-1.14-1.07-.34-.44-.64-.98-.89-1.61-.25-.63-.43-1.37-.55-2.23-.12-.86-.14-1.62-.07-2.3.07-.67.22-1.27.43-1.79s.48-.96.81-1.34c.33-.38.69-.69 1.08-.94.39-.25.81-.45 1.24-.6.43-.14.87-.24 1.29-.3.47-.06.91-.09 1.34-.07.43.02.83.06 1.19.12.37.07.69.15.99.26s.54.21.73.33c.02.01.04.03.07.05s.04.04.04.07c0 .02 0 .05-.01.09l-.29.63c-.03.06-.06.09-.11.09-.03 0-.08 0-.15-.04-.06-.03-.15-.06-.24-.1-.1-.04-.21-.06-.32-.09-.12-.02-.25-.02-.39 0-.12.02-.25.06-.39.12-.13.06-.26.16-.38.3-.12.14-.23.33-.33.57-.1.24-.17.54-.21.91-.05.37-.06.81-.05 1.33.01.52.07 1.12.16 1.82Z"/><path d="M80.09 111.84c-.09-.18-.15-.35-.18-.5a.743.743 0 0 1 .02-.42.84.84 0 0 1 .27-.38c.13-.12.32-.24.57-.36l3.47-1.64c.27-.13.5-.19.68-.19.18 0 .34.03.47.11.13.07.23.17.31.3.08.12.15.25.21.36l.43.92 1.05-2.81c.04-.11.08-.19.12-.26.04-.07.09-.11.14-.14.05-.02.1-.03.15-.03.05 0 .11.02.18.05l.65.25c.06.02.1.05.14.07.04.02.07.06.08.1.05.1.03.23-.04.39l-1.5 2.99c.77-.28 1.41-.32 1.91-.12.51.2.92.63 1.23 1.3l2.71 5.71c.04.09.06.16.06.22s-.01.11-.03.15c-.02.04-.06.07-.1.1-.04.03-.09.05-.14.07l-.65.31c-.13.06-.24.07-.32 0a.646.646 0 0 1-.18-.22l-2.75-5.8c-.11-.24-.23-.42-.35-.56-.12-.13-.25-.23-.4-.27-.15-.05-.32-.05-.51-.02-.19.04-.41.11-.67.21l2.92 6.17c.06.12.11.26.16.41.05.16.06.32.04.48-.02.17-.1.33-.23.5-.13.17-.34.33-.65.47l-3.33 1.58c-.25.12-.46.19-.64.22s-.33.02-.46-.03a.814.814 0 0 1-.34-.25c-.09-.12-.19-.27-.27-.45l-4.26-9Z"/><path d="M95.82 69.82c-1.01-1.01-2.24-1.82-3.6-2.46 1.36-.64 2.59-1.45 3.6-2.46a9.307 9.307 0 0 0 0-13.17 9.288 9.288 0 0 0-7.7-2.65c.33-2.74-.55-5.6-2.65-7.7a9.307 9.307 0 0 0-13.17 0c-1.01 1.01-1.82 2.24-2.46 3.6-.64-1.36-1.45-2.59-2.46-3.6a9.307 9.307 0 0 0-13.17 0 9.288 9.288 0 0 0-2.65 7.7c-2.74-.33-5.6.55-7.7 2.65a9.307 9.307 0 0 0 0 13.17c1.01 1.01 2.24 1.82 3.6 2.46-1.36.64-2.59 1.45-3.6 2.46a9.307 9.307 0 0 0 0 13.17c2.1 2.1 4.96 2.98 7.7 2.65-.33 2.74.55 5.6 2.65 7.7a9.307 9.307 0 0 0 13.17 0c.77-.77 1.42-1.66 1.97-2.64-1.41 6-5.36 12.68-5.36 13.51H75.7c0-.83-3.95-7.51-5.36-13.51.55.98 1.2 1.88 1.97 2.64a9.307 9.307 0 0 0 13.17 0c2.1-2.1 2.98-4.96 2.65-7.7 2.74.33 5.6-.55 7.7-2.65a9.307 9.307 0 0 0 0-13.17Z" style="fill:#00bf9f"/><path d="M75.69 104.71H63.98c-.28 0-.5-.22-.5-.5 0-.38.3-1.03 1.18-2.86 1-2.09 2.39-5 3.39-7.99-.11.12-.22.23-.33.34-3.82 3.82-10.05 3.83-13.87 0A9.77 9.77 0 0 1 51 86.2c-2.8.17-5.51-.86-7.5-2.85-3.82-3.82-3.82-10.05 0-13.87.79-.79 1.75-1.5 2.86-2.11-1.11-.61-2.07-1.32-2.86-2.11-1.85-1.85-2.87-4.32-2.87-6.94s1.02-5.08 2.87-6.94c2-1.99 4.7-3.02 7.5-2.85-.17-2.8.85-5.51 2.85-7.5 1.85-1.85 4.32-2.87 6.94-2.87s5.08 1.02 6.94 2.87c.79.79 1.5 1.75 2.11 2.86.61-1.11 1.32-2.07 2.11-2.86 3.83-3.83 10.05-3.83 13.87 0a9.734 9.734 0 0 1 2.85 7.5c2.8-.17 5.51.85 7.5 2.85 1.85 1.85 2.87 4.32 2.87 6.94s-1.02 5.08-2.87 6.94c-.79.79-1.75 1.5-2.86 2.11 1.11.61 2.07 1.32 2.86 2.11a9.758 9.758 0 0 1 2.87 6.94c0 2.62-1.02 5.08-2.87 6.94a9.72 9.72 0 0 1-7.5 2.85c.17 2.8-.85 5.51-2.85 7.5-3.82 3.83-10.05 3.83-13.87 0-.11-.11-.22-.22-.33-.34 1.01 2.99 2.4 5.9 3.39 7.99.87 1.83 1.18 2.48 1.18 2.86 0 .28-.22.5-.5.5Zm-11.02-1h10.34c-.21-.48-.56-1.21-.9-1.93-1.32-2.77-3.33-6.96-4.27-10.96v-.04.04c-.94 4-2.94 8.19-4.27 10.96-.34.71-.69 1.44-.9 1.93Zm5.67-13.51c.18 0 .35.09.44.26.55.98 1.18 1.83 1.88 2.54 1.66 1.66 3.88 2.58 6.23 2.58s4.57-.92 6.23-2.58c1.92-1.92 2.83-4.58 2.51-7.29-.02-.15.03-.3.14-.41s.26-.16.41-.14c2.71.33 5.37-.59 7.29-2.51 1.66-1.66 2.58-3.88 2.58-6.23s-.92-4.57-2.58-6.23c-.92-.92-2.08-1.71-3.46-2.36a.493.493 0 0 1 0-.9c1.38-.65 2.55-1.45 3.46-2.36 1.66-1.66 2.58-3.88 2.58-6.23s-.92-4.57-2.58-6.23c-1.92-1.92-4.58-2.83-7.29-2.51a.507.507 0 0 1-.41-.14.486.486 0 0 1-.14-.41c.33-2.71-.59-5.37-2.51-7.29-3.43-3.43-9.02-3.43-12.46 0-.92.92-1.71 2.08-2.36 3.46-.16.35-.74.35-.9 0-.65-1.38-1.45-2.55-2.36-3.46-1.66-1.66-3.88-2.58-6.23-2.58s-4.57.92-6.23 2.58a8.757 8.757 0 0 0-2.51 7.29c.02.15-.03.3-.14.41-.11.11-.26.16-.41.14-2.72-.33-5.37.59-7.29 2.51-1.66 1.66-2.58 3.88-2.58 6.23s.92 4.57 2.58 6.23c.92.92 2.08 1.71 3.46 2.36a.493.493 0 0 1 0 .9c-1.38.65-2.55 1.45-3.46 2.36-3.43 3.44-3.43 9.02 0 12.46a8.757 8.757 0 0 0 7.29 2.51c.15-.02.3.03.41.14.11.11.16.26.14.41-.33 2.71.59 5.37 2.51 7.29 3.44 3.44 9.02 3.43 12.46 0 .7-.7 1.33-1.55 1.88-2.54.12-.22.38-.31.62-.22.17.07.29.22.31.4.02-.17.14-.33.31-.4.06-.02.12-.03.18-.03Z"/><path d="M69.84 80.27c-4.59 0-8.65-1.71-10.58-4.48-.82-1.17-.53-2.79.64-3.61 1.17-.82 2.16-.47 3.61.64 1.34 1.02 3.07 2.27 6.33 2.27 3.26 0 5-1.25 6.33-2.27 1.45-1.11 2.44-1.46 3.61-.64s1.46 2.44.64 3.61c-1.93 2.76-5.99 4.48-10.58 4.48Z"/><path d="M69.84 80.77c-4.75 0-8.96-1.8-10.99-4.69-.98-1.4-.64-3.33.76-4.3 1.46-1.02 2.69-.51 4.2.65 1.2.91 2.83 2.16 6.03 2.16s4.83-1.25 6.03-2.17c1.51-1.16 2.74-1.67 4.2-.65a3.03 3.03 0 0 1 1.27 1.99c.14.81-.04 1.63-.51 2.31-2.02 2.9-6.23 4.7-10.99 4.7Zm0-1v.5-.5c4.43 0 8.33-1.64 10.17-4.27.32-.46.44-1.01.34-1.56-.1-.55-.4-1.03-.86-1.35-.88-.61-1.58-.47-3.02.63-1.24.94-3.1 2.37-6.64 2.37-3.53 0-5.4-1.43-6.63-2.37-1.43-1.09-2.14-1.24-3.02-.63-.94.66-1.18 1.97-.52 2.91 1.84 2.63 5.74 4.27 10.17 4.27Z"/><path d="M58.54 69.41c0 1.28-1.4 2.32-3.13 2.32s-3.13-1.04-3.13-2.32 1.4-2.32 3.13-2.32 3.13 1.04 3.13 2.32Z" class="cls-2"/><path d="M55.41 72.23c-2 0-3.63-1.27-3.63-2.82s1.63-2.82 3.63-2.82 3.63 1.27 3.63 2.82-1.63 2.82-3.63 2.82Zm0-4.65c-1.42 0-2.63.84-2.63 1.82s1.2 1.82 2.63 1.82 2.63-.84 2.63-1.82-1.2-1.82-2.63-1.82Z"/><path d="M87.4 69.41c0 1.28-1.4 2.32-3.13 2.32s-3.13-1.04-3.13-2.32 1.4-2.32 3.13-2.32 3.13 1.04 3.13 2.32Z" class="cls-2"/><path d="M84.27 72.23c-2 0-3.63-1.27-3.63-2.82s1.63-2.82 3.63-2.82 3.63 1.27 3.63 2.82-1.63 2.82-3.63 2.82Zm0-4.65c-1.42 0-2.63.84-2.63 1.82s1.2 1.82 2.63 1.82 2.63-.84 2.63-1.82-1.2-1.82-2.63-1.82Z"/><path d="M69.84 75.71s6.51-2.59 6.51 3.83c0 3.6-2.92 6.51-6.51 6.51s-6.51-2.92-6.51-6.51c0-6.42 6.51-3.83 6.51-3.83Z" style="fill:#ff5b2b"/><path d="M69.84 86.55c-3.87 0-7.01-3.15-7.01-7.01 0-1.97.59-3.37 1.74-4.16 1.86-1.26 4.54-.46 5.27-.21.73-.25 3.41-1.05 5.27.21 1.16.79 1.74 2.19 1.74 4.16 0 3.87-3.15 7.01-7.01 7.01ZM67.1 75.69c-.68 0-1.39.13-1.97.52-.87.59-1.3 1.71-1.3 3.33 0 3.32 2.7 6.01 6.01 6.01s6.01-2.7 6.01-6.01c0-1.62-.44-2.74-1.3-3.33-1.68-1.14-4.5-.05-4.52-.04l-.18.07-.18-.07s-1.24-.48-2.56-.48Z"/><path d="M69.84 82.28c-.28 0-.5-.22-.5-.5v-6.07c0-.28.22-.5.5-.5s.5.22.5.5v6.07c0 .28-.22.5-.5.5Z"/><path d="M60.3 57.27c0-1.75 1.42-3.18 3.18-3.18s3.18 1.42 3.18 3.18v6.35c0 1.75-1.42 3.18-3.18 3.18s-3.18-1.42-3.18-3.18v-6.35Z" class="cls-3"/><path d="M63.48 67.29c-2.03 0-3.68-1.65-3.68-3.68v-6.35c0-2.03 1.65-3.68 3.68-3.68s3.68 1.65 3.68 3.68v6.35c0 2.03-1.65 3.68-3.68 3.68Zm0-12.7a2.68 2.68 0 0 0-2.68 2.68v6.35a2.68 2.68 0 0 0 5.36 0v-6.35c0-1.48-1.2-2.68-2.68-2.68Z"/><path d="M66.25 57.43c0-1.17-.95-2.11-2.11-2.11s-2.11.95-2.11 2.11v1.01l2.11 1.11-2.11 1.06v1.05c0 1.17.95 2.11 2.11 2.11s2.11-.95 2.11-2.11v-4.23Z"/><path d="M64.14 64.27c-1.44 0-2.61-1.17-2.61-2.61v-1.05c0-.19.11-.36.28-.45l1.24-.62-1.25-.66a.499.499 0 0 1-.27-.44v-1.01c0-1.44 1.17-2.61 2.61-2.61s2.61 1.17 2.61 2.61v4.23c0 1.44-1.17 2.61-2.61 2.61Zm-1.61-3.36v.74a1.609 1.609 0 1 0 3.22 0v-4.23a1.609 1.609 0 1 0-3.22 0v.7l1.85.97c.17.09.27.26.27.45s-.11.36-.28.44l-1.84.92Zm4.26-7.61c-.2 0-.38-.12-.46-.31-.49-1.16-1.62-1.92-2.88-1.92s-2.39.75-2.88 1.92a.5.5 0 0 1-.65.27.509.509 0 0 1-.27-.65c.64-1.54 2.14-2.53 3.8-2.53s3.16.99 3.8 2.53c.11.25-.01.55-.27.65-.06.03-.13.04-.19.04Z"/><path d="M72.55 57.54c0-1.75 1.42-3.18 3.18-3.18s3.18 1.42 3.18 3.18v6.35c0 1.75-1.42 3.18-3.18 3.18s-3.18-1.42-3.18-3.18v-6.35Z" class="cls-3"/><path d="M75.73 67.57c-2.03 0-3.68-1.65-3.68-3.68v-6.35c0-2.03 1.65-3.68 3.68-3.68s3.68 1.65 3.68 3.68v6.35c0 2.03-1.65 3.68-3.68 3.68Zm0-12.7a2.68 2.68 0 0 0-2.68 2.68v6.35a2.68 2.68 0 0 0 5.36 0v-6.35c0-1.48-1.2-2.68-2.68-2.68Z"/><path d="M78.61 57.43c0-1.17-.95-2.11-2.11-2.11s-2.11.95-2.11 2.11v1.01l2.11 1.11-2.11 1.06v1.05c0 1.17.95 2.11 2.11 2.11s2.11-.95 2.11-2.11v-4.23Z"/><path d="M76.5 64.27c-1.44 0-2.61-1.17-2.61-2.61v-1.05c0-.19.11-.36.28-.45l1.24-.62-1.25-.66a.519.519 0 0 1-.27-.44v-1.01c0-1.44 1.17-2.61 2.61-2.61s2.61 1.17 2.61 2.61v4.23c0 1.44-1.17 2.61-2.61 2.61Zm-1.61-3.36v.74a1.609 1.609 0 1 0 3.22 0v-4.23a1.609 1.609 0 1 0-3.22 0v.7l1.85.97c.17.09.27.26.27.45s-.11.36-.28.44l-1.84.92Zm4.21-7.33c-.2 0-.38-.12-.46-.31-.49-1.16-1.62-1.92-2.88-1.92s-2.39.75-2.88 1.92a.5.5 0 0 1-.65.27.509.509 0 0 1-.27-.65c.64-1.54 2.14-2.53 3.81-2.53s3.16.99 3.8 2.53c.11.25-.01.55-.27.65-.06.03-.13.04-.19.04Z"/><path d="M27.33 69.41c-2.85 1.23-3.84 2.23-5.07 5.07-1.23-2.85-2.23-3.84-5.07-5.07 2.85-1.23 3.84-2.23 5.07-5.07 1.23 2.85 2.23 3.84 5.07 5.07Z" class="cls-3"/><path d="M22.26 74.98c-.2 0-.38-.12-.46-.3-1.18-2.73-2.08-3.63-4.81-4.81-.18-.08-.3-.26-.3-.46s.12-.38.3-.46c2.73-1.18 3.63-2.08 4.81-4.81.16-.37.76-.37.92 0 1.18 2.73 2.08 3.63 4.81 4.81.18.08.3.26.3.46s-.12.38-.3.46c-2.73 1.18-3.63 2.08-4.81 4.81-.08.18-.26.3-.46.3Zm-3.88-5.57c1.92.96 2.92 1.95 3.88 3.88.96-1.92 1.95-2.92 3.88-3.88-1.92-.96-2.92-1.95-3.88-3.88-.96 1.92-1.95 2.92-3.88 3.88Z"/><path d="M32.66 46.39c-2.34 1.01-3.16 1.83-4.16 4.16-1.01-2.34-1.83-3.16-4.16-4.16 2.34-1.01 3.16-1.83 4.16-4.16 1.01 2.34 1.83 3.15 4.16 4.16Z" class="cls-3"/><path d="M28.5 51.06c-.2 0-.38-.12-.46-.3-.96-2.22-1.69-2.95-3.9-3.9-.18-.08-.3-.26-.3-.46s.12-.38.3-.46c2.22-.96 2.95-1.69 3.9-3.9.16-.37.76-.37.92 0 .96 2.22 1.69 2.95 3.9 3.9.18.08.3.26.3.46s-.12.38-.3.46c-2.22.96-2.95 1.69-3.9 3.9-.08.18-.26.3-.46.3Zm-2.99-4.67c1.45.75 2.24 1.54 2.99 2.99.75-1.45 1.54-2.24 2.99-2.99-1.45-.75-2.24-1.54-2.99-2.99-.75 1.45-1.54 2.24-2.99 2.99Z"/><path d="M32.66 92.81c-2.34-1.01-3.16-1.83-4.16-4.16-1.01 2.34-1.83 3.16-4.16 4.16 2.34 1.01 3.16 1.83 4.16 4.16 1.01-2.34 1.83-3.16 4.16-4.16Z" class="cls-3"/><path d="M28.5 97.47c-.2 0-.38-.12-.46-.3-.96-2.22-1.69-2.95-3.9-3.9-.18-.08-.3-.26-.3-.46s.12-.38.3-.46c2.22-.96 2.95-1.69 3.9-3.9.16-.37.76-.37.92 0 .96 2.22 1.69 2.95 3.9 3.9.18.08.3.26.3.46s-.12.38-.3.46c-2.22.96-2.95 1.69-3.9 3.9-.08.18-.26.3-.46.3Zm-2.99-4.66c1.45.75 2.24 1.54 2.99 2.99.75-1.45 1.54-2.24 2.99-2.99-1.45-.75-2.24-1.54-2.99-2.99-.75 1.45-1.54 2.24-2.99 2.99Z"/><path d="M113.82 69.41c2.85 1.23 3.84 2.23 5.07 5.07 1.23-2.85 2.23-3.84 5.07-5.07-2.85-1.23-3.84-2.23-5.07-5.07-1.23 2.85-2.23 3.84-5.07 5.07Z" class="cls-3"/><path d="M118.89 74.98c-.2 0-.38-.12-.46-.3-1.18-2.73-2.08-3.63-4.81-4.81-.18-.08-.3-.26-.3-.46s.12-.38.3-.46c2.73-1.18 3.63-2.08 4.81-4.81.16-.37.76-.37.92 0 1.18 2.73 2.08 3.63 4.81 4.81.18.08.3.26.3.46s-.12.38-.3.46c-2.73 1.18-3.63 2.08-4.81 4.81-.08.18-.26.3-.46.3Zm-3.88-5.57c1.92.96 2.92 1.95 3.88 3.88.96-1.92 1.95-2.92 3.88-3.88-1.92-.96-2.92-1.95-3.88-3.88-.96 1.92-1.95 2.92-3.88 3.88Z"/><path d="M108.49 46.39c2.34 1.01 3.16 1.83 4.16 4.16 1.01-2.34 1.83-3.16 4.16-4.16-2.34-1.01-3.16-1.83-4.16-4.16-1.01 2.34-1.83 3.15-4.16 4.16Z" class="cls-3"/><path d="M112.66 51.06c-.2 0-.38-.12-.46-.3-.96-2.22-1.69-2.95-3.9-3.9-.18-.08-.3-.26-.3-.46s.12-.38.3-.46c2.22-.96 2.95-1.69 3.9-3.9.16-.37.76-.37.92 0 .96 2.22 1.69 2.95 3.9 3.9.18.08.3.26.3.46s-.12.38-.3.46c-2.22.96-2.95 1.69-3.9 3.9-.08.18-.26.3-.46.3Zm-2.99-4.67c1.45.75 2.24 1.54 2.99 2.99.75-1.45 1.54-2.24 2.99-2.99-1.45-.75-2.24-1.54-2.99-2.99-.75 1.45-1.54 2.24-2.99 2.99Z"/><path d="M108.49 92.81c2.34-1.01 3.16-1.83 4.16-4.16 1.01 2.34 1.83 3.16 4.16 4.16-2.34 1.01-3.16 1.83-4.16 4.16-1.01-2.34-1.83-3.16-4.16-4.16Z" class="cls-3"/><path d="M112.66 97.47c-.2 0-.38-.12-.46-.3-.96-2.22-1.69-2.95-3.9-3.9-.18-.08-.3-.26-.3-.46s.12-.38.3-.46c2.22-.96 2.95-1.69 3.9-3.9.16-.37.76-.37.92 0 .96 2.22 1.69 2.95 3.9 3.9.18.08.3.26.3.46s-.12.38-.3.46c-2.22.96-2.95 1.69-3.9 3.9-.08.18-.26.3-.46.3Zm-2.99-4.66c1.45.75 2.24 1.54 2.99 2.99.75-1.45 1.54-2.24 2.99-2.99-1.45-.75-2.24-1.54-2.99-2.99-.75 1.45-1.54 2.24-2.99 2.99Z"/></g></svg>