<svg xmlns="http://www.w3.org/2000/svg" data-name="Layer 2" viewBox="0 0 70 71.3"><defs><filter id="a" width="73.81" height="75.11" x="0" y="0" filterUnits="userSpaceOnUse"><feOffset dx="3.81" dy="3.81"/><feGaussianBlur result="blur"/><feFlood flood-color="#3c2a1b" flood-opacity=".11"/><feComposite in2="blur" operator="in"/><feComposite in="SourceGraphic"/></filter></defs><g style="filter:url(#a)"><path d="M63.41 55.39c6.21.81 8.5-7.78 4.82-11.63-1.74-1.82-3.48-3.63-5.22-5.45-1.04-1.09-2.09-2.18-3.13-3.27-.7-.73-1.72-2.42-2.61-2.73 0-.01-.01-.02-.02-.03.02-.09.04-.17.07-.28.5-.83.81-1.82 1.22-2.7 1.05-2.25 2.18-4.45 3.36-6.62 2.29-4.21-.5-10.66-5.87-10.23-2.99.24-5.98.61-8.91 1.25-1.29.28-2.93 1.04-4.5 1.57-2.48-3.92-4.77-8.01-7.17-11.96-2.46-4.05-9.46-4.78-11.73 0-2.99 6.3-5.35 12.78-6.97 19.52-3.3.23-6.6.47-9.9.76-5.08.43-9.7 7.44-4.73 11.42 3.92 3.14 7.95 6.01 12.32 8.48-2.77 6.53-3.69 14.32-4.22 21.04-.41 5.25 6.08 8.4 10.27 5.9 8.83-5.27 17-11.59 24.28-18.83 6.1 1.77 12.29 2.98 18.62 3.8Z" style="fill:#fff"/><path d="M61.48 49.73c.44.53.02 1.27-.66 1.13-7.68-1.48-15.32-3.09-22.88-5.09.03.18 0 .38-.18.56-5.51 5.85-11.32 11.4-18.65 14.89-.56.27-1.1-.17-1-.76 1.14-6.57 2.22-13.25 4.06-19.66-5.21-3.2-10.12-6.91-14.91-10.68-.41-.32-.16-1.01.3-1.13 5.64-1.46 11.32-2.68 17.05-3.7.46-6.85 1.24-13.7 1.93-20.54.05-.51.52-.8.99-.57 2.62 1.28 4.18 4.88 5.71 7.25 2.2 3.41 4.29 6.91 6.3 10.44 5.89-1.43 11.94-2.23 17.97-2.79.5-.05.87.62.59 1.02-3.23 4.66-6.44 9.34-9.71 13.96 4.38 5.21 8.73 10.44 13.08 15.66Zm-2.22-.55c-3.94-4.71-7.89-9.41-11.81-14.15-.5.05-1.04-.43-.68-.96 3.07-4.52 6.22-8.99 9.35-13.48-5.5.56-10.93 1.43-16.39 2.32-.14.02-.26 0-.36-.07-.3.19-.71.19-.93-.2-1.57-2.77-3.19-5.53-4.87-8.23-1.46-2.32-3.44-6.65-5.82-8.51-.64 6.47-1.23 12.96-2.09 19.41 0 .04-.02.06-.03.09.36.34.37 1.03-.24 1.14-5.42.95-10.79 2.09-16.12 3.43 4.56 3.53 9.28 6.81 13.96 10.18.47.34.2 1.03-.27 1.04-.87 6.11-2.2 12.16-3.29 18.23 6.65-3.46 12.01-8.61 17.13-14.04.11-.12.24-.17.37-.19.02-.26.24-.5.58-.43 7.17 1.49 14.32 3.03 21.5 4.43Z" style="fill:#1d1d1b"/><path d="M47.45 35.03c3.92 4.73 7.87 9.44 11.81 14.15-7.19-1.4-14.34-2.94-21.5-4.43a.47.47 0 0 0-.58.43c-.13.02-.25.07-.37.19-5.11 5.43-10.48 10.58-17.13 14.04 1.1-6.08 2.42-12.13 3.29-18.23.46 0 .74-.69.27-1.04-4.68-3.37-9.41-6.65-13.96-10.18 5.33-1.34 10.7-2.49 16.12-3.43.61-.11.59-.79.24-1.14 0-.03.02-.05.03-.09.86-6.45 1.45-12.94 2.09-19.41 2.38 1.87 4.36 6.19 5.82 8.51 1.68 2.71 3.3 5.46 4.87 8.23.22.39.63.39.93.2.1.06.22.09.36.07 5.46-.89 10.89-1.75 16.39-2.32-3.13 4.48-6.27 8.96-9.35 13.48-.36.53.18 1.01.68.96Z" style="fill:#f7c800"/></g></svg>