<svg xmlns="http://www.w3.org/2000/svg" id="Layer_2" data-name="Layer 2" viewBox="0 0 170.04 136.93"><defs><style>.cls-1{fill:#ffd70e}</style></defs><g id="OBJECTS"><path d="m164.45 19.19-51.89-3.35-2.97-7.66c-.65-1.67-2-2.96-3.71-3.52a5.998 5.998 0 0 0-5.07.63l-14.04 8.89-61.9-3.99c-1.66-.12-3.27.47-4.48 1.6-.92.86-1.55 2-1.78 3.24-.84.27-1.62.73-2.26 1.33a6.018 6.018 0 0 0-1.89 4.36v39.22L2.79 67.33a5.95 5.95 0 0 0-2.75 5.68c.08.74.29 1.45.62 2.1a5.928 5.928 0 0 0-.62 3.34 5.96 5.96 0 0 0 3.86 4.99l10.56 3.93v30.73c0 1.65.69 3.24 1.89 4.36a6.016 6.016 0 0 0 4.48 1.61l78.6-5.07 47.14 17.55c.67.25 1.37.38 2.09.38 1.59 0 3.14-.65 4.26-1.78a5.987 5.987 0 0 0 1.32-6.36l-.23-.6c.76-1.51.85-3.26.23-4.85l-2.98-7.68 9.15-.59a5.989 5.989 0 0 0 5.49-4.85 5.99 5.99 0 0 0 4.15-5.7V25.16c0-3.15-2.46-5.77-5.6-5.97Z"/><path d="M148.65 132.06c-.64 0-1.29-.11-1.91-.34L99.5 114.13l-78.71 5.08c-.12 0-.24.01-.35.01-1.39 0-2.73-.53-3.75-1.48a5.5 5.5 0 0 1-1.73-4V82.66L4.08 78.61a5.5 5.5 0 0 1-3.54-4.57c-.12-1.17.13-2.31.69-3.29-.37-.65-.61-1.38-.69-2.15a5.47 5.47 0 0 1 2.52-5.2l11.9-7.53V16.36a5.5 5.5 0 0 1 1.73-4c.67-.63 1.49-1.07 2.36-1.3.17-1.24.76-2.4 1.68-3.27a5.459 5.459 0 0 1 3.75-1.48c.12 0 .24 0 .35.01l62.06 4 14.18-8.97c.89-.56 1.91-.85 2.93-.85.58 0 1.15.09 1.72.28 1.56.51 2.8 1.7 3.4 3.22l3.08 7.96 52.21 3.37c2.88.19 5.13 2.58 5.13 5.47v79.37a5.47 5.47 0 0 1-4.09 5.3 5.483 5.483 0 0 1-5.08 4.74l-9.83.63 3.22 8.31c.6 1.54.46 3.24-.31 4.64l.31.81c.78 2.01.31 4.3-1.21 5.83a5.49 5.49 0 0 1-3.9 1.63Z" style="fill:#fff"/><path d="M148.65 132.56c-.71 0-1.42-.13-2.09-.38l-47.14-17.55-78.6 5.07a5.95 5.95 0 0 1-4.48-1.61 6.018 6.018 0 0 1-1.89-4.36V83L3.89 79.07a5.944 5.944 0 0 1-3.86-4.99c-.12-1.16.09-2.31.62-3.34-.34-.66-.55-1.36-.62-2.1-.24-2.28.82-4.45 2.75-5.67l11.67-7.39V16.36a5.984 5.984 0 0 1 4.15-5.69c.24-1.24.86-2.38 1.78-3.24a6.013 6.013 0 0 1 4.48-1.61l61.9 3.99L100.81.92c1.5-.95 3.39-1.18 5.07-.63 1.71.56 3.06 1.84 3.71 3.52l2.97 7.66 51.89 3.35c3.14.2 5.6 2.82 5.6 5.97v79.37a5.99 5.99 0 0 1-4.15 5.7 6.008 6.008 0 0 1-5.49 4.85l-9.15.59 2.98 7.68c.61 1.59.53 3.34-.23 4.85l.23.6c.85 2.19.33 4.69-1.32 6.36a6.035 6.035 0 0 1-4.26 1.78ZM99.5 113.63c.06 0 .12.01.17.03l47.24 17.59c1.8.67 3.94.2 5.28-1.17a4.973 4.973 0 0 0 1.1-5.3l-.31-.81a.513.513 0 0 1 .03-.42c.72-1.3.82-2.83.29-4.21l-3.22-8.31a.508.508 0 0 1 .04-.45c.09-.13.23-.22.39-.23l9.83-.63c2.36-.15 4.3-1.96 4.62-4.31.03-.2.17-.37.37-.42a4.977 4.977 0 0 0 3.72-4.82V20.79c0-2.62-2.05-4.8-4.66-4.97l-52.21-3.37a.5.5 0 0 1-.43-.32l-3.08-7.96a4.962 4.962 0 0 0-3.09-2.93c-1.4-.46-2.98-.27-4.22.52l-14.18 8.97a.52.52 0 0 1-.3.08L24.8 6.82c-1.4-.1-2.72.4-3.73 1.34-.83.78-1.38 1.84-1.53 2.97-.03.2-.17.37-.37.42-.8.21-1.54.62-2.14 1.18-1 .94-1.57 2.26-1.57 3.63v39.5c0 .17-.09.33-.23.42l-11.9 7.53a4.951 4.951 0 0 0-2.29 4.73c.07.69.28 1.35.63 1.96.09.15.09.34 0 .5-.52.91-.74 1.95-.63 2.99a4.94 4.94 0 0 0 3.22 4.15l10.88 4.05c.2.07.33.26.33.47v31.08a4.977 4.977 0 0 0 5.3 4.97l78.71-5.08h.03Z"/><path d="M149.12 127.03 104.47 11.88a.472.472 0 0 0-.31-.29.478.478 0 0 0-.42.05L5.72 73.68a.5.5 0 0 0 .09.89l142.67 53.11a.508.508 0 0 0 .53-.12c.14-.14.18-.35.11-.53Z"/><path d="M104.01 6.84 5.98 68.88l142.67 53.11L104.01 6.84z" style="fill:#ff7ec8"/><path d="M148.65 122.49c-.06 0-.12-.01-.17-.03L5.81 69.35a.502.502 0 0 1-.09-.89l98.02-62.05c.13-.08.28-.1.42-.05.14.05.26.15.31.29l44.65 115.15c.07.18.03.39-.11.53-.1.1-.22.15-.36.15ZM7.1 68.76l140.68 52.37L103.76 7.58 7.1 68.76Z"/><path d="m160.05 24.21-139.58-9c-.13 0-.27.04-.37.13a.5.5 0 0 0-.16.36v97.37c0 .14.06.27.16.36.09.09.22.14.34.14h.03l139.58-9a.51.51 0 0 0 .47-.5V24.71c0-.26-.2-.48-.47-.5Z"/><path d="m164.06 100.84-139.58 9V12.46l139.58 9v79.38z" style="fill:#00a5da"/><path d="M24.48 110.34c-.13 0-.25-.05-.34-.14a.5.5 0 0 1-.16-.36V12.46c0-.14.06-.27.16-.36.1-.09.24-.14.37-.13l139.58 9c.26.02.47.24.47.5v79.37c0 .26-.2.48-.47.5l-139.58 9h-.03Zm.5-97.34v96.31l138.58-8.94V21.93L24.98 13Zm139.08 87.84Z"/><path d="M76.74 27.67c-2.15-2.39-5.75-3.71-10.7-3.92-3.36-.14-6.11.27-8.18 1.21-2.12.97-3.67 2.37-4.61 4.18-.92 1.78-1.39 3.84-1.39 6.13 0 3.62.94 6.44 2.81 8.37 1.86 1.93 4.84 2.94 8.88 3.01.98.01 2.03-.09 3.12-.33.63-.13 1.19-.29 1.67-.46-.19.29-.53.6-.99.91-.85.57-2.27.85-4.25.82-1.4-.02-2.68-.14-3.81-.34a15.96 15.96 0 0 1-3.47-1.1.488.488 0 0 0-.48.04c-.14.09-.23.25-.23.42v8.63c0 .2.12.39.31.46 1.35.55 2.74.92 4.14 1.11 1.38.19 2.99.29 4.8.3h.12c3.25 0 6.06-.62 8.35-1.84 2.31-1.23 4.1-2.94 5.31-5.09 1.2-2.13 1.81-4.55 1.81-7.19v-5.28c0-4.3-1.08-7.68-3.2-10.05Zm-8.21 8.12v1.23c-.41.17-.82.32-1.23.43-.48.13-.98.19-1.45.18-1.02-.03-1.72-.25-2.08-.65-.37-.42-.56-1.05-.56-1.86 0-.76.19-1.34.57-1.7.43-.42 1.16-.61 2.14-.58.96.03 1.64.26 2.03.67.39.42.59 1.19.59 2.28Zm38.07-6.2c-2.27-2.85-6.04-4.4-11.2-4.62-5.27-.22-9.14 1.06-11.51 3.79-2.37 2.73-3.57 6.77-3.57 12.02s1.2 9.3 3.57 12.14c2.37 2.85 6.24 4.31 11.5 4.34h.13c5.1 0 8.83-1.39 11.09-4.14 2.23-2.71 3.36-6.65 3.36-11.68s-1.13-9.05-3.36-11.85Zm-9 15.81c-.42.79-1.15 1.17-2.21 1.15-1.08-.02-1.81-.42-2.24-1.24-.48-.91-.72-2.35-.72-4.28s.24-3.35.72-4.24c.42-.79 1.16-1.16 2.22-1.12 1.07.03 1.8.45 2.23 1.27.47.91.71 2.34.71 4.25s-.24 3.33-.71 4.21Zm24.73-19.11a.497.497 0 0 0-.39-.21l-8.31-.35c-.25-.03-.45.15-.51.38l-2.88 11.58c-.04.15 0 .3.09.42s.23.19.38.2l7.62.21h.01c.22 0 .41-.14.48-.35l3.57-11.45c.05-.15.02-.31-.07-.44Zm18.26 20.52c-.34-.88-.92-1.64-1.75-2.26-.79-.6-1.92-1.15-3.34-1.64-1-.35-1.93-.63-2.77-.82-.32-.07-.52-.14-.65-.19.25-.05.56-.07.91-.07h1.21c.71.02 1.54.15 2.49.38.94.24 1.82.57 2.63.98a.504.504 0 0 0 .73-.45v-6.79c0-.2-.12-.38-.3-.46-.56-.24-1.29-.45-2.22-.63-.9-.18-1.87-.34-2.88-.48-1.04-.14-2-.22-2.86-.25-3.61-.12-6.35.43-8.15 1.63-1.87 1.24-2.82 3.13-2.82 5.61 0 1.85.44 3.31 1.32 4.34.84 1 2.2 1.9 4.06 2.69.72.29 1.43.53 2.11.73.65.19 1.19.36 1.61.51.07.03.12.05.17.07-.41.02-.92.03-1.53.02-.54 0-1.24-.09-2.05-.25-.83-.16-1.68-.38-2.54-.66-.84-.27-1.59-.59-2.22-.95a.497.497 0 0 0-.5 0c-.15.09-.25.25-.25.43v6.99c0 .19.11.36.28.45.91.45 2.23.84 3.91 1.16 1.66.31 3.45.48 5.3.49h.12c3.39 0 6-.66 7.76-1.97 1.81-1.35 2.74-3.21 2.74-5.53 0-1.21-.16-2.26-.49-3.11ZM66.04 82.94c-.6-.79-1.4-1.47-2.36-2.01.66-.64 1.2-1.44 1.63-2.36.55-1.18.83-2.6.83-4.23 0-3-.93-5.33-2.75-6.94-1.82-1.6-4.37-2.38-7.69-2.38l-18.85.11c-.27 0-.5.23-.5.5v32.46c0 .14.06.27.15.36a.5.5 0 0 0 .35.14h.02l19.04-.79c3.53-.15 6.32-1.16 8.29-3.01 1.97-1.85 2.97-4.35 2.97-7.44 0-1.92-.38-3.4-1.14-4.39Zm-17.38-5.6v-3.13l3.91-.06c.72-.01 1.2.13 1.48.41.23.23.34.56.34 1.03 0 1.14-.55 1.64-1.84 1.67l-3.89.08Zm5.73 9.77c0 1.15-.55 1.66-1.85 1.7l-3.88.13v-3.13l3.91-.11c.71-.02 1.19.11 1.48.39.23.22.34.56.34 1.03Zm46.15 8.16L89.59 65.15c-.07-.2-.28-.35-.47-.33l-11.37.06c-.21 0-.39.13-.47.33L65.74 96.67c-.06.16-.03.33.07.47.09.13.24.2.4.2h.02l11.73-.49c.2 0 .38-.14.45-.33l1.99-5.53 6.14-.21 1.94 5.29c.07.2.26.34.49.33l11.13-.46c.16 0 .31-.09.39-.22.09-.13.11-.3.05-.45ZM84.95 81.98l-2.99.08 1.5-4 1.49 3.93Zm42.51-.62c-.52-.74-1.2-1.36-2.03-1.87.56-.6 1.03-1.33 1.4-2.19.47-1.09.72-2.42.72-3.93 0-2.79-.8-4.97-2.39-6.47-1.58-1.5-3.86-2.24-6.69-2.24l-16.23.09c-.27 0-.5.22-.5.5v30.1c0 .14.06.27.15.36a.5.5 0 0 0 .35.14h.02l16.4-.68c3.07-.13 5.5-1.07 7.21-2.8 1.71-1.72 2.57-4.05 2.57-6.92 0-1.79-.33-3.16-.99-4.09Zm-14.99-5.26v-2.83l3.3-.05c.57 0 .96.1 1.19.33.2.2.31.53.31.97 0 1.04-.45 1.49-1.52 1.51l-3.28.06Zm4.8 9.11c0 1.04-.46 1.5-1.52 1.54l-3.28.11v-2.83l3.31-.09c.55-.01.96.09 1.19.32.2.2.31.52.31.96Z"/><path d="M154.12 64.7a.482.482 0 0 0-.42-.23l-9.74.05c-.2 0-.38.12-.46.3l-3.56 8.13-3.59-8.09a.505.505 0 0 0-.46-.3l-10.19.06a.503.503 0 0 0-.44.73l9.37 18.25v10.38c0 .14.06.27.15.36a.5.5 0 0 0 .35.14h.02l9.56-.4c.27-.01.48-.23.48-.5V83.32l8.94-18.13c.08-.16.07-.34-.02-.49Z"/><path d="M68.93 56.62c-1.8 0-3.38-.11-4.74-.29-1.36-.19-2.7-.55-4.02-1.08v-8.63c1.22.54 2.42.92 3.59 1.14 1.16.21 2.46.33 3.89.35 2.09.03 3.6-.27 4.54-.91.94-.63 1.41-1.26 1.41-1.87v-.29c-.59.31-1.42.58-2.47.81-1.05.23-2.06.33-3 .32-3.91-.06-6.76-1.01-8.53-2.86-1.78-1.85-2.67-4.53-2.67-8.03 0-2.21.45-4.18 1.34-5.9.89-1.71 2.35-3.03 4.37-3.95 2.01-.92 4.67-1.31 7.95-1.17 4.85.2 8.29 1.46 10.35 3.76 2.05 2.29 3.08 5.53 3.08 9.72v5.28c0 2.56-.58 4.87-1.74 6.94-1.17 2.07-2.86 3.71-5.11 4.9-2.25 1.2-4.99 1.79-8.23 1.78Zm1.46-18.48c.53.01 1.07-.05 1.6-.2.53-.15 1.06-.34 1.6-.59v-1.56c0-1.23-.24-2.1-.73-2.62s-1.28-.8-2.38-.83c-2.15-.07-3.22.86-3.22 2.78 0 .95.23 1.68.69 2.2.46.52 1.27.79 2.44.82Z" class="cls-1"/><path d="M69.04 57.12h-.12c-1.81 0-3.43-.11-4.8-.3-1.4-.19-2.79-.57-4.14-1.11a.499.499 0 0 1-.31-.46v-8.63a.504.504 0 0 1 .71-.46c1.18.53 2.35.9 3.47 1.1 1.13.21 2.41.32 3.81.34 1.97.03 3.4-.25 4.25-.82.47-.31.8-.62.99-.91-.48.17-1.04.32-1.67.46-1.09.23-2.14.34-3.12.33-4.04-.07-7.03-1.08-8.88-3.01-1.86-1.94-2.81-4.76-2.81-8.37 0-2.28.47-4.34 1.39-6.13.94-1.81 2.49-3.21 4.61-4.18 2.07-.95 4.82-1.36 8.18-1.21 4.95.21 8.55 1.53 10.7 3.92 2.13 2.37 3.2 5.75 3.2 10.05v5.28c0 2.64-.61 5.05-1.81 7.19-1.21 2.15-2.99 3.86-5.31 5.09-2.29 1.22-5.1 1.84-8.35 1.84Zm-8.37-2.21c1.17.45 2.38.76 3.58.93 1.33.18 2.9.28 4.67.29 3.13 0 5.83-.56 8-1.72 2.14-1.14 3.79-2.72 4.9-4.7 1.11-1.98 1.68-4.23 1.68-6.7v-5.28c0-4.05-.99-7.2-2.95-9.38-1.96-2.19-5.33-3.39-10-3.59-3.19-.13-5.79.25-7.72 1.12-1.91.87-3.3 2.13-4.13 3.73-.85 1.64-1.28 3.54-1.28 5.67 0 3.35.85 5.93 2.53 7.68 1.66 1.73 4.42 2.64 8.18 2.7.89.01 1.88-.09 2.89-.31 1-.21 1.79-.47 2.34-.76.16-.08.34-.08.49.01.15.09.24.25.24.43v.29c0 .8-.53 1.55-1.63 2.29-1.04.7-2.61 1.03-4.82.99-1.45-.02-2.79-.14-3.97-.36-.97-.18-1.98-.47-2.99-.88v7.54Zm9.86-16.27h-.15c-1.32-.03-2.24-.36-2.8-.99-.54-.61-.81-1.46-.81-2.53s.29-1.86.87-2.42c.63-.61 1.6-.91 2.87-.86 1.23.04 2.15.37 2.73.99.58.62.86 1.59.86 2.96v1.56c0 .19-.11.37-.29.45-.55.26-1.12.46-1.67.62-.53.15-1.06.22-1.6.22Zm-.13-1c.48 0 .97-.05 1.45-.18.41-.11.82-.26 1.23-.43V35.8c0-1.09-.2-1.86-.59-2.28-.39-.42-1.07-.64-2.03-.67-.98-.03-1.71.16-2.14.58-.38.36-.57.94-.57 1.7 0 .82.19 1.44.56 1.86.36.41 1.06.63 2.08.65Z"/><path d="M99.94 56.76c-5.11-.02-8.83-1.4-11.11-4.16-2.3-2.76-3.45-6.71-3.45-11.82s1.15-9.04 3.45-11.69c2.28-2.63 6-3.83 11.11-3.62 5.05.21 8.65 1.69 10.83 4.43 2.17 2.72 3.25 6.57 3.25 11.54s-1.08 8.73-3.25 11.37c-2.18 2.65-5.78 3.98-10.83 3.95Zm0-9.71c1.26.02 2.15-.45 2.66-1.41.51-.96.77-2.44.77-4.44s-.26-3.49-.77-4.48c-.51-.99-1.4-1.5-2.66-1.54-1.26-.04-2.16.42-2.67 1.39-.52.96-.78 2.45-.78 4.47s.26 3.52.78 4.51c.52.99 1.41 1.49 2.67 1.51Z" class="cls-1"/><path d="M100.07 57.26h-.13c-5.26-.02-9.13-1.48-11.5-4.34-2.37-2.85-3.57-6.93-3.57-12.14s1.2-9.29 3.57-12.02c2.38-2.73 6.24-4.01 11.51-3.79 5.16.22 8.93 1.77 11.2 4.62 2.23 2.8 3.36 6.79 3.36 11.85s-1.13 8.97-3.36 11.68c-2.25 2.74-5.99 4.13-11.09 4.14Zm-1.25-31.31c-4.38 0-7.62 1.17-9.62 3.47-2.21 2.54-3.33 6.36-3.33 11.36s1.12 8.84 3.34 11.5c2.17 2.62 5.78 3.95 10.73 3.98 4.88.05 8.37-1.25 10.44-3.77 2.08-2.53 3.14-6.25 3.14-11.05s-1.06-8.61-3.14-11.23c-2.08-2.61-5.6-4.04-10.46-4.24-.37-.02-.74-.02-1.1-.02Zm1.2 21.6h-.09c-1.46-.02-2.5-.62-3.11-1.78-.56-1.07-.83-2.62-.83-4.74s.27-3.66.84-4.71c.61-1.14 1.67-1.69 3.13-1.65 1.45.04 2.49.65 3.09 1.81.55 1.07.82 2.61.82 4.71s-.27 3.63-.82 4.68c-.59 1.11-1.61 1.68-3.02 1.68Zm-.07-1c1.06.03 1.79-.36 2.21-1.15.47-.88.71-2.3.71-4.21s-.24-3.34-.71-4.25c-.43-.82-1.15-1.23-2.23-1.27-1.06-.04-1.8.33-2.22 1.12-.48.88-.72 2.31-.72 4.24s.24 3.37.72 4.28c.43.82 1.16 1.22 2.24 1.24Z"/><path d="m115.3 37.82 2.88-11.58 8.31.35-3.57 11.45-7.62-.21Z" class="cls-1"/><path d="M122.91 38.53h-.01l-7.62-.21c-.15 0-.29-.08-.38-.2-.09-.12-.12-.28-.09-.42l2.88-11.58c.06-.23.24-.41.51-.38l8.31.35c.15 0 .3.08.39.21.09.13.11.29.07.44l-3.57 11.45c-.07.21-.26.35-.48.35Zm-6.98-1.2 6.62.18 3.26-10.46-7.25-.3-2.63 10.58Z"/><path d="M135.03 56.92c-1.84 0-3.58-.17-5.21-.48-1.64-.31-2.91-.68-3.79-1.12v-6.99c.66.37 1.43.7 2.31.99.88.29 1.74.51 2.6.67.86.16 1.57.25 2.14.25.62 0 1.14 0 1.56-.03.42-.02.63-.17.63-.44 0-.24-.22-.44-.65-.6-.43-.16-.98-.33-1.64-.52a23 23 0 0 1-2.06-.71c-1.78-.76-3.06-1.6-3.86-2.55-.8-.94-1.2-2.28-1.2-4.02 0-2.31.87-4.05 2.6-5.2 1.72-1.14 4.35-1.66 7.86-1.55.86.03 1.8.11 2.81.25s1.96.3 2.85.47c.89.18 1.59.38 2.12.6v6.79c-.85-.44-1.76-.78-2.74-1.02-.98-.25-1.85-.38-2.6-.4-.38 0-.78-.01-1.22 0-.44 0-.82.04-1.13.11-.31.07-.46.21-.46.42 0 .3.41.54 1.23.73.82.18 1.72.45 2.71.8 1.38.48 2.45 1 3.21 1.57.75.57 1.28 1.25 1.58 2.04.3.79.45 1.77.45 2.93 0 2.17-.84 3.88-2.53 5.13-1.7 1.26-4.22 1.88-7.58 1.87Z" class="cls-1"/><path d="M135.14 57.42h-.12c-1.86 0-3.64-.17-5.3-.49-1.68-.32-3-.71-3.92-1.16a.5.5 0 0 1-.28-.45v-6.99c0-.18.09-.34.25-.43.15-.09.34-.09.5 0 .63.36 1.38.68 2.22.95.86.28 1.71.5 2.54.66.82.16 1.51.24 2.05.25.61 0 1.12 0 1.53-.02-.04-.02-.1-.04-.17-.07-.42-.15-.96-.32-1.61-.51-.68-.19-1.38-.44-2.11-.73-1.85-.79-3.22-1.69-4.06-2.69-.87-1.03-1.32-2.49-1.32-4.34 0-2.48.95-4.37 2.82-5.61 1.8-1.2 4.54-1.75 8.15-1.63.86.03 1.83.11 2.86.25 1.02.14 1.99.3 2.88.48.93.19 1.66.39 2.22.63.18.08.3.26.3.46v6.79a.504.504 0 0 1-.73.45c-.81-.42-1.7-.75-2.63-.98-.94-.24-1.78-.37-2.49-.38-.37 0-.77-.01-1.21 0-.35 0-.66.03-.91.07.13.05.33.12.65.19.84.19 1.77.46 2.77.82 1.42.49 2.54 1.04 3.34 1.64.83.62 1.41 1.38 1.75 2.26.32.85.49 1.89.49 3.11 0 2.33-.92 4.19-2.74 5.53-1.76 1.3-4.37 1.97-7.76 1.97Zm-.11-1c3.2 0 5.67-.58 7.28-1.77 1.57-1.16 2.33-2.71 2.33-4.73 0-1.09-.14-2.02-.42-2.75-.27-.71-.73-1.31-1.42-1.82-.71-.53-1.74-1.03-3.07-1.49-.96-.34-1.86-.61-2.65-.79-.44-.1-1.62-.36-1.62-1.21 0-.22.08-.74.86-.91.34-.07.75-.12 1.23-.12h1.24c.78.02 1.69.16 2.71.41.74.19 1.45.43 2.12.72v-5.65c-.46-.16-1.03-.32-1.72-.45-.87-.17-1.82-.33-2.82-.47-1-.14-1.93-.22-2.76-.24-3.4-.11-5.94.38-7.57 1.46-1.6 1.06-2.38 2.63-2.38 4.78 0 1.61.36 2.85 1.08 3.7.74.88 1.98 1.69 3.68 2.41.68.27 1.36.5 2 .69.68.19 1.24.37 1.68.53.81.29.98.74.98 1.07 0 .21-.08.88-1.1.94-.43.03-.96.03-1.6.03-.6 0-1.35-.1-2.23-.26-.87-.16-1.77-.39-2.66-.69-.6-.19-1.15-.41-1.66-.65v5.85c.82.36 1.96.67 3.38.94 1.6.3 3.33.46 5.12.47Z"/><path d="M41.42 98.08V65.62l18.85-.11c3.18-.02 5.62.74 7.35 2.26 1.72 1.52 2.58 3.7 2.58 6.57 0 1.56-.26 2.9-.78 4.02-.52 1.12-1.21 2.01-2.06 2.68 1.2.56 2.15 1.29 2.84 2.2.69.91 1.04 2.27 1.04 4.09 0 2.96-.94 5.31-2.81 7.08-1.89 1.77-4.54 2.73-7.97 2.87l-19.04.79Zm11.29-20.23 4.4-.09c1.55-.03 2.33-.75 2.33-2.17 0-1.32-.78-1.96-2.33-1.94l-4.4.07v4.13Zm0 11.6 4.4-.14c1.55-.05 2.33-.78 2.33-2.2 0-1.32-.78-1.95-2.33-1.91l-4.4.12v4.13Z" class="cls-1"/><path d="M41.42 98.58c-.13 0-.25-.05-.35-.14a.475.475 0 0 1-.15-.36V65.62c0-.27.22-.5.5-.5l18.85-.11c3.32 0 5.87.78 7.69 2.38 1.83 1.61 2.75 3.94 2.75 6.94 0 1.63-.28 3.05-.83 4.23-.43.93-.98 1.72-1.64 2.36a7.75 7.75 0 0 1 2.36 2.01c.76.99 1.14 2.47 1.14 4.39 0 3.09-1 5.59-2.97 7.44-1.97 1.85-4.76 2.86-8.29 3.01l-19.04.79h-.02Zm.5-32.46v31.44l18.52-.77c3.28-.14 5.86-1.06 7.65-2.74 1.79-1.68 2.65-3.87 2.65-6.71 0-1.7-.31-2.97-.94-3.79-.64-.84-1.53-1.53-2.66-2.05a.49.49 0 0 1-.29-.4c-.02-.17.05-.34.19-.45.79-.62 1.43-1.46 1.92-2.5s.73-2.32.73-3.81c0-2.74-.79-4.76-2.41-6.19-1.63-1.43-3.96-2.16-7.02-2.13l-18.35.1Zm10.79 23.83c-.13 0-.25-.05-.35-.14a.475.475 0 0 1-.15-.36v-4.13c0-.27.22-.49.49-.5l4.4-.12c.99-.03 1.72.2 2.2.67.43.41.64 1 .64 1.74 0 1.68-1 2.64-2.81 2.7l-4.4.14h-.02Zm.5-4.15v3.13l3.88-.13c1.29-.04 1.85-.55 1.85-1.7 0-.47-.11-.8-.34-1.03-.28-.28-.77-.41-1.48-.39l-3.91.11Zm-.5-7.45a.5.5 0 0 1-.35-.14.475.475 0 0 1-.15-.36v-4.13c0-.27.22-.5.49-.5l4.4-.06c.95-.02 1.71.22 2.2.69.42.42.64 1.01.64 1.75 0 1.69-1 2.63-2.82 2.67l-4.4.09Zm.5-4.14v3.13l3.89-.08c1.29-.02 1.84-.52 1.84-1.67 0-.47-.11-.81-.34-1.03-.29-.28-.81-.43-1.48-.41l-3.91.06Z"/><path d="M70.77 96.86 82.31 65.4l11.37-.06 10.95 30.12-11.13.46-2.06-5.63-6.84.24-2.11 5.85-11.73.49Zm15.02-14.28 4.44-.11-2.21-5.82-2.23 5.94Z" class="cls-1"/><path d="M70.77 97.36c-.16 0-.31-.08-.4-.2a.526.526 0 0 1-.07-.47l11.54-31.46c.07-.2.26-.33.47-.33l11.37-.06c.17-.02.4.13.47.33l10.95 30.12c.05.15.03.32-.05.45-.09.13-.24.21-.39.22l-11.13.46a.479.479 0 0 1-.49-.33L91.1 90.8l-6.14.21-1.99 5.53a.51.51 0 0 1-.45.33l-11.73.49h-.02Zm11.89-31.47L71.5 96.32l10.64-.44 1.99-5.53a.51.51 0 0 1 .45-.33l6.84-.24c.21-.02.41.12.49.33l1.94 5.28 10.08-.42-10.59-29.14-10.67.06Zm3.13 17.19c-.16 0-.31-.08-.41-.21a.494.494 0 0 1-.06-.47l2.23-5.94c.07-.19.26-.32.47-.32.21 0 .39.13.47.32l2.21 5.82a.498.498 0 0 1-.45.68l-4.44.11h-.01Zm2.23-5.03-1.5 4 2.99-.08-1.49-3.92Z"/><path d="M106.8 95.35v-30.1l16.23-.09c2.74-.02 4.85.69 6.35 2.1 1.49 1.41 2.23 3.44 2.23 6.1 0 1.45-.22 2.7-.67 3.73-.45 1.04-1.04 1.87-1.78 2.49 1.04.52 1.86 1.2 2.46 2.05.6.85.9 2.11.9 3.8 0 2.75-.81 4.94-2.43 6.57-1.63 1.64-3.92 2.53-6.88 2.65l-16.4.68Zm9.73-18.74 3.79-.07c1.34-.03 2.01-.7 2.01-2.01 0-1.22-.67-1.82-2.01-1.8l-3.79.06v3.83Zm0 10.76 3.79-.12c1.34-.04 2.01-.72 2.01-2.04 0-1.22-.67-1.82-2.01-1.78l-3.79.11v3.83Z" class="cls-1"/><path d="M106.8 95.85c-.13 0-.25-.05-.35-.14a.475.475 0 0 1-.15-.36v-30.1c0-.27.22-.5.5-.5l16.24-.09c2.86 0 5.11.74 6.69 2.24 1.58 1.5 2.39 3.68 2.39 6.47 0 1.51-.24 2.84-.71 3.93-.37.86-.84 1.59-1.4 2.19.83.51 1.51 1.13 2.03 1.87.66.93.99 2.3.99 4.09 0 2.87-.87 5.2-2.57 6.92-1.71 1.73-4.14 2.67-7.21 2.8l-16.4.68h-.02Zm.5-30.1v29.08l15.88-.66c2.81-.12 5.01-.96 6.54-2.5 1.52-1.53 2.28-3.62 2.28-6.22 0-1.58-.27-2.76-.8-3.52-.55-.78-1.31-1.41-2.27-1.89a.504.504 0 0 1-.1-.83c.68-.57 1.23-1.35 1.65-2.31.42-.97.63-2.16.63-3.53 0-2.5-.7-4.44-2.07-5.74-1.39-1.32-3.44-1.97-6-1.96l-15.74.09Zm9.23 22.12c-.13 0-.25-.05-.35-.14a.475.475 0 0 1-.15-.36v-3.83c0-.27.22-.49.49-.5l3.79-.11c.85-.02 1.48.18 1.91.6.4.39.61.96.61 1.68 0 1.58-.89 2.48-2.49 2.54l-3.79.12h-.02Zm.5-3.84v2.83l3.28-.11c1.07-.03 1.53-.49 1.53-1.54 0-.44-.1-.77-.31-.96-.23-.23-.64-.33-1.19-.32l-3.31.09Zm-.5-6.92a.5.5 0 0 1-.35-.14.475.475 0 0 1-.15-.36v-3.83c0-.27.22-.5.49-.5l3.79-.06c.85-.02 1.48.2 1.91.62.4.4.61.96.61 1.68 0 1.59-.89 2.48-2.5 2.51l-3.79.07Zm.5-3.84v2.83l3.28-.06c1.06-.02 1.52-.47 1.52-1.51 0-.44-.1-.77-.31-.97-.23-.23-.61-.34-1.19-.33l-3.3.05Z"/><path d="M139.69 93.98V83.47l-9.43-18.35 10.19-.06 4.05 9.13 4.01-9.17 9.74-.05-8.99 18.24v10.38l-9.56.4Z" class="cls-1"/><path d="M139.69 94.48c-.13 0-.25-.05-.35-.14a.475.475 0 0 1-.15-.36V83.6l-9.37-18.25a.504.504 0 0 1 .44-.73l10.19-.06c.2 0 .38.12.46.3l3.59 8.09 3.56-8.13c.08-.18.26-.3.46-.3l9.74-.05c.17 0 .33.09.42.23.09.15.1.33.02.49l-8.94 18.13v10.26c0 .27-.21.49-.48.5l-9.56.4h-.02Zm-8.61-28.86 9.06 17.63c.04.07.06.15.06.23v9.98l8.56-.36v-9.9c0-.08.02-.15.05-.22l8.64-17.51-8.6.05-3.88 8.87c-.08.18-.26.3-.46.3s-.38-.12-.46-.3l-3.92-8.83-9.05.05Z"/></g></svg>