<svg xmlns="http://www.w3.org/2000/svg" viewBox="0 0 116.23 106.2"><defs><filter id="drop-shadow-1" width="141" height="131" x="-8.33" y="-8.09" filterUnits="userSpaceOnUse"><feOffset dx="4" dy="4"/><feGaussianBlur result="blur" stdDeviation="4"/><feFlood flood-color="#41008c" flood-opacity=".25"/><feComposite in2="blur" operator="in"/><feComposite in="SourceGraphic"/></filter><style>.cls-5{fill:#fff}</style></defs><g style="isolation:isolate"><g id="Layer_2" data-name="Layer 2"><g id="OBJECTS" style="filter:url(#drop-shadow-1)"><path d="M115.82 29.94C112.93 7.87 99.02 0 86.96 0 75.84 0 65.22 6.11 58.11 15.84 51.01 6.11 40.39 0 29.27 0 17.22 0 3.3 7.87.41 29.94-1.9 47.54 5.56 65.4 21.96 81.59 34 93.48 47.72 101.51 53.9 104.83c.19.14.39.27.59.39 1.03.62 2.19.94 3.35.97h.37c1.23 0 2.46-.33 3.56-.98.21-.13.42-.27.62-.41 6.21-3.33 19.88-11.36 31.89-23.21 16.4-16.19 23.85-34.05 21.55-51.65Z" class="cls-5"/><path d="M111.53 30.51C109 11.21 97.18 4.33 86.96 4.33c-11.74 0-22.9 7.89-28.85 19.81-5.94-11.92-17.1-19.81-28.84-19.81-10.22 0-22.04 6.88-24.57 26.18-5.02 38.33 41.18 65.17 51.69 70.74.11.09.22.17.34.24.3.18.64.29.99.34a2.546 2.546 0 0 0 1.82-.32c.16-.09.3-.2.43-.32 10.74-5.72 56.56-32.5 51.56-70.68Z" style="fill:#430069"/><path d="M58.21 99.18v.09l-.1-.05c-.03.02-.06.04-.1.05v-.09c-1.72-.9-4.32-2.33-7.45-4.24C34.19 84.93 3.24 61.66 7.28 30.85c4.61-35.23 41.88-28.45 50.84.23C61.89 19 70.69 10.81 79.94 8.01c12.73-3.87 26.34 2.44 29.02 22.84 4.81 36.7-40.02 62.71-50.75 68.34Z" style="fill:#e6515d"/><path d="M56.19 90.14c-.19 0-.38-.05-.55-.17-19.7-13.1-32.34-25.96-38.63-39.33-.24-.5-.02-1.1.48-1.33.5-.24 1.1-.02 1.33.48 6.13 13.02 18.54 25.62 37.93 38.51.46.31.58.93.28 1.39-.19.29-.51.45-.83.45Zm-40.2-43.85c-.43 0-.82-.28-.96-.71-1.48-4.8-1.82-9.82-.96-14.53.1-.54.62-.91 1.16-.81.54.1.9.62.81 1.16-.8 4.39-.48 9.09.91 13.58a.997.997 0 0 1-.66 1.25c-.1.03-.2.04-.3.04Zm.45-18.83c-.13 0-.26-.02-.38-.08-.51-.21-.75-.8-.54-1.31 2.94-7.04 10.22-12.02 18.12-12.38.56-.02 1.02.4 1.05.95.03.55-.4 1.02-.95 1.05-7.15.33-13.72 4.81-16.37 11.15-.16.38-.53.62-.92.62Z" class="cls-5"/><path d="M58.21 99.18v.09l-.1-.05c-.03.02-.06.04-.1.05v-.09c-1.72-.9-4.32-2.33-7.45-4.24 13.74-9.43 34.96-27.81 40.69-54.13 4.81-22.15-3.23-30.11-11.31-32.8 12.73-3.87 26.34 2.44 29.02 22.84 4.81 36.7-40.02 62.71-50.75 68.34Z" style="fill:#adc0e0;mix-blend-mode:multiply"/></g></g></g></svg>