<svg xmlns="http://www.w3.org/2000/svg" width="40" height="40" fill="none"><path fill="#00DC33" d="M0 20C0 12.523 0 8.785 1.608 6A12 12 0 0 1 6 1.608C8.785 0 12.523 0 20 0s11.215 0 14 1.608A12 12 0 0 1 38.392 6C40 8.785 40 12.523 40 20s0 11.215-1.608 14A12 12 0 0 1 34 38.392C31.215 40 27.477 40 20 40S8.785 40 6 38.392A12 12 0 0 1 1.608 34C0 31.215 0 27.477 0 20Z"/><path fill="#fff" fill-rule="evenodd" d="M28.044 7.61a2.21 2.21 0 0 1 3.018-.028l.08.078.274.287c2.775 2.985 3.81 6.463 3.544 9.86-.27 3.444-1.859 6.692-4.076 9.26-2.217 2.565-5.176 4.585-8.374 5.462-3.239.887-6.78.604-9.855-1.566-2.608-1.841-3.6-4.817-3.668-7.707a39.616 39.616 0 0 1-4.62-2.695l-.426-.29-.09-.065a2.151 2.151 0 0 1-.46-2.95 2.207 2.207 0 0 1 2.956-.605l.094.062.39.264a38.07 38.07 0 0 0 2.769 1.7c.566-1.988 1.505-3.897 2.741-5.47 1.853-2.357 4.63-4.242 8.033-3.96 3.065.253 5.33 1.834 6.498 4.065 1.132 2.16 1.15 4.76.16 6.995-1.009 2.279-3.056 4.177-6.001 4.96-2.12.562-4.603.524-7.404-.23a24.508 24.508 0 0 1-3.506-1.252c-.274-.121-.512.063 0 .384 1.443 1.023 3.475 1.881 4.063 2.17.277.449.622.818 1.017 1.097 1.818 1.283 3.944 1.518 6.139.916 2.234-.612 4.474-2.09 6.211-4.1 1.736-2.01 2.856-4.417 3.04-6.78.174-2.228-.47-4.518-2.407-6.598l-.191-.2-.077-.083a2.15 2.15 0 0 1 .128-2.982Zm-8.035 5.955c-1.406-.116-2.89.624-4.208 2.301-1.004 1.278-1.763 2.937-2.15 4.645 2.758.943 4.814.95 6.243.57 1.654-.439 2.646-1.433 3.123-2.512.497-1.122.446-2.345-.036-3.263-.444-.849-1.339-1.606-2.972-1.74Z" clip-rule="evenodd"/></svg>