<svg xmlns="http://www.w3.org/2000/svg" id="Layer_2" data-name="Layer 2" viewBox="0 0 133.67 136.22"><defs><style>.cls-1{fill:#ff7ec8}</style></defs><g id="OBJECTS"><path d="M133.25 78.57v-.02c-2.43-9.54-2.18-20.67-1.7-29.27.07-.59.15-1.21.24-1.85.67-5.03 1.5-11.29-1.5-14.52-1.38-1.49-3.46-2.16-6.14-2-9.46-.29-18.94-2.1-28.2-5.38-3.36-4.83-10.06-7.56-16-6.5-4.4.78-7.48 3.48-8.75 7.62-2.18-1.54-4.53-2.64-6.88-3.19.44-3.18-.18-6.06-1.78-8.15-1.46-1.91-3.66-3.05-6.34-3.31-1.64-.3-3.42-1.13-5.29-2.02-3.93-1.86-8.38-3.96-12.2-.77-10.68-6.22-20.67-6.19-28.16.1C.84 17.44-2.78 34.35 2.29 47.82c2.43 6.45 8.88 17.09 25.08 17.37-10.39 8.39-10.54 25.42-4.47 36.98 3.26 5.52 9.71 9.99 16.83 11.65 5.85 1.37 11.41.69 15.73-1.91 3.27 7.05 10.97 13.33 18.55 15.05 4.89 1.11 9.33.29 12.92-2.38-.17 2.19.28 4.03 1.34 5.49 2.53 3.46 8.07 4.23 12.95 4.91 1.57.22 3.05.42 4.34.7 1.52.36 2.87.55 4.07.55 2.07 0 3.68-.55 4.86-1.64 3.42-3.18 2.28-10.24 1.27-16.47-.33-2.03-.64-3.96-.77-5.6 2.08-.11 3.75-.93 4.95-2.42 2.33-2.9 2.34-7.61 1.57-11.07.04-.66.1-1.32.17-1.99.19-2 .38-4.06.04-6.06 4.34.67 7.7-.06 9.72-2.12 2.11-2.15 2.73-5.69 1.81-10.26Z"/><path d="M132.76 74.09c-2.35-9.22-2.25-19.95-1.71-29.46.81-6.81 3.32-18.43-6.93-17.81-9.63-.3-19.29-2.18-28.51-5.46-5.65-8.35-21.32-9.87-24.15 1.54-2.3-1.74-4.93-3.06-7.74-3.63.96-5.62-1.48-10.76-7.65-11.36-5.4-.98-12.03-7.51-17.34-2.66-41.99-24.9-55.08 55.85-9.86 54.86-11.44 7.9-11.54 25.81-5.55 37.23 5.92 10.01 22.12 15.93 32.36 9.27 4.71 10.99 21.43 21.41 31.9 12.23-1.89 10.94 10.82 10.21 18.1 11.77 16.02 3.84 9.27-14.23 8.78-23.17 6.92.02 7.74-7.7 6.55-12.97.18-2.86.76-5.89.07-8.71 9.09 1.68 13.53-2.57 11.68-11.67Z" style="fill:#fff"/><path d="M109.63 131.64c-1.2 0-2.55-.18-4.07-.55-1.29-.28-2.78-.48-4.34-.7-4.88-.68-10.42-1.44-12.95-4.91-1.06-1.45-1.51-3.29-1.34-5.49-3.59 2.66-8.03 3.48-12.92 2.38-7.58-1.72-15.28-8-18.55-15.05-4.32 2.6-9.88 3.28-15.73 1.91-7.12-1.67-13.57-6.13-16.83-11.65C16.83 86.02 16.98 69 27.37 60.6 11.18 60.32 4.72 49.68 2.29 43.23-2.78 29.77.84 12.86 10.52 4.74c7.49-6.28 17.48-6.31 28.16-.1 3.82-3.19 8.27-1.09 12.2.77 1.88.89 3.65 1.72 5.29 2.02 2.68.26 4.89 1.4 6.34 3.31 1.6 2.09 2.22 4.97 1.78 8.15 2.35.55 4.71 1.64 6.88 3.19 1.27-4.14 4.35-6.84 8.75-7.62 5.94-1.06 12.64 1.67 16 6.5 9.26 3.28 18.75 5.09 28.2 5.38 2.68-.16 4.76.51 6.14 2 3 3.23 2.17 9.49 1.5 14.52-.09.65-.17 1.27-.24 1.85-.48 8.6-.73 19.73 1.7 29.27V74c.93 4.57.3 8.11-1.81 10.26-2.03 2.06-5.38 2.79-9.72 2.12.35 2 .15 4.06-.04 6.06-.06.67-.13 1.34-.17 1.99.77 3.47.75 8.18-1.57 11.07-1.2 1.5-2.87 2.31-4.95 2.42.13 1.65.44 3.57.77 5.6 1.01 6.23 2.15 13.29-1.27 16.47-1.18 1.1-2.79 1.64-4.86 1.64Zm-22.05-13.3c.08 0 .17.02.24.06.18.1.28.31.25.52-.43 2.51-.1 4.46 1 5.98 2.28 3.12 7.59 3.86 12.28 4.5 1.59.22 3.09.43 4.43.71 3.75.9 6.45.61 8.02-.85 3.03-2.81 1.93-9.59.96-15.58-.37-2.27-.71-4.42-.81-6.22 0-.14.04-.27.14-.37a.5.5 0 0 1 .36-.16h.03c2 0 3.58-.69 4.67-2.06 2.12-2.64 2.06-7.2 1.36-10.3-.01-.05-.01-.09-.01-.14.04-.69.11-1.39.18-2.1.2-2.16.42-4.4-.09-6.46-.04-.16 0-.34.12-.46s.29-.18.45-.15c4.36.81 7.66.22 9.56-1.71 1.86-1.9 2.4-5.13 1.54-9.35-2.46-9.67-2.21-20.9-1.73-29.6.07-.62.16-1.25.24-1.9.64-4.82 1.44-10.82-1.24-13.71-1.19-1.28-2.95-1.83-5.39-1.68-9.66-.29-19.3-2.14-28.7-5.49-.1-.04-.19-.1-.25-.19-3.07-4.53-9.56-7.21-15.09-6.21-4.23.75-7.13 3.45-8.15 7.59-.04.16-.16.3-.32.35-.16.06-.34.03-.47-.07-2.36-1.79-4.96-3.02-7.54-3.54a.495.495 0 0 1-.39-.57c.53-3.09-.01-5.88-1.52-7.85-1.28-1.68-3.25-2.69-5.69-2.93-1.82-.33-3.64-1.19-5.58-2.1-3.93-1.85-7.99-3.77-11.38-.69-.16.15-.4.17-.59.06C28.09-.48 18.38-.55 11.17 5.5 1.94 13.24-1.62 30.01 3.22 42.89c2.41 6.4 8.93 17.1 25.64 16.72a.507.507 0 0 1 .3.92c-10.79 7.46-11.5 24.94-5.39 36.58 3.12 5.27 9.33 9.56 16.19 11.17 5.81 1.36 11.3.62 15.45-2.08.12-.08.28-.1.42-.06.14.04.26.15.31.28 3 7 10.61 13.3 18.09 15 3.5.8 8.6.93 13.02-2.94.09-.08.21-.12.33-.12Z"/><path d="M40.58 20.57c-.42-1.02-.99-2.07-1.69-3.11-.71-1.05-1.59-2.06-2.62-2.99-1.05-.95-2.3-1.81-3.71-2.55-1.47-.76-3.14-1.34-4.97-1.73-2.07-.43-4.06-.47-5.92-.1-1.83.36-3.55 1.04-5.11 2.02-1.53.96-2.92 2.19-4.13 3.65a23.459 23.459 0 0 0-3.06 4.76c-.83 1.7-1.48 3.52-1.93 5.4-.45 1.88-.67 3.77-.67 5.62 0 1.68.17 3.36.51 4.99.34 1.63.85 3.22 1.54 4.71.67 1.48 1.51 2.9 2.49 4.21.97 1.3 2.12 2.5 3.43 3.55 1.28 1.03 2.73 1.93 4.32 2.67 1.55.72 3.28 1.26 5.15 1.61 1.47.27 2.84.4 4.11.4.96 0 1.88-.08 2.75-.23 2.12-.37 3.85-1.05 5.31-2.08 1.47-1.04 2.62-2.38 3.41-3.99.79-1.61 1.19-3.42 1.19-5.39 0-1.44-.2-2.88-.6-4.29-.4-1.43-.98-2.73-1.73-3.89a.502.502 0 0 0-.91.17c-.23 1.12-.64 1.97-1.22 2.53-.59.57-1.26.98-2 1.21-.76.23-1.53.34-2.29.31-.8-.03-1.45-.1-1.95-.21-.39-.09-.85-.23-1.36-.43-.5-.19-1.02-.45-1.56-.77-.52-.32-1.05-.72-1.58-1.19-.5-.46-.96-1.02-1.35-1.66-.39-.64-.71-1.41-.96-2.27-.25-.86-.37-1.86-.37-2.98 0-1.66.14-3.06.41-4.16.27-1.09.62-1.98 1.03-2.64.41-.65.86-1.15 1.34-1.46.49-.33.97-.55 1.43-.65.47-.11.89-.15 1.26-.12.39.03.7.08.92.13.36.08.66.2.91.35.24.15.44.31.58.48.14.17.24.33.31.49.06.16.09.3.09.42 0 .26-.08.46-.25.61-.14.13-.5.14-.95.03a2.342 2.342 0 0 1-1.21-.82c-.17-.21-.3-.49-.41-.84a.495.495 0 0 0-.36-.34.504.504 0 0 0-.48.14c-.51.53-.89 1.18-1.13 1.94-.23.74-.35 1.53-.35 2.36 0 .83.13 1.66.4 2.49.26.82.67 1.61 1.22 2.34.54.73 1.24 1.38 2.09 1.94.84.55 1.86.98 3.04 1.28 1.35.34 2.57.4 3.64.15 1.08-.24 2-.68 2.76-1.32.76-.64 1.34-1.43 1.75-2.35.4-.92.6-1.9.6-2.91 0-.75-.09-1.61-.26-2.55-.17-.94-.47-1.94-.89-2.96Zm34.05 38.39c-.08-1.84-.13-3.7-.14-5.52-.01-1.87-.02-3.68-.02-5.42 0-2.57-.26-4.93-.78-7.01s-1.25-3.94-2.18-5.53c-.93-1.59-2.05-2.95-3.33-4.03-1.28-1.08-2.7-1.91-4.23-2.48-1.55-.57-3.07-.77-4.52-.59-1.14.14-2.23.62-3.24 1.43.04-.97.08-1.91.13-2.81a99 99 0 0 1 .26-3.54c.1-1.03.21-2.02.34-2.92.12-.84.26-1.56.42-2.12.04-.13.02-.28-.05-.39a.5.5 0 0 0-.32-.23c-.37-.08-.79-.19-1.29-.33-.41-.11-.92-.26-1.51-.44-.6-.19-1.27-.41-2.01-.67-1.12-.39-2.41-.88-3.85-1.46-1.37-.55-2.9-1.22-4.66-2.05a.504.504 0 0 0-.67.67c.19.4.36.98.51 1.73.15.79.29 1.69.42 2.69.12.99.23 2.08.31 3.25.08 1.16.16 2.3.22 3.43.14 2.69.24 5.62.28 8.7v1.34c0 .68-.01 1.52-.03 2.5-.02.99-.05 2.09-.08 3.32-.03 1.22-.08 2.48-.15 3.77-.07 1.29-.17 2.57-.28 3.84-.11 1.26-.25 2.45-.42 3.54-.16 1.09-.36 2.05-.58 2.88-.21.79-.45 1.38-.71 1.76-.1.14-.11.32-.05.48.07.16.21.27.37.3 1.98.35 3.89.78 5.69 1.29 1.69.47 3.25.96 4.64 1.45.72.25 1.37.49 1.94.72.57.22 1.06.42 1.46.58.48.21.9.39 1.26.54.18.07.38.04.53-.09.14-.13.2-.33.15-.51-.37-1.27-.69-2.7-.96-4.27-.27-1.58-.5-3.27-.7-5.02-.2-1.77-.35-3.61-.47-5.47-.11-1.83-.19-3.71-.23-5.56.25-.54.51-1.05.78-1.52.27-.49.56-.9.85-1.23.27-.32.54-.55.8-.7.17-.1.33-.12.5-.06.4.15.76.4 1.06.75.33.37.61.81.84 1.31.24.51.43 1.06.58 1.63.15.59.27 1.16.35 1.71a20.391 20.391 0 0 1 .22 2.63c0 1.87-.02 3.64-.06 5.31-.04 1.65-.13 3.24-.26 4.73-.13 1.48-.33 2.89-.59 4.2-.25 1.3-.6 2.54-1.02 3.69-.05.13-.04.28.03.41.07.13.18.22.32.25.89.22 1.94.51 3.14.89 1.2.37 2.46.81 3.77 1.29 1.35.5 2.73 1.05 4.1 1.63 1.35.57 2.6 1.14 3.72 1.7.07.04.15.05.22.05.11 0 .23-.04.32-.11a.51.51 0 0 0 .17-.52c-.37-1.35-.66-2.88-.86-4.54-.2-1.66-.35-3.42-.43-5.23Zm17.16 9.6c-.3-1.58-.54-3.2-.73-4.82-.18-1.6-.32-3.22-.4-4.82-.08-1.6-.12-3.18-.12-4.69 0-2.67.12-5.16.36-7.42.23-2.24.54-4.15.91-5.69.03-.14 0-.28-.07-.39a.526.526 0 0 0-.34-.22c-.36-.06-.79-.15-1.28-.26-.41-.09-.91-.22-1.49-.38-.59-.16-1.25-.36-1.99-.61-1.15-.38-2.45-.87-3.87-1.45-1.42-.59-2.99-1.31-4.65-2.17a.518.518 0 0 0-.58.08c-.15.15-.2.38-.11.57.19.42.37.96.51 1.61.15.67.29 1.44.42 2.29.12.85.23 1.74.33 2.67.09.94.17 1.86.23 2.77.15 2.15.24 4.46.28 6.84v1.35c-.02.72-.04 1.59-.08 2.61-.04 1.02-.11 2.13-.2 3.34-.09 1.18-.23 2.36-.4 3.51a25.26 25.26 0 0 1-.66 3.13c-.25.91-.57 1.63-.93 2.15-.1.14-.12.31-.06.47.06.16.19.27.36.31 2.04.46 3.97.95 5.72 1.45 1.85.53 3.38.99 4.67 1.41.73.24 1.37.45 1.93.65l1.45.51c.48.19.91.34 1.26.47a.494.494 0 0 0 .51-.11c.14-.13.19-.32.14-.5-.43-1.51-.8-3.08-1.1-4.65ZM79.72 34.17c.66.82 1.44 1.57 2.33 2.21.9.65 1.86 1.15 2.85 1.49.87.29 1.72.44 2.52.44.13 0 .25 0 .38-.01.92-.06 1.74-.29 2.44-.69.71-.41 1.28-.99 1.69-1.71.4-.72.61-1.56.61-2.5 0-.92-.2-1.85-.59-2.77-.38-.9-.91-1.77-1.58-2.57-.66-.79-1.44-1.51-2.31-2.14-.88-.62-1.83-1.11-2.83-1.45-1.01-.34-1.99-.51-2.9-.47-.93.03-1.76.24-2.45.62-.72.39-1.29.94-1.69 1.63-.41.7-.62 1.53-.62 2.47 0 .92.2 1.87.58 2.81.38.93.91 1.82 1.57 2.65Zm29.03 38.22c-.3-1.89-.54-3.93-.73-6.06-.19-2.14-.32-4.37-.4-6.63-.08-2.28-.12-4.55-.12-6.75 0-1.92.03-3.82.09-5.65.07-1.89.15-3.56.26-5.08.11-1.56.25-2.98.4-4.21.15-1.23.32-2.25.51-3.02.03-.15 0-.3-.09-.42a.514.514 0 0 0-.38-.2c-.36-.02-.79-.05-1.28-.12a33.574 33.574 0 0 1-3.5-.62 44.3 44.3 0 0 1-3.83-1.08c-1.43-.46-2.99-1.06-4.64-1.8-.19-.08-.42-.04-.56.11s-.18.38-.09.56c.19.39.36.97.51 1.71.15.76.29 1.66.42 2.67.12 1.01.23 2.1.31 3.24.08 1.15.16 2.29.22 3.42.14 2.67.24 5.59.28 8.69v1.34c0 .68-.01 1.52-.03 2.5-.02.99-.05 2.09-.08 3.32-.03 1.22-.08 2.48-.16 3.77-.07 1.29-.17 2.58-.28 3.85-.11 1.24-.25 2.43-.42 3.56-.16 1.09-.36 2.07-.58 2.9-.21.8-.45 1.4-.71 1.79-.1.14-.11.32-.04.48.07.16.21.27.38.29 2.19.34 4.06.67 5.71 1 1.76.35 3.31.66 4.66.96.73.16 1.37.3 1.95.44l1.47.35c.48.13.91.24 1.27.32.04 0 .08.01.11.01.14 0 .27-.06.36-.16a.5.5 0 0 0 .12-.48c-.43-1.45-.8-3.13-1.1-5Zm17.88 6.6c-.43-1.36-.8-2.98-1.09-4.8-.3-1.82-.54-3.81-.73-5.93-.19-2.1-.32-4.31-.4-6.56-.08-2.27-.13-4.54-.12-6.73 0-1.96.03-3.87.09-5.66.06-1.87.15-3.59.26-5.13.11-1.58.25-3.02.4-4.29.15-1.25.32-2.3.51-3.12a.47.47 0 0 0-.12-.45.52.52 0 0 0-.44-.16c-.36.05-.79.09-1.28.11-.4.02-.89.04-1.47.04-.65.03-1.31-.03-2.03-.08-1.19-.09-2.47-.25-3.82-.49-1.43-.25-2.99-.64-4.62-1.16a.501.501 0 0 0-.59.71c.18.36.35.91.5 1.63.15.74.29 1.59.42 2.62.12.98.23 2.06.31 3.2.08 1.14.16 2.27.22 3.4.14 2.62.24 5.54.28 8.65v1.34c0 .68-.01 1.52-.03 2.51-.02.99-.05 2.1-.08 3.33s-.08 2.49-.16 3.79c-.07 1.3-.17 2.6-.28 3.89-.11 1.27-.25 2.49-.42 3.61a29.26 29.26 0 0 1-.58 2.98c-.22.83-.46 1.47-.72 1.9-.09.15-.1.34-.01.5.08.16.25.26.43.26 2.06.06 3.97.13 5.72.21l1.9.09c1 .05 1.92.09 2.8.14.71.04 1.36.08 1.92.11l1.47.09c.49.04.91.08 1.27.1h.03c.15 0 .3-.07.4-.19.1-.13.13-.3.08-.46ZM55.51 80.8c-.51-1.45-1.16-2.89-1.92-4.28-.78-1.42-1.73-2.76-2.83-3.97a19.852 19.852 0 0 0-3.82-3.26c-1.46-.96-3.1-1.67-4.87-2.13-2.65-.68-5.03-.67-7.08.04-1.97.68-3.66 1.82-5.03 3.4-1.31 1.52-2.31 3.35-2.96 5.44-.64 2.05-.96 4.17-.96 6.31 0 1.2.08 2.49.24 3.83.16 1.35.45 2.71.88 4.05.42 1.33 1.01 2.64 1.73 3.88.72 1.25 1.64 2.38 2.8 3.45 1.11 1.03 2.43 1.93 4.05 2.78 1.52.8 3.31 1.44 5.47 1.98 1.86.47 3.45.69 4.84.69.24 0 .46 0 .69-.02 1.65-.1 3.01-.42 4.18-1a8.58 8.58 0 0 0 2.97-2.39c.78-.99 1.4-2.09 1.85-3.26.45-1.17.77-2.39.97-3.63.19-1.25.29-2.43.29-3.52 0-1.27-.12-2.63-.35-4.06-.23-1.44-.61-2.9-1.12-4.33Zm-15.1-4.62c.19-.11.39-.16.62-.16.15 0 .31.02.48.07.49.12.9.38 1.27.78.39.43.72.94.99 1.54.28.61.5 1.28.67 2.01.17.74.31 1.48.41 2.2.1.72.17 1.41.2 2.04.03.64.05 1.17.05 1.59 0 .62-.06 1.3-.18 2.1-.12.75-.32 1.44-.61 2.05-.28.59-.64 1.03-1.1 1.35-.41.29-.92.34-1.58.18-.73-.18-1.3-.56-1.74-1.15-.48-.64-.86-1.37-1.13-2.17-.28-.82-.47-1.67-.57-2.52-.1-.86-.15-1.6-.15-2.2 0-.41.03-.92.08-1.52s.13-1.22.25-1.86c.11-.64.26-1.27.45-1.88.19-.6.42-1.12.69-1.54.26-.4.56-.71.9-.9ZM87.37 86c-.36-.08-.79-.2-1.28-.36-.41-.12-.91-.29-1.49-.5-.59-.21-1.25-.46-1.99-.77-1.11-.46-2.4-1.05-3.81-1.75-1.41-.7-2.98-1.56-4.65-2.56a.497.497 0 0 0-.59.06c-.16.15-.21.38-.12.58.2.44.37 1 .53 1.68.16.69.31 1.47.43 2.33.12.86.23 1.76.33 2.7.09.95.17 1.88.23 2.79.14 2.15.23 4.45.25 6.85 0 .74-.02 1.46-.05 2.19-.03.67-.12 1.26-.29 1.74-.14.41-.33.69-.58.84-.26.15-.69.02-1.01-.12-.41-.18-.74-.49-1.01-.95-.3-.5-.54-1.09-.71-1.75-.18-.67-.3-1.39-.38-2.14-.07-.75-.11-1.47-.11-2.15 0-2.95.19-5.51.57-7.61.38-2.13.79-4.02 1.2-5.63a.495.495 0 0 0-.33-.6c-.43-.14-.91-.31-1.45-.51-.47-.17-1.04-.4-1.69-.66-.65-.26-1.38-.57-2.19-.93-1.18-.52-2.51-1.15-4.06-1.92-1.45-.72-3-1.54-4.74-2.53a.485.485 0 0 0-.6.09c-.16.16-.19.41-.07.61.36.61.67 1.5.91 2.64.24 1.18.44 2.47.57 3.85.13 1.38.22 2.8.26 4.2.04 1.42.06 2.68.06 3.79 0 .94 0 1.67-.02 2.18-.01.52-.02.9-.02 1.15v.26c-.03.09-.07.21-.06.27-.01.07-.02.27-.02.59 0 1.17.09 2.4.27 3.67.18 1.27.48 2.55.88 3.8.4 1.26.94 2.52 1.6 3.75.66 1.24 1.49 2.43 2.45 3.54.96 1.11 2.11 2.17 3.42 3.15s2.83 1.86 4.52 2.61c1.98.88 3.74 1.37 5.21 1.44.18 0 .35.01.52.01 1.27 0 2.39-.23 3.33-.68a6.408 6.408 0 0 0 2.59-2.25c.62-.93 1.12-1.97 1.48-3.08.35-1.09.59-2.22.71-3.36a29.241 29.241 0 0 0 .14-4.44c-.02-.46-.03-.91-.03-1.37 0-1.36.03-2.75.09-4.13.06-1.36.15-2.67.26-3.91.11-1.23.25-2.39.4-3.42.15-1.04.32-1.94.51-2.68.03-.13.01-.27-.06-.38a.515.515 0 0 0-.31-.23Zm27.13 9.66c0-.84.04-1.65.11-2.41.07-.78.19-1.59.35-2.4a.491.491 0 0 0-.17-.48.48.48 0 0 0-.5-.08c-.85.33-1.85.57-2.99.71-1.05.13-2.15.19-3.28.16.13-1.4.26-2.68.4-3.84.15-1.28.34-2.36.56-3.19a.53.53 0 0 0-.09-.44c-.1-.12-.25-.2-.41-.19-.36.01-.78 0-1.27-.02-.41-.02-.9-.06-1.48-.12-.6-.07-1.27-.17-1.98-.31-1.18-.23-2.47-.56-3.85-.99-1.44-.45-3-1.06-4.63-1.81a.492.492 0 0 0-.52.06c-.15.12-.22.3-.18.49.23 1.17.42 2.48.59 3.88.14 1.2.26 2.47.37 3.81a42.5 42.5 0 0 1-3.4-1.54c-1.32-.67-2.5-1.39-3.49-2.13a.5.5 0 0 0-.55-.03c-.17.1-.27.3-.24.49.12.99.23 1.96.31 2.91.08.94.12 1.89.12 2.82 0 .22 0 .49-.02.81 0 .32-.03.65-.06.98-.03.32-.07.63-.13.93-.07.34-.13.52-.18.61-.07.14-.07.31 0 .45s.21.24.37.26c1.14.17 2.41.39 3.9.68 1.25.25 2.52.51 3.8.8v2.92c0 3.71-.15 7.51-.45 11.3-.3 3.78-.81 7.4-1.51 10.78-.03.13 0 .27.08.38.08.11.19.19.33.21l.69.12c1.8.32 3.48.62 5.05.91 1.38.26 2.64.47 3.77.66l2.86.49c.56.1 1.06.18 1.46.24.49.1.91.17 1.27.22h.07c.14 0 .28-.06.38-.17.11-.13.15-.31.1-.47-.43-1.4-.8-3.03-1.09-4.84-.3-1.82-.55-3.77-.73-5.78-.19-2.03-.32-4.14-.4-6.27-.08-2.12-.12-4.26-.12-6.36V99.1c1.1.26 2.18.52 3.24.77 1.27.31 2.35.67 3.3 1.11.17.08.37.06.52-.06.15-.12.22-.31.18-.49-.16-.8-.28-1.6-.35-2.39-.07-.78-.11-1.58-.11-2.36Z"/><path d="M41.22 23.11c0 .95-.19 1.85-.56 2.71-.38.86-.91 1.58-1.61 2.17-.7.59-1.55.99-2.55 1.21-1 .23-2.14.17-3.41-.15-1.12-.29-2.09-.69-2.89-1.22-.8-.53-1.46-1.13-1.97-1.82a7.515 7.515 0 0 1-1.51-4.52c0-.78.11-1.52.33-2.2.22-.69.56-1.27 1.02-1.75a2.807 2.807 0 0 0 1.16 1.62c.25.17.52.3.81.38.67.15 1.14.11 1.42-.14s.42-.58.42-.98c0-.19-.04-.39-.12-.6a2.08 2.08 0 0 0-.39-.64 2.74 2.74 0 0 0-.7-.58c-.29-.18-.65-.32-1.06-.41-.23-.05-.56-.1-.98-.14-.43-.04-.9 0-1.42.13-.52.12-1.05.37-1.59.72-.54.36-1.04.9-1.48 1.62-.45.72-.81 1.65-1.09 2.79-.28 1.14-.42 2.57-.42 4.28 0 1.17.13 2.21.39 3.12.26.91.6 1.71 1.02 2.39.42.69.9 1.28 1.44 1.77.54.49 1.09.91 1.66 1.25.56.34 1.11.61 1.64.81.53.2 1.01.35 1.42.45.54.13 1.22.2 2.05.22.82.03 1.64-.08 2.45-.33a5.45 5.45 0 0 0 2.2-1.32c.66-.63 1.11-1.56 1.36-2.79.73 1.12 1.29 2.37 1.67 3.75.39 1.38.58 2.76.58 4.16 0 1.89-.38 3.61-1.14 5.17a9.875 9.875 0 0 1-3.25 3.8c-1.41.99-3.11 1.64-5.11 1.99-2 .35-4.23.28-6.69-.17-1.81-.33-3.49-.85-5.03-1.57-1.54-.72-2.95-1.58-4.22-2.61-1.27-1.03-2.39-2.17-3.34-3.46-.96-1.29-1.77-2.66-2.44-4.12-.67-1.47-1.17-3-1.5-4.61a23.621 23.621 0 0 1 .16-10.39c.44-1.84 1.07-3.62 1.89-5.3.82-1.68 1.82-3.24 3-4.66s2.52-2.61 4.02-3.55c1.5-.94 3.14-1.6 4.94-1.95 1.79-.36 3.7-.33 5.72.1 1.83.38 3.45.96 4.84 1.68 1.4.73 2.6 1.56 3.61 2.47 1.01.92 1.86 1.89 2.55 2.9a16.67 16.67 0 0 1 1.64 3.02c.41.99.69 1.95.86 2.86.17.91.25 1.73.25 2.46Z" class="cls-1"/><path d="M28.31 50.73c-1.27 0-2.64-.13-4.11-.4-1.87-.34-3.6-.88-5.15-1.61-1.59-.74-3.04-1.64-4.32-2.67a19.825 19.825 0 0 1-3.43-3.55 22.634 22.634 0 0 1-4.03-8.92c-.34-1.63-.51-3.31-.51-4.99 0-1.85.22-3.74.67-5.62.45-1.88 1.1-3.7 1.93-5.4.85-1.73 1.88-3.33 3.06-4.76a17.54 17.54 0 0 1 4.13-3.65c1.56-.98 3.28-1.66 5.11-2.02 1.86-.37 3.85-.34 5.92.1 1.83.38 3.5.97 4.97 1.73 1.41.74 2.66 1.59 3.71 2.55 1.03.93 1.91 1.94 2.62 2.99.7 1.04 1.27 2.09 1.69 3.11.42 1.02.72 2.02.89 2.96.17.94.26 1.8.26 2.55 0 1.01-.2 1.99-.6 2.91-.4.93-.99 1.72-1.75 2.35-.75.63-1.68 1.08-2.76 1.32-1.06.24-2.29.19-3.64-.15-1.18-.3-2.21-.73-3.04-1.28-.85-.56-1.56-1.21-2.09-1.94A8.18 8.18 0 0 1 26.62 24c-.26-.82-.4-1.66-.4-2.49 0-.83.12-1.62.35-2.36.24-.76.62-1.42 1.13-1.94.12-.13.3-.18.48-.14.17.04.31.17.36.34.11.35.24.64.41.84.17.21.35.38.54.5.22.15.45.25.68.32.45.1.81.1.95-.03.17-.15.25-.35.25-.61 0-.12-.03-.26-.09-.42-.06-.16-.17-.33-.31-.5-.14-.17-.34-.33-.58-.48-.25-.15-.55-.27-.91-.35a6.53 6.53 0 0 0-.92-.12c-.38-.03-.8 0-1.26.12-.46.11-.94.33-1.43.65-.48.32-.93.81-1.34 1.46-.42.66-.76 1.55-1.03 2.64s-.41 2.49-.41 4.16c0 1.12.12 2.12.37 2.98.25.86.57 1.63.96 2.27.39.64.84 1.2 1.35 1.66.52.48 1.05.88 1.58 1.19.54.32 1.06.58 1.56.77.51.19.97.34 1.36.43.5.12 1.14.19 1.95.21.76.02 1.53-.08 2.29-.31a4.9 4.9 0 0 0 2-1.21c.58-.56.99-1.41 1.22-2.53a.502.502 0 0 1 .91-.17c.75 1.15 1.34 2.46 1.73 3.89.4 1.41.6 2.86.6 4.29 0 1.96-.4 3.77-1.19 5.39-.79 1.61-1.94 2.95-3.41 3.99-1.46 1.03-3.19 1.71-5.31 2.08-.87.15-1.79.23-2.75.23ZM24.29 7.87c-.84 0-1.65.08-2.44.23-1.71.34-3.31.97-4.77 1.89-1.44.9-2.75 2.06-3.9 3.44-1.14 1.37-2.12 2.9-2.94 4.56-.8 1.64-1.42 3.38-1.85 5.2a23.315 23.315 0 0 0-.15 10.17c.32 1.56.81 3.07 1.47 4.5.65 1.42 1.45 2.78 2.38 4.03.92 1.23 2.01 2.37 3.26 3.37 1.21.98 2.6 1.84 4.12 2.55 1.47.69 3.12 1.2 4.91 1.53 2.47.45 4.6.51 6.51.17 1.97-.34 3.57-.97 4.91-1.91a9.38 9.38 0 0 0 3.09-3.61c.72-1.47 1.09-3.14 1.09-4.94 0-1.34-.19-2.7-.56-4.02-.26-.93-.61-1.81-1.03-2.61-.28.77-.68 1.4-1.18 1.88-.7.68-1.51 1.17-2.4 1.44-.87.27-1.75.39-2.62.36-.88-.03-1.58-.11-2.14-.24-.43-.1-.93-.26-1.49-.47-.55-.21-1.13-.5-1.72-.85-.58-.35-1.16-.79-1.73-1.31a8.61 8.61 0 0 1-1.53-1.88c-.44-.72-.8-1.56-1.07-2.51-.27-.95-.41-2.04-.41-3.26 0-1.75.15-3.22.44-4.4.3-1.19.68-2.18 1.16-2.93.48-.78 1.03-1.37 1.63-1.77.59-.39 1.18-.66 1.75-.79.57-.14 1.1-.18 1.58-.14.44.04.79.09 1.05.15.47.11.87.27 1.22.48.33.2.61.44.82.69.21.25.37.51.48.78.11.27.16.54.16.78 0 .55-.21 1.02-.59 1.36-.41.36-1.02.44-1.86.25-.36-.1-.68-.25-.98-.45a3.17 3.17 0 0 1-.77-.71c-.08-.1-.16-.22-.24-.34-.17.28-.31.58-.41.92-.2.64-.31 1.33-.3 2.05 0 .72.12 1.46.35 2.18.23.72.59 1.41 1.07 2.05a7.19 7.19 0 0 0 1.84 1.7c.74.49 1.66.88 2.74 1.15 1.19.3 2.26.35 3.17.15.92-.21 1.71-.58 2.34-1.11.64-.53 1.13-1.2 1.47-1.99.35-.79.52-1.64.52-2.51 0-.69-.08-1.49-.24-2.37-.16-.88-.44-1.8-.83-2.76-.39-.96-.93-1.94-1.59-2.93-.67-.98-1.5-1.93-2.47-2.81-.99-.9-2.17-1.7-3.5-2.4-1.39-.72-2.97-1.27-4.71-1.64-1.05-.22-2.08-.33-3.08-.33Z"/><path d="M75.44 65.9c-1.12-.56-2.37-1.13-3.75-1.71-1.37-.58-2.75-1.13-4.12-1.64-1.31-.49-2.58-.92-3.8-1.3-1.22-.38-2.28-.68-3.17-.89.44-1.18.79-2.43 1.05-3.77.26-1.34.46-2.75.59-4.25.14-1.5.22-3.09.27-4.76.04-1.67.06-3.45.06-5.33a21.3 21.3 0 0 0-.22-2.7c-.08-.57-.2-1.16-.36-1.76-.16-.61-.36-1.18-.61-1.72a6.15 6.15 0 0 0-.92-1.43c-.36-.41-.79-.71-1.27-.88a1.04 1.04 0 0 0-.92.1c-.3.18-.61.45-.92.81-.31.36-.61.8-.91 1.32-.29.52-.57 1.07-.84 1.66.04 1.91.12 3.81.23 5.7.11 1.89.27 3.72.47 5.49.2 1.77.43 3.45.7 5.05.27 1.59.59 3.03.97 4.32-.35-.15-.77-.33-1.25-.54-.42-.17-.91-.37-1.48-.59-.57-.22-1.22-.47-1.95-.72-1.35-.48-2.91-.97-4.67-1.46-1.76-.49-3.67-.93-5.73-1.3.29-.43.55-1.07.78-1.91.23-.85.43-1.82.59-2.93.17-1.11.31-2.3.42-3.57.11-1.27.21-2.56.28-3.85.07-1.3.12-2.56.16-3.78.03-1.22.06-2.33.08-3.32.02-.99.03-1.82.03-2.51v-1.34c-.04-3.12-.14-6.02-.28-8.73-.06-1.14-.14-2.28-.22-3.44a69.46 69.46 0 0 0-.31-3.28c-.12-1.02-.27-1.93-.42-2.73-.16-.79-.34-1.41-.55-1.84 1.69.79 3.25 1.48 4.69 2.06 1.44.58 2.73 1.07 3.87 1.47.75.26 1.43.49 2.03.67.6.19 1.11.34 1.53.45.5.14.94.25 1.31.33-.17.59-.31 1.32-.44 2.18-.12.87-.24 1.85-.34 2.94-.1 1.1-.19 2.28-.27 3.55-.07 1.27-.13 2.61-.17 4.01 1.19-1.23 2.47-1.93 3.84-2.1 1.38-.17 2.8.02 4.28.56 1.48.55 2.84 1.35 4.08 2.4 1.24 1.05 2.31 2.35 3.22 3.9.91 1.55 1.61 3.35 2.13 5.4.51 2.05.77 4.34.77 6.89 0 1.75 0 3.55.02 5.43 0 1.87.06 3.72.14 5.54.08 1.82.23 3.58.44 5.27.21 1.69.5 3.23.87 4.61Z" class="cls-1"/><path d="M75.44 66.4c-.08 0-.15-.02-.22-.05-1.11-.55-2.37-1.12-3.72-1.7-1.37-.58-2.75-1.13-4.1-1.63a68.076 68.076 0 0 0-6.91-2.18.48.48 0 0 1-.32-.25.49.49 0 0 1-.03-.41c.43-1.15.77-2.39 1.02-3.69.26-1.31.45-2.73.59-4.2.13-1.49.22-3.08.26-4.73.04-1.67.06-3.44.06-5.31a20.391 20.391 0 0 0-.22-2.63c-.08-.55-.2-1.12-.35-1.71a9.53 9.53 0 0 0-.58-1.63c-.23-.49-.51-.93-.84-1.31-.31-.35-.66-.6-1.06-.74-.17-.06-.32-.04-.49.06-.26.15-.52.39-.8.7-.29.33-.57.75-.85 1.23-.27.47-.53.98-.78 1.52.04 1.86.12 3.73.23 5.56.11 1.86.27 3.7.47 5.47.19 1.75.43 3.44.7 5.02.27 1.57.59 3 .96 4.27.05.19 0 .38-.15.51a.51.51 0 0 1-.53.09c-.36-.15-.78-.33-1.26-.54-.4-.16-.89-.36-1.46-.58-.57-.22-1.21-.46-1.94-.72a68.65 68.65 0 0 0-4.64-1.45c-1.8-.5-3.71-.94-5.69-1.29a.476.476 0 0 1-.37-.3.486.486 0 0 1 .05-.48c.26-.38.5-.98.71-1.76.22-.82.42-1.79.58-2.88.16-1.09.3-2.28.42-3.54.11-1.27.21-2.55.28-3.84.07-1.29.12-2.55.15-3.77.03-1.22.06-2.33.08-3.32.02-.98.03-1.82.03-2.5v-1.34c-.04-3.09-.14-6.02-.28-8.7-.06-1.13-.14-2.28-.22-3.43-.08-1.17-.19-2.26-.31-3.25-.12-1-.26-1.91-.42-2.69-.15-.75-.32-1.33-.51-1.73a.504.504 0 0 1 .67-.67c1.76.83 3.28 1.49 4.66 2.05 1.44.58 2.74 1.07 3.85 1.46.74.26 1.42.48 2.01.67.6.18 1.1.33 1.51.44.5.14.92.25 1.29.33.14.03.25.11.32.23.07.12.09.26.05.39-.16.56-.3 1.27-.42 2.12-.13.9-.24 1.88-.34 2.92a99 99 0 0 0-.26 3.54c-.05.91-.1 1.84-.13 2.81 1.01-.81 2.1-1.29 3.24-1.43 1.45-.18 2.97.02 4.52.59 1.53.57 2.95 1.4 4.23 2.48 1.28 1.08 2.4 2.43 3.33 4.03.92 1.58 1.66 3.44 2.18 5.53.52 2.08.78 4.44.78 7.01 0 1.75 0 3.55.02 5.42 0 1.82.06 3.68.14 5.52.08 1.82.23 3.58.43 5.23.2 1.66.49 3.19.86 4.54.05.19-.01.39-.17.52-.09.08-.2.11-.32.11ZM61.25 60c.78.2 1.68.46 2.66.77 1.2.37 2.49.81 3.82 1.31 1.37.51 2.76 1.06 4.15 1.65.99.42 1.94.84 2.81 1.25a35.45 35.45 0 0 1-.63-3.63c-.21-1.68-.36-3.47-.44-5.31-.08-1.85-.13-3.72-.14-5.56-.01-1.87-.02-3.68-.02-5.43 0-2.49-.25-4.77-.75-6.76-.5-1.99-1.19-3.76-2.07-5.26-.87-1.5-1.92-2.76-3.11-3.77a13.16 13.16 0 0 0-3.93-2.31c-1.4-.52-2.75-.7-4.04-.54-1.25.16-2.45.82-3.55 1.95a.49.49 0 0 1-.55.11.516.516 0 0 1-.31-.48c.04-1.4.1-2.74.17-4.02.07-1.27.16-2.47.27-3.57.1-1.05.22-2.05.35-2.96.09-.65.2-1.24.32-1.74-.26-.06-.54-.14-.84-.22a53.991 53.991 0 0 1-3.59-1.13c-1.13-.4-2.44-.89-3.9-1.48-1.11-.44-2.31-.96-3.64-1.57.06.24.12.51.18.8.16.81.3 1.74.43 2.76.12 1 .23 2.12.31 3.3.08 1.16.16 2.31.22 3.45.15 2.7.24 5.64.28 8.75v1.34c0 .69-.01 1.53-.03 2.52-.02.99-.05 2.1-.08 3.32-.03 1.23-.08 2.5-.16 3.8-.07 1.3-.17 2.59-.28 3.87-.12 1.28-.26 2.49-.42 3.6-.17 1.12-.37 2.13-.61 2.99a8.94 8.94 0 0 1-.49 1.42c1.76.33 3.47.73 5.1 1.18 1.72.48 3.3.98 4.7 1.47.73.26 1.39.5 1.97.73.58.22 1.07.42 1.49.59.11.05.21.09.31.13-.27-1.04-.5-2.17-.71-3.37-.27-1.6-.51-3.31-.71-5.08-.2-1.78-.36-3.64-.47-5.52-.11-1.88-.19-3.81-.24-5.72 0-.08.01-.15.05-.22.27-.6.56-1.17.86-1.7.31-.54.63-1.01.96-1.4.35-.4.7-.7 1.04-.91.43-.25.89-.3 1.35-.14.56.21 1.05.55 1.47 1.02.39.45.73.97 1 1.55.26.56.48 1.17.64 1.8.16.62.29 1.23.37 1.82.08.58.14 1.12.18 1.61.03.49.05.88.05 1.17 0 1.88-.02 3.66-.06 5.34-.04 1.67-.13 3.29-.27 4.8-.14 1.51-.34 2.96-.6 4.3-.23 1.16-.52 2.27-.88 3.32Z"/><path d="M92.4 70.39c-.35-.13-.77-.28-1.25-.47-.42-.15-.91-.32-1.47-.52-.56-.2-1.21-.41-1.94-.65-1.35-.44-2.92-.91-4.69-1.42-1.77-.51-3.69-.99-5.75-1.46.4-.56.73-1.33 1-2.3.27-.97.49-2.03.67-3.19.18-1.15.31-2.34.41-3.55.09-1.21.16-2.33.2-3.36.04-1.03.07-1.9.08-2.62 0-.72.02-1.17.02-1.36-.04-2.43-.14-4.72-.28-6.87-.06-.91-.14-1.84-.23-2.79-.09-.94-.2-1.84-.33-2.69-.13-.85-.27-1.63-.42-2.33-.16-.7-.34-1.27-.55-1.71 1.69.87 3.25 1.59 4.69 2.18 1.44.59 2.74 1.08 3.91 1.46.75.25 1.42.45 2.02.62.59.16 1.1.29 1.52.39.5.12.94.21 1.31.27-.37 1.56-.68 3.48-.92 5.76s-.36 4.77-.36 7.47c0 1.54.04 3.12.12 4.72.08 1.61.22 3.22.41 4.85.19 1.63.43 3.25.73 4.85.3 1.61.67 3.17 1.11 4.7ZM78.06 25.74c0-.85.18-1.59.55-2.21.36-.62.86-1.1 1.5-1.45.63-.34 1.38-.53 2.23-.56.85-.03 1.76.12 2.72.44.96.32 1.86.78 2.7 1.38.84.6 1.58 1.28 2.22 2.05.64.77 1.13 1.58 1.5 2.45.36.86.55 1.72.55 2.58 0 .86-.18 1.61-.55 2.26-.36.65-.86 1.16-1.5 1.53-.64.37-1.37.58-2.22.63-.84.05-1.75-.08-2.7-.41-.96-.32-1.86-.8-2.72-1.42-.85-.62-1.6-1.33-2.23-2.12-.63-.79-1.14-1.63-1.5-2.53-.37-.89-.55-1.77-.55-2.62Z" class="cls-1"/><path d="M92.4 70.89c-.06 0-.11 0-.17-.03-.36-.13-.78-.28-1.26-.47l-1.45-.51c-.56-.2-1.2-.41-1.93-.65-1.29-.42-2.82-.88-4.67-1.41-1.75-.5-3.67-.99-5.72-1.45a.511.511 0 0 1-.36-.31.494.494 0 0 1 .06-.47c.36-.52.67-1.24.93-2.15.26-.95.48-2 .66-3.13.18-1.15.31-2.33.4-3.51.09-1.21.16-2.32.2-3.34.04-1.02.07-1.89.08-2.61v-.55c.01-.4.02-.67.02-.8-.04-2.38-.13-4.69-.28-6.84-.06-.91-.14-1.83-.23-2.77-.09-.93-.2-1.83-.33-2.67-.12-.84-.26-1.61-.42-2.29-.15-.66-.32-1.2-.51-1.61a.491.491 0 0 1 .11-.57c.15-.15.38-.18.57-.08 1.67.85 3.23 1.58 4.65 2.17 1.42.58 2.72 1.07 3.87 1.45.74.25 1.41.45 1.99.61.59.16 1.08.29 1.49.38.5.12.92.21 1.28.26.14.02.26.1.34.22.08.12.1.26.07.39-.37 1.54-.68 3.46-.91 5.69-.24 2.25-.36 4.75-.36 7.42 0 1.51.04 3.09.12 4.69.08 1.6.22 3.22.4 4.82.19 1.62.43 3.24.73 4.82s.66 3.14 1.1 4.65c.05.18 0 .37-.14.5-.09.09-.22.14-.34.14Zm-14.3-5.34c1.82.42 3.53.86 5.1 1.31 1.87.53 3.4 1 4.7 1.42.73.24 1.38.46 1.95.65l1.47.52c.12.05.23.09.34.13-.33-1.25-.62-2.52-.86-3.8-.3-1.61-.55-3.25-.74-4.89-.19-1.62-.32-3.26-.41-4.88a97.1 97.1 0 0 1-.13-4.75c0-2.7.12-5.23.36-7.52.21-2.04.49-3.82.81-5.31-.25-.05-.53-.11-.83-.18-.42-.09-.93-.22-1.53-.39s-1.28-.37-2.04-.62c-1.17-.39-2.5-.88-3.94-1.47-1.12-.46-2.33-1.01-3.61-1.64.05.19.1.39.15.6.16.7.3 1.49.43 2.36.13.86.24 1.77.33 2.72.09.95.17 1.88.24 2.8.15 2.17.24 4.49.28 6.9v1.38c-.02.73-.04 1.6-.09 2.63a96.64 96.64 0 0 1-.2 3.37c-.09 1.21-.23 2.41-.41 3.58-.18 1.17-.41 2.26-.68 3.25-.2.71-.43 1.32-.7 1.83Zm9.32-30.21c-.8 0-1.65-.15-2.52-.44-.99-.33-1.95-.83-2.85-1.49-.89-.64-1.67-1.39-2.33-2.21-.67-.83-1.19-1.72-1.57-2.65-.39-.94-.58-1.89-.58-2.81 0-.94.21-1.77.62-2.47.41-.7.98-1.25 1.69-1.63.7-.38 1.52-.58 2.45-.61.92-.04 1.88.13 2.9.47 1 .34 1.96.83 2.83 1.45.88.62 1.66 1.34 2.31 2.14.67.8 1.2 1.67 1.58 2.57.39.92.59 1.85.59 2.77 0 .94-.21 1.78-.61 2.5-.41.72-.97 1.3-1.69 1.71-.7.4-1.52.64-2.44.69-.12 0-.25.01-.37.01Zm-4.87-13.32h-.19c-.77.03-1.45.19-2.01.5-.56.3-.99.71-1.3 1.26-.32.54-.48 1.2-.48 1.96 0 .79.17 1.61.51 2.43.34.84.82 1.65 1.43 2.4.6.75 1.32 1.44 2.14 2.03.82.59 1.69 1.05 2.58 1.35.89.3 1.73.42 2.51.38.76-.05 1.43-.23 2-.56.56-.32.99-.76 1.31-1.34.32-.57.48-1.25.48-2.01 0-.78-.17-1.58-.51-2.38-.34-.81-.82-1.59-1.42-2.32-.6-.73-1.32-1.39-2.12-1.96-.8-.57-1.66-1.01-2.57-1.32-.83-.28-1.62-.42-2.35-.42Z"/><path d="M109.37 74.57c-.35-.08-.77-.19-1.25-.32-.42-.1-.91-.21-1.48-.35-.57-.14-1.22-.28-1.95-.44-1.36-.3-2.91-.61-4.67-.96-1.76-.35-3.67-.68-5.73-1 .29-.43.55-1.08.78-1.93.23-.85.43-1.84.59-2.95.17-1.11.31-2.31.42-3.59.11-1.28.21-2.57.28-3.86.07-1.3.12-2.56.16-3.79.03-1.23.06-2.33.08-3.32.02-.99.03-1.83.03-2.51v-1.34c-.04-3.12-.14-6.02-.28-8.72-.06-1.13-.14-2.28-.22-3.43-.08-1.16-.19-2.24-.31-3.27-.12-1.02-.26-1.92-.42-2.71-.16-.79-.34-1.4-.55-1.83 1.69.75 3.25 1.35 4.69 1.81 1.44.47 2.73.82 3.87 1.09.75.17 1.43.31 2.03.41.6.1 1.11.17 1.53.22.5.06.94.1 1.31.12-.19.8-.36 1.83-.52 3.08-.16 1.25-.29 2.67-.41 4.24-.12 1.57-.2 3.28-.27 5.1-.06 1.83-.09 3.71-.09 5.67 0 2.23.04 4.48.12 6.77.08 2.28.22 4.5.41 6.66.19 2.15.43 4.18.73 6.09.3 1.91.67 3.6 1.11 5.07Z" class="cls-1"/><path d="M109.37 75.07s-.08 0-.11-.01c-.36-.08-.78-.19-1.27-.32l-1.47-.35c-.57-.14-1.22-.28-1.95-.44-1.35-.3-2.9-.61-4.66-.96-1.65-.33-3.52-.65-5.71-1a.517.517 0 0 1-.38-.29.51.51 0 0 1 .04-.48c.26-.38.5-.99.71-1.78.22-.83.42-1.8.58-2.9.17-1.12.31-2.32.42-3.56.11-1.27.21-2.56.28-3.85.07-1.29.12-2.55.16-3.77.03-1.22.06-2.33.08-3.32.02-.98.03-1.82.03-2.5V48.2c-.04-3.1-.14-6.02-.28-8.69-.06-1.13-.14-2.27-.22-3.42-.08-1.14-.19-2.23-.31-3.24-.12-1.02-.26-1.92-.42-2.67-.15-.74-.32-1.32-.51-1.71a.503.503 0 0 1 .09-.56c.15-.15.37-.19.56-.11 1.66.73 3.22 1.34 4.64 1.8 1.37.44 2.66.81 3.83 1.08a35.237 35.237 0 0 0 3.5.62c.49.06.91.1 1.28.12.15 0 .29.08.38.2.09.12.12.27.09.42-.18.78-.35 1.79-.51 3.02-.15 1.24-.29 2.65-.4 4.21-.11 1.53-.2 3.19-.26 5.08-.06 1.83-.09 3.73-.09 5.65 0 2.2.04 4.47.12 6.75.08 2.26.22 4.49.4 6.63.19 2.13.43 4.17.73 6.06.3 1.87.66 3.56 1.1 5a.5.5 0 0 1-.12.48c-.1.1-.23.16-.36.16Zm-14.32-3.95c1.91.31 3.57.6 5.06.89 1.76.35 3.32.66 4.68.96.73.16 1.39.31 1.96.44l1.48.35c.15.04.29.08.42.11-.34-1.29-.64-2.73-.89-4.3-.3-1.91-.55-3.97-.74-6.13-.19-2.16-.33-4.41-.41-6.68-.08-2.29-.13-4.57-.13-6.79 0-1.93.03-3.84.09-5.68.07-1.91.15-3.58.27-5.12.11-1.58.25-3.01.41-4.27.12-.98.26-1.84.4-2.55-.24-.02-.49-.05-.76-.08a30.334 30.334 0 0 1-3.61-.64c-1.2-.28-2.52-.65-3.92-1.1-1.15-.37-2.38-.83-3.68-1.38.07.25.13.53.19.82.16.78.3 1.71.43 2.75.13 1.03.23 2.14.31 3.29.08 1.16.16 2.31.22 3.44.14 2.68.24 5.62.28 8.74v1.34c0 .69-.01 1.53-.03 2.52-.02.99-.05 2.1-.08 3.32-.03 1.23-.08 2.5-.16 3.8-.07 1.3-.17 2.6-.28 3.88a61.04 61.04 0 0 1-.43 3.62c-.17 1.13-.37 2.14-.61 3.01a8.94 8.94 0 0 1-.49 1.42Z"/><path d="M126.15 76.17c-.35-.02-.77-.05-1.25-.09a67.1 67.1 0 0 1-1.48-.09c-.57-.04-1.22-.07-1.95-.12-1.35-.08-2.91-.14-4.67-.23-1.76-.09-3.67-.15-5.73-.21.29-.47.55-1.15.78-2.03.23-.88.43-1.89.59-3.03.17-1.14.31-2.35.42-3.64a132.381 132.381 0 0 0 .44-7.71c.03-1.23.06-2.34.08-3.33.02-.99.03-1.83.03-2.52v-1.34c-.04-3.11-.14-6-.28-8.68-.06-1.12-.14-2.26-.22-3.4-.08-1.14-.19-2.22-.31-3.22-.13-1-.27-1.89-.42-2.66-.16-.77-.34-1.35-.55-1.76 1.69.53 3.25.92 4.69 1.17 1.44.26 2.73.42 3.87.5.75.05 1.43.08 2.03.08.6 0 1.11-.01 1.53-.04.5-.02.94-.06 1.31-.11-.19.83-.36 1.89-.52 3.17a90.08 90.08 0 0 0-.41 4.31c-.12 1.59-.2 3.31-.27 5.15-.06 1.84-.09 3.73-.09 5.68 0 2.23.04 4.48.12 6.75.08 2.27.22 4.46.41 6.59.19 2.12.43 4.11.73 5.96.3 1.85.67 3.48 1.11 4.87Z" class="cls-1"/><path d="M126.15 76.67h-.03c-.36-.02-.78-.05-1.27-.1l-1.47-.09c-.56-.04-1.21-.07-1.92-.11-.9-.05-1.85-.1-2.88-.15l-1.82-.09c-1.76-.09-3.67-.15-5.72-.21-.18 0-.34-.11-.43-.26a.522.522 0 0 1 .01-.5c.26-.43.51-1.07.72-1.9.22-.86.42-1.87.58-2.98.16-1.12.3-2.34.42-3.61a131.062 131.062 0 0 0 .44-7.68c.03-1.23.06-2.34.08-3.33.02-.99.03-1.82.03-2.51v-1.34c-.04-3.12-.14-6.03-.28-8.65-.06-1.12-.14-2.25-.22-3.4-.08-1.14-.19-2.22-.31-3.2-.13-1.02-.26-1.88-.42-2.62-.15-.72-.32-1.27-.5-1.63-.09-.18-.07-.4.06-.55.13-.15.34-.22.53-.15 1.64.51 3.19.9 4.62 1.16 1.34.24 2.63.41 3.82.49.73.05 1.41.08 2.05.08.57 0 1.05-.01 1.44-.04.49-.02.91-.06 1.27-.11.16-.02.32.04.44.16.11.12.16.29.12.45-.18.82-.35 1.87-.51 3.12-.15 1.26-.29 2.71-.4 4.29-.11 1.54-.2 3.26-.26 5.13-.06 1.79-.09 3.7-.09 5.66 0 2.19.04 4.46.12 6.73.08 2.25.22 4.46.4 6.56.19 2.12.43 4.11.73 5.93.3 1.82.66 3.44 1.09 4.8.05.16.02.33-.08.46-.1.12-.24.19-.4.19Zm-14.29-1.72c1.77.06 3.42.12 4.96.19l1.82.09c1.04.05 1.99.1 2.86.14.75.04 1.39.08 1.96.12l1.48.09c.19.02.37.03.54.05-.35-1.25-.66-2.67-.92-4.24-.3-1.84-.55-3.86-.74-6-.19-2.12-.33-4.34-.41-6.61-.09-2.28-.13-4.56-.13-6.77 0-1.98.03-3.89.09-5.7.06-1.88.15-3.62.27-5.17.11-1.6.25-3.06.41-4.34.12-.96.25-1.81.38-2.54-.21.02-.43.03-.66.04-.42.03-.94.05-1.55.04-.64 0-1.33-.03-2.07-.08-1.23-.09-2.55-.26-3.93-.5a38.32 38.32 0 0 1-3.78-.89c.08.26.15.56.21.89.16.76.3 1.64.43 2.69.12 1 .23 2.09.31 3.25.08 1.15.16 2.29.22 3.41.14 2.64.24 5.56.28 8.7v1.34c0 .69-.01 1.53-.03 2.53-.02.99-.05 2.1-.08 3.33-.03 1.24-.08 2.51-.16 3.82-.07 1.31-.17 2.62-.28 3.92-.11 1.29-.26 2.53-.42 3.67-.17 1.15-.37 2.18-.6 3.08-.14.56-.3 1.03-.47 1.43Z"/><path d="M56.48 86.23c0 1.08-.1 2.22-.28 3.44-.19 1.22-.5 2.39-.94 3.53a11.96 11.96 0 0 1-1.78 3.13c-.75.95-1.68 1.7-2.8 2.25-1.12.55-2.44.86-3.98.95-1.54.09-3.33-.15-5.37-.66s-3.83-1.14-5.36-1.94c-1.53-.8-2.84-1.69-3.94-2.7-1.09-1.02-2-2.12-2.7-3.34a19.27 19.27 0 0 1-1.69-3.78c-.42-1.31-.7-2.63-.86-3.96-.16-1.33-.23-2.59-.23-3.78 0-2.1.31-4.16.94-6.16.62-2 1.58-3.77 2.86-5.26 1.28-1.48 2.89-2.59 4.81-3.26 1.93-.66 4.19-.7 6.8-.03 1.75.45 3.32 1.15 4.72 2.07 1.4.91 2.63 1.98 3.72 3.18 1.08 1.2 2 2.5 2.77 3.88.76 1.38 1.39 2.79 1.89 4.21s.86 2.84 1.09 4.25c.23 1.41.34 2.74.34 3.98ZM45.6 83.28c0-.43-.02-.97-.05-1.62-.03-.65-.1-1.34-.2-2.08-.11-.74-.25-1.49-.42-2.24-.18-.76-.41-1.46-.7-2.1-.29-.64-.65-1.2-1.08-1.67-.43-.47-.93-.78-1.52-.93-.56-.14-1.05-.09-1.47.14-.42.24-.78.59-1.08 1.07-.3.47-.55 1.03-.75 1.67-.2.64-.35 1.28-.47 1.94-.12.65-.2 1.29-.25 1.9-.05.61-.08 1.13-.08 1.56 0 .61.05 1.37.16 2.26.1.89.3 1.77.59 2.63.29.86.69 1.63 1.2 2.31.51.68 1.18 1.12 2.02 1.33.79.2 1.45.12 1.98-.25s.95-.89 1.26-1.55c.31-.66.53-1.39.66-2.19.12-.8.19-1.52.19-2.17Z" class="cls-1"/><path d="M46.04 100.04c-1.39 0-2.98-.23-4.84-.69-2.16-.54-3.95-1.19-5.47-1.98-1.62-.84-2.94-1.75-4.05-2.78-1.16-1.08-2.07-2.2-2.8-3.45s-1.31-2.55-1.73-3.88c-.42-1.33-.72-2.7-.88-4.05-.16-1.34-.24-2.63-.24-3.83 0-2.14.32-4.26.96-6.31.65-2.09 1.65-3.92 2.96-5.44 1.36-1.58 3.06-2.72 5.03-3.4 2.05-.71 4.44-.72 7.08-.04 1.77.46 3.4 1.17 4.87 2.13 1.41.92 2.69 2.02 3.82 3.26 1.1 1.22 2.05 2.55 2.83 3.97.77 1.39 1.41 2.83 1.92 4.28.51 1.44.88 2.9 1.12 4.33.23 1.43.35 2.8.35 4.06 0 1.08-.1 2.27-.29 3.52a17.2 17.2 0 0 1-.97 3.63c-.45 1.18-1.08 2.27-1.85 3.26-.79 1-1.78 1.8-2.97 2.39-1.16.58-2.53.9-4.18 1-.22.01-.45.02-.69.02Zm-7.67-35.36c-1.1 0-2.12.16-3.06.48-1.8.62-3.35 1.67-4.6 3.11-1.22 1.42-2.15 3.13-2.76 5.08-.61 1.95-.92 3.98-.92 6.02 0 1.16.08 2.41.23 3.72.15 1.29.43 2.59.84 3.86.4 1.26.95 2.5 1.64 3.69.67 1.16 1.53 2.21 2.61 3.22 1.04.96 2.29 1.82 3.83 2.63 1.45.76 3.17 1.38 5.25 1.9 2.07.52 3.78.73 5.22.65 1.51-.09 2.75-.38 3.79-.9 1.06-.53 1.92-1.22 2.62-2.11.72-.91 1.29-1.92 1.71-3 .42-1.1.73-2.25.91-3.43.18-1.2.28-2.33.27-3.36 0-1.21-.11-2.52-.34-3.9-.22-1.38-.59-2.78-1.07-4.16a27.12 27.12 0 0 0-1.86-4.13 19.9 19.9 0 0 0-2.7-3.78 19.147 19.147 0 0 0-3.62-3.1 15.27 15.27 0 0 0-4.57-2c-1.22-.31-2.37-.47-3.45-.47Zm18.61 21.55ZM42.3 90.04c-.29 0-.59-.04-.91-.12-.95-.24-1.72-.75-2.29-1.52a8.92 8.92 0 0 1-1.28-2.45c-.3-.89-.51-1.81-.62-2.73-.1-.9-.16-1.68-.16-2.32 0-.44.03-.97.08-1.6.05-.63.14-1.29.26-1.95.12-.68.28-1.35.48-2 .21-.68.48-1.28.81-1.79.35-.54.77-.96 1.25-1.23.53-.3 1.15-.37 1.84-.19.67.17 1.26.53 1.76 1.08.46.5.85 1.11 1.16 1.8.3.67.55 1.41.73 2.19.18.77.32 1.54.43 2.29.11.75.18 1.47.21 2.13.03.66.05 1.21.05 1.64 0 .67-.06 1.41-.19 2.25a8.48 8.48 0 0 1-.7 2.32c-.35.74-.83 1.32-1.43 1.74-.43.3-.92.45-1.48.45Zm-1.27-16.98c-.23 0-.44.05-.62.16-.34.19-.65.5-.9.9-.28.43-.51.95-.69 1.55-.19.61-.34 1.24-.45 1.88-.11.63-.19 1.26-.25 1.86-.05.59-.08 1.1-.08 1.52 0 .6.05 1.34.15 2.2.1.85.29 1.7.57 2.52.27.8.65 1.53 1.13 2.17.44.59 1.01.96 1.74 1.14.66.17 1.17.11 1.58-.18.46-.32.82-.77 1.1-1.35.29-.62.5-1.3.61-2.05.12-.79.18-1.48.18-2.09 0-.42-.01-.95-.05-1.59-.03-.63-.1-1.31-.2-2.04-.1-.72-.24-1.46-.41-2.2-.17-.72-.39-1.4-.67-2.01a5.99 5.99 0 0 0-.99-1.54c-.37-.4-.78-.66-1.27-.78-.17-.04-.33-.07-.48-.07Zm5.07 10.22Z"/><path d="M87.25 83.53c-.19.76-.36 1.67-.52 2.73-.16 1.05-.29 2.2-.41 3.45-.11 1.25-.2 2.56-.27 3.94-.06 1.38-.09 2.76-.09 4.16 0 .46 0 .93.03 1.39.02.46.03.91.03 1.34 0 .91-.06 1.92-.17 3.03-.11 1.11-.34 2.19-.69 3.25a12.43 12.43 0 0 1-1.42 2.96c-.6.91-1.4 1.6-2.39 2.08-.99.48-2.19.68-3.61.62-1.42-.07-3.09-.53-5.03-1.39-1.67-.74-3.14-1.6-4.42-2.56-1.28-.96-2.4-1.99-3.34-3.08a18.7 18.7 0 0 1-2.39-3.45A21.16 21.16 0 0 1 61 98.33c-.4-1.24-.68-2.48-.86-3.72-.18-1.25-.27-2.44-.27-3.6 0-.28 0-.45.02-.51.01-.06.02-.1.02-.12 0-.02.01-.05.03-.08.02-.04.03-.18.03-.42s0-.62.02-1.14c.01-.52.02-1.25.02-2.19 0-1.12-.02-2.38-.06-3.8-.04-1.42-.13-2.83-.27-4.24-.14-1.4-.33-2.7-.58-3.91-.25-1.2-.57-2.13-.97-2.8 1.69.95 3.28 1.8 4.76 2.54 1.49.74 2.85 1.38 4.08 1.93.81.36 1.55.67 2.2.94.66.26 1.22.49 1.7.66.54.2 1.03.38 1.47.52-.42 1.63-.82 3.52-1.2 5.66-.39 2.14-.58 4.71-.58 7.7 0 .69.04 1.42.11 2.19.07.78.2 1.52.39 2.22.19.71.44 1.33.77 1.87.32.54.73.93 1.23 1.15.62.28 1.11.31 1.47.09.35-.22.62-.59.8-1.11.18-.53.28-1.15.31-1.88.03-.73.05-1.47.05-2.21-.02-2.42-.1-4.72-.25-6.88-.06-.92-.14-1.85-.23-2.81-.09-.95-.2-1.86-.33-2.72-.13-.86-.27-1.65-.44-2.37-.17-.72-.35-1.3-.56-1.77 1.69 1.01 3.25 1.87 4.69 2.58 1.44.71 2.72 1.3 3.84 1.76.75.31 1.42.57 2.01.78.59.21 1.1.38 1.52.5.5.16.94.28 1.31.37Z" class="cls-1"/><path d="M78.25 112.97c-.17 0-.34 0-.52-.01-1.47-.07-3.23-.55-5.21-1.43-1.69-.75-3.21-1.63-4.52-2.61-1.31-.98-2.46-2.04-3.42-3.15-.96-1.11-1.79-2.3-2.45-3.54-.66-1.23-1.2-2.49-1.6-3.75a23.7 23.7 0 0 1-.88-3.8c-.18-1.26-.27-2.5-.27-3.66 0-.33.01-.52.02-.59 0-.06.03-.18.06-.27v-.26c0-.24 0-.63.02-1.15.01-.51.02-1.24.02-2.18 0-1.11-.02-2.37-.06-3.79-.04-1.4-.13-2.82-.26-4.2-.13-1.38-.33-2.68-.57-3.85-.24-1.14-.54-2.03-.91-2.64a.503.503 0 0 1 .67-.7c1.75.99 3.3 1.82 4.74 2.53 1.56.77 2.88 1.4 4.06 1.92.81.36 1.54.67 2.19.93.65.26 1.21.48 1.69.66.54.2 1.02.37 1.45.51.25.08.4.34.33.6-.41 1.61-.81 3.5-1.2 5.63-.38 2.1-.57 4.66-.57 7.61 0 .67.04 1.4.11 2.15s.2 1.47.38 2.14c.17.66.41 1.24.71 1.75.27.46.6.77 1.01.95.32.14.75.28 1.01.12.25-.15.44-.44.58-.84.16-.48.26-1.07.29-1.74.03-.72.05-1.45.05-2.19-.02-2.39-.1-4.7-.25-6.85-.06-.92-.14-1.84-.23-2.79-.09-.94-.2-1.84-.33-2.7-.12-.86-.27-1.64-.43-2.33-.16-.68-.34-1.24-.53-1.68-.09-.2-.04-.43.12-.58.16-.15.4-.17.59-.06 1.67 1 3.24 1.86 4.65 2.56 1.42.7 2.7 1.29 3.81 1.75.74.31 1.41.56 1.99.77.58.21 1.08.37 1.49.5.49.16.92.28 1.28.36.13.03.24.11.31.23.07.11.09.25.06.38-.18.74-.35 1.64-.51 2.68-.15 1.04-.29 2.19-.4 3.42a89.477 89.477 0 0 0-.35 8.04c0 .46.01.91.03 1.37.02.47.03.93.03 1.36 0 .92-.06 1.95-.17 3.08-.12 1.14-.36 2.27-.71 3.36-.36 1.11-.86 2.14-1.48 3.08-.65.98-1.52 1.74-2.59 2.25-.94.45-2.06.68-3.33.68ZM60.4 90.48s0 .06-.01.09v.42c0 1.12.09 2.31.26 3.53.17 1.21.45 2.44.84 3.64.38 1.2.9 2.4 1.53 3.58.63 1.17 1.41 2.3 2.33 3.36.92 1.06 2.02 2.07 3.27 3.01s2.71 1.78 4.33 2.5c1.87.83 3.5 1.29 4.85 1.35 1.32.06 2.46-.13 3.37-.57a5.47 5.47 0 0 0 2.19-1.91c.57-.86 1.03-1.81 1.36-2.83.33-1.02.55-2.08.66-3.15.11-1.09.17-2.09.17-2.97 0-.42-.01-.86-.03-1.31-.02-.47-.03-.94-.03-1.42 0-1.37.03-2.78.09-4.18.06-1.37.15-2.7.27-3.96.11-1.25.25-2.42.41-3.48.13-.85.26-1.62.41-2.29-.26-.07-.55-.16-.87-.26-.42-.12-.93-.29-1.53-.51-.6-.21-1.28-.47-2.04-.79-1.13-.47-2.44-1.07-3.88-1.78a73.19 73.19 0 0 1-3.55-1.91c.05.17.09.35.13.54.17.72.32 1.53.45 2.41.13.87.24 1.78.33 2.74.09.96.17 1.9.24 2.82.14 2.17.23 4.49.25 6.91 0 .75-.02 1.5-.05 2.23-.03.77-.15 1.45-.34 2.02-.21.64-.55 1.1-1.01 1.38-.5.3-1.15.28-1.93-.06-.6-.27-1.09-.72-1.46-1.35-.35-.58-.62-1.26-.82-2-.19-.72-.33-1.5-.4-2.3-.07-.78-.11-1.54-.11-2.24 0-3.01.2-5.63.59-7.79.35-1.96.72-3.72 1.1-5.25-.32-.11-.67-.24-1.05-.38-.48-.18-1.05-.4-1.71-.67-.66-.27-1.4-.58-2.22-.94-1.19-.53-2.53-1.16-4.1-1.94-1.09-.54-2.24-1.14-3.49-1.83.15.46.29.97.4 1.53.25 1.21.45 2.55.59 3.96.14 1.41.23 2.84.27 4.27a138 138 0 0 1 .06 3.82c0 .95 0 1.69-.02 2.2-.01.51-.02.89-.02 1.13 0 .34-.02.49-.07.61Zm-.89-.43-.03.06c0-.02.02-.04.03-.06Z"/><path d="M114.47 87.79c-.17.84-.29 1.65-.36 2.45-.07.8-.11 1.62-.11 2.45 0 .8.04 1.6.11 2.41s.19 1.62.36 2.44c-1-.46-2.13-.84-3.39-1.14-1.26-.31-2.55-.61-3.86-.92v2.4c0 2.1.04 4.23.13 6.38.08 2.16.22 4.26.41 6.3.19 2.04.43 3.98.73 5.81.3 1.84.67 3.47 1.11 4.91-.36-.05-.77-.12-1.25-.22-.42-.07-.91-.15-1.47-.24-.56-.1-1.21-.21-1.94-.33-1.35-.23-2.92-.49-4.69-.82-1.77-.33-3.69-.66-5.75-1.03.71-3.4 1.21-7.02 1.52-10.84.3-3.82.45-7.6.45-11.33v-3.32c-1.42-.32-2.82-.62-4.2-.89-1.39-.27-2.69-.5-3.92-.68.08-.17.16-.41.22-.73.06-.31.11-.64.14-.98.03-.34.05-.68.06-1.01.01-.33.02-.61.02-.83 0-.95-.04-1.9-.12-2.86-.08-.96-.19-1.94-.31-2.93 1 .74 2.19 1.48 3.56 2.18 1.37.7 2.77 1.32 4.19 1.85-.13-1.65-.27-3.19-.44-4.62a54.7 54.7 0 0 0-.59-3.91c1.69.78 3.25 1.39 4.69 1.83 1.44.45 2.74.78 3.91 1 .75.14 1.42.25 2.02.31.59.07 1.1.11 1.52.13.5.03.94.04 1.31.02-.23.87-.42 1.95-.58 3.26a125.7 125.7 0 0 0-.45 4.39c1.38.05 2.67 0 3.89-.15 1.22-.15 2.26-.41 3.11-.74Z" class="cls-1"/><path d="M109.59 121.77h-.07c-.36-.05-.79-.12-1.27-.22-.4-.06-.89-.14-1.46-.24l-2.87-.49c-1.13-.19-2.38-.41-3.76-.66-1.48-.27-3.05-.55-4.73-.85l-1.01-.18a.515.515 0 0 1-.33-.21c-.08-.11-.1-.25-.08-.38.7-3.37 1.21-7 1.51-10.78.3-3.79.45-7.59.45-11.3v-2.91c-1.28-.29-2.55-.55-3.8-.8-1.47-.29-2.75-.51-3.9-.68a.5.5 0 0 1-.37-.26.478.478 0 0 1 0-.45c.04-.09.11-.27.18-.61.06-.29.1-.6.13-.93.03-.33.05-.65.06-.98.01-.32.02-.6.02-.81 0-.93-.04-1.87-.12-2.82-.08-.95-.19-1.92-.31-2.91-.02-.2.07-.39.24-.49a.5.5 0 0 1 .55.03c.99.74 2.17 1.46 3.49 2.13 1.12.57 2.26 1.09 3.4 1.54-.11-1.33-.23-2.61-.37-3.81-.16-1.4-.36-2.7-.59-3.88-.04-.18.03-.37.18-.49s.35-.14.52-.06c1.63.75 3.19 1.36 4.63 1.81 1.38.43 2.67.76 3.85.99.71.14 1.37.24 1.98.31.58.07 1.07.11 1.48.12.49.03.91.04 1.27.02.16-.01.31.06.41.19.1.12.13.29.09.44-.22.84-.41 1.91-.56 3.19-.14 1.16-.27 2.44-.4 3.84 1.13.02 2.23-.04 3.28-.17 1.13-.14 2.14-.38 2.99-.71a.48.48 0 0 1 .5.08c.14.12.21.3.17.48-.16.81-.28 1.62-.35 2.4-.07.76-.11 1.57-.11 2.41 0 .79.04 1.58.11 2.36.07.78.19 1.59.35 2.39a.48.48 0 0 1-.18.49c-.15.12-.35.14-.52.06-.94-.44-2.02-.8-3.3-1.11-1.06-.26-2.14-.52-3.24-.77v1.77c0 2.11.04 4.25.12 6.36.08 2.13.22 4.24.4 6.27.18 2.01.43 3.96.73 5.78.3 1.81.67 3.44 1.09 4.84.05.16.01.34-.1.47a.5.5 0 0 1-.38.17Zm-14.5-3.54.51.09c1.68.3 3.26.58 4.74.85 1.37.25 2.62.47 3.74.66l2.88.49c.56.1 1.05.18 1.46.24.17.03.32.06.47.09-.35-1.26-.65-2.67-.9-4.21-.3-1.85-.55-3.82-.74-5.85-.19-2.05-.33-4.18-.41-6.32-.08-2.13-.13-4.28-.13-6.4v-2.4c0-.15.07-.3.19-.39.12-.1.28-.13.42-.1 1.31.31 2.6.61 3.86.92.97.23 1.83.5 2.61.81-.09-.53-.15-1.05-.2-1.57-.07-.81-.11-1.64-.11-2.46 0-.87.04-1.71.11-2.5.05-.54.12-1.1.21-1.66-.73.22-1.53.38-2.4.49-1.27.15-2.6.21-3.97.16-.14 0-.27-.07-.36-.17a.475.475 0 0 1-.12-.38c.15-1.62.3-3.09.45-4.4.12-1.03.27-1.93.44-2.7-.23 0-.46-.01-.71-.03-.42-.02-.93-.06-1.54-.13-.63-.07-1.32-.18-2.05-.32-1.21-.23-2.55-.57-3.96-1.02-1.22-.38-2.52-.87-3.88-1.47.16.94.3 1.95.43 3.01.17 1.44.32 3 .44 4.64.01.17-.06.34-.2.44-.14.1-.32.13-.48.07-1.41-.53-2.84-1.16-4.24-1.87-.98-.5-1.89-1.03-2.71-1.57.07.62.13 1.23.18 1.84.09.97.13 1.95.13 2.9 0 .22 0 .51-.02.85-.01.34-.03.68-.06 1.04s-.08.71-.15 1.03c-.02.08-.03.15-.05.22 1.01.16 2.12.35 3.36.6 1.39.27 2.79.57 4.22.89.23.05.39.25.39.49v3.32c0 3.73-.15 7.56-.45 11.37-.29 3.63-.77 7.13-1.42 10.4Z"/></g></svg>