<svg xmlns="http://www.w3.org/2000/svg" id="Layer_2" data-name="Layer 2" viewBox="0 0 154.51 124.21"><defs><style>.cls-1{fill:#ffd70e}.cls-2{fill:#fff}</style></defs><g id="OBJECTS"><path d="M150.35 46.05c-3.53-4.3-8.74-6.77-14.29-6.77h-26.51v-7.03c0-1.2-.14-2.43-.4-3.6-.09-.69-.22-1.39-.39-2.07 1.28-3.08 1.29-6.59 0-9.65A20.07 20.07 0 0 0 90.2 4.59c-4.58 0-9.04 1.56-12.59 4.41-3.67-3.23-8.37-5-13.29-5a20.08 20.08 0 0 0-18.56 12.34c-1.29 3.06-1.28 6.57 0 9.65-.37 1.49-.56 3.03-.56 4.58v8.71H18.46c-5.56 0-10.77 2.47-14.29 6.77C.67 50.31-.72 55.84.36 61.22c7.29 36.5 39.63 62.99 76.9 62.99s69.62-26.49 76.9-62.99c1.07-5.38-.31-10.9-3.81-15.16Z"/><path d="M77.26 119.71c-37.04 0-69.17-26.32-76.41-62.59-1.04-5.23.31-10.61 3.7-14.75 3.43-4.18 8.5-6.58 13.91-6.58H45.7v-9.21c0-1.57.2-3.12.59-4.62a11.988 11.988 0 0 1-.06-9.42A19.552 19.552 0 0 1 64.32.5c5.03 0 9.73 1.9 13.27 5.16 3.46-2.9 7.89-4.57 12.61-4.57 7.93 0 15.03 4.72 18.1 12.03 1.28 3.06 1.21 6.47-.06 9.42.18.72.33 1.44.42 2.18.26 1.18.4 2.37.4 3.54v7.53h27.01c5.41 0 10.48 2.4 13.91 6.58 3.4 4.14 4.75 9.52 3.7 14.75-7.24 36.27-39.38 62.59-76.41 62.59Z" class="cls-2"/><path d="M77.26 120.21c-37.28 0-69.62-26.49-76.9-62.99-1.07-5.38.31-10.9 3.81-15.16 3.53-4.3 8.74-6.77 14.29-6.77H45.2v-8.71c0-1.55.19-3.09.56-4.58-1.28-3.08-1.29-6.59 0-9.65A20.08 20.08 0 0 1 64.32.01c4.92 0 9.62 1.77 13.29 5C81.17 2.16 85.62.6 90.2.6c8.13 0 15.41 4.84 18.56 12.34 1.29 3.07 1.28 6.57 0 9.65.17.69.3 1.38.39 2.07.26 1.18.4 2.4.4 3.6v7.03h26.51c5.56 0 10.77 2.47 14.29 6.77 3.49 4.26 4.88 9.79 3.81 15.16-7.29 36.5-39.63 62.99-76.9 62.99Zm-58.8-83.92c-5.26 0-10.19 2.33-13.52 6.4-3.3 4.03-4.61 9.25-3.6 14.33 7.19 36.03 39.12 62.19 75.92 62.19s68.73-26.15 75.92-62.19c1.01-5.08-.3-10.31-3.6-14.33-3.34-4.07-8.26-6.4-13.52-6.4h-27.01c-.28 0-.5-.22-.5-.5v-7.53c0-1.13-.13-2.28-.38-3.43-.1-.75-.24-1.46-.42-2.16a.442.442 0 0 1 .03-.32c1.24-2.87 1.27-6.16.06-9.03A19.092 19.092 0 0 0 90.2 1.59c-4.49 0-8.86 1.58-12.28 4.46-.19.16-.47.15-.66-.02A19.078 19.078 0 0 0 64.32 1C56.6 1 49.67 5.6 46.68 12.73c-1.2 2.87-1.18 6.16.06 9.03.04.1.05.22.02.32a17.85 17.85 0 0 0-.57 4.5v9.21c0 .28-.22.5-.5.5H18.45Z"/><path d="M136.06 41.79h-33.31c.04-.42.06-.84.06-1.27v-1.2c.15-.7.23-1.43.23-2.18v-8.89c0-.86-.12-1.69-.31-2.49-.15-1.39-.54-2.71-1.11-3.93a5.983 5.983 0 0 0 1.13-6.39c-2.13-5.08-7.06-8.36-12.57-8.36s-10.44 3.28-12.57 8.36c-.14.34-.25.69-.33 1.04-.06-.55-.2-1.09-.42-1.63-2.13-5.08-7.06-8.36-12.57-8.36s-10.43 3.28-12.56 8.36c-.94 2.24-.41 4.72 1.13 6.4-.75 1.62-1.19 3.42-1.19 5.32v13.36c0 .63.06 1.25.15 1.86H18.46c-7.48 0-13.19 6.82-11.73 14.16 6.58 32.94 35.65 57.76 70.53 57.76s63.95-24.82 70.53-57.76c1.46-7.34-4.25-14.16-11.73-14.16Z" style="fill:#9a7eff"/><path d="M77.26 114.21c-34.42 0-64.29-24.46-71.02-58.17-.72-3.61.21-7.32 2.56-10.18 2.38-2.91 5.9-4.57 9.65-4.57h32.82c-.06-.49-.08-.93-.08-1.36V26.57c0-1.8.37-3.56 1.1-5.24a6.512 6.512 0 0 1-1.01-6.68c2.21-5.26 7.32-8.66 13.03-8.66s10.82 3.4 13.03 8.66c.01.03.03.07.04.1 2.31-4.99 7.28-8.18 12.81-8.18s10.82 3.4 13.03 8.66c.94 2.24.54 4.82-1.01 6.68.53 1.22.87 2.49 1.02 3.78.21.82.32 1.7.32 2.55v8.89c0 .74-.08 1.49-.23 2.23v1.15c0 .26 0 .51-.02.77h32.76c3.75 0 7.27 1.67 9.65 4.57 2.35 2.86 3.28 6.58 2.56 10.18-6.73 33.7-36.59 58.17-71.02 58.17Zm-58.8-71.92c-3.45 0-6.69 1.53-8.88 4.21-2.16 2.63-3.02 6.04-2.35 9.35 6.64 33.24 36.09 57.36 70.04 57.36s63.4-24.12 70.04-57.36c.66-3.31-.2-6.72-2.35-9.35a11.458 11.458 0 0 0-8.88-4.21h-33.3c-.14 0-.28-.06-.37-.16a.52.52 0 0 1-.13-.38c.04-.4.06-.81.06-1.22v-1.2s0-.07.01-.1c.15-.69.22-1.38.22-2.07v-8.89c0-.77-.1-1.57-.3-2.37-.15-1.36-.51-2.63-1.08-3.84a.49.49 0 0 1 .09-.55 5.515 5.515 0 0 0 1.04-5.86c-2.05-4.89-6.8-8.05-12.1-8.05s-10.05 3.16-12.1 8.05c-.12.3-.22.61-.3.96-.05.24-.28.41-.51.39a.502.502 0 0 1-.47-.44c-.06-.52-.19-1.03-.39-1.49-2.05-4.89-6.8-8.05-12.1-8.05s-10.05 3.16-12.1 8.05a5.515 5.515 0 0 0 1.04 5.86c.14.15.17.37.09.55a12.01 12.01 0 0 0-1.14 5.11v13.36c0 .54.05 1.11.15 1.78.02.14-.02.29-.12.4-.09.11-.23.17-.38.17H18.46Z"/><path d="M37.27 73.48c-.74-.9-1.51-1.74-2.29-2.49-.73-.71-1.35-1.4-1.85-2.06-.45-.59-.65-1.13-.63-1.65.03-.55.15-.92.38-1.1.19-.15.49-.2.88-.14.51.08 1.09.37 1.7.87 1.02.82 1.27.96 1.48 1 .94.16 1.48-1.06 1.66-1.46.41-.9.65-1.99.71-3.25.1-1.86-.76-3.38-2.48-4.39-1.6-.95-3.82-1.41-6.77-1.41h-.04c-2.67 0-5.12.63-7.1 1.8-1.95 1.17-2.86 2.63-2.87 4.61 0 1.16.21 2.26.68 3.35.45 1.06.99 2.01 1.62 2.81.62.78 1.23 1.54 1.83 2.25.58.68 1.08 1.36 1.48 2.03.36.6.54 1.15.52 1.63-.01.36-.09.46-.09.46-.01 0-.16.02-.52-.2-.5-.3-1.23-.97-2.24-2.06-.54-.58-1.5-1.6-1.87-1.87-.49-.29-.87-.24-1.1-.15-.38.15-.65.53-.81 1.11-.13.46-.19.97-.19 1.56 0 .77.22 1.56.68 2.39.16.29.48.83.97 1.64.52.86 1.38 2.01 2.56 3.44 1.31 1.58 2.67 2.91 4.05 3.97 2.45 1.89 4.74 2.84 6.82 2.84.3 0 .59-.02.88-.06 1.26-.18 2.32-.91 3.15-2.18.79-1.21 1.24-2.78 1.34-4.67.1-1.85-.11-3.53-.61-5-.5-1.45-1.16-2.67-1.95-3.62Zm33.57-12.91c-.34-1.08-1.09-1.71-2.17-1.81-.89-.08-1.68-.13-2.34-.13-.66 0-1.22.02-1.65.05-.55.05-1.12.58-2.14 2.99-.67 1.59-1.57 3.92-2.89 7.56-1.13 3.11-1.85 4.97-2.07 5.52-.03.09-.07.16-.09.21-.09-.16-.23-.46-.41-.97-.32-.91-.89-2.77-1.7-5.53-.79-2.71-1.51-4.95-2.14-6.67-.93-2.51-1.36-2.85-1.7-2.98-.25-.09-.99-.19-6.51-.27-.96.01-1.7.47-2.12 1.39-.36.8-.61 1.88-.74 3.3-.24 2.84-.53 7.33-.84 13.36-.32 6.04-.48 10.59-.48 13.53.02.82.18 1.64.47 2.41.32.85.8 1.44 1.43 1.77.93.42 1.87.83 2.85 1.23.57.19 1.11.07 1.57-.32.43-.37.67-.96.73-1.75l.54-8.48c1.32 6.02 2.23 9.87 2.79 11.74.4 1.37.97 2.15 1.76 2.39.61.19 1.48.09 2.13-1.45 1.55-3.51 2.93-7.04 4.12-10.51v.23l-.11 9.5c0 .8.13 1.5.4 2.05.3.62.68 1.01 1.12 1.15.97.33 2.19.6 3.62.83 1.41.22 2.8.38 4.11.48h.18c.53 0 1.19-.25 1.67-1.3.36-.78.56-1.68.62-2.7.23-3.9.38-9.39.46-16.31.08-6.81.09-12.4.03-16.62-.04-1.67-.21-2.99-.5-3.93Zm15.98 5.03c-.13-2.65-.33-4.37-.62-5.25-.42-1.31-1.34-1.59-2.05-1.59-2.51 0-5.01 0-7.52.01-.71 0-1.64.28-2.04 1.61-.27.89-.45 2.62-.55 5.31-.1 2.62-.17 7.74-.21 15.23-.04 7.65 0 13.08.15 16.61.06.98.28 1.88.66 2.66.43.89 1.03 1.39 1.79 1.5 1.03.13 2.11.2 3.21.2.39 0 .79 0 1.19-.03 1.48-.06 2.86-.24 4.08-.52.74-.17 1.32-.71 1.73-1.61.36-.8.57-1.7.62-2.69.1-3.46.09-8.98-.04-16.42-.13-7.42-.26-12.48-.39-15.05Zm25.89 19.15c-.22-.15-.59-.3-1.1-.14-2.33.83-4.73 1.58-7.14 2.23-.67.18-.92-.04-1.08-.44-.27-.66-.44-1.77-.5-3.3l-.43-10.88c-.15-3.55-.29-6.26-.42-8.05-.14-1.83-.35-3.14-.65-3.98-.36-1-1.09-1.49-2.08-1.52l-7.52.06c-.69 0-1.6.29-1.99 1.62-.26.89-.39 2.6-.42 5.23-.03 2.55.05 7.54.22 14.83.17 7.43.37 12.68.61 16.05.1 1.3.41 2.3.93 2.98.47.62 1.08.93 1.78.93.16 0 .32-.02.48-.05 3.65-.65 7.07-1.52 10.46-2.66 2.67-.9 5.38-2.04 8.03-3.39.88-.44 1.45-1.2 1.68-2.25.21-.95.27-2.27.18-4.04-.09-1.79-.42-2.81-1.03-3.23Zm21.65-10.7c-.36-.05-.75.07-1.14.36-2.01 1.44-4.1 2.81-6.23 4.08-.14.09-.22.1-.23.11-.03-.04-.12-.2-.15-.78l-.08-1.77c-.03-.58.02-1.04.15-1.35.1-.26.3-.45.63-.59 1.44-.63 2.87-1.3 4.26-1.98.53-.26.92-.6 1.16-1.01.24-.41.36-.98.34-1.75-.01-.76-.1-1.27-.26-1.6-.21-.42-.49-.64-.83-.66-.23-.02-.49.04-.84.16-1.58.54-3.21 1.07-4.85 1.6 0 0-.08-.1-.1-.49l-.12-2.71c-.02-.46.05-.85.22-1.15.14-.25.3-.37.53-.41 2.01-.31 4.01-.64 6.01-.99 1.17-.21 1.81-1.08 1.81-2.43 0-.93-.23-1.63-.68-2.07-.37-.36-.86-.52-1.49-.53l-6.3.15c-5.84.14-9.36.22-10.39.29-2.22.15-2.23 3.48-2.24 4.58-.02 2.06.14 6.35.5 13.14.36 6.76.62 10.69.8 12 .19 1.41.51 2.33.98 2.8.32.32.69.48 1.08.48.28 0 .57-.08.86-.24a82.417 82.417 0 0 0 15.86-11.51c.42-.39.77-1.01 1.07-1.89.29-.84.43-1.6.43-2.31 0-.39 0-1.43-.78-1.53Z"/><path d="M23.93 76.47c-1.21-1.43-2.04-2.54-2.53-3.33-.49-.8-.81-1.33-.97-1.62-.41-.75-.62-1.47-.62-2.17 0-.55.06-1.03.18-1.45.22-.79.61-1.03 1.18-.7.18.13.77.7 1.76 1.77s1.78 1.79 2.36 2.13c.87.51 1.33.27 1.37-.69.02-.58-.17-1.22-.59-1.91-.42-.69-.93-1.39-1.53-2.09s-1.21-1.45-1.82-2.23c-.61-.78-1.13-1.69-1.55-2.72a7.912 7.912 0 0 1-.63-3.2c.01-1.86.87-3.16 2.63-4.21 1.76-1.03 4.05-1.68 6.83-1.65 2.78.03 4.96.46 6.54 1.41 1.58.94 2.33 2.28 2.24 3.93-.06 1.18-.28 2.21-.66 3.05-.38.84-.76 1.22-1.12 1.16-.13-.02-.55-.33-1.25-.89-.71-.57-1.35-.89-1.94-.98-1.16-.18-1.77.38-1.83 1.7-.03.65.21 1.3.73 1.98.52.68 1.15 1.38 1.9 2.11s1.5 1.54 2.25 2.44c.75.9 1.38 2.04 1.86 3.44.49 1.39.69 3 .59 4.77-.09 1.77-.51 3.26-1.26 4.39-.74 1.13-1.68 1.8-2.8 1.96-2.22.32-4.69-.58-7.35-2.57-1.46-1.09-2.78-2.39-3.99-3.82Z" class="cls-1"/><path d="M34.39 83.42c-2.06 0-4.33-.92-6.77-2.73-1.39-1.03-2.76-2.34-4.07-3.89-1.19-1.41-2.06-2.55-2.57-3.4-.49-.8-.82-1.34-.98-1.63-.46-.84-.68-1.62-.68-2.41 0-.6.07-1.11.19-1.58.16-.6.44-.98.82-1.13.23-.09.61-.14 1.09.14.36.26 1.33 1.27 1.88 1.86 1.01 1.08 1.74 1.75 2.24 2.04.38.22.52.19.52.19s.08-.1.1-.47c.02-.48-.16-1.03-.52-1.63-.4-.66-.9-1.35-1.48-2.03-.61-.71-1.22-1.46-1.84-2.25-.63-.8-1.18-1.76-1.62-2.83a8.522 8.522 0 0 1-.67-3.4c.01-2 .93-3.48 2.88-4.63 1.97-1.15 4.44-1.74 7.09-1.72 2.96.03 5.19.52 6.8 1.48 1.72 1.02 2.58 2.54 2.49 4.38-.07 1.25-.3 2.33-.71 3.22-.18.4-.72 1.6-1.66 1.44-.21-.03-.47-.18-1.48-1-.62-.5-1.19-.79-1.71-.87-.4-.06-.69-.02-.88.14-.28.23-.36.72-.38 1.09-.03.52.18 1.06.63 1.65.5.66 1.12 1.35 1.85 2.06.77.75 1.54 1.59 2.29 2.48.79.95 1.45 2.15 1.95 3.59.51 1.45.72 3.12.62 4.96-.1 1.88-.55 3.44-1.34 4.64-.83 1.26-1.88 2-3.14 2.18-.31.04-.63.07-.95.07Zm-10.08-7.27c1.27 1.49 2.58 2.75 3.91 3.74 2.6 1.94 4.95 2.77 6.98 2.48.96-.14 1.79-.73 2.45-1.74.69-1.06 1.09-2.45 1.18-4.15.09-1.7-.1-3.24-.57-4.57-.46-1.32-1.06-2.43-1.78-3.28-.72-.86-1.47-1.67-2.22-2.4a19.64 19.64 0 0 1-1.95-2.17c-.6-.78-.87-1.54-.83-2.3.04-.84.29-1.45.74-1.82.41-.34.98-.46 1.67-.35.69.11 1.42.47 2.18 1.08.75.6.99.76 1.07.8-.02-.03.2-.14.53-.88.35-.78.56-1.74.62-2.87.08-1.47-.6-2.63-2-3.47-1.45-.87-3.51-1.31-6.29-1.34-2.48-.02-4.77.52-6.57 1.58-1.64.97-2.37 2.14-2.39 3.78 0 1.04.18 2.02.59 3 .41.99.91 1.87 1.49 2.6.61.77 1.21 1.52 1.81 2.22a16.2 16.2 0 0 1 1.58 2.16c.47.77.69 1.5.66 2.18-.03.66-.23 1.1-.62 1.31-.39.22-.9.15-1.5-.21-.6-.34-1.38-1.05-2.47-2.22-1.1-1.18-1.58-1.62-1.69-1.7-.1-.06-.17-.06-.18-.05-.03.01-.14.13-.24.47-.11.38-.16.81-.16 1.32 0 .61.18 1.24.56 1.93.16.28.48.81.95 1.6.49.8 1.32 1.9 2.48 3.27Z"/><path d="M52.74 56.64c.63 1.67 1.34 3.84 2.14 6.56.81 2.71 1.38 4.56 1.71 5.49.33.92.61 1.4.83 1.43.22.02.42-.19.61-.66.19-.47.88-2.25 2.07-5.45 1.18-3.2 2.14-5.69 2.88-7.41.74-1.72 1.31-2.61 1.73-2.64.41-.03.95-.05 1.6-.05.65 0 1.42.05 2.3.13.88.08 1.46.56 1.74 1.44.28.88.44 2.13.48 3.73.06 4.11.06 9.55-.02 16.34-.08 6.79-.23 12.13-.46 16.02-.05.94-.24 1.76-.57 2.48-.33.71-.78 1.04-1.34.99a51.32 51.32 0 0 1-4.08-.47c-1.49-.23-2.67-.51-3.54-.79-.32-.1-.59-.39-.83-.88-.24-.48-.35-1.09-.35-1.81.03-3.12.07-6.24.1-9.35 0-.91-.08-1.43-.26-1.57-.18-.14-.36.08-.53.65-1.14 3.36-2.56 7.02-4.26 10.84-.41.96-.92 1.35-1.53 1.16-.6-.18-1.08-.86-1.43-2.02-.61-1.99-1.6-6.16-2.94-12.2-.08-.37-.18-.61-.3-.71-.12-.1-.23-.04-.34.18-.11.22-.17.6-.2 1.15l-.54 8.48c-.05.65-.24 1.11-.56 1.39-.32.28-.69.35-1.09.23-.94-.38-1.87-.77-2.8-1.18-.5-.26-.89-.75-1.17-1.47-.28-.72-.42-1.46-.44-2.22 0-2.92.15-7.37.46-13.37.31-6 .58-10.4.82-13.21.12-1.34.36-2.37.69-3.1.34-.73.89-1.09 1.65-1.08 3.92.09 6.04.17 6.36.29.31.11.78.98 1.41 2.65Z" class="cls-1"/><path d="M68.56 95.54h-.18c-1.32-.1-2.7-.26-4.1-.47-1.43-.22-2.65-.49-3.62-.81-.44-.14-.82-.52-1.12-1.14-.27-.55-.4-1.23-.4-2.03l.1-9.35v-.23c-1.18 3.41-2.55 6.89-4.1 10.36-.68 1.6-1.63 1.59-2.13 1.44-.78-.24-1.36-1.01-1.76-2.36-.56-1.85-1.48-5.64-2.81-11.59l-.53 8.38c-.06.79-.31 1.37-.73 1.74-.46.39-1 .51-1.56.33-.98-.39-1.92-.79-2.85-1.2-.64-.32-1.11-.91-1.44-1.75-.3-.77-.46-1.58-.48-2.39 0-2.92.15-7.42.46-13.4.3-5.93.58-10.38.82-13.23.13-1.41.37-2.48.74-3.27.42-.92 1.17-1.39 2.12-1.37 5.55.12 6.25.22 6.51.32.34.12.77.46 1.7 2.94.63 1.69 1.34 3.85 2.16 6.59.83 2.78 1.38 4.56 1.7 5.46.18.51.32.8.41.96.03-.05.06-.12.1-.21.16-.38.83-2.11 2.06-5.43 1.31-3.55 2.2-5.85 2.89-7.43 1.03-2.38 1.6-2.9 2.14-2.94.43-.04.99-.05 1.65-.05.67 0 1.46.05 2.35.13 1.08.1 1.83.72 2.17 1.79.3.93.46 2.2.5 3.87.07 4.13.06 9.63-.02 16.36-.08 6.8-.23 12.2-.46 16.05-.06 1-.26 1.89-.62 2.66-.48 1.03-1.14 1.28-1.67 1.28Zm-9.19-15.91c.15 0 .29.05.42.15.33.26.46.81.45 1.97l-.1 9.35c0 .64.1 1.17.3 1.58.17.35.36.57.53.62.91.3 2.11.57 3.47.77 1.37.21 2.73.37 4.04.46.15.01.5.05.85-.7.3-.65.48-1.42.53-2.29.22-3.84.38-9.22.45-16 .08-6.71.08-12.21.02-16.33-.04-1.55-.19-2.75-.45-3.59-.22-.69-.63-1.03-1.31-1.1-.86-.08-1.62-.13-2.26-.13-.63 0-1.15 0-1.56.04 0 .01-.4.24-1.31 2.34-.68 1.57-1.56 3.85-2.87 7.39-1.11 2.99-1.84 4.9-2.07 5.46-.28.7-.66 1.02-1.13.97-.47-.05-.8-.53-1.24-1.76-.33-.92-.89-2.72-1.72-5.51-.81-2.72-1.51-4.85-2.13-6.52-.76-2.02-1.09-2.33-1.15-2.37-.27-.07-2.35-.15-6.16-.24-.58-.03-.93.23-1.19.79-.31.68-.53 1.67-.65 2.94-.24 2.83-.52 7.27-.82 13.19-.31 5.96-.46 10.45-.46 13.34.02.7.15 1.37.41 2.04.23.6.55 1.01.93 1.21.9.4 1.83.79 2.76 1.16.2.06.38.02.57-.14.22-.19.35-.54.39-1.05l.54-8.47c.03-.63.11-1.05.25-1.34.13-.27.32-.44.54-.49.2-.04.4.01.56.15.22.18.36.49.47.99 1.4 6.29 2.36 10.27 2.93 12.16.29.98.67 1.56 1.09 1.69.12.04.48.15.92-.88 1.62-3.64 3.05-7.27 4.25-10.81.13-.42.31-.88.71-1 .06-.02.13-.03.19-.03Zm-1.76-9.97h.01-.01Z"/><path d="M76.62 54.06c2.51 0 5.02 0 7.53-.02.79 0 1.31.4 1.58 1.22s.46 2.49.59 5.04c.13 2.54.25 7.47.38 14.79.12 7.32.14 12.7.03 16.13-.05.9-.24 1.72-.58 2.46-.34.74-.8 1.17-1.39 1.3-1.15.26-2.48.43-3.99.49-1.51.06-2.95 0-4.3-.17-.58-.08-1.05-.49-1.4-1.2-.35-.72-.55-1.53-.61-2.44-.15-3.46-.19-8.9-.15-16.31.04-7.41.11-12.4.21-14.97.1-2.57.28-4.27.53-5.1.26-.83.78-1.24 1.57-1.24Z" class="cls-1"/><path d="M79.63 96c-1.1 0-2.17-.06-3.21-.19-.76-.11-1.36-.6-1.79-1.48-.38-.77-.6-1.65-.66-2.62-.15-3.47-.2-8.81-.16-16.34.04-7.37.11-12.41.21-14.99.1-2.64.28-4.35.55-5.23.41-1.31 1.34-1.59 2.04-1.59 2.51 0 5.02 0 7.53-.02.73 0 1.63.26 2.06 1.56.28.86.48 2.55.62 5.17.13 2.53.25 7.51.38 14.81.13 7.43.14 12.71.03 16.16-.05.97-.26 1.86-.62 2.65-.41.89-.99 1.42-1.73 1.58-1.22.27-2.59.44-4.08.5-.4.02-.79.02-1.18.02Zm-3.01-41.44c-.57 0-.89.26-1.09.89-.24.78-.41 2.45-.51 4.97-.1 2.56-.17 7.59-.21 14.95-.04 7.51 0 12.83.15 16.28.05.83.24 1.59.56 2.24.28.57.61.87 1.02.93 1.34.17 2.76.22 4.21.16 1.43-.06 2.74-.22 3.9-.48.43-.09.77-.43 1.04-1.02.31-.67.49-1.44.53-2.27.1-3.37.09-8.79-.03-16.1-.12-7.29-.25-12.26-.38-14.78-.12-2.49-.32-4.14-.57-4.9-.2-.6-.53-.87-1.09-.87h-.01c-2.51.01-5.03.01-7.54.02Z"/><path d="M101.96 66.79c.14 3.58.28 7.15.41 10.73.06 1.57.24 2.72.53 3.42.29.71.85.95 1.67.73 2.42-.65 4.81-1.38 7.18-2.2.86-.26 1.35.7 1.46 2.91.09 1.7.03 2.98-.17 3.86-.2.88-.68 1.52-1.42 1.88-2.64 1.3-5.3 2.4-7.97 3.28-2.67.87-6.12 1.83-10.38 2.58-.72.14-1.31-.09-1.77-.69-.46-.59-.74-1.49-.83-2.67-.24-3.31-.43-8.58-.6-15.78-.16-7.2-.23-12.06-.2-14.58.03-2.52.16-4.19.41-5.02.24-.83.75-1.24 1.52-1.25l7.53-.09c.79-.01 1.32.38 1.61 1.16.28.78.49 2.05.62 3.8s.27 4.39.41 7.93Z" class="cls-1"/><path d="M92.89 94.51c-.69 0-1.3-.31-1.78-.92-.52-.67-.84-1.66-.93-2.94-.24-3.32-.43-8.49-.6-15.81-.16-7.17-.23-12.08-.2-14.6.03-2.59.17-4.27.43-5.15.39-1.32 1.3-1.6 1.99-1.61 2.51-.02 5.02-.06 7.52-.09 1.02-.02 1.72.5 2.08 1.49.3.84.52 2.12.65 3.93.13 1.74.27 4.42.41 7.95s.41 10.73.41 10.73c.06 1.51.23 2.6.5 3.25.16.39.41.62 1.08.44 2.4-.64 4.81-1.38 7.14-2.19.52-.16.89 0 1.11.14.6.42.93 1.44 1.02 3.21.09 1.76.03 3.07-.19 4-.24 1.04-.81 1.79-1.69 2.22a60.669 60.669 0 0 1-8.03 3.3c-3.38 1.11-6.8 1.96-10.45 2.59-.16.03-.32.05-.48.05Zm6.47-40.11h-.02c-2.51.04-5.02.07-7.53.09-.39 0-.81.11-1.04.89-.23.78-.36 2.42-.39 4.88-.03 2.51.04 7.4.2 14.56.17 7.3.36 12.45.6 15.76.08 1.08.32 1.88.72 2.4.35.45.76.61 1.28.51 3.61-.63 6.98-1.47 10.32-2.56 2.63-.86 5.29-1.96 7.9-3.25.61-.3.98-.8 1.16-1.55.19-.83.25-2.08.16-3.72-.1-1.95-.48-2.36-.59-2.44-.03-.02-.08-.06-.22-.01-2.34.81-4.77 1.56-7.19 2.2-1.07.29-1.87-.08-2.26-1.02-.32-.77-.5-1.94-.57-3.59l-.41-10.73c-.15-3.52-.28-6.18-.41-7.91-.12-1.69-.32-2.93-.59-3.66-.21-.57-.55-.83-1.1-.83Z"/><path d="M116.18 85.05c-.39-.39-.67-1.22-.84-2.5-.17-1.27-.43-5.23-.77-11.85-.35-6.62-.51-10.96-.48-12.99.01-2.63.6-3.98 1.78-4.06 1.33-.1 6.91-.26 16.64-.63 1.09-.03 1.65.67 1.65 2.11 0 1.13-.46 1.79-1.39 1.97-1.98.36-3.98.7-5.99 1.03-.38.06-.68.28-.89.67-.21.39-.31.86-.28 1.41l.12 2.71c.03.75.29 1.06.78.91 1.63-.5 3.25-1.02 4.85-1.57.28-.1.5-.14.65-.13.15.01.29.15.42.4s.2.72.21 1.39c.01.68-.08 1.17-.27 1.5-.19.32-.51.6-.96.81-1.4.68-2.82 1.33-4.25 1.95-.44.19-.74.47-.89.86-.15.39-.22.91-.19 1.56.03.61.05 1.23.08 1.84.05 1.08.43 1.42 1.14 1.01 2.15-1.25 4.24-2.59 6.29-4.02.3-.21.56-.29.79-.25.23.04.34.39.35 1.06 0 .67-.13 1.38-.4 2.16-.27.78-.58 1.35-.94 1.67a83.137 83.137 0 0 1-15.83 11.16c-.51.28-.96.23-1.34-.16Z" class="cls-1"/><path d="M116.91 85.89c-.4 0-.77-.16-1.09-.49-.47-.47-.79-1.39-.98-2.79-.17-1.29-.43-5.29-.78-11.89-.35-6.61-.51-10.99-.48-13.02.01-2.91.77-4.45 2.24-4.56.81-.06 3.13-.14 6.97-.28 2.56-.09 5.79-.2 9.69-.35.62-.01 1.11.15 1.48.51.46.44.69 1.13.69 2.09 0 1.84-1.12 2.33-1.8 2.46-1.99.36-3.99.71-6 1.03-.23.04-.4.16-.54.41-.17.3-.24.69-.22 1.15l.12 2.71c.02.39.1.49.1.49 1.66-.53 3.28-1.06 4.86-1.6.35-.12.61-.17.84-.16.34.02.62.25.83.67.17.33.25.84.26 1.61.01.77-.1 1.35-.34 1.76-.25.41-.64.75-1.17 1.01-1.4.68-2.83 1.33-4.27 1.96-.32.14-.52.33-.63.58-.13.32-.18.77-.15 1.35l.08 1.77c.03.59.13.75.15.79 0 0 .08-.02.23-.11 2.14-1.25 4.25-2.59 6.26-3.99.4-.28.79-.39 1.15-.34.76.12.77 1.16.77 1.55 0 .72-.14 1.48-.42 2.33-.3.89-.66 1.5-1.08 1.89a83.432 83.432 0 0 1-15.93 11.23c-.29.16-.57.23-.85.23Zm15.66-32.38h-.06c-3.9.15-7.13.26-9.69.35-3.83.14-6.14.22-6.93.28-1.07.08-1.31 1.98-1.31 3.57-.02 2.01.14 6.37.48 12.96.34 6.58.6 10.56.77 11.81.2 1.52.52 2.04.7 2.21.19.2.38.28.75.08a82.49 82.49 0 0 0 15.74-11.09c.29-.26.56-.75.81-1.46.25-.74.37-1.39.37-2 0-.29-.02-.46-.05-.55-.09.02-.19.08-.3.16a89.466 89.466 0 0 1-6.33 4.04c-.46.27-.87.31-1.22.12-.41-.22-.63-.73-.67-1.54l-.08-1.84c-.03-.74.04-1.31.22-1.77.2-.5.59-.88 1.16-1.13 1.43-.62 2.85-1.27 4.23-1.94.35-.17.6-.38.75-.62.1-.17.21-.51.2-1.23-.01-.81-.11-1.09-.16-1.18a.535.535 0 0 0-.07-.12c-.07 0-.19.03-.39.1-1.59.54-3.22 1.07-4.86 1.57-.43.13-.73.01-.91-.11-.32-.23-.49-.64-.51-1.26l-.12-2.71c-.03-.65.09-1.21.34-1.68.28-.52.72-.84 1.25-.92 2-.32 4-.66 5.98-1.02.46-.09.99-.34.98-1.48 0-.66-.14-1.14-.39-1.38-.16-.16-.39-.23-.7-.23Z"/><path d="M57.7 26.58c0-3.69 2.99-6.68 6.68-6.68s6.68 2.99 6.68 6.68v13.36c0 3.69-2.99 6.68-6.68 6.68s-6.68-2.99-6.68-6.68V26.58Z" class="cls-2"/><path d="M71.35 17.68c-.2 0-.38-.12-.46-.31C69.78 14.72 67.2 13 64.32 13s-5.46 1.72-6.57 4.37c-.11.25-.4.37-.65.27a.509.509 0 0 1-.27-.65c1.27-3.03 4.21-4.98 7.49-4.98s6.22 1.96 7.49 4.98c.11.25-.01.55-.27.65-.06.03-.13.04-.19.04Z"/><path d="M83.46 27.16c0-3.69 2.99-6.68 6.68-6.68s6.68 2.99 6.68 6.68v13.36c0 3.69-2.99 6.68-6.68 6.68s-6.68-2.99-6.68-6.68V27.16Z" class="cls-2"/><path d="M64.37 19.4c-3.96 0-7.18 3.22-7.18 7.18v13.36c0 3.96 3.22 7.18 7.18 7.18s7.18-3.22 7.18-7.18V26.58c0-3.96-3.22-7.18-7.18-7.18Zm6.18 7.29a4.426 4.426 0 0 0-4.15-2.88c-2.45 0-4.44 1.99-4.44 4.44v2.11l4.44 2.33-4.44 2.23v2.21c0 2.45 1.99 4.44 4.44 4.44 1.9 0 3.51-1.2 4.15-2.88v1.22c0 3.41-2.77 6.18-6.18 6.18s-6.18-2.77-6.18-6.18V26.55c0-3.41 2.77-6.18 6.18-6.18s6.18 2.77 6.18 6.18v.11Zm19.59-6.71c-3.96 0-7.18 3.22-7.18 7.18v13.36c0 3.96 3.22 7.18 7.18 7.18s7.18-3.22 7.18-7.18V27.16c0-3.96-3.22-7.18-7.18-7.18Zm0 26.72c-3.41 0-6.18-2.77-6.18-6.18V27.16c0-3.41 2.77-6.18 6.18-6.18 2.84 0 5.23 1.93 5.95 4.55a4.42 4.42 0 0 0-3.49-1.72c-2.45 0-4.44 1.99-4.44 4.44v2.11l4.44 2.33-4.44 2.23v2.21c0 2.45 1.99 4.44 4.44 4.44 1.56 0 2.92-.8 3.71-2.01v.94c0 3.41-2.77 6.18-6.18 6.18Zm7.09-28.44c-.2 0-.38-.12-.46-.31-1.11-2.66-3.69-4.37-6.57-4.37s-5.46 1.72-6.57 4.37c-.11.25-.4.37-.65.27a.509.509 0 0 1-.27-.65c1.27-3.03 4.21-4.98 7.49-4.98s6.22 1.96 7.49 4.98c.11.25-.01.55-.27.65-.06.03-.13.04-.19.04Z"/></g></svg>