<svg xmlns="http://www.w3.org/2000/svg" id="Layer_2" data-name="Layer 2" viewBox="0 0 100.55 93.92"><defs><style>.cls-1{fill:#36b8c3}.cls-2{fill:none;stroke:#2b2e33;stroke-miterlimit:10;stroke-width:3.5px}.cls-3{fill:#fff}.cls-4{fill:#2b2e33}</style></defs><g id="OBJECTS"><path d="M39.32 93.92c2.04 0 4.07-.23 6.04-.69 7.02-1.64 13.12-6.07 17.51-12.64 3.08 1.16 6.22 1.74 9.36 1.74 1.88 0 3.76-.22 5.58-.64 8.44-1.97 15.27-8.18 19.25-17.5 3.79-8.89 4.52-19.62 2.05-30.21-2.45-10.49-7.76-19.73-14.96-26C78.16 2.76 71.38 0 64.55 0c-1.9 0-3.81.22-5.66.65-4.92 1.15-9.34 3.76-12.96 7.62-4.88-2.82-10.08-4.29-15.2-4.29-2.03 0-4.06.23-6.04.69C6.24 8.99-4.14 32.35 1.56 56.77 6.59 78.3 22.47 93.93 39.32 93.93Z" class="cls-3"/><ellipse cx="68.13" cy="41.17" class="cls-3" rx="25.84" ry="35.86" transform="rotate(-13.14 68.145 41.192)"/><ellipse cx="76.33" cy="40.84" class="cls-1" rx="17.78" ry="24.68" transform="rotate(-13.14 76.365 40.863)"/><path d="M94.52 40.55c1.81 7.75-1.25 15.1-6.84 16.4-5.59 1.3-11.58-3.92-13.39-11.68-1.81-7.75 1.25-15.1 6.84-16.4 5.59-1.3 11.58 3.92 13.39 11.68Z" class="cls-4"/><ellipse cx="68.13" cy="41.17" class="cls-2" rx="25.84" ry="35.86" transform="rotate(-13.14 68.145 41.192)"/><ellipse cx="34.81" cy="48.95" class="cls-3" rx="28.61" ry="39.72" transform="rotate(-13.14 34.83 48.968)"/><ellipse cx="43.89" cy="48.58" class="cls-1" rx="19.69" ry="27.33" transform="rotate(-13.14 43.89 48.604)"/><path d="M64.03 48.26c2.01 8.59-1.38 16.72-7.57 18.17-6.19 1.44-12.83-4.35-14.83-12.93-2.01-8.59 1.38-16.72 7.57-18.17 6.19-1.44 12.83 4.35 14.83 12.93Z" class="cls-4"/><ellipse cx="34.81" cy="48.95" class="cls-2" rx="28.61" ry="39.72" transform="rotate(-13.14 34.83 48.968)"/></g></svg>