<svg xmlns="http://www.w3.org/2000/svg" id="Layer_2" data-name="Layer 2" viewBox="0 0 120.36 121.52"><defs><style>.cls-1{fill:#ffd70e}.cls-4{fill:#00bf9f}.cls-5{fill:#9a7eff}</style></defs><g id="OBJECTS"><path d="M120 54.18c.24-1.08.37-2.21.37-3.38 0-2.29-.55-4.32-1.64-6.03-.4-.63-.87-1.2-1.4-1.71v-.05c.19-1.06.28-2.15.28-3.23 0-5.74-2.52-9.17-4.64-11.04-3.17-2.79-7.42-3.85-11.99-2.95-3.15.63-6.08 2-8.71 4.07-.02-.24-.05-.48-.08-.72.11-1.14.16-2.17.16-3.14 0-.99-.07-1.92-.21-2.86.14-1.29.21-2.47.21-3.58 0-4.6-1.34-8.23-3.97-10.78a10.675 10.675 0 0 0-7.46-3.03c-1.8 0-3.64.44-5.47 1.31-5.04 2.41-9.06 7.1-12.28 14.36a84.146 84.146 0 0 0-3.8 10.49c-2.15-.03-4.31.58-6.65 1.84-.51.27-1 .57-1.48.88-.59-.69-1.27-1.32-2.02-1.87-2-1.46-4.4-2.23-6.95-2.23-2.14 0-4.32.52-6.66 1.59-2.91 1.32-5.57 3.21-7.88 5.62a25.786 25.786 0 0 0-4.39 6.21 9.57 9.57 0 0 0-.83-.95c-1.34-1.34-3.73-2.93-7.53-2.93-.66 0-1.36.05-2.04.14-3.54.46-6.29 1.83-8.17 4.08-1.57 1.86-2.57 4.34-3.17 7.8C.53 58 0 64.69 0 71.98c0 1.11.02 2.19.06 3.21v.42c-.03.93-.06 1.85-.06 2.82 0 1.03.02 2.04.05 2.99v.65c-.03.66-.05 1.32-.05 2.01 0 .9.02 1.76.04 2.6v.61c-.03.54-.04 1.08-.04 1.64 0 9.12 1.22 16.55 3.62 22.09 3.98 9.15 10.63 10.52 14.25 10.52 1.16 0 2.35-.14 3.54-.41 5.82-1.33 11.14-5.38 16.27-12.38 1.6-2.19 3.14-4.56 4.58-7.06.52.93 1.15 1.77 1.87 2.52 1.98 2.05 4.67 3.18 7.58 3.18 2.26 0 4.58-.65 7.08-2 2.9-1.56 5.69-4.1 8.53-7.77 3.15.4 6.48-.34 10.23-2.24 3.7-1.87 7.03-4.82 9.91-8.78.56-.77 1.09-1.57 1.58-2.37 2.31 1.36 5.01 2.04 8.04 2.04 1.75 0 3.59-.22 5.63-.68 3.45-.76 6.34-1.91 8.84-3.51 2.73-1.75 4.95-3.96 6.61-6.55 1.46-2.28 2.2-4.9 2.2-7.78 0-.8-.07-1.58-.2-2.32.13-.82.2-1.67.2-2.52 0-.95-.09-1.86-.28-2.71.19-.95.28-1.94.28-2.94 0-1.08-.12-2.11-.37-3.07Z"/><path d="M17.87 115.28c-3.49 0-9.93-1.33-13.79-10.22C1.7 99.58.5 92.22.5 83.17c0-.56.01-1.09.03-1.63v-.61c0-.85-.03-1.72-.03-2.61 0-.68.02-1.34.03-2v-.65C.51 74.69.5 73.69.5 72.66c0-.96.02-1.89.05-2.81v-.42C.52 68.38.5 67.31.5 66.21c0-7.26.53-13.92 1.58-19.81.58-3.35 1.55-5.77 3.06-7.56 1.8-2.15 4.45-3.46 7.85-3.9.66-.09 1.34-.14 1.98-.14 3.63 0 5.91 1.52 7.18 2.79.42.42.86.94 1.26 1.58 1.21-2.58 2.78-4.88 4.67-6.85 2.28-2.36 4.88-4.22 7.73-5.51 2.27-1.03 4.39-1.54 6.46-1.54 2.44 0 4.74.74 6.65 2.13.84.61 1.58 1.32 2.22 2.13.58-.4 1.18-.77 1.81-1.11 2.21-1.2 4.27-1.78 6.29-1.78.16 0 .33 0 .49.01 1.09-3.81 2.39-7.42 3.89-10.8 3.17-7.14 7.1-11.76 12.04-14.11C77.42.9 79.19.48 80.91.48c2.66 0 5.19 1.03 7.12 2.89 2.53 2.45 3.82 5.96 3.82 10.42 0 1.11-.07 2.29-.21 3.59.14.93.21 1.87.21 2.85s-.05 2-.17 3.15c.08.57.13 1.14.15 1.71 2.77-2.37 5.87-3.91 9.25-4.59 1.04-.21 2.07-.31 3.06-.31 3.22 0 6.16 1.09 8.5 3.14 2.05 1.81 4.48 5.12 4.47 10.67 0 1.09-.1 2.17-.3 3.23l.06.3c.54.5 1.03 1.08 1.44 1.72 1.04 1.64 1.56 3.57 1.56 5.76 0 1.18-.13 2.31-.38 3.38.25.95.38 1.97.38 3.06 0 1.01-.1 2-.29 2.95.2.85.29 1.75.29 2.71 0 .86-.07 1.71-.21 2.53.14.73.21 1.51.21 2.32 0 2.78-.71 5.31-2.12 7.51-1.62 2.53-3.79 4.69-6.46 6.4-2.44 1.57-5.28 2.69-8.67 3.44-2 .45-3.81.67-5.52.67-3.13 0-5.88-.75-8.21-2.23a33 33 0 0 1-1.82 2.77c-2.83 3.89-6.11 6.8-9.73 8.63-3.03 1.54-5.77 2.29-8.36 2.29-.63 0-1.25-.05-1.86-.14-2.84 3.72-5.67 6.31-8.55 7.86-2.43 1.31-4.67 1.94-6.84 1.94-2.77 0-5.34-1.08-7.22-3.03-.9-.93-1.63-2-2.21-3.22a78.6 78.6 0 0 1-5 7.81c-5.06 6.9-10.29 10.89-15.98 12.19-1.16.26-2.31.4-3.43.4Z" style="fill:#fff"/><path d="M17.87 115.78c-3.62 0-10.27-1.37-14.25-10.52C1.22 99.72 0 92.29 0 83.17c0-.56.01-1.1.03-1.64v-.61c0-.83-.03-1.7-.03-2.6 0-.69.02-1.35.03-2.01v-.65C.01 74.71 0 73.7 0 72.67c0-.97.02-1.89.05-2.82v-.42C.02 68.41 0 67.33 0 66.22c0-7.29.53-13.99 1.58-19.9.59-3.45 1.6-5.93 3.17-7.8 1.89-2.25 4.64-3.62 8.17-4.08a15.9 15.9 0 0 1 2.04-.14c3.8 0 6.19 1.6 7.53 2.93.3.3.58.62.83.95 1.18-2.32 2.65-4.41 4.39-6.21 2.32-2.41 4.97-4.3 7.88-5.62 2.34-1.07 4.52-1.58 6.66-1.58 2.55 0 4.95.77 6.95 2.23.75.55 1.43 1.17 2.02 1.87.48-.31.97-.61 1.48-.88 2.33-1.26 4.5-1.84 6.65-1.84a83.57 83.57 0 0 1 3.8-10.49C66.37 8.41 70.38 3.71 75.43 1.3 77.26.43 79.1-.01 80.9-.01c2.79 0 5.44 1.08 7.46 3.03 2.63 2.55 3.97 6.18 3.97 10.78 0 1.11-.07 2.28-.21 3.58.14.94.21 1.87.21 2.86 0 .98-.05 2.01-.16 3.14.03.24.06.48.08.72 2.64-2.08 5.57-3.45 8.71-4.07 4.56-.91 8.81.15 11.99 2.95 2.12 1.87 4.65 5.31 4.64 11.04 0 1.08-.1 2.16-.29 3.23v.05c.54.51 1.01 1.08 1.41 1.71 1.09 1.71 1.64 3.74 1.64 6.03 0 1.16-.12 2.3-.37 3.38.24.96.37 1.99.37 3.07 0 1-.09 1.99-.28 2.94.19.85.28 1.77.28 2.71 0 .85-.07 1.7-.2 2.52.13.74.2 1.52.2 2.32 0 2.88-.74 5.49-2.2 7.77-1.66 2.59-3.88 4.8-6.61 6.55-2.49 1.6-5.38 2.75-8.84 3.51-2.04.46-3.88.68-5.63.68-3.03 0-5.73-.69-8.04-2.04-.49.81-1.02 1.6-1.58 2.37-2.88 3.96-6.21 6.91-9.91 8.78-3.75 1.9-7.06 2.64-10.23 2.24-2.83 3.66-5.63 6.21-8.53 7.77-2.5 1.35-4.82 2-7.08 2-2.91 0-5.6-1.13-7.58-3.18-.72-.75-1.35-1.59-1.87-2.52-1.44 2.5-2.98 4.87-4.58 7.06-5.13 7-10.46 11.05-16.27 12.38-1.19.27-2.38.41-3.54.41Zm-2.91-80.46c-.61 0-1.27.05-1.91.13-3.28.43-5.82 1.68-7.54 3.73-1.45 1.72-2.39 4.05-2.95 7.32C1.52 52.36.99 58.99.99 66.23c0 1.1.02 2.16.06 3.2v.45c-.03.92-.06 1.83-.06 2.79 0 1.02.02 2.02.05 2.99v.67c-.03.65-.05 1.31-.05 1.99 0 .89.02 1.75.04 2.59v.63c-.03.54-.04 1.07-.04 1.62 0 8.98 1.19 16.28 3.54 21.69 3.75 8.63 9.96 9.92 13.33 9.92 1.08 0 2.2-.13 3.32-.38 5.57-1.27 10.7-5.2 15.69-12 1.75-2.39 3.42-5 4.97-7.76.09-.16.25-.27.45-.25.19 0 .35.12.43.29.54 1.16 1.26 2.2 2.11 3.09 1.79 1.86 4.22 2.88 6.86 2.88 2.09 0 4.25-.62 6.61-1.88 2.84-1.53 5.58-4.05 8.39-7.73a.5.5 0 0 1 .47-.19c3.03.46 6.25-.24 9.92-2.1 3.55-1.8 6.77-4.65 9.55-8.48.64-.88 1.24-1.8 1.79-2.73.07-.12.18-.2.31-.23s.27 0 .39.06c2.24 1.43 4.91 2.15 7.94 2.15 1.68 0 3.45-.21 5.41-.65 3.34-.74 6.12-1.84 8.51-3.38 2.61-1.67 4.73-3.78 6.31-6.25 1.36-2.12 2.04-4.55 2.04-7.24 0-.77-.07-1.52-.2-2.22a.544.544 0 0 1 0-.18c.14-.79.2-1.61.2-2.44 0-.91-.09-1.78-.28-2.6a.375.375 0 0 1 0-.21c.19-.91.28-1.87.28-2.85 0-1.04-.12-2.02-.36-2.93a.487.487 0 0 1 0-.24c.24-1.04.37-2.14.37-3.27 0-2.1-.5-3.95-1.48-5.5-.38-.6-.84-1.15-1.36-1.63a.482.482 0 0 1-.15-.28l-.05-.3a.605.605 0 0 1 0-.19c.19-1.03.29-2.09.29-3.14 0-5.36-2.34-8.56-4.3-10.29-2.94-2.59-6.88-3.56-11.13-2.72-3.28.65-6.32 2.16-9.02 4.48a.52.52 0 0 1-.52.08.505.505 0 0 1-.3-.44c-.02-.55-.07-1.11-.15-1.67v-.12c.11-1.13.17-2.14.17-3.1s-.07-1.87-.21-2.78v-.13c.14-1.28.21-2.44.21-3.53 0-4.32-1.24-7.71-3.67-10.06C85.83 1.96 83.43.98 80.9.98c-1.65 0-3.35.41-5.04 1.21-4.82 2.3-8.68 6.83-11.8 13.86a83.266 83.266 0 0 0-3.86 10.74c-.06.22-.26.37-.51.36-2.08-.11-4.21.46-6.52 1.71-.61.33-1.2.69-1.76 1.08-.22.15-.51.11-.68-.1-.6-.76-1.32-1.45-2.12-2.04-1.83-1.33-4.02-2.04-6.36-2.04-2 0-4.04.49-6.25 1.5-2.8 1.27-5.35 3.09-7.58 5.4-1.85 1.93-3.39 4.19-4.58 6.72-.08.17-.24.28-.42.29a.52.52 0 0 1-.45-.23c-.34-.54-.74-1.05-1.19-1.5-1.2-1.2-3.36-2.64-6.82-2.64Z"/><path d="M55.64 61.18c1.68-.9 3.03-2.1 4.04-3.57 1.01-1.47 1.52-2.99 1.52-4.55 0-1.29-.45-2.04-1.35-2.26-.9-.21-2.07.07-3.52.85-1.6.87-2.94 2.04-4.01 3.53-1.07 1.49-1.61 2.91-1.61 4.28s.41 2.22 1.23 2.55c.82.33 2.05.05 3.69-.83Z" class="cls-5"/><path d="M52.71 62.65c-.35 0-.66-.06-.94-.17-1.03-.41-1.55-1.42-1.55-3.01 0-1.46.57-3 1.71-4.57 1.12-1.55 2.53-2.78 4.18-3.68 1.57-.85 2.84-1.14 3.87-.9.79.19 1.73.82 1.73 2.74 0 1.66-.54 3.29-1.61 4.83-1.06 1.54-2.48 2.79-4.22 3.72l-.24-.44.24.44c-1.27.69-2.32 1.03-3.17 1.03Zm6.53-11.41c-.71 0-1.6.29-2.66.86-1.52.82-2.82 1.96-3.85 3.38-1.01 1.4-1.52 2.74-1.52 3.99 0 1.72.69 1.99.92 2.08.46.19 1.41.2 3.27-.81 1.6-.86 2.9-2.01 3.87-3.41.95-1.38 1.44-2.81 1.44-4.26 0-1.38-.55-1.67-.97-1.77-.16-.04-.32-.06-.5-.06Z"/><path d="M112.29 60.07c-.29-.46-.69-.69-1.2-.66-.59.03-1.11.35-1.58.97-1.37 1.86-2.57 3.25-3.6 4.14-1.04.89-2.35 1.47-3.96 1.81-2.23.47-3.81 0-4.75-1.54 4.65-2.43 7.94-4.43 9.88-6.61 1.94-2.16 2.9-4.52 2.9-7.22 0-2.3-.68-4.1-2.05-5.3-1.37-1.2-3.18-1.64-5.45-1.19-2.54.51-4.82 1.8-6.83 3.77s-3.58 4.37-4.72 7.1c-.39.94-.69 1.88-.95 2.83-1.4.8-2.67 1.49-3.8 2.03-.31-2.76-1.29-4.79-2.93-6.05-1.64-1.25-3.77-1.36-6.39-.27 2.81-4.85 4.83-9.09 6.04-12.79 1.21-3.7 1.82-7.14 1.82-10.35 0-2.46-.55-4.23-1.64-5.29-1.1-1.06-2.54-1.18-4.34-.32-3.32 1.59-6.18 5.14-8.59 10.56-2.4 5.42-4.23 11.45-5.48 18.04-1.25 6.6-1.88 12.41-1.88 17.45 0 2.16.13 4.05.39 5.69-1.41 2.43-2.59 4.34-3.49 5.67-1.05 1.55-1.93 2.52-2.64 2.9-.75.4-1.27.37-1.58-.08-.31-.46-.47-1.27-.47-2.44 0-1.52.47-4.69 1.41-9.49.74-3.96 1.11-6.43 1.11-7.4 0-1.33-1-1.45-2.99-.38-1.29.69-2.23 1.42-2.81 2.2-.35.47-.66 1.07-.92 1.77-2.54 1.33-4.82 2.31-6.81 2.96 1.95-6.28 2.93-11.69 2.93-16.18 0-3.13-.73-5.21-2.2-6.28-1.47-1.07-3.45-1-5.95.14-2.03.92-3.88 2.24-5.54 3.96-1.66 1.72-2.97 3.8-3.93 6.28-.96 2.47-1.44 5.24-1.44 8.33s.6 5.61 1.82 7.53c1.21 1.92 3.01 3.17 5.39 3.65-1.99 5.1-4.18 9.5-6.56 13.15-2.38 3.65-4.59 5.72-6.62 6.25-1.99.52-3.49-.73-4.48-3.64-1-2.92-1.49-7.38-1.49-13.36 0-5.71.59-12.17 1.76-19.43.08-.64.12-1.08.12-1.31 0-2.24-1.29-3.05-3.87-2.7-1.56.2-2.66.65-3.31 1.42-.65.77-1.14 2.17-1.49 4.22-.98 5.51-1.47 11.68-1.47 18.56 0 8.04 1 14.45 2.99 19.04 1.99 4.58 5.02 6.63 9.08 5.71 3.95-.9 7.88-4.09 11.81-9.45 3.93-5.36 7.28-11.73 10.05-18.87 2.22-.55 4.75-1.59 7.56-3.07-.2 1.07-.39 2.15-.55 3.25-.45 2.99-.67 5.36-.67 7.12 0 2.97.57 5.06 1.73 6.26 1.15 1.2 3 1.12 5.54-.25 3.02-1.62 6.24-5.31 9.67-10.97.2.32.42.61.64.88 1.79 2.05 4.67 2 8.62 0 2.62-1.32 5.01-3.47 7.18-6.46 2.17-2.98 3.64-6.22 4.42-9.79a59.08 59.08 0 0 0 3.56-1.79c.21 3.16 1.22 5.38 3.06 6.73 2.07 1.54 4.99 1.72 8.73.88 2.46-.55 4.58-1.34 6.36-2.48 1.77-1.14 3.21-2.53 4.31-4.24.66-1.04 1-2.25 1-3.66 0-.82-.15-1.46-.44-1.93ZM37.47 73.12c-2.46-.75-3.69-3.1-3.69-6.92 0-2.27.33-4.15 1-5.66.66-1.51 1.53-2.49 2.58-2.96.74-.33 1.33-.21 1.76.35.43.57.64 1.67.64 3.31 0 2.85-.76 6.83-2.29 11.88Zm34.82-26.01c.78-4.39 1.63-7.98 2.55-10.76.92-2.79 1.77-4.37 2.55-4.75.51-.25.91-.11 1.2.42.3.52.44 1.41.44 2.66 0 2.82-.77 6.39-2.32 10.76-1.55 4.37-3.6 9.58-6.18 15.65.39-4.93.98-9.59 1.76-13.98Zm5.27 26.25c-.94 1.47-2.01 2.51-3.22 3.12-1.13.57-2.12.49-2.96-.24-.84-.74-1.26-2.21-1.26-4.44 0-2.66.54-5.06 1.61-7.2 1.07-2.14 2.41-3.61 4.01-4.41l.18-.09c-.16 1.01-.23 1.8-.23 2.34 0 1.49.32 2.73.97 3.74.64 1.01 1.57 1.63 2.78 1.88-.31 2.06-.94 3.82-1.88 5.29Zm18.76-13c0-2.38.5-4.56 1.49-6.52 1-1.95 2.22-3.1 3.66-3.41.7-.15 1.26-.03 1.67.34.41.37.62.93.61 1.67 0 1.45-.66 2.83-1.99 4.2-1.33 1.38-3.15 2.62-5.45 3.84v-.12Z" style="fill:#ff7ec8"/><path d="M17.89 108.64c-3.3 0-5.94-2.12-7.73-6.23-2.01-4.63-3.03-11.11-3.03-19.24 0-6.87.5-13.14 1.47-18.65.37-2.15.9-3.61 1.6-4.45.71-.85 1.9-1.37 3.63-1.59 1.6-.22 2.74 0 3.48.65.63.55.95 1.41.95 2.55 0 .27-.04.73-.12 1.37-1.17 7.22-1.76 13.73-1.75 19.36 0 5.91.49 10.36 1.47 13.2 1.36 3.98 3.26 3.49 3.89 3.32 1.91-.5 4.04-2.53 6.33-6.04 2.25-3.44 4.37-7.65 6.31-12.52-2.21-.58-3.94-1.83-5.14-3.74-1.26-2-1.89-4.62-1.89-7.8 0-3.12.49-5.98 1.47-8.51.97-2.5 2.32-4.67 4.03-6.44 1.69-1.75 3.6-3.12 5.69-4.07 2.69-1.22 4.86-1.26 6.45-.09 1.6 1.16 2.4 3.41 2.4 6.68 0 4.31-.9 9.48-2.67 15.39 1.69-.61 3.59-1.46 5.65-2.52.28-.7.58-1.26.92-1.72.63-.84 1.61-1.61 2.98-2.34 1.46-.78 2.43-.97 3.08-.59.43.26.65.73.65 1.41 0 1.02-.37 3.47-1.12 7.49-.93 4.74-1.4 7.9-1.4 9.4 0 1.33.21 1.91.38 2.16.06.1.21.32.93-.07.63-.34 1.46-1.26 2.46-2.74.86-1.27 2-3.11 3.39-5.48-.24-1.63-.37-3.5-.37-5.59 0-5.04.63-10.94 1.88-17.55 1.26-6.62 3.11-12.73 5.51-18.15 2.46-5.55 5.43-9.19 8.83-10.81 1.99-.95 3.64-.81 4.9.41 1.19 1.15 1.79 3.06 1.79 5.65 0 3.23-.62 6.77-1.84 10.5-1.11 3.4-2.89 7.24-5.41 11.72 2.2-.62 4.08-.36 5.59.79 1.6 1.22 2.62 3.14 3.03 5.69.83-.42 1.79-.94 2.97-1.61.29-1.03.58-1.88.91-2.69 1.17-2.83 2.8-5.28 4.83-7.27 2.12-2.08 4.5-3.39 7.08-3.9 2.38-.47 4.36-.04 5.88 1.3 1.48 1.3 2.22 3.21 2.22 5.68 0 2.81-.99 5.28-3.03 7.55-1.97 2.21-5.23 4.19-9.51 6.45.83.98 2.09 1.25 3.9.87 1.56-.32 2.78-.88 3.73-1.7.98-.84 2.17-2.21 3.53-4.06.57-.75 1.23-1.14 1.96-1.18.7-.02 1.25.28 1.65.9.34.54.52 1.28.52 2.19 0 1.49-.36 2.81-1.07 3.93-1.12 1.75-2.58 3.19-4.46 4.39-1.77 1.13-3.9 1.97-6.52 2.55-4.06.91-7.05.59-9.14-.96-1.82-1.34-2.87-3.42-3.19-6.33-.93.49-1.82.94-2.7 1.34-.81 3.54-2.27 6.73-4.45 9.74-2.21 3.03-4.68 5.26-7.36 6.61-4.19 2.12-7.29 2.09-9.22-.11-.08-.09-.16-.19-.24-.29-3.34 5.39-6.52 8.92-9.46 10.5-2.75 1.48-4.81 1.53-6.14.15-1.26-1.3-1.87-3.46-1.87-6.6 0-1.8.23-4.22.68-7.19.12-.76.24-1.52.37-2.26-2.39 1.21-4.58 2.07-6.51 2.58-2.82 7.21-6.19 13.51-10.02 18.74-4.02 5.48-8.09 8.72-12.1 9.64-.67.15-1.31.23-1.93.23ZM14.96 59.4c-.3 0-.63.02-.99.07-1.47.19-2.45.6-3 1.25-.58.69-1.05 2.03-1.38 3.98-.97 5.45-1.46 11.67-1.46 18.48 0 8 .99 14.33 2.95 18.84 1.93 4.44 4.8 6.27 8.52 5.42 3.77-.86 7.65-3.97 11.52-9.25 3.82-5.22 7.18-11.53 9.99-18.75a.51.51 0 0 1 .34-.3c2.15-.54 4.66-1.56 7.45-3.03.17-.09.38-.08.53.04.15.11.23.31.2.49-.2 1.06-.39 2.14-.55 3.23-.44 2.92-.67 5.29-.67 7.04 0 2.83.53 4.82 1.59 5.91.98 1.02 2.64.9 4.94-.34 2.9-1.56 6.09-5.19 9.48-10.79a.49.49 0 0 1 .42-.24c.17 0 .33.09.42.23.19.3.39.57.6.81 1.61 1.84 4.23 1.8 8.01-.12 2.54-1.28 4.89-3.4 7-6.31 2.15-2.96 3.57-6.11 4.34-9.61.03-.15.14-.28.28-.35 1.13-.52 2.29-1.1 3.53-1.78.15-.08.33-.08.48 0s.25.23.26.41c.2 3.01 1.13 5.09 2.86 6.36 1.85 1.37 4.57 1.63 8.33.79 2.5-.55 4.53-1.34 6.2-2.41 1.76-1.13 3.12-2.47 4.16-4.09.62-.96.92-2.07.92-3.39 0-.72-.12-1.28-.36-1.66-.2-.31-.43-.44-.76-.43-.43.02-.83.27-1.21.78-1.42 1.94-2.63 3.32-3.68 4.22-1.09.93-2.46 1.56-4.18 1.92-2.47.52-4.25-.08-5.28-1.77a.536.536 0 0 1-.06-.39c.04-.13.13-.25.25-.31 3.84-2 7.67-4.18 9.74-6.49 1.87-2.08 2.77-4.34 2.77-6.89 0-2.17-.63-3.83-1.88-4.93-1.28-1.12-2.96-1.48-5.02-1.07-2.39.48-4.6 1.7-6.58 3.64-1.93 1.9-3.48 4.23-4.61 6.94-.34.81-.63 1.69-.92 2.77-.04.13-.12.24-.23.3-1.6.91-2.81 1.56-3.83 2.05-.15.07-.32.07-.46-.01a.48.48 0 0 1-.25-.38c-.3-2.62-1.22-4.54-2.74-5.7-1.5-1.14-3.48-1.21-5.89-.21-.2.08-.43.03-.57-.13a.516.516 0 0 1-.06-.58c2.85-4.91 4.81-9.07 6-12.69 1.19-3.63 1.79-7.06 1.79-10.19 0-2.32-.5-3.98-1.49-4.94-.95-.91-2.18-.99-3.77-.23-3.17 1.52-5.98 4.99-8.34 10.31-2.37 5.35-4.2 11.38-5.45 17.93-1.24 6.54-1.87 12.38-1.87 17.36 0 2.11.13 4 .38 5.61.02.11 0 .23-.06.33-1.44 2.47-2.62 4.38-3.51 5.7-1.11 1.63-2.03 2.63-2.81 3.06-1.31.71-1.96.15-2.23-.24-.37-.54-.56-1.43-.56-2.73 0-1.56.48-4.79 1.42-9.59.73-3.91 1.1-6.37 1.1-7.31 0-.17-.02-.46-.16-.55-.08-.04-.53-.23-2.09.61-1.22.66-2.11 1.35-2.65 2.06-.31.41-.59.96-.86 1.65-.04.11-.13.21-.24.27-2.56 1.33-4.88 2.34-6.89 2.99-.18.06-.37.01-.5-.12s-.18-.33-.13-.5c1.93-6.2 2.91-11.6 2.91-16.03 0-2.93-.67-4.91-1.99-5.88-1.3-.95-3.08-.89-5.45.19-1.97.9-3.79 2.19-5.39 3.86-1.62 1.68-2.9 3.74-3.82 6.11-.93 2.41-1.4 5.15-1.4 8.15 0 2.99.58 5.44 1.74 7.27 1.15 1.83 2.86 2.98 5.07 3.43.15.03.27.12.34.25s.08.28.03.42c-2.02 5.16-4.24 9.62-6.61 13.24-2.47 3.78-4.73 5.89-6.92 6.46-1.56.41-3.71.05-5.08-3.97-1.01-2.95-1.52-7.5-1.52-13.52 0-5.69.59-12.25 1.77-19.5.09-.78.11-1.11.11-1.24 0-.85-.2-1.44-.61-1.8-.37-.32-.94-.48-1.71-.48Zm57.97 17.95c-.82 0-1.45-.36-1.89-.74-.96-.84-1.43-2.42-1.43-4.82 0-2.72.56-5.22 1.67-7.42 1.12-2.24 2.55-3.79 4.24-4.63l.18-.09c.17-.08.37-.06.52.05.15.11.23.29.2.48-.15.98-.23 1.74-.23 2.27 0 1.38.3 2.54.89 3.47.57.89 1.37 1.44 2.46 1.66.26.05.43.3.39.57-.32 2.12-.98 3.97-1.95 5.49-.98 1.54-2.13 2.65-3.42 3.3-.61.31-1.15.43-1.63.43Zm2.36-16.32c-1.2.8-2.25 2.07-3.11 3.79-1.04 2.06-1.56 4.41-1.56 6.97 0 2.07.37 3.43 1.09 4.07.69.6 1.45.66 2.41.17 1.12-.57 2.14-1.56 3.03-2.94.82-1.29 1.4-2.85 1.73-4.65-1.12-.33-2.01-1-2.64-1.99-.69-1.09-1.04-2.44-1.04-4.01 0-.38.04-.85.1-1.41ZM37.47 73.62s-.1 0-.15-.02c-2.69-.82-4.05-3.31-4.05-7.4 0-2.32.35-4.29 1.04-5.86.71-1.61 1.66-2.69 2.83-3.21.95-.42 1.79-.24 2.36.5.5.66.75 1.84.75 3.61 0 2.9-.78 6.95-2.31 12.02-.04.13-.13.23-.24.3-.07.04-.15.06-.24.06Zm.64-15.72c-.15 0-.33.04-.56.14-.94.41-1.72 1.32-2.32 2.7-.63 1.44-.95 3.27-.95 5.46 0 3.34.96 5.44 2.87 6.27 1.4-4.74 2.11-8.52 2.11-11.23 0-1.89-.3-2.68-.54-3.01-.14-.18-.31-.34-.6-.34Zm32.42 3.69s-.08 0-.12-.01a.5.5 0 0 1-.38-.53c.39-4.92.98-9.64 1.77-14.03.78-4.4 1.65-8.04 2.57-10.83 1.29-3.92 2.22-4.76 2.81-5.04.75-.36 1.44-.13 1.86.62.34.6.5 1.55.5 2.9 0 2.86-.79 6.53-2.34 10.93-1.55 4.37-3.63 9.65-6.2 15.68a.49.49 0 0 1-.46.3Zm7.3-29.61c-.07 0-.14.03-.23.07-.37.18-1.15.99-2.29 4.45-.91 2.74-1.76 6.34-2.53 10.69-.61 3.4-1.1 7-1.47 10.75 1.99-4.79 3.65-9.05 4.93-12.67 1.51-4.29 2.28-7.85 2.29-10.59 0-1.45-.2-2.11-.37-2.42-.11-.21-.21-.28-.32-.28Zm-5.54 15.13Zm24.03 13.86a.495.495 0 0 1-.5-.5v-.12c0-2.46.52-4.73 1.55-6.74 1.07-2.1 2.42-3.33 4-3.67 1.08-.23 1.74.12 2.11.46.52.47.78 1.16.78 2.05 0 1.58-.7 3.06-2.13 4.54-1.3 1.35-3.13 2.64-5.58 3.93-.07.04-.15.06-.23.06Zm5.72-10.11c-.14 0-.29.02-.46.05-1.28.27-2.39 1.33-3.32 3.15-.85 1.67-1.33 3.54-1.42 5.56 1.98-1.11 3.48-2.2 4.58-3.33 1.25-1.28 1.85-2.54 1.85-3.85 0-.6-.15-1.03-.45-1.3-.2-.18-.45-.27-.77-.27Z"/><path d="M55.64 56.34c1.68-.9 3.03-2.1 4.04-3.57 1.01-1.47 1.52-2.99 1.52-4.55 0-1.29-.45-2.04-1.35-2.26-.9-.21-2.07.07-3.52.85-1.6.87-2.94 2.04-4.01 3.53-1.07 1.49-1.61 2.91-1.61 4.28s.41 2.22 1.23 2.55c.82.33 2.05.05 3.69-.83Z" class="cls-4"/><path d="M52.71 57.81c-.35 0-.66-.06-.94-.17-1.03-.41-1.55-1.42-1.55-3.01 0-1.46.57-3 1.71-4.57 1.12-1.55 2.53-2.78 4.18-3.68 1.57-.85 2.84-1.14 3.87-.9.79.19 1.73.82 1.73 2.74 0 1.66-.54 3.29-1.61 4.83-1.06 1.54-2.48 2.79-4.22 3.72-1.27.69-2.32 1.03-3.17 1.03Zm6.53-11.41c-.71 0-1.6.29-2.66.86-1.52.82-2.82 1.96-3.85 3.38-1.01 1.4-1.52 2.74-1.52 3.99 0 1.72.69 1.99.92 2.08.46.18 1.41.2 3.27-.81 1.6-.86 2.9-2.01 3.87-3.41.95-1.38 1.44-2.81 1.44-4.26 0-1.38-.55-1.67-.97-1.77-.16-.04-.32-.06-.5-.06Z"/><path d="M112.29 55.23c-.29-.46-.69-.69-1.2-.66-.59.03-1.11.35-1.58.97-1.37 1.86-2.57 3.25-3.6 4.14-1.04.89-2.35 1.47-3.96 1.81-2.23.47-3.81 0-4.75-1.54 4.65-2.43 7.94-4.43 9.88-6.61 1.94-2.16 2.9-4.52 2.9-7.22 0-2.3-.68-4.1-2.05-5.3-1.37-1.2-3.18-1.64-5.45-1.19-2.54.51-4.82 1.8-6.83 3.77s-3.58 4.37-4.72 7.11c-.39.94-.69 1.88-.95 2.83-1.4.8-2.67 1.49-3.8 2.03-.31-2.76-1.29-4.79-2.93-6.05-1.64-1.25-3.77-1.36-6.39-.27 2.81-4.85 4.83-9.09 6.04-12.79 1.21-3.7 1.82-7.14 1.82-10.35 0-2.46-.55-4.23-1.64-5.29-1.1-1.06-2.54-1.18-4.34-.32-3.32 1.59-6.18 5.14-8.59 10.56-2.4 5.42-4.23 11.45-5.48 18.04-1.25 6.6-1.88 12.41-1.88 17.45 0 2.16.13 4.05.39 5.69-1.41 2.43-2.59 4.34-3.49 5.67-1.05 1.55-1.93 2.52-2.64 2.9-.75.4-1.27.37-1.58-.08-.31-.46-.47-1.27-.47-2.44 0-1.52.47-4.69 1.41-9.49.74-3.96 1.11-6.43 1.11-7.4 0-1.33-1-1.45-2.99-.38-1.29.69-2.23 1.42-2.81 2.2-.35.47-.66 1.07-.92 1.77-2.54 1.33-4.82 2.31-6.81 2.96 1.95-6.28 2.93-11.69 2.93-16.18 0-3.13-.73-5.21-2.2-6.28-1.47-1.07-3.45-1-5.95.14-2.03.92-3.88 2.24-5.54 3.96-1.66 1.72-2.97 3.8-3.93 6.28-.96 2.47-1.44 5.24-1.44 8.33s.6 5.61 1.82 7.53c1.21 1.92 3.01 3.17 5.39 3.65-1.99 5.1-4.18 9.5-6.56 13.15-2.38 3.65-4.59 5.72-6.62 6.25-1.99.52-3.49-.73-4.48-3.64-1-2.92-1.49-7.38-1.49-13.36 0-5.71.59-12.17 1.76-19.43.08-.64.12-1.08.12-1.31 0-2.24-1.29-3.05-3.87-2.7-1.56.2-2.66.65-3.31 1.42-.65.77-1.14 2.17-1.49 4.22-.98 5.51-1.47 11.68-1.47 18.56 0 8.04 1 14.45 2.99 19.04 1.99 4.58 5.02 6.63 9.08 5.71 3.95-.9 7.88-4.09 11.81-9.45 3.93-5.36 7.28-11.73 10.05-18.87 2.22-.55 4.75-1.59 7.56-3.07-.2 1.07-.39 2.15-.55 3.25-.45 2.99-.67 5.36-.67 7.12 0 2.97.57 5.06 1.73 6.26 1.15 1.2 3 1.12 5.54-.25 3.02-1.62 6.24-5.31 9.67-10.97.2.32.42.61.64.88 1.79 2.05 4.67 2 8.62 0 2.62-1.32 5.01-3.47 7.18-6.46 2.17-2.98 3.64-6.22 4.42-9.79a59.08 59.08 0 0 0 3.56-1.79c.21 3.16 1.22 5.38 3.06 6.73 2.07 1.54 4.99 1.72 8.73.88 2.46-.55 4.58-1.34 6.36-2.48 1.77-1.14 3.21-2.53 4.31-4.24.66-1.04 1-2.25 1-3.66 0-.82-.15-1.46-.44-1.93ZM37.47 68.28c-2.46-.75-3.69-3.1-3.69-6.92 0-2.27.33-4.15 1-5.66.66-1.51 1.53-2.49 2.58-2.96.74-.33 1.33-.21 1.76.35.43.57.64 1.67.64 3.31 0 2.85-.76 6.83-2.29 11.88Zm34.82-26.02c.78-4.39 1.63-7.98 2.55-10.76.92-2.79 1.77-4.37 2.55-4.75.51-.25.91-.11 1.2.42.3.52.44 1.41.44 2.66 0 2.82-.77 6.39-2.32 10.76-1.55 4.37-3.6 9.58-6.18 15.65.39-4.93.98-9.59 1.76-13.98Zm5.27 26.26c-.94 1.47-2.01 2.51-3.22 3.12-1.13.57-2.12.49-2.96-.24-.84-.74-1.26-2.21-1.26-4.44 0-2.66.54-5.06 1.61-7.2 1.07-2.14 2.41-3.61 4.01-4.41l.18-.09c-.16 1.01-.23 1.8-.23 2.34 0 1.49.32 2.73.97 3.74.64 1.01 1.57 1.63 2.78 1.88-.31 2.06-.94 3.82-1.88 5.29Zm18.76-13.01c0-2.38.5-4.56 1.49-6.52 1-1.95 2.22-3.1 3.66-3.41.7-.15 1.26-.03 1.67.34.41.37.62.93.61 1.67 0 1.45-.66 2.83-1.99 4.2-1.33 1.38-3.15 2.62-5.45 3.84v-.12Z" class="cls-1"/><path d="M17.89 103.8c-3.3 0-5.94-2.12-7.73-6.22-2.01-4.64-3.03-11.11-3.03-19.24 0-6.87.5-13.14 1.47-18.65.37-2.15.9-3.61 1.6-4.45.71-.85 1.9-1.37 3.63-1.59 1.6-.22 2.74 0 3.48.65.63.55.95 1.41.95 2.55 0 .27-.04.73-.12 1.37-1.17 7.22-1.76 13.73-1.75 19.37 0 5.91.49 10.35 1.47 13.2 1.36 3.98 3.26 3.48 3.89 3.32 1.91-.5 4.04-2.53 6.33-6.04 2.25-3.44 4.37-7.65 6.31-12.52-2.21-.58-3.94-1.83-5.14-3.74-1.26-2-1.89-4.62-1.89-7.8 0-3.12.49-5.98 1.47-8.51.97-2.5 2.32-4.67 4.03-6.44 1.69-1.75 3.6-3.12 5.69-4.07 2.69-1.22 4.86-1.25 6.45-.09 1.6 1.17 2.4 3.41 2.4 6.68 0 4.31-.9 9.48-2.67 15.39 1.69-.61 3.59-1.46 5.65-2.52.28-.7.58-1.26.92-1.72.63-.84 1.61-1.61 2.98-2.34 1.46-.78 2.43-.97 3.07-.59.43.26.65.73.65 1.41 0 1.01-.37 3.47-1.12 7.49-.93 4.74-1.4 7.9-1.4 9.4 0 1.33.21 1.91.38 2.16.06.1.21.31.93-.07.43-.23 1.21-.9 2.46-2.74.86-1.27 2-3.11 3.39-5.49-.24-1.62-.37-3.5-.37-5.59 0-5.04.63-10.95 1.88-17.55 1.26-6.62 3.11-12.73 5.51-18.15 2.46-5.55 5.43-9.19 8.83-10.81 1.99-.95 3.64-.81 4.9.41 1.19 1.15 1.79 3.06 1.79 5.65 0 3.23-.62 6.77-1.84 10.5-1.11 3.4-2.89 7.24-5.41 11.72 2.2-.62 4.08-.36 5.59.79 1.6 1.22 2.62 3.14 3.03 5.69.83-.42 1.79-.94 2.97-1.61.29-1.03.58-1.89.91-2.69 1.17-2.83 2.8-5.28 4.83-7.27 2.12-2.08 4.5-3.39 7.08-3.9 2.38-.48 4.35-.03 5.88 1.3 1.48 1.3 2.22 3.21 2.22 5.68 0 2.81-.99 5.28-3.03 7.55-1.97 2.21-5.23 4.19-9.51 6.45.83.98 2.08 1.25 3.91.87 1.56-.32 2.78-.88 3.73-1.7.98-.84 2.17-2.21 3.53-4.06.57-.75 1.23-1.14 1.96-1.18.68-.04 1.25.28 1.65.9.34.54.52 1.28.52 2.19 0 1.49-.36 2.81-1.07 3.93-1.12 1.75-2.58 3.18-4.46 4.39-1.77 1.14-3.91 1.97-6.52 2.55-4.06.91-7.05.59-9.14-.97-1.82-1.34-2.87-3.42-3.19-6.33-.93.49-1.82.94-2.7 1.34-.81 3.54-2.27 6.73-4.45 9.74-2.21 3.03-4.68 5.26-7.36 6.61-4.19 2.12-7.29 2.09-9.22-.11-.08-.09-.16-.19-.24-.29-3.34 5.39-6.52 8.92-9.46 10.5-2.75 1.48-4.81 1.53-6.14.15-1.26-1.3-1.87-3.46-1.87-6.6 0-1.8.23-4.22.68-7.19.12-.76.24-1.52.37-2.26-2.39 1.21-4.58 2.08-6.51 2.58C39.1 82.4 35.73 88.7 31.9 93.93c-4.02 5.48-8.09 8.72-12.1 9.64-.67.15-1.31.23-1.93.23Zm-2.93-49.24c-.3 0-.63.02-.99.07-1.47.19-2.45.6-3 1.25-.58.69-1.05 2.03-1.38 3.98-.97 5.45-1.46 11.67-1.46 18.48 0 7.99.99 14.33 2.95 18.84 1.93 4.44 4.8 6.27 8.52 5.42 3.77-.86 7.65-3.98 11.52-9.25 3.82-5.22 7.18-11.53 9.99-18.75a.51.51 0 0 1 .34-.3c2.15-.54 4.66-1.56 7.45-3.03.17-.09.38-.07.53.04.15.11.23.31.2.49-.2 1.06-.39 2.14-.55 3.23-.44 2.92-.67 5.29-.67 7.04 0 2.83.53 4.82 1.59 5.91.98 1.02 2.64.9 4.94-.34 2.9-1.56 6.09-5.19 9.48-10.79a.49.49 0 0 1 .42-.24c.17 0 .33.09.42.23.19.3.39.57.6.81 1.61 1.84 4.23 1.8 8.01-.12 2.54-1.28 4.89-3.4 7-6.31 2.15-2.96 3.57-6.11 4.34-9.61.03-.15.14-.28.28-.35 1.13-.52 2.29-1.1 3.53-1.78.15-.08.33-.08.48 0s.25.23.26.41c.2 3.01 1.13 5.09 2.86 6.36 1.85 1.37 4.57 1.63 8.33.79 2.5-.55 4.53-1.34 6.2-2.42 1.76-1.13 3.12-2.47 4.16-4.09.62-.96.92-2.07.92-3.39 0-.72-.12-1.28-.36-1.66-.2-.31-.42-.45-.76-.43-.43.02-.83.27-1.21.78-1.42 1.93-2.63 3.32-3.68 4.22-1.09.93-2.46 1.56-4.18 1.92-2.47.52-4.25-.08-5.28-1.77a.536.536 0 0 1-.06-.39c.04-.13.13-.25.25-.31 3.84-2 7.67-4.18 9.73-6.49 1.87-2.08 2.77-4.34 2.77-6.89 0-2.17-.63-3.83-1.88-4.93-1.28-1.12-2.97-1.48-5.02-1.07-2.39.48-4.6 1.7-6.58 3.64-1.93 1.9-3.48 4.23-4.61 6.94-.34.81-.63 1.69-.92 2.77-.04.13-.12.24-.23.3-1.59.91-2.81 1.56-3.83 2.05a.53.53 0 0 1-.46-.01.48.48 0 0 1-.25-.38c-.3-2.62-1.22-4.54-2.74-5.7-1.5-1.14-3.48-1.21-5.89-.21-.2.08-.43.03-.57-.13a.514.514 0 0 1-.06-.58c2.85-4.91 4.81-9.07 6-12.69 1.19-3.63 1.79-7.06 1.79-10.19 0-2.32-.5-3.98-1.49-4.94-.95-.91-2.18-.99-3.77-.23-3.17 1.52-5.98 4.99-8.34 10.31-2.37 5.35-4.2 11.38-5.45 17.93-1.24 6.54-1.87 12.38-1.87 17.36 0 2.11.13 4 .38 5.61.02.11 0 .23-.06.33-1.44 2.47-2.62 4.38-3.51 5.7-1.11 1.63-2.03 2.63-2.81 3.05-1.32.71-1.96.15-2.23-.24-.37-.54-.56-1.43-.56-2.73 0-1.56.48-4.79 1.42-9.59.73-3.91 1.1-6.37 1.1-7.31 0-.17-.02-.46-.16-.55-.08-.04-.53-.23-2.09.61-1.22.66-2.11 1.35-2.65 2.06-.31.41-.59.96-.86 1.65-.04.11-.13.21-.24.27-2.56 1.33-4.88 2.34-6.89 2.99-.18.06-.37.01-.5-.12s-.18-.33-.13-.5c1.93-6.2 2.91-11.6 2.91-16.03 0-2.93-.67-4.91-1.99-5.88-1.3-.95-3.08-.89-5.45.19-1.97.9-3.79 2.19-5.39 3.86-1.62 1.68-2.9 3.73-3.82 6.11-.93 2.41-1.4 5.15-1.4 8.15 0 2.99.58 5.44 1.74 7.27 1.15 1.83 2.86 2.98 5.07 3.43.15.03.27.12.34.25s.08.28.03.42c-2.02 5.16-4.24 9.62-6.61 13.24-2.47 3.78-4.73 5.89-6.92 6.46-1.56.41-3.71.05-5.08-3.97-1.01-2.95-1.52-7.5-1.52-13.52 0-5.69.59-12.25 1.77-19.51.09-.78.11-1.11.11-1.24 0-.85-.2-1.44-.61-1.8-.37-.32-.94-.48-1.71-.48Zm57.97 17.95c-.82 0-1.45-.36-1.89-.74-.96-.84-1.43-2.42-1.43-4.82 0-2.72.56-5.22 1.67-7.42 1.12-2.24 2.55-3.79 4.24-4.63l.18-.09c.17-.08.37-.06.52.05.15.11.23.3.2.48-.15.98-.23 1.74-.23 2.27 0 1.38.3 2.54.89 3.47.57.89 1.37 1.44 2.46 1.66.26.05.43.3.39.57-.32 2.12-.98 3.97-1.95 5.49-.98 1.54-2.13 2.65-3.42 3.3-.61.31-1.15.43-1.63.43Zm2.36-16.32c-1.23.82-2.26 2.09-3.11 3.79-1.04 2.06-1.56 4.41-1.56 6.97 0 2.07.37 3.43 1.09 4.07.69.6 1.45.65 2.41.17 1.12-.57 2.14-1.56 3.03-2.94.82-1.29 1.4-2.85 1.73-4.65-1.12-.33-2.01-1-2.64-1.99-.69-1.09-1.04-2.44-1.04-4.01 0-.37.04-.84.1-1.41ZM37.47 68.78s-.1 0-.15-.02c-2.69-.82-4.05-3.31-4.05-7.4 0-2.32.35-4.29 1.04-5.86.71-1.61 1.66-2.69 2.83-3.21.95-.42 1.79-.24 2.36.5.5.66.75 1.84.75 3.61 0 2.9-.78 6.95-2.31 12.02-.04.13-.13.23-.24.3-.07.04-.15.06-.24.06Zm.64-15.73c-.15 0-.33.04-.56.14-.94.41-1.72 1.32-2.32 2.7-.63 1.44-.95 3.27-.95 5.46 0 3.34.96 5.44 2.87 6.27 1.4-4.74 2.11-8.52 2.11-11.23 0-1.89-.3-2.68-.54-3.01-.14-.18-.31-.34-.6-.34Zm32.42 3.7s-.08 0-.12-.01a.5.5 0 0 1-.38-.53c.39-4.92.98-9.64 1.77-14.03.78-4.4 1.65-8.04 2.57-10.83 1.29-3.92 2.22-4.76 2.81-5.04.74-.36 1.44-.13 1.86.62.34.6.5 1.55.5 2.91 0 2.86-.79 6.53-2.34 10.93-1.55 4.37-3.63 9.65-6.2 15.68a.49.49 0 0 1-.46.3Zm7.3-29.62c-.07 0-.14.03-.23.07-.37.18-1.15.99-2.29 4.46-.91 2.74-1.76 6.34-2.53 10.69-.61 3.4-1.1 7-1.47 10.75 1.99-4.79 3.65-9.05 4.93-12.67 1.51-4.29 2.28-7.85 2.29-10.59 0-1.45-.2-2.11-.37-2.42-.11-.2-.21-.28-.32-.28Zm-5.54 15.13Zm24.03 13.87a.495.495 0 0 1-.5-.5v-.12c0-2.46.52-4.73 1.55-6.74 1.07-2.1 2.42-3.33 4-3.67.86-.19 1.58-.03 2.11.46.52.47.78 1.16.78 2.04 0 1.58-.7 3.06-2.13 4.54-1.3 1.35-3.13 2.64-5.58 3.93-.07.04-.15.06-.23.06Zm5.72-10.11c-.14 0-.29.02-.46.05-1.28.27-2.39 1.33-3.32 3.15-.85 1.67-1.33 3.54-1.42 5.56 1.98-1.11 3.48-2.2 4.58-3.34 1.25-1.28 1.85-2.54 1.85-3.85 0-.6-.15-1.03-.45-1.3-.2-.18-.46-.27-.77-.27Z"/><path d="M55.64 50.69c1.68-.9 3.03-2.1 4.04-3.57 1.01-1.47 1.52-2.99 1.52-4.55 0-1.29-.45-2.04-1.35-2.26-.9-.21-2.07.07-3.52.85-1.6.87-2.94 2.04-4.01 3.53-1.07 1.49-1.61 2.91-1.61 4.28s.41 2.22 1.23 2.55c.82.33 2.05.05 3.69-.83Z" class="cls-1"/><path d="M52.71 52.15c-.35 0-.66-.06-.94-.17-1.03-.41-1.55-1.42-1.55-3.01 0-1.46.57-3 1.71-4.57 1.12-1.55 2.53-2.78 4.18-3.68 1.57-.85 2.84-1.14 3.87-.9.79.19 1.73.82 1.73 2.74 0 1.66-.54 3.29-1.61 4.83-1.06 1.54-2.48 2.79-4.22 3.72-1.27.69-2.32 1.03-3.17 1.03Zm6.53-11.41c-.71 0-1.6.29-2.66.86-1.52.82-2.82 1.96-3.85 3.38-1.01 1.4-1.52 2.74-1.52 3.99 0 1.72.69 1.99.92 2.08.46.18 1.41.2 3.27-.81 1.6-.86 2.9-2.01 3.87-3.41.95-1.38 1.44-2.81 1.44-4.27 0-1.38-.55-1.67-.97-1.77-.16-.04-.32-.06-.5-.06Z"/><path d="M112.29 49.57c-.29-.46-.69-.69-1.2-.66-.59.03-1.11.35-1.58.97-1.37 1.86-2.57 3.25-3.6 4.14-1.04.89-2.35 1.47-3.96 1.81-2.23.47-3.81 0-4.75-1.54 4.65-2.43 7.94-4.43 9.88-6.61 1.94-2.16 2.9-4.52 2.9-7.22 0-2.3-.68-4.1-2.05-5.3-1.37-1.2-3.18-1.64-5.45-1.19-2.54.51-4.82 1.8-6.83 3.77s-3.58 4.37-4.72 7.1c-.39.94-.69 1.88-.95 2.83-1.4.8-2.67 1.49-3.8 2.03-.31-2.76-1.29-4.79-2.93-6.05-1.64-1.25-3.77-1.36-6.39-.27 2.81-4.85 4.83-9.09 6.04-12.79 1.21-3.7 1.82-7.14 1.82-10.35 0-2.46-.55-4.23-1.64-5.29-1.1-1.06-2.54-1.18-4.34-.32-3.32 1.59-6.18 5.14-8.59 10.56-2.4 5.42-4.23 11.45-5.48 18.04-1.25 6.6-1.88 12.41-1.88 17.45 0 2.16.13 4.05.39 5.69-1.41 2.43-2.59 4.34-3.49 5.67-1.05 1.55-1.93 2.52-2.64 2.9-.75.4-1.27.37-1.58-.08-.31-.46-.47-1.27-.47-2.44 0-1.52.47-4.69 1.41-9.49.74-3.96 1.11-6.43 1.11-7.4 0-1.33-1-1.45-2.99-.38-1.29.69-2.23 1.42-2.81 2.2-.35.47-.66 1.07-.92 1.77-2.54 1.33-4.82 2.31-6.81 2.96 1.95-6.28 2.93-11.69 2.93-16.18 0-3.13-.73-5.21-2.2-6.28-1.47-1.07-3.45-1-5.95.14-2.03.92-3.88 2.24-5.54 3.96-1.66 1.72-2.97 3.8-3.93 6.28-.96 2.47-1.44 5.24-1.44 8.33s.6 5.61 1.82 7.53c1.21 1.92 3.01 3.17 5.39 3.65-1.99 5.1-4.18 9.5-6.56 13.15-2.38 3.65-4.59 5.72-6.62 6.25-1.99.52-3.49-.73-4.48-3.64-1-2.92-1.49-7.38-1.49-13.36 0-5.71.59-12.17 1.76-19.43.08-.64.12-1.08.12-1.31 0-2.24-1.29-3.05-3.87-2.7-1.56.2-2.66.65-3.31 1.42-.65.77-1.14 2.17-1.49 4.22-.98 5.51-1.47 11.68-1.47 18.56 0 8.04 1 14.45 2.99 19.04 1.99 4.58 5.02 6.63 9.08 5.71 3.95-.9 7.88-4.09 11.81-9.45 3.93-5.36 7.28-11.73 10.05-18.87 2.22-.55 4.75-1.59 7.56-3.07-.2 1.07-.39 2.15-.55 3.25-.45 2.99-.67 5.36-.67 7.12 0 2.97.57 5.06 1.73 6.26 1.15 1.2 3 1.12 5.54-.25 3.02-1.62 6.24-5.31 9.67-10.97.2.32.42.61.64.88 1.79 2.05 4.67 2 8.62 0 2.62-1.32 5.01-3.47 7.18-6.46 2.17-2.98 3.64-6.22 4.42-9.79a59.08 59.08 0 0 0 3.56-1.79c.21 3.16 1.22 5.38 3.06 6.73 2.07 1.54 4.99 1.72 8.73.88 2.46-.55 4.58-1.34 6.36-2.48 1.77-1.14 3.21-2.53 4.31-4.24.66-1.04 1-2.25 1-3.66 0-.82-.15-1.46-.44-1.93ZM37.47 62.62c-2.46-.75-3.69-3.1-3.69-6.92 0-2.27.33-4.15 1-5.66.66-1.51 1.53-2.49 2.58-2.96.74-.33 1.33-.21 1.76.35.43.57.64 1.67.64 3.31 0 2.85-.76 6.83-2.29 11.88Zm34.82-26.01c.78-4.39 1.63-7.98 2.55-10.76.92-2.79 1.77-4.37 2.55-4.75.51-.25.91-.11 1.2.42.3.52.44 1.41.44 2.66 0 2.82-.77 6.39-2.32 10.76-1.55 4.37-3.6 9.58-6.18 15.65.39-4.93.98-9.59 1.76-13.98Zm5.27 26.25c-.94 1.47-2.01 2.51-3.22 3.12-1.13.57-2.12.49-2.96-.24-.84-.74-1.26-2.21-1.26-4.44 0-2.66.54-5.06 1.61-7.2 1.07-2.14 2.41-3.61 4.01-4.41l.18-.09c-.16 1.01-.23 1.8-.23 2.34 0 1.49.32 2.73.97 3.74.64 1.01 1.57 1.63 2.78 1.88-.31 2.06-.94 3.82-1.88 5.29Zm18.76-13c0-2.38.5-4.56 1.49-6.52 1-1.95 2.22-3.1 3.66-3.41.7-.15 1.26-.03 1.67.34.41.37.62.93.61 1.67 0 1.45-.66 2.83-1.99 4.2-1.33 1.38-3.15 2.62-5.45 3.84v-.12Z" class="cls-4"/><path d="M17.89 98.14c-3.3 0-5.94-2.12-7.73-6.22-2.01-4.63-3.03-11.11-3.03-19.24 0-6.87.5-13.14 1.47-18.65.37-2.15.9-3.61 1.6-4.45.71-.85 1.9-1.37 3.63-1.59 1.6-.21 2.74 0 3.48.65.63.55.95 1.41.95 2.55 0 .27-.04.73-.12 1.37-1.17 7.22-1.76 13.73-1.75 19.37 0 5.91.49 10.35 1.47 13.2 1.36 3.98 3.26 3.49 3.89 3.32 1.91-.5 4.04-2.53 6.33-6.04 2.25-3.44 4.37-7.65 6.31-12.52-2.21-.58-3.94-1.83-5.14-3.74-1.26-2-1.89-4.62-1.89-7.8 0-3.12.49-5.98 1.47-8.51.97-2.5 2.32-4.67 4.03-6.44 1.69-1.75 3.6-3.12 5.69-4.07 2.69-1.22 4.86-1.25 6.45-.09 1.6 1.16 2.4 3.41 2.4 6.68 0 4.31-.9 9.48-2.67 15.39 1.69-.61 3.59-1.46 5.65-2.52.28-.7.58-1.26.92-1.72.63-.84 1.61-1.61 2.98-2.34 1.46-.78 2.43-.97 3.07-.59.43.26.65.73.65 1.41 0 1.01-.37 3.47-1.12 7.49-.93 4.74-1.4 7.9-1.4 9.4 0 1.33.21 1.91.38 2.16.06.1.22.31.93-.07.43-.23 1.21-.9 2.46-2.74.86-1.27 2-3.11 3.39-5.49-.24-1.62-.37-3.5-.37-5.59 0-5.04.63-10.95 1.88-17.55 1.26-6.62 3.11-12.73 5.51-18.15 2.46-5.55 5.43-9.19 8.83-10.81 1.99-.95 3.64-.81 4.9.41 1.19 1.15 1.79 3.06 1.79 5.65 0 3.23-.62 6.77-1.84 10.5-1.11 3.4-2.89 7.24-5.41 11.72 2.2-.62 4.08-.36 5.59.79 1.6 1.22 2.62 3.14 3.03 5.69.83-.42 1.79-.94 2.97-1.61.29-1.03.58-1.89.91-2.69 1.17-2.83 2.8-5.28 4.83-7.27 2.12-2.08 4.5-3.39 7.08-3.9 2.38-.47 4.35-.04 5.88 1.3 1.48 1.3 2.22 3.21 2.22 5.68 0 2.81-.99 5.27-3.03 7.55-1.97 2.21-5.23 4.19-9.51 6.45.83.97 2.08 1.25 3.9.87 1.56-.32 2.78-.88 3.73-1.7.98-.84 2.17-2.21 3.53-4.06.57-.75 1.23-1.14 1.96-1.18.7-.02 1.25.28 1.65.9.34.54.52 1.28.52 2.19 0 1.49-.36 2.81-1.07 3.93-1.12 1.75-2.58 3.19-4.46 4.39-1.77 1.14-3.91 1.97-6.52 2.55-4.06.91-7.05.59-9.14-.97-1.82-1.34-2.87-3.42-3.19-6.33-.93.49-1.82.94-2.7 1.34-.81 3.54-2.27 6.73-4.45 9.74-2.21 3.03-4.68 5.26-7.36 6.61-4.19 2.12-7.29 2.09-9.22-.11-.08-.09-.16-.19-.24-.29-3.34 5.39-6.52 8.92-9.46 10.5-2.75 1.48-4.81 1.53-6.14.15-1.26-1.3-1.87-3.46-1.87-6.6 0-1.8.23-4.22.68-7.19.12-.76.24-1.52.37-2.26-2.39 1.21-4.58 2.08-6.51 2.58-2.82 7.21-6.19 13.51-10.02 18.74-4.02 5.48-8.09 8.72-12.1 9.64-.67.15-1.31.23-1.93.23ZM14.96 48.9c-.3 0-.63.02-.99.07-1.47.19-2.45.6-3 1.25-.58.69-1.05 2.03-1.38 3.98-.97 5.45-1.46 11.67-1.46 18.48 0 8 .99 14.33 2.95 18.84 1.93 4.44 4.8 6.27 8.52 5.42 3.77-.86 7.65-3.97 11.52-9.25 3.82-5.22 7.18-11.53 9.99-18.75a.51.51 0 0 1 .34-.3c2.15-.54 4.66-1.56 7.45-3.03.17-.09.38-.08.53.04.15.11.23.31.2.49-.2 1.06-.39 2.14-.55 3.23-.44 2.92-.67 5.29-.67 7.04 0 2.83.53 4.82 1.59 5.91.98 1.02 2.64.9 4.94-.34 2.9-1.56 6.09-5.19 9.48-10.79.09-.15.21-.27.43-.24.17 0 .33.09.42.24.19.3.39.57.6.81 1.61 1.84 4.23 1.8 8.01-.12 2.54-1.28 4.89-3.4 7-6.31 2.15-2.96 3.57-6.11 4.34-9.61.03-.15.14-.28.28-.35 1.13-.52 2.29-1.1 3.53-1.78a.51.51 0 0 1 .48 0c.15.08.25.23.26.41.2 3.01 1.13 5.09 2.86 6.36 1.85 1.37 4.57 1.63 8.33.79 2.5-.55 4.53-1.34 6.2-2.41 1.76-1.13 3.12-2.47 4.16-4.09.62-.96.92-2.07.92-3.39 0-.72-.12-1.28-.36-1.66-.2-.31-.43-.46-.76-.43-.43.02-.83.27-1.21.78-1.42 1.93-2.63 3.32-3.68 4.22-1.09.93-2.46 1.56-4.18 1.92-2.47.52-4.25-.08-5.28-1.77a.536.536 0 0 1-.06-.39c.04-.13.13-.25.25-.31 3.84-2 7.67-4.18 9.74-6.49 1.87-2.09 2.77-4.34 2.77-6.89 0-2.17-.63-3.83-1.88-4.93-1.28-1.12-2.97-1.48-5.02-1.07-2.39.48-4.6 1.7-6.58 3.64-1.93 1.9-3.48 4.23-4.61 6.94-.34.81-.63 1.69-.92 2.77-.04.13-.12.24-.23.3-1.6.91-2.81 1.56-3.83 2.05a.53.53 0 0 1-.46-.01.48.48 0 0 1-.25-.38c-.3-2.62-1.22-4.54-2.74-5.7-1.5-1.14-3.48-1.21-5.89-.21-.2.08-.43.03-.57-.13a.516.516 0 0 1-.06-.58c2.85-4.92 4.81-9.07 6-12.69 1.19-3.63 1.79-7.06 1.79-10.19 0-2.32-.5-3.98-1.49-4.94-.95-.91-2.18-.99-3.77-.23-3.17 1.52-5.98 4.99-8.34 10.31-2.37 5.35-4.2 11.38-5.45 17.93-1.24 6.54-1.87 12.38-1.87 17.36 0 2.11.13 4 .38 5.61.02.11 0 .23-.06.33-1.44 2.47-2.62 4.38-3.51 5.7-1.11 1.63-2.03 2.63-2.81 3.05-1.31.71-1.96.16-2.23-.24-.37-.54-.56-1.43-.56-2.73 0-1.56.48-4.79 1.42-9.59.73-3.91 1.1-6.37 1.1-7.31 0-.17-.02-.46-.16-.55-.08-.04-.53-.23-2.09.61-1.22.66-2.11 1.35-2.65 2.06-.31.41-.59.96-.86 1.65-.04.11-.13.21-.24.27-2.56 1.33-4.88 2.34-6.89 2.99-.18.06-.37.01-.5-.12s-.18-.33-.13-.5c1.93-6.2 2.91-11.6 2.91-16.03 0-2.93-.67-4.91-1.99-5.88-1.3-.95-3.08-.89-5.45.19-1.97.9-3.79 2.19-5.39 3.86-1.62 1.68-2.9 3.73-3.82 6.11-.93 2.41-1.4 5.15-1.4 8.15 0 2.99.58 5.44 1.74 7.27 1.15 1.83 2.86 2.98 5.07 3.43.15.03.27.12.34.25s.08.28.03.42c-2.02 5.16-4.24 9.62-6.61 13.24-2.47 3.78-4.73 5.89-6.92 6.46-1.56.41-3.71.05-5.08-3.97-1.01-2.95-1.52-7.5-1.52-13.52 0-5.69.59-12.25 1.77-19.51.09-.78.11-1.11.11-1.24 0-.85-.2-1.44-.61-1.8-.37-.32-.94-.48-1.71-.48Zm57.97 17.96c-.82 0-1.45-.36-1.89-.74-.96-.84-1.43-2.42-1.43-4.82 0-2.72.56-5.22 1.67-7.42 1.12-2.24 2.55-3.79 4.24-4.63l.18-.09c.17-.08.37-.06.52.05.15.11.23.29.2.48-.15.98-.23 1.74-.23 2.27 0 1.38.3 2.54.89 3.47.57.89 1.37 1.44 2.46 1.66.26.05.43.3.39.57-.32 2.12-.98 3.97-1.95 5.49-.98 1.54-2.13 2.65-3.42 3.3-.61.31-1.15.43-1.63.43Zm2.36-16.32c-1.23.82-2.26 2.09-3.11 3.79-1.04 2.06-1.56 4.41-1.56 6.97 0 2.07.37 3.43 1.09 4.07.69.6 1.45.65 2.41.17 1.12-.57 2.14-1.56 3.03-2.94.82-1.29 1.4-2.85 1.73-4.65-1.12-.33-2.01-1-2.64-1.99-.69-1.09-1.04-2.44-1.04-4.01 0-.37.04-.84.1-1.41ZM37.47 63.12s-.1 0-.15-.02c-2.69-.82-4.05-3.31-4.05-7.4 0-2.32.35-4.29 1.04-5.86.71-1.61 1.66-2.69 2.83-3.21.95-.42 1.79-.24 2.36.5.5.66.75 1.84.75 3.61 0 2.9-.78 6.95-2.31 12.02-.04.13-.13.23-.24.3-.07.04-.15.06-.24.06Zm.64-15.72c-.15 0-.33.04-.56.14-.94.41-1.72 1.32-2.32 2.7-.63 1.44-.95 3.27-.95 5.46 0 3.34.96 5.44 2.87 6.27 1.4-4.74 2.11-8.52 2.11-11.23 0-1.89-.3-2.68-.54-3.01-.14-.18-.31-.34-.6-.34Zm32.42 3.69s-.08 0-.12-.01a.5.5 0 0 1-.38-.53c.39-4.92.98-9.64 1.77-14.03.78-4.4 1.65-8.04 2.57-10.83 1.29-3.93 2.22-4.76 2.81-5.04.75-.36 1.44-.13 1.86.62.34.6.5 1.55.5 2.91 0 2.86-.79 6.53-2.34 10.93-1.55 4.37-3.63 9.65-6.2 15.68a.49.49 0 0 1-.46.3Zm7.3-29.61c-.07 0-.14.03-.23.07-.37.18-1.15.99-2.29 4.45-.91 2.74-1.76 6.34-2.53 10.69-.61 3.4-1.1 7-1.47 10.75 1.99-4.79 3.65-9.05 4.93-12.67 1.51-4.29 2.28-7.85 2.29-10.59 0-1.45-.2-2.11-.37-2.42-.11-.2-.21-.28-.32-.28Zm-5.54 15.13Zm24.03 13.86a.495.495 0 0 1-.5-.5v-.12c0-2.46.52-4.73 1.55-6.74 1.07-2.1 2.42-3.33 4-3.67.86-.19 1.58-.03 2.11.46.52.47.78 1.16.78 2.04 0 1.58-.7 3.06-2.13 4.54-1.3 1.35-3.13 2.64-5.58 3.93-.07.04-.15.06-.23.06Zm5.72-10.11c-.14 0-.29.02-.46.05-1.28.27-2.39 1.33-3.32 3.15-.85 1.67-1.33 3.54-1.42 5.56 1.98-1.11 3.48-2.2 4.58-3.33 1.25-1.28 1.85-2.54 1.85-3.85 0-.6-.15-1.03-.45-1.3-.2-.18-.46-.27-.77-.27Z"/><path d="M55.64 44.24c1.68-.91 3.03-2.1 4.04-3.57 1.01-1.47 1.52-2.99 1.52-4.55 0-1.29-.45-2.04-1.35-2.26-.9-.21-2.07.07-3.52.85-1.6.87-2.94 2.04-4.01 3.53-1.07 1.49-1.61 2.91-1.61 4.28s.41 2.22 1.23 2.55c.82.33 2.05.05 3.69-.83Z" class="cls-5"/><path d="M52.71 45.71c-.35 0-.66-.06-.94-.17-1.03-.41-1.55-1.42-1.55-3.01 0-1.46.57-3 1.71-4.57 1.12-1.55 2.53-2.78 4.18-3.68 1.57-.85 2.84-1.15 3.87-.9.79.19 1.73.82 1.73 2.74 0 1.66-.54 3.28-1.61 4.83-1.06 1.53-2.48 2.78-4.22 3.72-1.27.69-2.32 1.03-3.17 1.03Zm6.53-11.41c-.71 0-1.6.29-2.66.86-1.52.82-2.82 1.96-3.85 3.38-1.01 1.4-1.52 2.74-1.52 3.99 0 1.72.69 1.99.92 2.08.46.19 1.41.2 3.27-.81 1.6-.86 2.9-2.01 3.87-3.41.95-1.38 1.44-2.81 1.44-4.27 0-1.38-.55-1.67-.97-1.77-.16-.04-.32-.06-.5-.06Zm-3.6 9.94Z"/><path d="M112.29 43.13c-.29-.46-.69-.69-1.2-.66-.59.03-1.11.35-1.58.97-1.37 1.86-2.57 3.26-3.6 4.14-1.04.89-2.35 1.47-3.96 1.81-2.23.47-3.81 0-4.75-1.54 4.65-2.43 7.94-4.43 9.88-6.61 1.94-2.16 2.9-4.52 2.9-7.22 0-2.3-.68-4.1-2.05-5.3-1.37-1.2-3.18-1.64-5.45-1.19-2.54.51-4.82 1.8-6.83 3.77-2.01 1.98-3.58 4.37-4.72 7.1-.39.94-.69 1.89-.95 2.83-1.4.8-2.67 1.5-3.8 2.03-.31-2.76-1.29-4.79-2.93-6.05-1.64-1.25-3.77-1.36-6.39-.27 2.81-4.85 4.83-9.08 6.04-12.79 1.21-3.7 1.82-7.14 1.82-10.35 0-2.46-.55-4.23-1.64-5.29-1.1-1.06-2.54-1.18-4.34-.32-3.32 1.58-6.18 5.14-8.59 10.56-2.4 5.42-4.23 11.45-5.48 18.04-1.25 6.6-1.88 12.41-1.88 17.45 0 2.16.13 4.05.39 5.69-1.41 2.43-2.59 4.34-3.49 5.67-1.05 1.55-1.93 2.52-2.64 2.9-.75.4-1.27.37-1.58-.08-.31-.46-.47-1.27-.47-2.44 0-1.52.47-4.69 1.41-9.49.74-3.96 1.11-6.43 1.11-7.4 0-1.33-1-1.45-2.99-.38-1.29.69-2.23 1.43-2.81 2.2-.35.47-.66 1.07-.92 1.77-2.54 1.33-4.82 2.31-6.81 2.96 1.95-6.28 2.93-11.69 2.93-16.18 0-3.13-.73-5.21-2.2-6.28-1.47-1.07-3.45-1-5.95.14-2.03.92-3.88 2.24-5.54 3.96-1.66 1.72-2.97 3.8-3.93 6.28-.96 2.47-1.44 5.24-1.44 8.33s.6 5.61 1.82 7.53c1.21 1.92 3.01 3.17 5.39 3.65-1.99 5.1-4.18 9.5-6.56 13.15-2.38 3.65-4.59 5.72-6.62 6.25-1.99.52-3.49-.73-4.48-3.64-1-2.92-1.49-7.38-1.49-13.36 0-5.71.59-12.16 1.76-19.43.08-.64.12-1.08.12-1.31 0-2.24-1.29-3.05-3.87-2.7-1.56.2-2.66.65-3.31 1.42-.65.77-1.14 2.17-1.49 4.22-.98 5.51-1.47 11.68-1.47 18.56 0 8.04 1 14.45 2.99 19.04 1.99 4.58 5.02 6.63 9.08 5.71 3.95-.9 7.88-4.09 11.81-9.45 3.93-5.36 7.28-11.73 10.05-18.87 2.22-.55 4.75-1.59 7.56-3.07-.2 1.07-.39 2.15-.55 3.25-.45 2.99-.67 5.36-.67 7.12 0 2.97.57 5.06 1.73 6.26 1.15 1.2 3 1.12 5.54-.25 3.02-1.62 6.24-5.31 9.67-10.97.2.32.42.61.64.88 1.79 2.05 4.67 2 8.62 0 2.62-1.32 5.01-3.47 7.18-6.46 2.17-2.98 3.64-6.22 4.42-9.79a59.08 59.08 0 0 0 3.56-1.79c.21 3.16 1.22 5.38 3.06 6.73 2.07 1.54 4.99 1.72 8.73.88 2.46-.54 4.58-1.34 6.36-2.48 1.77-1.14 3.21-2.53 4.31-4.24.66-1.04 1-2.25 1-3.66 0-.82-.15-1.46-.44-1.93ZM37.47 56.18c-2.46-.75-3.69-3.1-3.69-6.92 0-2.27.33-4.15 1-5.66.66-1.51 1.53-2.49 2.58-2.96.74-.33 1.33-.21 1.76.35.43.56.64 1.67.64 3.31 0 2.85-.76 6.82-2.29 11.88Zm34.82-26.01c.78-4.39 1.63-7.98 2.55-10.76.92-2.79 1.77-4.37 2.55-4.75.51-.25.91-.11 1.2.42.3.52.44 1.41.44 2.66 0 2.81-.77 6.39-2.32 10.76-1.55 4.37-3.6 9.58-6.18 15.65.39-4.93.98-9.59 1.76-13.98Zm5.27 26.25c-.94 1.47-2.01 2.51-3.22 3.12-1.13.57-2.12.49-2.96-.24-.84-.74-1.26-2.21-1.26-4.44 0-2.66.54-5.06 1.61-7.2 1.07-2.14 2.41-3.62 4.01-4.41l.18-.09c-.16 1.01-.23 1.8-.23 2.34 0 1.49.32 2.73.97 3.74.64 1.01 1.57 1.63 2.78 1.88-.31 2.06-.94 3.82-1.88 5.29Zm18.76-13.01c0-2.38.5-4.57 1.49-6.52 1-1.95 2.22-3.1 3.66-3.41.7-.15 1.26-.03 1.67.34.41.37.62.93.61 1.67 0 1.45-.66 2.83-1.99 4.2s-3.15 2.62-5.45 3.84v-.12Z" class="cls-5"/><path d="M17.89 91.7c-3.3 0-5.94-2.12-7.73-6.23-2.01-4.63-3.03-11.11-3.03-19.24 0-6.87.5-13.14 1.47-18.65.37-2.15.9-3.61 1.6-4.45.71-.85 1.9-1.37 3.63-1.59 1.6-.22 2.74 0 3.48.65.63.55.95 1.41.95 2.55 0 .27-.04.73-.12 1.37-1.17 7.22-1.76 13.73-1.75 19.36 0 5.91.49 10.35 1.47 13.2 1.36 3.98 3.26 3.48 3.89 3.32 1.91-.5 4.04-2.53 6.33-6.04 2.25-3.44 4.37-7.65 6.31-12.52-2.21-.58-3.94-1.83-5.14-3.74-1.26-2-1.89-4.62-1.89-7.8 0-3.12.49-5.98 1.47-8.51.97-2.5 2.32-4.67 4.03-6.44 1.69-1.75 3.61-3.12 5.69-4.07 2.69-1.22 4.86-1.25 6.45-.09 1.6 1.16 2.4 3.41 2.4 6.68 0 4.31-.9 9.48-2.67 15.39 1.69-.61 3.59-1.46 5.65-2.53.28-.7.58-1.26.92-1.71.64-.84 1.61-1.61 2.98-2.34 1.46-.78 2.44-.97 3.08-.59.43.26.65.73.65 1.41 0 1.01-.37 3.47-1.12 7.49-.93 4.74-1.4 7.9-1.4 9.4 0 1.33.21 1.91.38 2.16.06.1.22.31.93-.07.63-.34 1.46-1.26 2.46-2.74.86-1.27 2-3.11 3.39-5.48-.24-1.63-.37-3.5-.37-5.59 0-5.04.63-10.95 1.88-17.55 1.26-6.62 3.11-12.73 5.51-18.15 2.46-5.55 5.43-9.19 8.83-10.81 1.99-.95 3.64-.81 4.9.41 1.19 1.15 1.79 3.06 1.79 5.65 0 3.23-.62 6.77-1.84 10.5-1.11 3.4-2.89 7.24-5.41 11.72 2.2-.62 4.08-.36 5.59.79 1.6 1.22 2.62 3.13 3.03 5.69.82-.41 1.79-.94 2.97-1.61.29-1.03.58-1.89.91-2.69 1.18-2.83 2.8-5.28 4.83-7.27 2.12-2.08 4.5-3.39 7.08-3.9 2.38-.47 4.36-.03 5.88 1.3 1.48 1.3 2.22 3.21 2.22 5.68 0 2.8-.99 5.27-3.03 7.55-1.97 2.21-5.23 4.19-9.51 6.45.83.98 2.09 1.25 3.9.87 1.56-.32 2.78-.88 3.73-1.7.99-.85 2.14-2.17 3.53-4.06.57-.75 1.23-1.15 1.96-1.18.68-.04 1.25.28 1.64.89.34.54.52 1.28.52 2.19 0 1.49-.36 2.81-1.07 3.93-1.12 1.75-2.58 3.18-4.46 4.39-1.77 1.14-3.91 1.97-6.52 2.55-4.06.91-7.05.59-9.14-.97-1.82-1.34-2.87-3.42-3.19-6.33-.93.49-1.82.94-2.7 1.34-.81 3.54-2.27 6.73-4.45 9.74-2.21 3.03-4.68 5.26-7.36 6.61-4.19 2.12-7.29 2.09-9.22-.11-.08-.09-.16-.19-.24-.29-3.38 5.46-6.48 8.9-9.46 10.5-2.74 1.48-4.81 1.53-6.14.15-1.26-1.3-1.87-3.46-1.87-6.6 0-1.8.23-4.22.68-7.19.12-.76.24-1.52.37-2.26-2.4 1.21-4.58 2.08-6.51 2.58-2.82 7.2-6.19 13.51-10.02 18.74-4.02 5.48-8.09 8.72-12.1 9.64-.67.15-1.31.23-1.93.23Zm-2.93-49.24c-.3 0-.63.02-.98.07-1.47.19-2.45.6-3 1.25-.58.69-1.05 2.03-1.38 3.98-.97 5.45-1.46 11.67-1.46 18.48 0 8 .99 14.33 2.95 18.84 1.93 4.44 4.8 6.27 8.52 5.42 3.77-.86 7.65-3.97 11.52-9.25 3.82-5.22 7.18-11.53 9.99-18.75a.51.51 0 0 1 .34-.3c2.15-.54 4.65-1.56 7.45-3.03.17-.09.38-.07.53.04.15.11.23.31.2.49-.2 1.06-.39 2.14-.55 3.23-.44 2.92-.67 5.29-.67 7.04 0 2.83.53 4.82 1.59 5.91.98 1.02 2.64.9 4.94-.34 2.9-1.56 6.08-5.19 9.48-10.79.09-.15.3-.27.43-.24.17 0 .33.09.42.24.18.29.38.57.6.81 1.61 1.84 4.23 1.8 8.01-.12 2.54-1.28 4.89-3.4 7-6.31 2.15-2.96 3.57-6.11 4.34-9.61.03-.15.14-.28.28-.35 1.13-.52 2.29-1.1 3.53-1.78.15-.08.33-.08.48 0s.25.23.26.41c.2 3.01 1.13 5.09 2.86 6.36 1.85 1.37 4.57 1.63 8.33.79 2.5-.55 4.53-1.34 6.2-2.41 1.76-1.13 3.12-2.47 4.16-4.09.62-.96.92-2.07.92-3.39 0-.72-.12-1.28-.36-1.66-.2-.32-.42-.45-.76-.43-.43.02-.83.27-1.21.78-1.43 1.94-2.63 3.32-3.68 4.22-1.09.93-2.46 1.56-4.18 1.92-2.47.52-4.25-.08-5.28-1.77a.536.536 0 0 1-.06-.39c.04-.13.13-.25.25-.31 3.84-2 7.67-4.18 9.74-6.49 1.87-2.09 2.77-4.34 2.77-6.89 0-2.17-.63-3.83-1.88-4.93-1.27-1.12-2.96-1.48-5.02-1.07-2.39.48-4.6 1.7-6.58 3.64-1.93 1.9-3.48 4.23-4.61 6.94-.33.81-.63 1.69-.93 2.77-.03.13-.12.24-.23.3-1.6.92-2.82 1.57-3.83 2.05a.53.53 0 0 1-.46-.01.48.48 0 0 1-.25-.38c-.3-2.63-1.22-4.54-2.74-5.7-1.5-1.14-3.48-1.21-5.89-.21-.2.08-.43.03-.57-.13a.514.514 0 0 1-.06-.58c2.85-4.92 4.81-9.07 6-12.69 1.19-3.63 1.79-7.06 1.79-10.19 0-2.32-.5-3.98-1.49-4.94-.95-.91-2.18-.99-3.77-.23-3.17 1.51-5.98 4.98-8.34 10.31-2.37 5.35-4.2 11.38-5.45 17.93-1.24 6.54-1.87 12.38-1.87 17.36 0 2.11.13 4 .38 5.61.02.11 0 .23-.06.33-1.44 2.47-2.62 4.38-3.51 5.7-1.11 1.63-2.03 2.63-2.81 3.06-1.32.71-1.96.15-2.23-.24-.37-.54-.56-1.43-.56-2.73 0-1.56.48-4.79 1.42-9.59.73-3.91 1.1-6.37 1.1-7.31 0-.17-.02-.46-.16-.55-.08-.04-.53-.23-2.09.61-1.22.66-2.11 1.35-2.65 2.06-.31.41-.59.96-.86 1.65-.04.11-.13.21-.24.27-2.56 1.34-4.88 2.34-6.89 2.99-.18.06-.37.01-.5-.12s-.18-.33-.13-.5c1.93-6.2 2.91-11.6 2.91-16.03 0-2.93-.67-4.91-1.99-5.88-1.3-.95-3.08-.88-5.45.19-1.97.9-3.79 2.19-5.39 3.86-1.62 1.68-2.9 3.74-3.82 6.11-.93 2.41-1.4 5.15-1.4 8.15 0 2.99.58 5.43 1.74 7.27 1.15 1.83 2.86 2.98 5.07 3.43.14.03.27.12.34.25s.08.28.03.42c-2.02 5.16-4.24 9.62-6.61 13.24-2.47 3.78-4.73 5.89-6.92 6.46-1.57.41-3.71.05-5.08-3.97-1.01-2.95-1.52-7.5-1.52-13.52 0-5.69.59-12.25 1.77-19.5.09-.78.11-1.11.11-1.24 0-.85-.2-1.44-.61-1.8-.37-.32-.94-.48-1.71-.48Zm57.97 17.96c-.82 0-1.45-.36-1.89-.74-.96-.84-1.43-2.42-1.43-4.82 0-2.72.56-5.22 1.67-7.42 1.12-2.24 2.55-3.8 4.24-4.63l.18-.09c.17-.08.37-.06.52.05.15.11.23.29.2.48-.15.98-.23 1.74-.23 2.27 0 1.38.3 2.55.89 3.47.57.9 1.38 1.44 2.46 1.66.26.05.43.3.39.57-.32 2.12-.98 3.97-1.95 5.49-.98 1.54-2.13 2.64-3.42 3.3-.61.31-1.15.43-1.63.43Zm2.36-16.33c-1.23.82-2.26 2.09-3.11 3.79-1.04 2.06-1.56 4.41-1.56 6.97 0 2.07.37 3.43 1.09 4.07.69.6 1.45.66 2.41.17 1.13-.57 2.15-1.56 3.03-2.94.82-1.29 1.4-2.85 1.73-4.65-1.12-.33-2.01-1-2.64-1.99-.69-1.09-1.04-2.44-1.04-4.01 0-.37.04-.84.1-1.41ZM37.47 56.68s-.1 0-.15-.02c-2.69-.82-4.05-3.31-4.05-7.4 0-2.32.35-4.29 1.04-5.86.71-1.61 1.66-2.7 2.83-3.21.95-.42 1.79-.24 2.36.5.5.66.75 1.84.75 3.61 0 2.9-.78 6.95-2.31 12.02-.04.13-.13.23-.24.3-.07.04-.15.06-.24.06Zm.64-15.72c-.15 0-.33.04-.56.14-.94.41-1.72 1.32-2.32 2.7-.63 1.44-.95 3.27-.95 5.46 0 3.34.96 5.44 2.87 6.27 1.4-4.75 2.11-8.52 2.11-11.23 0-1.9-.3-2.68-.54-3.01-.14-.18-.31-.34-.6-.34Zm32.42 3.69s-.08 0-.12-.01a.5.5 0 0 1-.38-.53c.39-4.92.98-9.64 1.77-14.03.78-4.4 1.65-8.04 2.57-10.83 1.29-3.92 2.22-4.76 2.81-5.04.75-.36 1.44-.13 1.86.62.34.6.5 1.55.5 2.9 0 2.86-.79 6.53-2.34 10.93-1.55 4.38-3.63 9.65-6.2 15.68a.49.49 0 0 1-.46.3Zm7.3-29.61c-.07 0-.14.03-.23.07-.37.18-1.15.99-2.29 4.45-.91 2.74-1.76 6.34-2.53 10.69-.61 3.4-1.1 7-1.47 10.75 1.99-4.79 3.65-9.04 4.93-12.67 1.51-4.29 2.28-7.85 2.29-10.59 0-1.45-.2-2.11-.37-2.42-.11-.21-.21-.28-.32-.28Zm-5.54 15.13Zm24.03 13.86a.495.495 0 0 1-.5-.5v-.12c0-2.46.52-4.73 1.55-6.74 1.07-2.1 2.42-3.33 4-3.67 1.08-.23 1.74.12 2.11.46.52.47.78 1.16.78 2.05 0 1.58-.7 3.07-2.13 4.54-1.31 1.35-3.13 2.64-5.58 3.93-.07.04-.15.06-.23.06Zm5.72-10.11c-.14 0-.29.02-.46.05-1.28.28-2.39 1.34-3.32 3.15-.85 1.67-1.33 3.54-1.42 5.56 1.97-1.1 3.48-2.2 4.58-3.34 1.25-1.28 1.85-2.54 1.85-3.85 0-.59-.15-1.03-.45-1.3-.2-.18-.46-.27-.77-.27Z"/></g></svg>