<svg xmlns="http://www.w3.org/2000/svg" id="Layer_2" data-name="Layer 2" viewBox="0 0 217.77 67.71"><defs><style>.cls-1{fill:#ff7ec8}.cls-2{fill:#fff}.cls-4{fill:#00bf9f}</style></defs><g id="OBJECTS"><path d="M214.26 14.75a98.333 98.333 0 0 0-15.56-6.43c-.46-.14-.93-.24-1.41-.28-.42-.23-.87-.41-1.33-.54-4.98-1.4-10.19-2.43-15.49-3.05-.44-.05-.89-.05-1.32 0h-.04c-.49-.15-.93-.24-1.36-.28-3.34-.3-6.8-.45-10.3-.45-5.81 0-11.8.4-18.3 1.23-.3.04-.6.1-.95.21h-.12c-.3 0-.6.01-.89.06-4.31.6-8.78 1.37-13.68 2.36a6.56 6.56 0 0 0-2.84 1.35c-.17.02-.33.05-.5.09-2.82.6-5.78 1.28-9.06 2.06-.03 0-.05.01-.08.02a6.46 6.46 0 0 0-3.09 0c-3.49.85-6.97 1.72-10.46 2.6l-3.05.77a6.451 6.451 0 0 0-4.63 4.4c-.93-.21-1.86-.34-2.79-.37v-2.7c0-4.33-3.52-7.85-7.85-7.85-2.56 0-4.94 1.24-6.42 3.34-5.21.05-14.13 2.04-15.41 9.29-.2 1.14-.25 2.83.5 4.78-3.38-1.62-7.87-2.26-13.94-2.05-5.13.16-10.27-.03-15.07-.59-.99-.11-1.97 0-2.9.32-.97-.36-2.2-.75-3.76-1.25l-1.03-.33c-1.98-.63-4.09-1.27-6.46-1.96-4.05-1.18-7.24-1.73-10.04-1.73-2.59 0-4.9.49-6.86 1.46C2.61 21.7 0 27.1 0 35.23c0 6.93 1.79 13.04 5.32 18.18 3.76 5.45 9.21 9.3 15.76 11.12 5 1.38 9.75 2.17 14.13 2.36.25.01.5 0 .75-.03h.07c.49.16.93.26 1.37.3 3.63.37 7.41.56 11.23.56 1.6 0 3.24-.03 4.86-.1.44-.02.89-.08 1.32-.19.44.06.89.08 1.33.06 4.83-.28 9.78-.83 15.15-1.67a6.498 6.498 0 0 0 5.4-5.37c2.5 1.43 5.09 2.19 7.53 2.19 1.63 0 3.15-.24 4.51-.7 1.36.47 2.88.7 4.51.7 4.61 0 9.7-2.72 13.39-7.14.04.03.08.05.11.08a6.513 6.513 0 0 0 5.24.85c5.2-1.38 10.29-2.73 15.37-3.97.38-.09.75-.22 1.11-.38.38-.02.77-.08 1.15-.17 5.68-1.36 10.69-2.41 15.33-3.23a6.468 6.468 0 0 0 5.01-4.27c.27.39.59.74.95 1.06a6.451 6.451 0 0 0 5.04 1.62c5.54-.6 10.58-.84 15.66-.72h.15c1.31 0 2.59-.4 3.67-1.13a6.42 6.42 0 0 0 3.62 1.6c4.6.47 9.13 1.29 13.46 2.45.4.11.81.17 1.22.2.37.19.75.35 1.15.47 4.58 1.37 9.12 3.18 13.47 5.37 1.98.99 4.44.89 6.33-.28a6.543 6.543 0 0 0 3.09-5.53V20.54a6.48 6.48 0 0 0-3.51-5.77Zm-66.2-9.1Z"/><path d="M214.03 11.48c-5-2.58-10.21-4.74-15.48-6.4-.46-.15-.93-.23-1.41-.26-.41-.23-.85-.42-1.32-.55a98.39 98.39 0 0 0-15.41-3.03c-.23-.03-.46-.04-.7-.04s-.44.04-.66.06c-.43-.14-.88-.26-1.36-.3-3.32-.3-6.77-.45-10.26-.45-5.79 0-11.76.4-18.23 1.23-.33.04-.65.12-.96.21h-.18c-.27 0-.55.02-.82.06-4.29.6-8.76 1.37-13.65 2.36-1.04.21-1.97.68-2.73 1.34-.2.02-.4.05-.6.1-2.82.6-5.78 1.28-9.05 2.05-.06.01-.13.03-.19.05-.51-.14-1.03-.2-1.55-.2-.47 0-.95.06-1.42.17-3.48.85-6.97 1.72-10.45 2.6l-3.05.77a6.024 6.024 0 0 0-4.4 4.52c-1.17-.31-2.39-.48-3.64-.48V12.1c0-4.05-3.3-7.35-7.35-7.35-2.58 0-4.84 1.33-6.16 3.34h-.08c-5.03 0-13.86 1.87-15.1 8.87-.22 1.25-.24 3.2.87 5.41-.05.08-.1.15-.15.22-3-1.72-6.97-2.53-12.47-2.53-.7 0-1.43.01-2.17.04-1.19.04-2.37.06-3.56.06-3.97 0-7.87-.22-11.59-.65a6.03 6.03 0 0 0-2.84.36c-.02 0-.04-.01-.06-.02-.98-.37-2.25-.77-3.86-1.28l-1.03-.33c-1.97-.63-4.08-1.27-6.45-1.96-4-1.17-7.14-1.71-9.9-1.71-2.51 0-4.75.48-6.64 1.41C3.01 18.34.5 23.59.5 31.51c0 6.82 1.76 12.84 5.23 17.89 3.69 5.36 9.04 9.13 15.49 10.92 4.96 1.37 9.68 2.15 14.02 2.34h.26c.2 0 .39-.04.59-.06.44.15.89.27 1.36.32 3.61.37 7.38.55 11.18.55 1.59 0 3.22-.03 4.84-.1.45-.02.89-.08 1.31-.2.31.05.64.08.96.08.12 0 .24 0 .36-.01 4.82-.28 9.76-.83 15.1-1.67a5.983 5.983 0 0 0 5.06-5.7c2.61 1.64 5.39 2.52 7.95 2.52 1.97 0 3.44-.35 4.51-.74 1.07.39 2.54.74 4.51.74 4.45 0 9.54-2.62 13.3-7.32.15.12.31.24.47.35.99.65 2.14.99 3.3.99.52 0 1.03-.07 1.54-.2 5.19-1.38 10.27-2.72 15.38-3.97.39-.09.75-.22 1.1-.39.39-.01.77-.07 1.16-.16 5.69-1.36 10.71-2.42 15.36-3.24a6.008 6.008 0 0 0 4.9-5.09v-.03c.34.77.84 1.46 1.48 2.03 1.11.99 2.54 1.53 4.01 1.53.22 0 .43-.01.65-.04 4.65-.5 8.98-.75 13.23-.75.83 0 1.66 0 2.49.03h.14c1.35 0 2.66-.46 3.71-1.29a6 6 0 0 0 3.63 1.75c4.63.47 9.19 1.3 13.54 2.46.41.11.82.17 1.23.2.36.2.75.36 1.15.48a83.9 83.9 0 0 1 13.55 5.4 6.009 6.009 0 0 0 5.84-.25 6.007 6.007 0 0 0 2.85-5.11V16.79c0-2.24-1.25-4.3-3.24-5.33Z" class="cls-2"/><path d="M48.64 63.99c-3.82 0-7.6-.19-11.23-.56-.43-.04-.87-.14-1.37-.31h-.07c-.25.04-.5.05-.75.04-4.38-.19-9.13-.99-14.13-2.36-6.55-1.82-12-5.66-15.76-11.12C1.79 44.55 0 38.43 0 31.51c0-8.13 2.61-13.53 7.76-16.04 1.97-.97 4.28-1.46 6.86-1.46 2.8 0 5.99.55 10.04 1.73 2.37.69 4.49 1.33 6.46 1.96l1.03.33c1.56.5 2.8.89 3.76 1.25.93-.33 1.91-.44 2.9-.32 4.81.56 9.94.75 15.07.59 6.07-.2 10.56.43 13.94 2.05-.75-1.95-.7-3.64-.5-4.78 1.28-7.24 10.19-9.24 15.41-9.29a7.822 7.822 0 0 1 6.42-3.34c4.33 0 7.85 3.52 7.85 7.85v2.7c.92.03 1.86.16 2.79.37.66-2.18 2.4-3.84 4.63-4.4l3.05-.77c3.48-.88 6.97-1.75 10.46-2.6a6.72 6.72 0 0 1 3.09 0c.03 0 .05-.01.08-.02 3.27-.78 6.24-1.45 9.06-2.06.17-.04.33-.06.5-.09a6.56 6.56 0 0 1 2.84-1.35c4.9-.99 9.38-1.76 13.68-2.36.3-.04.6-.06.89-.06h.13c.29-.09.62-.16.94-.2 6.5-.83 12.48-1.23 18.3-1.23 3.5 0 6.97.15 10.3.45.43.04.87.13 1.36.29h.05c.43-.06.87-.06 1.32 0 5.3.62 10.52 1.64 15.49 3.05.47.13.91.31 1.33.54.48.04.95.13 1.41.28a98.723 98.723 0 0 1 15.56 6.43 6.462 6.462 0 0 1 3.51 5.77v28.98a6.52 6.52 0 0 1-3.09 5.53c-1.89 1.16-4.35 1.27-6.33.28a84.21 84.21 0 0 0-13.47-5.37c-.4-.12-.78-.28-1.15-.47-.41-.03-.82-.1-1.22-.2a85.717 85.717 0 0 0-13.46-2.45 6.42 6.42 0 0 1-3.62-1.6 6.498 6.498 0 0 1-3.67 1.14h-.15c-5.07-.12-10.12.12-15.66.72-1.85.2-3.67-.4-5.04-1.62-.36-.32-.67-.68-.95-1.06a6.45 6.45 0 0 1-5.01 4.27c-4.64.82-9.66 1.88-15.33 3.23-.38.09-.77.15-1.15.17-.36.16-.73.29-1.11.38-5.08 1.24-10.17 2.59-15.37 3.97a6.54 6.54 0 0 1-5.24-.85c-.04-.03-.08-.05-.11-.08-3.69 4.41-8.78 7.14-13.39 7.14-1.63 0-3.15-.24-4.51-.7-1.36.47-2.88.7-4.51.7-2.44 0-5.03-.75-7.53-2.19-.16.96-.53 1.88-1.09 2.68a6.52 6.52 0 0 1-4.31 2.69c-5.36.84-10.32 1.39-15.15 1.67-.44.03-.89 0-1.33-.06-.43.11-.87.17-1.32.19-1.63.06-3.26.1-4.86.1Zm-12.55-1.87c.06 0 .11 0 .16.03.46.16.86.26 1.25.29 5.1.52 10.49.67 15.96.46.41-.02.81-.08 1.2-.18.07-.02.14-.02.21-.01.4.06.8.09 1.21.06 4.8-.28 9.72-.83 15.05-1.66 1.47-.23 2.8-1.06 3.65-2.27.61-.86.95-1.89.99-2.95 0-.18.11-.34.27-.42.16-.08.35-.08.5.02 2.55 1.6 5.21 2.44 7.68 2.44 1.59 0 3.05-.24 4.34-.71.11-.04.23-.04.34 0 1.3.47 2.76.71 4.34.71 4.44 0 9.39-2.73 12.91-7.14.08-.1.2-.17.34-.18.13-.01.26.02.37.11.14.11.28.22.43.32 1.3.85 2.94 1.12 4.44.72 5.21-1.38 10.3-2.73 15.39-3.98.35-.08.69-.2 1.01-.35.06-.03.13-.04.19-.05.35-.01.71-.06 1.06-.15 5.7-1.36 10.73-2.42 15.39-3.25a5.487 5.487 0 0 0 4.49-4.67.52.52 0 0 1 .43-.44c.22-.03.44.07.53.28.32.71.77 1.34 1.35 1.86a5.5 5.5 0 0 0 4.27 1.37c5.58-.61 10.68-.84 15.78-.72h.13c1.23 0 2.43-.42 3.4-1.18.2-.16.48-.14.66.04.92.92 2.07 1.48 3.33 1.6 4.66.47 9.24 1.31 13.61 2.48.37.1.75.16 1.13.18.07 0 .15.02.21.06.34.18.69.33 1.06.44 4.64 1.39 9.23 3.22 13.63 5.43 1.67.84 3.76.75 5.36-.23a5.535 5.535 0 0 0 2.61-4.68V16.82c0-2.07-1.14-3.94-2.97-4.89a97.625 97.625 0 0 0-15.4-6.36c-.42-.13-.85-.21-1.29-.24-.08 0-.15-.03-.21-.06-.38-.21-.79-.38-1.21-.5a98.762 98.762 0 0 0-15.33-3.02c-.36-.04-.72-.04-1.08 0l-.17.02c-.07 0-.14 0-.21-.02-.46-.15-.86-.24-1.24-.28-3.31-.3-6.74-.45-10.21-.45-5.77 0-11.71.4-18.17 1.22-.26.03-.54.1-.88.2-.05.02-.1.02-.15.02h-.1c-.32 0-.57.01-.82.05-4.29.59-8.74 1.36-13.62 2.35-.93.19-1.79.61-2.5 1.23-.08.07-.17.11-.27.12-.18.02-.37.05-.55.09-2.81.6-5.77 1.27-9.04 2.05l-.17.04a.57.57 0 0 1-.26 0 5.45 5.45 0 0 0-2.72-.03c-3.48.85-6.97 1.72-10.45 2.6l-3.05.77c-2.03.51-3.57 2.1-4.03 4.14a.5.5 0 0 1-.23.32c-.12.07-.26.09-.39.06-1.18-.31-2.36-.47-3.52-.47-.28 0-.5-.22-.5-.5v-3.19c0-3.78-3.07-6.85-6.85-6.85-2.32 0-4.46 1.17-5.74 3.12-.09.14-.27.22-.43.23-4.95 0-13.5 1.78-14.67 8.46-.21 1.17-.23 3 .83 5.1.08.16.07.34-.02.49l-.14.22c-.14.23-.44.31-.68.18-2.94-1.68-6.82-2.46-12.22-2.46-.69 0-1.41.01-2.15.04-5.18.16-10.36-.03-15.22-.6-.88-.1-1.77 0-2.61.33-.11.04-.24.04-.35 0-1.02-.38-2.28-.78-3.87-1.29l-1.05-.33c-1.97-.63-4.07-1.27-6.44-1.96-3.95-1.16-7.05-1.69-9.76-1.69-2.43 0-4.59.46-6.42 1.36-4.78 2.33-7.2 7.42-7.2 15.14 0 6.72 1.73 12.64 5.14 17.61 3.63 5.26 8.89 8.97 15.21 10.72 4.93 1.36 9.61 2.14 13.91 2.33.19 0 .39 0 .58-.02l.2-.02h.05Z"/><path d="M23.32 36.84v5.61c.59.16 1.18.32 1.77.47v-3.17c3.47.75 6.94 1.28 10.42 1.61v15.31c-3.15-.14-7.38-.67-12.69-2.14-5.31-1.47-9.36-4.51-12.14-8.54-2.78-4.05-4.17-8.96-4.17-14.49 0-5.54 1.37-8.86 4.1-10.2 2.74-1.35 6.81-.91 12.23.67 2.15.63 4.25 1.26 6.31 1.92 2.06.66 3.59 1.13 4.59 1.51.49.19.97.37 1.46.54v13.35c-3.96-.55-7.92-1.36-11.87-2.47Z" class="cls-4"/><path d="M35.5 57.17h-.02c-3.94-.17-8.24-.9-12.8-2.15-5.24-1.46-9.42-4.4-12.42-8.74C7.43 42.17 6 37.2 6 31.51s1.43-9.21 4.39-10.64c2.68-1.32 6.56-1.12 12.59.64 2.37.69 4.44 1.32 6.32 1.92l1 .32c1.55.49 2.77.88 3.62 1.2.48.19.97.37 1.45.54.2.07.33.26.33.47v13.35c0 .14-.06.28-.17.38-.11.09-.26.14-.4.12a91.19 91.19 0 0 1-11.3-2.31v4.57c.26.07.51.14.77.2v-2.52a.508.508 0 0 1 .61-.49c3.36.73 6.85 1.27 10.36 1.61.26.02.45.24.45.5v15.31c0 .14-.06.27-.15.36a.5.5 0 0 1-.35.14ZM14.61 21.02c-1.53 0-2.77.25-3.78.75C8.25 23.03 7 26.21 7 31.52s1.37 10.26 4.08 14.2c2.86 4.14 6.85 6.95 11.86 8.34 4.28 1.18 8.34 1.88 12.06 2.09V41.81c-3.19-.32-6.35-.81-9.42-1.45v2.55c0 .15-.07.3-.19.39-.12.1-.28.13-.43.09-.59-.15-1.18-.31-1.78-.47a.501.501 0 0 1-.37-.48v-5.61c0-.16.07-.3.2-.4.12-.1.28-.13.44-.08a92.21 92.21 0 0 0 11.24 2.37V26.29c-.38-.14-.76-.28-1.14-.43-.82-.31-2.03-.69-3.57-1.18l-1-.32c-1.88-.6-3.94-1.23-6.3-1.91-3.31-.97-5.97-1.45-8.08-1.45Z"/><path d="M53.25 48.24v9.16c-5.06.2-10.12.08-15.18-.43V25.42c5.34.62 10.68.8 16.02.63 5.27-.17 9.14.29 11.61 1.77 2.47 1.47 3.71 4.32 3.71 8.64 0 3.27-1.05 5.84-3.13 7.67 1.77 2.99 3.1 6.82 4.02 11.54-4.84.76-9.68 1.32-14.52 1.61-.24-3.03-.65-5.7-1.24-8-.1-.36-.21-.72-.31-1.07-.32.01-.65.03-.97.04Zm0-3.67c.43-.01.85-.03 1.28-.05.35-.02.65-.15.88-.4.23-.25.35-.58.35-.97v-2.72c0-.39-.12-.69-.35-.91-.24-.22-.53-.31-.88-.3-.43.02-.85.03-1.28.05v5.3Z" class="cls-4"/><path d="M48.68 57.99c-3.66 0-7.23-.18-10.67-.52a.508.508 0 0 1-.45-.5V25.42c0-.14.06-.28.17-.37.11-.09.25-.14.39-.12 5.06.59 10.43.8 15.95.63 5.69-.19 9.47.4 11.88 1.84 2.62 1.56 3.95 4.61 3.95 9.07 0 3.26-1.01 5.87-3 7.77 1.69 2.98 2.99 6.8 3.87 11.34.03.13 0 .27-.08.38-.08.11-.2.19-.33.21-5.16.81-9.93 1.34-14.57 1.61-.29 0-.51-.19-.53-.46-.23-2.99-.64-5.65-1.22-7.91l-.2-.68h-.1v8.68c0 .27-.21.49-.48.5-1.54.06-3.07.09-4.59.09Zm4.57-.59Zm-14.69-.89c4.53.44 9.3.57 14.18.4v-8.68c0-.27.21-.49.48-.5l.97-.04c.23-.03.44.14.5.36l.31 1.07c.56 2.21.97 4.76 1.21 7.61 4.3-.27 8.72-.76 13.47-1.49-.89-4.39-2.19-8.05-3.86-10.87a.503.503 0 0 1 .1-.63c1.97-1.72 2.96-4.18 2.96-7.29 0-4.14-1.13-6.83-3.46-8.21-2.24-1.34-5.85-1.88-11.34-1.7-5.36.17-10.59-.03-15.54-.57v30.54Zm14.69-11.44c-.13 0-.25-.05-.35-.14a.475.475 0 0 1-.15-.36v-5.3a.5.5 0 0 1 .49-.5c.42-.01.85-.03 1.27-.05.49-.01.91.13 1.24.43.34.31.52.74.52 1.28v2.72c0 .52-.16.96-.49 1.31-.33.35-.74.54-1.23.56-.43.02-.86.03-1.29.05h-.02Zm.5-5.32v4.3c.25 0 .51-.02.76-.03.22 0 .39-.09.54-.24.15-.16.22-.36.22-.63v-2.72c0-.37-.14-.5-.19-.54a.709.709 0 0 0-.53-.17l-.8.03Z"/><path d="M143.82 38.55c-5.24.92-10.48 2.06-15.71 3.31-.24-2.71-.47-5.43-.71-8.14-.31.07-.62.15-.93.22l-.66 8.48c-5.16 1.27-10.33 2.63-15.49 4-1.44-9.78-2.88-19.57-4.33-29.39 4.49-1.12 8.98-2.26 13.46-3.35.38 4.71.77 9.41 1.15 14.12.31-.08.62-.15.93-.23.35-4.63.71-9.27 1.06-13.9 2.97-.71 5.94-1.39 8.92-2.02.4 4.44.79 8.88 1.19 13.32l.97-.21c.37-4.85.74-9.69 1.1-14.53 4.43-.89 8.86-1.68 13.29-2.29-1.41 10.17-2.83 20.38-4.24 30.62Z" class="cls-4"/><path d="M110.32 46.92a.49.49 0 0 1-.49-.42c-1.44-9.78-2.88-19.57-4.33-29.39-.04-.25.12-.5.37-.56l2.91-.73c3.52-.88 7.04-1.77 10.56-2.62.14-.03.29 0 .41.08.12.09.19.22.21.36l1.1 13.53 1.03-13.54c.02-.22.17-.4.38-.45 3.26-.77 6.18-1.44 8.93-2.02.14-.03.29 0 .4.09.12.08.19.22.2.36l1.14 12.75h.05l1.08-14.17a.5.5 0 0 1 .4-.45c4.79-.97 9.15-1.72 13.32-2.3a.496.496 0 0 1 .56.56c-1.41 10.17-2.83 20.38-4.24 30.62-.03.21-.19.39-.41.42-4.76.84-9.89 1.92-15.68 3.31-.14.03-.29 0-.41-.08a.54.54 0 0 1-.21-.36l-.66-7.56-.63 8.12c-.02.21-.17.39-.38.45-5.09 1.25-10.23 2.6-15.48 4-.04.01-.09.02-.13.02Zm-3.77-29.52c1.39 9.48 2.79 18.95 4.18 28.39 4.95-1.32 9.8-2.59 14.61-3.78l.63-8.12c.02-.22.17-.4.38-.45l.93-.22c.14-.03.29 0 .41.08s.19.22.21.36l.66 7.56c5.44-1.29 10.3-2.31 14.82-3.12 1.37-9.9 2.73-19.77 4.1-29.61-3.84.55-7.85 1.24-12.23 2.12l-1.07 14.15c-.02.22-.18.4-.39.45l-.97.21c-.14.03-.29 0-.4-.09a.475.475 0 0 1-.2-.36l-1.14-12.75c-2.48.53-5.1 1.13-8 1.82l-1.03 13.53c-.02.22-.17.4-.38.45l-.93.23c-.14.04-.29 0-.41-.08a.54.54 0 0 1-.21-.37l-1.1-13.53c-3.33.81-6.65 1.65-9.98 2.48l-2.47.62Zm37.27 21.15Z"/><path d="M149.96 20.27V7.68c9.06-1.16 18.13-1.57 27.19-.75v12.42c-1.8-.15-3.59-.25-5.39-.31v17.12c-5.5-.13-11.01.16-16.51.75V19.65c-1.77.18-3.53.38-5.3.62Z" class="cls-4"/><path d="M155.26 37.41a.46.46 0 0 1-.33-.13.48.48 0 0 1-.17-.37V20.2c-1.55.16-3.14.35-4.73.56a.5.5 0 0 1-.57-.5V7.68c0-.25.19-.46.44-.5 9.94-1.27 18.87-1.51 27.3-.75.26.02.46.24.46.5v12.42c0 .14-.06.27-.16.37a.52.52 0 0 1-.38.13c-1.58-.13-3.21-.23-4.84-.29v16.6c0 .13-.05.26-.15.36-.1.09-.22.15-.36.14-5.25-.12-10.63.12-16.44.75h-.05Zm0-18.26c.12 0 .24.05.34.13.1.09.16.23.16.37v16.7c5.46-.57 10.54-.81 15.51-.71V19.03a.497.497 0 0 1 .51-.5c1.64.05 3.27.14 4.87.27V7.39c-8.1-.69-16.67-.45-26.19.73V19.7c1.61-.21 3.2-.39 4.75-.55h.05Z"/><path d="M196.75 23.99V10.81c4.84 1.52 9.68 3.5 14.52 6v28.98A89.622 89.622 0 0 0 196.75 40v-9.85c-.85-.26-1.71-.51-2.56-.74v9.86a91.864 91.864 0 0 0-14.48-2.63V7.19c4.83.56 9.65 1.49 14.48 2.85v13.2c.85.23 1.71.48 2.56.75Z" class="cls-4"/><path d="M211.27 46.29c-.08 0-.15-.02-.22-.05a89.932 89.932 0 0 0-14.44-5.75.504.504 0 0 1-.36-.48v-9.47c-.52-.16-1.04-.31-1.56-.45v9.2c0 .16-.07.3-.2.4-.12.09-.28.13-.43.09a91.694 91.694 0 0 0-14.4-2.62.508.508 0 0 1-.45-.5V7.19c0-.14.06-.28.17-.37.11-.09.25-.14.39-.12 4.98.58 9.87 1.54 14.56 2.86.22.06.36.26.36.48v12.82l1.56.45V10.8c0-.16.08-.31.2-.4.13-.09.3-.12.45-.07a91.69 91.69 0 0 1 14.6 6.03c.17.09.27.26.27.44v28.98c0 .17-.09.33-.24.43-.08.05-.17.07-.26.07Zm-14.02-6.66c4.59 1.4 9.14 3.2 13.52 5.35V17.11a89.98 89.98 0 0 0-13.52-5.62v12.5c0 .16-.08.31-.2.4-.13.09-.29.12-.44.08-.85-.26-1.7-.51-2.55-.74a.501.501 0 0 1-.37-.48V10.43c-4.34-1.2-8.87-2.1-13.48-2.66v28.44c4.6.49 9.13 1.31 13.48 2.44v-9.21c0-.16.07-.3.2-.4.12-.09.28-.12.43-.08.86.23 1.72.48 2.58.74.21.06.35.26.35.48v9.47Z"/><path d="M89.14 10.7c.75 0 1.35.61 1.35 1.35v21.38h-2.7V12.05c0-.75.61-1.35 1.35-1.35Z" class="cls-4"/><path d="M90.5 33.93h-2.7c-.28 0-.5-.22-.5-.5V12.05c0-1.02.83-1.85 1.85-1.85s1.85.83 1.85 1.85v21.38c0 .28-.22.5-.5.5Zm-2.21-1h1.7V12.05a.85.85 0 1 0-1.7 0v20.88Z"/><path d="M96.47 21.24c-3.76 0-5.73.67-7.73.67s-3.88-.67-7.64-.67c-7.91 0-10.95 9.85-9.24 18s7.94 13.17 12.36 13.17c2.98 0 3.43-1.17 4.51-1.17s1.53 1.17 4.51 1.17c4.42 0 10.66-5.03 12.36-13.17s-1.23-18-9.14-18Z" style="fill:#ff5b2b"/><path d="M93.25 52.91c-1.98 0-2.93-.5-3.62-.86-.73-.38-1.05-.38-1.78 0-.69.36-1.64.86-3.62.86-4.83 0-11.15-5.45-12.85-13.57-1.2-5.71-.11-11.69 2.78-15.23 1.79-2.2 4.19-3.37 6.96-3.37 2.21 0 3.81.23 5.1.42 1.86.27 3.22.27 5.11 0 1.31-.19 2.94-.42 5.15-.42 2.74 0 5.13 1.15 6.89 3.33 2.87 3.53 3.94 9.53 2.74 15.27-1.7 8.12-8.02 13.57-12.85 13.57Zm-4.52-2.17c.53 0 .93.21 1.35.43.63.33 1.42.74 3.16.74 4.44 0 10.27-5.13 11.87-12.78 1.13-5.38.11-11.19-2.53-14.44-1.59-1.96-3.65-2.96-6.12-2.96-2.14 0-3.67.22-5.01.41-.99.14-1.84.26-2.72.26s-1.72-.12-2.68-.26c-1.32-.19-2.81-.41-4.96-.41-2.49 0-4.56 1.01-6.18 3-2.66 3.27-3.69 9.06-2.57 14.4 1.6 7.64 7.43 12.78 11.87 12.78 1.74 0 2.52-.41 3.16-.74.42-.22.82-.43 1.35-.43Z"/><path d="M83.35 32.4c0-1.02.82-1.84 1.84-1.84s1.84.83 1.84 1.84v3.69c0 1.02-.82 1.84-1.84 1.84s-1.84-.83-1.84-1.84V32.4Z" class="cls-2"/><path d="M85.19 38.43c-1.29 0-2.34-1.05-2.34-2.34V32.4c0-1.29 1.05-2.34 2.34-2.34s2.34 1.05 2.34 2.34v3.69c0 1.29-1.05 2.34-2.34 2.34Zm0-7.38c-.74 0-1.34.6-1.34 1.34v3.69a1.34 1.34 0 0 0 2.68 0v-3.69c0-.74-.6-1.34-1.34-1.34Z"/><path d="M83.3 32.03c0-.68.55-1.23 1.22-1.23s1.22.55 1.22 1.23v.58l-1.22.64 1.22.62v.61c0 .68-.55 1.23-1.22 1.23s-1.22-.55-1.22-1.23v-2.45Z"/><path d="M90.46 32.4c0-1.02.82-1.84 1.84-1.84s1.84.83 1.84 1.84v3.69c0 1.02-.82 1.84-1.84 1.84s-1.84-.83-1.84-1.84V32.4Z" class="cls-2"/><path d="M92.3 38.43c-1.29 0-2.34-1.05-2.34-2.34V32.4c0-1.29 1.05-2.34 2.34-2.34s2.34 1.05 2.34 2.34v3.69c0 1.29-1.05 2.34-2.34 2.34Zm0-7.38c-.74 0-1.34.6-1.34 1.34v3.69a1.34 1.34 0 0 0 2.68 0v-3.69c0-.74-.6-1.34-1.34-1.34Z"/><path d="M90.41 32.03c0-.68.55-1.23 1.22-1.23s1.22.55 1.22 1.23v.58l-1.22.64 1.22.62v.61c0 .68-.55 1.23-1.22 1.23s-1.22-.55-1.22-1.23v-2.45Zm-3.39-1.51c-.28 0-.5-.22-.5-.5a1.34 1.34 0 0 0-2.68 0c0 .28-.22.5-.5.5s-.5-.22-.5-.5c0-1.29 1.05-2.34 2.34-2.34s2.34 1.05 2.34 2.34c0 .28-.22.5-.5.5Zm7.09.16c-.28 0-.5-.22-.5-.5a1.34 1.34 0 0 0-2.68 0c0 .28-.22.5-.5.5s-.5-.22-.5-.5c0-1.29 1.05-2.34 2.34-2.34s2.34 1.05 2.34 2.34c0 .28-.22.5-.5.5Z"/><ellipse cx="80.79" cy="38.77" class="cls-1" rx="1.72" ry="1.28"/><path d="M80.79 40.55c-1.25 0-2.22-.78-2.22-1.78s.98-1.79 2.22-1.79 2.22.78 2.22 1.79-.98 1.78-2.22 1.78Zm0-2.57c-.65 0-1.22.37-1.22.79s.57.78 1.22.78 1.22-.37 1.22-.78-.57-.79-1.22-.79Z"/><path d="M98.41 38.77c0 .71-.77 1.28-1.72 1.28s-1.72-.58-1.72-1.28.77-1.28 1.72-1.28 1.72.58 1.72 1.28Z" class="cls-1"/><path d="M96.68 40.55c-1.25 0-2.22-.78-2.22-1.78s.98-1.79 2.22-1.79 2.22.78 2.22 1.79-1 1.78-2.22 1.78Zm0-2.57c-.65 0-1.22.37-1.22.79s.57.78 1.22.78 1.22-.37 1.22-.78-.57-.79-1.22-.79Z"/><path d="M88.74 43.64a8.44 8.44 0 0 1-7-3.73.498.498 0 0 1 .83-.55c1.39 2.06 3.7 3.29 6.17 3.29s4.78-1.23 6.17-3.29a.498.498 0 0 1 .83.55 8.429 8.429 0 0 1-7 3.73Z"/><path d="M84.51 14.16c3.05.54 5.09 3.45 4.55 6.5a5.612 5.612 0 0 1-6.5 4.55c-3.05-.54-9.37-4.21-8.84-7.26.54-3.05 7.73-4.34 10.79-3.8Z" class="cls-4"/><path d="M83.54 25.8c-.36 0-.72-.03-1.08-.09-1.68-.3-4.08-1.41-5.97-2.77-2.38-1.72-3.54-3.52-3.27-5.06.61-3.48 8.29-4.74 11.36-4.2 1.61.28 3.01 1.18 3.95 2.51.94 1.34 1.3 2.96 1.01 4.57s-1.18 3.01-2.51 3.95a6.053 6.053 0 0 1-3.49 1.11Zm-.6-11.26c-3.28 0-8.34 1.28-8.73 3.5-.2 1.13.85 2.62 2.87 4.08 1.75 1.26 4.04 2.33 5.56 2.6 2.77.49 5.43-1.37 5.92-4.15a5.113 5.113 0 0 0-4.15-5.92c-.42-.07-.92-.11-1.47-.11Z"/><path d="M89.06 21.16h-.09l-15.29-2.7a.514.514 0 0 1-.41-.58.5.5 0 0 1 .58-.41l15.29 2.7c.27.05.45.31.41.58-.04.24-.25.41-.49.41Z"/><path d="M82.56 25.71c-.13 0-.26-.05-.36-.15a.513.513 0 0 1 0-.71l4.95-4.83c.2-.19.52-.19.71 0 .19.2.19.51 0 .71l-4.95 4.83c-.1.09-.22.14-.35.14Zm-6.38-3.15c-.13 0-.26-.05-.36-.15a.513.513 0 0 1 0-.71l3.14-3.12c.2-.19.51-.19.71 0 .19.2.19.51 0 .71l-3.14 3.12c-.1.1-.22.14-.35.14Zm7.24-2.39c-.19 0-.37-.11-.45-.29l-2.59-5.49a.49.49 0 0 1 .24-.66.49.49 0 0 1 .66.24l2.59 5.49c.12.25.01.55-.24.66-.07.03-.14.05-.21.05Z"/></g></svg>