<svg xmlns="http://www.w3.org/2000/svg" id="Layer_2" data-name="Layer 2" viewBox="0 0 143.58 121.51"><defs><clipPath id="clippath"><path d="M49.41 45.34c-12.48 4.72 6 46.59 16.4 42.66 10.4-3.93-3.46-47.55-16.4-42.66Z" style="fill:none"/></clipPath><style>.cls-2{fill:#ffd70e}.cls-5{fill:#00a5da}.cls-6{fill:#fff}</style></defs><g id="OBJECTS"><path d="M142.71 73.65c.62-1.16.91-2.46.86-3.78-.13-3.2-.39-6.43-.77-9.61a7.35 7.35 0 0 0-2.77-4.94c-1.56-1.23-3.49-1.78-5.45-1.53l-12.88 1.53c-.31.04-.62.09-.92.17-.69.17-1.35.45-1.98.83-1.3-.28-2.64-.33-3.98-.17l-.31.04c.64-.4 1.24-.83 1.8-1.31.62 0 1.18-.07 1.68-.2.29-.07.57-.16.86-.27l5.7-2.18c.64-.25 1.25-.58 1.8-.99a7.331 7.331 0 0 0 1.99-.46l5.69-2.18c3.81-1.46 5.73-5.75 4.27-9.56a125.065 125.065 0 0 0-17.56-31.41 7.314 7.314 0 0 0-4.91-2.83 7.461 7.461 0 0 0-5.48 1.47l-4.84 3.71c-.55.42-1.03.91-1.44 1.46-.64.25-1.23.59-1.78 1.01l-4.84 3.71c-.56.43-1.05.94-1.47 1.52-.34.13-.67.26-.99.41-1.29.59-2.55 1.37-3.85 2.38-2.04 1.58-3.64 3.47-4.78 5.61-.37.03-.72.09-1.04.17-.99.25-1.9.69-2.72 1.31l-2.31 1.77c.08-.69.07-1.39-.05-2.07a7.436 7.436 0 0 0-3.27-5.01l-6.6-4.28c-1.74-1.13-3.84-1.47-5.9-.95a7.411 7.411 0 0 0-4.68 3.72l-9.63 18.37c-.37.71-.62 1.49-.74 2.32-.07.02-.14.03-.22.05-.57.14-1.15.32-1.72.54-3.65 1.38-6.47 4-8.18 7.59-10.04 7.13-27.7 19.74-34.08 24.62C.45 77.88-.5 84.61 2.61 92.71c1 2.61 3.87 8.93 9.01 11.71 4.37 10.2 5.25 11.72 5.58 12.29 1.76 3.06 5.12 4.82 9.21 4.82 1.29 0 2.64-.17 4-.51 6.12-1.53 9.71-5.83 9.13-10.96-.1-.87-.24-2.18-2.07-6.35 7.87-.79 16.37-1.66 22.38-2.28 1.98.86 4 1.27 6.01 1.24 1-.02 2.01-.15 2.99-.39.52-.13 1.03-.29 1.51-.47.2-.08.4-.16.6-.25.04.02.08.05.12.07l18.38 9.61a7.382 7.382 0 0 0 5.97.39 7.404 7.404 0 0 0 4.31-4.15l2.99-7.28c.43-1.04.61-2.18.53-3.31.08 0 .15 0 .23.01.25.08.49.15.75.2l9.58 1.65c1.31.23 2.64.25 3.94.05.85.56 1.79.93 2.79 1.11l12.79 2.2a7.365 7.365 0 0 0 5.53-1.25 7.302 7.302 0 0 0 3.02-4.79c.55-3.19.98-6.45 1.28-9.69a7.39 7.39 0 0 0-.67-3.82c.18-2.93.26-5.92.23-8.88Z"/><path d="m133.39 49.55-12.88 1.53c-.27.03-.53.08-.79.14-.73.18-1.42.5-2.04.92a11.16 11.16 0 0 0-4.05-.25l-9.56 1.14c-.27.03-.53.08-.79.15-.03 0-.05.02-.08.03-.29 0-.58 0-.88.04l-.21.02c.22-.24.43-.5.61-.77 1.68.16 3.41.04 5.13-.39.64-.16 1.3-.37 1.96-.61 1.88-.71 3.49-1.68 4.81-2.86.61.02 1.22-.02 1.81-.17.25-.06.5-.14.74-.23l5.69-2.18c.66-.25 1.26-.61 1.78-1.03.43-.02.85-.08 1.27-.18.25-.06.5-.14.74-.23l5.69-2.18c3.3-1.26 4.96-4.97 3.69-8.27a124.192 124.192 0 0 0-17.42-31.16 6.376 6.376 0 0 0-4.24-2.45c-.8-.11-1.61-.06-2.39.13-.84.21-1.64.59-2.35 1.13l-4.84 3.71c-.56.43-1.03.94-1.41 1.5-.65.22-1.26.55-1.81.97l-4.84 3.71c-.58.45-1.06.98-1.44 1.56-.41.14-.82.31-1.21.49-1.22.56-2.41 1.29-3.65 2.26-2.11 1.64-3.7 3.6-4.77 5.79-.48 0-.96.05-1.43.17-.84.21-1.64.59-2.35 1.13l-4.84 3.71c-.12.09-.23.19-.34.29a6.392 6.392 0 0 0 1.23-4.93 6.387 6.387 0 0 0-2.83-4.33l-6.6-4.28a6.376 6.376 0 0 0-5.03-.84c-.02 0-.05.01-.07.02a6.448 6.448 0 0 0-4.05 3.22l-9.63 18.37c-.45.86-.66 1.78-.7 2.69-.3.05-.6.11-.9.18-.54.13-1.08.3-1.61.5-3.51 1.33-6.15 3.84-7.74 7.32C28.02 52.67 10.79 64.97 4.5 69.79.11 73.15-.72 79.47 2.21 87.12c1.77 4.6 4.84 9.33 8.86 11.35 4.48 10.46 5.36 11.99 5.67 12.52 2.13 3.7 6.77 5.16 12.11 3.83 5.61-1.4 8.9-5.27 8.38-9.88-.1-.87-.25-2.27-2.55-7.32 8.36-.84 17.65-1.79 24.02-2.44 1.92.87 3.87 1.3 5.83 1.26.93-.02 1.86-.14 2.76-.36.47-.12.94-.26 1.4-.44.36-.14.7-.29 1.04-.45.17.11.32.23.5.32l18.38 9.61c1.39.73 3 .92 4.51.54.22-.05.44-.12.65-.2a6.405 6.405 0 0 0 3.73-3.59l2.98-7.28c.54-1.32.61-2.76.25-4.11l.62.11c.32.05.64.08.96.08.26.08.51.17.78.22l9.58 1.65c1.37.24 2.72.22 4.01-.01.78.58 1.7 1 2.73 1.17l12.79 2.2c.88.15 1.78.12 2.63-.1.76-.19 1.49-.52 2.15-.98a6.405 6.405 0 0 0 2.62-4.14c.55-3.17.97-6.41 1.27-9.61.12-1.26-.14-2.48-.69-3.53.2-3.09.28-6.23.24-9.34.6-1.02.92-2.22.86-3.49-.13-3.18-.39-6.38-.76-9.53a6.363 6.363 0 0 0-2.4-4.27 6.406 6.406 0 0 0-4.72-1.33Z" class="cls-6"/><path d="M25.1 115.79c-3.88 0-7.08-1.61-8.78-4.57-.33-.57-1.19-2.07-5.62-12.4-5.09-2.65-7.94-8.93-8.94-11.53-3.02-7.87-2.13-14.4 2.45-17.9 6.38-4.88 24.1-17.53 34.17-24.69 1.64-3.53 4.39-6.11 7.96-7.46.55-.21 1.11-.38 1.66-.52.18-.05.37-.08.55-.12.09-.9.33-1.74.73-2.5l9.63-18.37c.9-1.72 2.49-2.98 4.36-3.47 1.93-.48 3.91-.15 5.51.89l6.6 4.28a6.912 6.912 0 0 1 2.82 7.88l3.38-2.59c.75-.58 1.61-.99 2.53-1.22.37-.09.78-.15 1.24-.17 1.11-2.18 2.72-4.09 4.77-5.69 1.27-.99 2.5-1.74 3.75-2.32.36-.17.73-.32 1.1-.45.41-.59.9-1.11 1.46-1.54l4.84-3.71c.55-.42 1.15-.75 1.79-.99.4-.56.88-1.05 1.43-1.48l4.84-3.71c.76-.58 1.61-.99 2.53-1.22a6.887 6.887 0 0 1 7.15 2.49 124.53 124.53 0 0 1 17.49 31.28 6.904 6.904 0 0 1-3.98 8.91l-5.69 2.18a7.13 7.13 0 0 1-2 .44c-.54.42-1.14.76-1.79 1.01l-5.69 2.18c-.26.1-.53.18-.8.25-.54.13-1.13.19-1.75.19-1.24 1.08-2.69 1.96-4.33 2.63l3.09-.37c1.36-.16 2.71-.09 4.01.21a6.85 6.85 0 0 1 2.86-1.03l12.88-1.53c1.83-.22 3.64.29 5.09 1.43a6.873 6.873 0 0 1 2.59 4.61c.38 3.16.63 6.38.76 9.57.05 1.27-.25 2.53-.86 3.64.03 3.03-.04 6.09-.23 9.1.56 1.14.79 2.41.68 3.68-.3 3.22-.72 6.47-1.27 9.65a6.985 6.985 0 0 1-2.82 4.47c-.7.5-1.48.85-2.31 1.06-.94.23-1.89.27-2.84.1l-12.79-2.2c-1-.17-1.93-.55-2.76-1.14-1.31.21-2.65.21-3.98-.02l-9.58-1.65a4.98 4.98 0 0 1-.69-.18l-.08-.03c-.32 0-.59-.03-.85-.07.19 1.24.05 2.53-.42 3.68l-2.98 7.28c-.73 1.79-2.2 3.2-4.02 3.87-.23.08-.46.15-.7.21-1.64.41-3.37.2-4.87-.58L70 95.93c-.11-.06-.21-.12-.31-.19-.27.12-.54.24-.82.35-.48.18-.96.33-1.45.46-.94.23-1.91.36-2.88.38-1.96.03-3.97-.39-5.92-1.25-6.19.63-15.08 1.54-23.19 2.36 2.06 4.61 2.21 5.94 2.31 6.83.55 4.87-2.89 8.96-8.76 10.42-1.34.33-2.65.5-3.88.5ZM65.02 13.04c-.48 0-.95.06-1.42.17-1.67.44-3.03 1.52-3.8 2.99l-9.63 18.37c-.39.74-.61 1.58-.65 2.48a.5.5 0 0 1-.41.47c-.29.05-.58.1-.87.17-.52.13-1.04.29-1.55.49-3.36 1.27-5.93 3.71-7.46 7.06a.47.47 0 0 1-.17.2C29.01 52.58 11.19 65.3 4.81 70.19.61 73.4-.16 79.51 2.69 86.94c2.04 5.32 5.18 9.36 8.61 11.08.11.05.19.14.24.25 4.47 10.43 5.35 11.96 5.64 12.46 2.01 3.5 6.44 4.87 11.55 3.6 5.35-1.33 8.49-5 8.01-9.34-.09-.82-.25-2.19-2.51-7.17a.505.505 0 0 1 .4-.71c8.36-.84 17.65-1.79 24.02-2.44.08-.01.18 0 .26.04 1.85.84 3.74 1.25 5.61 1.22.89-.01 1.78-.13 2.65-.35.45-.11.9-.25 1.34-.42.34-.13.67-.28 1-.44.16-.07.34-.06.49.03l.18.12c.09.06.18.13.28.18l18.38 9.61c1.28.67 2.76.85 4.16.5.2-.05.4-.11.6-.18a5.905 5.905 0 0 0 3.44-3.31l2.98-7.28c.49-1.19.57-2.54.23-3.79-.05-.17 0-.34.11-.47a.51.51 0 0 1 .45-.16l.62.11c.26.05.54.07.88.08.05 0 .09 0 .14.02l.16.05c.19.06.37.12.56.15l9.58 1.65c1.28.22 2.57.22 3.84-.01.14-.02.28 0 .39.09.75.56 1.6.92 2.51 1.08l12.79 2.2c.81.14 1.63.11 2.43-.09.71-.18 1.38-.48 1.98-.91 1.27-.9 2.15-2.29 2.41-3.82.54-3.16.97-6.38 1.26-9.58.1-1.13-.11-2.25-.63-3.25a.583.583 0 0 1-.06-.26c.2-3.08.28-6.21.24-9.3 0-.09.02-.18.07-.26.57-.97.84-2.08.8-3.21-.13-3.16-.39-6.36-.76-9.49a5.852 5.852 0 0 0-2.21-3.94 5.911 5.911 0 0 0-4.35-1.22l-12.88 1.53c-.25.03-.49.07-.73.13-.66.16-1.29.45-1.88.85-.12.08-.26.11-.4.07-1.25-.32-2.55-.4-3.87-.24l-9.56 1.14c-.25.03-.49.08-.73.13-.04.01-.16.04-.21.04-.08-.03-.1 0-.16 0-.22 0-.44 0-.66.03l-.21.02a.47.47 0 0 1-.5-.27c-.1-.19-.06-.41.08-.57.21-.23.4-.47.56-.71.1-.15.28-.23.46-.22 1.67.16 3.34.03 4.97-.38.63-.16 1.27-.36 1.9-.59 1.79-.68 3.36-1.61 4.65-2.77.1-.09.21-.13.35-.13.6.03 1.16-.03 1.67-.15.23-.06.46-.13.68-.21l5.69-2.18c.6-.23 1.15-.55 1.64-.95.08-.07.19-.11.3-.11.39-.02.79-.07 1.17-.17.23-.06.46-.13.68-.21l5.69-2.18a5.898 5.898 0 0 0 3.4-7.62 123.656 123.656 0 0 0-17.35-31.03 5.887 5.887 0 0 0-3.91-2.26c-.74-.1-1.48-.06-2.2.12-.79.2-1.52.55-2.17 1.04l-4.84 3.71c-.51.39-.95.86-1.3 1.38a.47.47 0 0 1-.25.19c-.6.21-1.16.51-1.67.9l-4.84 3.71c-.52.39-.96.88-1.33 1.44-.06.09-.15.16-.25.2-.4.14-.79.3-1.17.47-1.18.54-2.35 1.26-3.56 2.2-2.02 1.57-3.58 3.46-4.62 5.61-.08.17-.25.28-.44.28-.51 0-.94.06-1.32.16-.79.2-1.52.55-2.17 1.04l-4.84 3.71c-.09.07-.18.15-.27.23-.19.17-.51.19-.7.01-.19-.18-.24-.44-.08-.65.99-1.29 1.4-2.95 1.14-4.54a5.919 5.919 0 0 0-2.61-3.99l-6.6-4.28c-.96-.62-2.09-.95-3.22-.95Z"/><path d="M14.91 91.08s6.05 14.37 7.39 16.69 8.89.63 8.58-2.14c-.31-2.77-6.99-15.4-6.99-15.4l-8.98.85Z" style="fill:#ff991e"/><path d="M25.15 109.37c-1.45 0-2.73-.4-3.28-1.34-1.34-2.32-7.17-16.16-7.42-16.75a.51.51 0 0 1 .03-.45.47.47 0 0 1 .38-.24l8.98-.85c.2-.01.39.09.49.26.27.52 6.73 12.75 7.05 15.58.15 1.35-1.07 2.58-3.25 3.29-.95.31-2 .49-2.97.49Zm-9.51-17.85c1.18 2.79 5.95 14.01 7.1 16.01.54.94 2.87 1.13 5.07.4 1.65-.54 2.66-1.42 2.57-2.23-.24-2.14-4.83-11.23-6.78-14.93l-7.96.75Z"/><path d="M74.88 57.57c-2-5.23-4.76-10.19-8.23-14.71 1.61-1.24 3.23-2.47 4.84-3.71a68.53 68.53 0 0 1 3.5 5.03c1.15-.72 2.29-1.44 3.44-2.15a71.873 71.873 0 0 0-3.71-5.35c1.61-1.24 3.23-2.47 4.84-3.71a75.153 75.153 0 0 1 10.51 18.79c-1.9.73-3.8 1.45-5.69 2.18-.77-2-1.62-3.97-2.58-5.89-1.21.6-2.42 1.2-3.64 1.8.9 1.81 1.7 3.66 2.42 5.54-1.9.73-3.8 1.45-5.69 2.18Z" class="cls-5"/><path d="M74.88 58.07c-.07 0-.14-.01-.2-.04a.452.452 0 0 1-.26-.28c-2-5.23-4.75-10.14-8.16-14.59a.496.496 0 0 1 .09-.7l4.84-3.71a.5.5 0 0 1 .37-.1c.13.02.25.09.33.19a64.54 64.54 0 0 1 3.25 4.65l2.59-1.62a70.027 70.027 0 0 0-3.42-4.89.5.5 0 0 1-.1-.37.53.53 0 0 1 .19-.33l4.84-3.71c.22-.17.53-.13.7.09a75.467 75.467 0 0 1 10.58 18.92c.1.26-.03.55-.29.65l-5.69 2.18c-.26.1-.55-.03-.65-.29-.7-1.83-1.49-3.64-2.34-5.4l-2.74 1.35c.81 1.68 1.56 3.4 2.22 5.14.1.26-.03.55-.29.65l-5.69 2.18c-.06.02-.12.03-.18.03Zm-7.53-15.12c3.23 4.28 5.85 8.98 7.81 13.97l4.76-1.82a61.21 61.21 0 0 0-2.23-5.04.504.504 0 0 1-.03-.38.48.48 0 0 1 .25-.29l3.64-1.8a.5.5 0 0 1 .67.23c.88 1.78 1.69 3.61 2.42 5.47l4.76-1.82a74.067 74.067 0 0 0-9.95-17.8l-4.05 3.1c1.21 1.61 2.37 3.28 3.44 4.99.15.23.08.54-.16.69l-3.44 2.15c-.23.15-.54.08-.69-.16-.98-1.57-2.05-3.12-3.17-4.6l-4.05 3.1Z"/><path d="M91.7 51.13a76.495 76.495 0 0 0-10.76-19.24c1.61-1.24 3.23-2.47 4.84-3.71 4.9 6.39 8.79 13.39 11.61 20.77-1.9.73-3.8 1.45-5.69 2.18Z" class="cls-5"/><path d="M91.7 51.63c-.07 0-.14-.01-.2-.04a.452.452 0 0 1-.26-.28A76.051 76.051 0 0 0 80.55 32.2a.496.496 0 0 1 .09-.7l4.84-3.71a.5.5 0 0 1 .37-.1c.13.02.25.09.33.19 4.88 6.37 8.81 13.4 11.68 20.89.1.26-.03.55-.29.65l-5.69 2.18c-.06.02-.12.03-.18.03ZM81.65 31.99a76.716 76.716 0 0 1 10.34 18.5l4.76-1.82a82.294 82.294 0 0 0-11.06-19.78l-4.05 3.1Z"/><path d="M107.55 45.51c-2.87 1.08-5.44.83-7.76-.52-2.34-1.36-4.32-3.82-6.31-7.41-2-3.58-3.05-6.61-2.94-9.39.11-2.76 1.31-5.17 3.83-7.13.82-.64 1.62-1.14 2.4-1.49a7.5 7.5 0 0 1 2.52-.66c1.85 2.46 3.58 5 5.19 7.6a6.88 6.88 0 0 0-2.57.33c-.77.27-1.52.63-2.22 1.08-.99.63-1.6 1.48-1.86 2.52-.25 1.04.13 2.39 1.09 4.11.96 1.72 1.8 2.79 2.63 3.22.82.42 1.69.42 2.61-.03.48-.23.89-.54 1.23-.93-.24-.49-.49-.99-.74-1.48l-2.4 1.23a87.74 87.74 0 0 0-2.92-5.27c2.21-1.32 4.43-2.64 6.64-3.96 2.55 4.27 4.77 8.71 6.64 13.28-.36.95-.94 1.87-1.74 2.77-.8.9-1.91 1.6-3.31 2.13Z" class="cls-5"/><path d="M104.08 46.68c-1.58 0-3.1-.42-4.54-1.26-2.29-1.34-4.36-3.75-6.5-7.6-2.15-3.85-3.11-6.92-3-9.65.12-2.99 1.47-5.52 4.03-7.5.86-.67 1.7-1.19 2.49-1.55.84-.38 1.74-.62 2.68-.71.17-.01.34.06.44.2 1.85 2.46 3.6 5.03 5.21 7.63.1.16.1.36 0 .52-.09.16-.27.27-.46.24-.86-.04-1.66.06-2.38.31s-1.44.6-2.12 1.03c-.87.56-1.41 1.28-1.64 2.22-.22.88.12 2.11 1.04 3.74.93 1.67 1.72 2.66 2.42 3.01.69.35 1.4.34 2.17-.03.32-.15.6-.35.84-.57-.12-.24-.24-.47-.35-.71l-1.95 1a.5.5 0 0 1-.38.03.48.48 0 0 1-.29-.25c-.9-1.77-1.88-3.53-2.9-5.24a.513.513 0 0 1 .17-.69l6.64-3.96a.5.5 0 0 1 .68.17c2.54 4.26 4.79 8.75 6.67 13.35.05.12.05.25 0 .37-.38 1-1 1.99-1.84 2.93-.84.94-2.02 1.71-3.51 2.26-1.25.47-2.46.7-3.65.7Zm-5.03-27.24c-.73.09-1.43.29-2.08.59-.73.33-1.5.82-2.3 1.44-2.34 1.82-3.54 4.03-3.64 6.75-.1 2.54.82 5.44 2.88 9.12 2.05 3.69 4 5.98 6.13 7.22 2.28 1.32 4.67 1.48 7.33.48 1.33-.5 2.38-1.17 3.12-2 .71-.79 1.24-1.61 1.58-2.44-1.79-4.33-3.9-8.57-6.27-12.6l-5.79 3.45c.85 1.45 1.68 2.94 2.45 4.43l1.96-1c.25-.13.55-.03.67.22.25.49.5.99.74 1.49.09.18.06.4-.07.55-.37.43-.84.78-1.39 1.05-1.06.51-2.09.52-3.06.02-.89-.45-1.79-1.54-2.84-3.42-1.06-1.89-1.42-3.31-1.14-4.47.29-1.18.99-2.13 2.07-2.82.75-.48 1.53-.86 2.33-1.13.57-.2 1.19-.32 1.83-.36a98.04 98.04 0 0 0-4.52-6.57Zm8.5 26.07Z"/><path d="M114.88 42.26a101.31 101.31 0 0 0-14.24-25.47c1.61-1.24 3.23-2.47 4.84-3.71 2.08 2.71 4.01 5.5 5.81 8.37 1.15-.72 2.29-1.44 3.44-2.15-1.86-2.98-3.87-5.87-6.03-8.68 1.61-1.24 3.23-2.47 4.84-3.71 6.97 9.09 12.51 19.05 16.52 29.55-1.9.73-3.8 1.45-5.69 2.18-1.24-3.25-2.64-6.44-4.18-9.56-1.21.6-2.42 1.2-3.64 1.8 1.49 3.01 2.83 6.09 4.03 9.22l-5.69 2.18Z" class="cls-5"/><path d="M114.88 42.76c-.07 0-.14-.01-.2-.04a.452.452 0 0 1-.26-.28c-3.48-9.09-8.25-17.62-14.17-25.34a.5.5 0 0 1-.1-.37.53.53 0 0 1 .19-.33l4.84-3.71c.22-.17.53-.12.7.09 1.97 2.57 3.84 5.25 5.57 7.98l2.59-1.62c-1.78-2.82-3.71-5.58-5.74-8.22a.496.496 0 0 1 .09-.7l4.84-3.71c.1-.08.24-.11.37-.1.13.02.25.09.33.19 6.94 9.05 12.52 19.03 16.59 29.67.1.26-.03.55-.29.65l-5.69 2.18c-.12.05-.26.04-.38 0a.452.452 0 0 1-.26-.28c-1.17-3.07-2.5-6.12-3.94-9.07l-2.74 1.36c1.4 2.87 2.69 5.83 3.83 8.81.05.12.04.26-.01.38s-.15.22-.28.26l-5.69 2.18c-.06.02-.12.03-.18.03Zm-13.54-25.87c5.74 7.56 10.39 15.88 13.83 24.73l4.76-1.82c-1.14-2.95-2.43-5.88-3.83-8.71a.504.504 0 0 1-.03-.38.48.48 0 0 1 .25-.29l3.64-1.8c.12-.06.26-.07.38-.03.13.04.23.13.29.25 1.47 2.97 2.82 6.05 4.02 9.14l4.76-1.82A116.97 116.97 0 0 0 113.44 7.6l-4.05 3.1c2.03 2.68 3.97 5.48 5.75 8.33.15.23.08.54-.16.69l-3.44 2.15a.503.503 0 0 1-.69-.16c-1.7-2.71-3.54-5.38-5.48-7.93l-4.05 3.1Z"/><path d="M82.79 80.89c-.97-6.67-2.97-12.78-5.71-18.18l6.31-.75c1.42 3.35 2.59 6.91 3.45 10.63 1.18-3.64 2.06-7.44 2.63-11.36l6.31-.75c-1.18 7.68-3.5 14.91-6.74 21.48-2.08-.36-4.16-.71-6.23-1.07Z" class="cls-5"/><path d="M89.02 82.46h-.08l-6.23-1.07a.51.51 0 0 1-.41-.42c-.93-6.38-2.83-12.45-5.67-18.03a.53.53 0 0 1 0-.46c.08-.14.22-.24.38-.26l6.31-.75c.23-.03.43.1.52.3 1.22 2.88 2.25 5.89 3.05 8.96.91-3.11 1.61-6.32 2.08-9.56.03-.22.21-.4.44-.42l6.31-.75c.15-.02.31.04.42.15.11.11.16.27.13.42-1.17 7.6-3.45 14.88-6.79 21.62-.09.17-.26.28-.45.28Zm-5.79-2 5.51.95c3.1-6.37 5.27-13.21 6.43-20.35l-5.27.63c-.56 3.76-1.44 7.48-2.59 11.06a.52.52 0 0 1-.5.35.5.5 0 0 1-.47-.39c-.81-3.5-1.91-6.93-3.28-10.21l-5.23.62c2.65 5.4 4.47 11.22 5.39 17.34Z"/><path d="M96.42 83.23a79.67 79.67 0 0 0 .59-22.9l6.05-.72c.97 8.13.77 16.43-.64 24.65-2-.34-4.01-.69-6.01-1.03Z" class="cls-5"/><path d="M102.43 84.76h-.09l-6.01-1.03a.514.514 0 0 1-.41-.58 79.22 79.22 0 0 0 .59-22.75.5.5 0 0 1 .43-.56l6.06-.72a.5.5 0 0 1 .56.43c.98 8.26.77 16.6-.64 24.8-.04.24-.25.42-.49.42ZM97 82.82l5.02.86a85.02 85.02 0 0 0 .61-23.52l-5.06.6c.83 7.34.64 14.76-.57 22.05Z"/><path d="M104.17 84.56c1.44-8.39 1.64-16.87.65-25.16l9.56-1.14c1.65-.2 3.02.33 4.07 1.64 1.05 1.31 1.68 3.33 1.78 6.01.05 1.46-.07 2.72-.34 3.75-.28 1.03-.66 1.85-1.12 2.44.63.56 1.11 1.28 1.44 2.17.33.89.45 2.2.31 3.92-.23 2.8-1.02 4.95-2.24 6.37-1.22 1.43-2.74 1.95-4.51 1.65l-9.59-1.65Zm6.99-15.6c.76 0 1.51-.01 2.27-.02.8 0 1.21-.63 1.18-1.87-.03-1.15-.47-1.71-1.27-1.67-.76.03-1.51.07-2.27.1.05 1.15.08 2.3.09 3.45Zm-.43 9.73c.75.07 1.5.15 2.26.22.8.08 1.27-.5 1.37-1.75.09-1.16-.29-1.76-1.09-1.8-.75-.04-1.51-.09-2.26-.13-.07 1.16-.16 2.31-.27 3.47Z" class="cls-5"/><path d="M114.71 86.8c-.34 0-.68-.03-1.04-.09l-9.59-1.65a.472.472 0 0 1-.32-.21.448.448 0 0 1-.08-.37c1.42-8.27 1.64-16.69.65-25.02a.51.51 0 0 1 .44-.56l9.56-1.14c1.84-.23 3.37.39 4.52 1.83 1.15 1.44 1.79 3.56 1.89 6.3.06 1.48-.07 2.79-.36 3.9-.24.89-.56 1.65-.95 2.25.53.56.95 1.25 1.25 2.05.37.99.48 2.38.34 4.14-.24 2.87-1.03 5.11-2.36 6.66-1.09 1.27-2.41 1.91-3.94 1.91Zm-9.96-2.64 9.09 1.56c1.63.28 2.95-.2 4.05-1.48 1.17-1.37 1.91-3.48 2.12-6.09.13-1.59.04-2.87-.28-3.71-.3-.8-.74-1.47-1.3-1.97a.498.498 0 0 1-.06-.68c.43-.55.78-1.31 1.03-2.26.27-1.01.38-2.22.33-3.6-.09-2.49-.67-4.46-1.67-5.71-.93-1.16-2.11-1.64-3.62-1.46l-9.06 1.08c.92 8.1.71 16.27-.63 24.32Zm8.37-4.75h-.19l-2.26-.22a.504.504 0 0 1-.45-.55c.11-1.15.2-2.3.27-3.45 0-.13.07-.26.17-.34.1-.09.24-.14.36-.12l2.26.13c.47.03.85.2 1.12.51.36.41.5 1.01.44 1.83-.07.9-.32 1.51-.75 1.88-.27.22-.6.34-.98.34Zm-1.85-1.17 1.76.17c.24.03.36-.05.42-.1.21-.18.35-.6.4-1.19.04-.52-.03-.91-.19-1.09-.06-.07-.17-.16-.43-.17l-1.77-.1c-.05.83-.12 1.66-.19 2.49Zm-.11-8.78c-.27 0-.5-.22-.5-.5 0-1.15-.04-2.29-.09-3.43 0-.13.04-.26.13-.36.09-.1.21-.16.35-.16l2.27-.1c.46-.03.87.11 1.17.39.39.36.6.96.62 1.76.02.89-.16 1.52-.55 1.93-.28.29-.67.45-1.12.45l-2.27.02Zm.42-3.47c.03.82.05 1.65.07 2.47h1.77c.24-.02.35-.1.41-.16.19-.19.28-.62.27-1.21-.01-.51-.12-.89-.3-1.06-.07-.06-.18-.13-.44-.13l-1.77.08Z"/><path d="M120.49 87.37c1.72-9.98 1.95-20.06.78-29.92l12.89-1.53c.36 3 .6 6.01.72 9.04-2.29.09-4.58.19-6.87.28.04.95.07 1.9.08 2.85l5.92-.09c.05 3.11-.03 6.23-.24 9.35l-5.91-.39c-.06.95-.14 1.91-.23 2.86l6.85.63c-.28 3.04-.68 6.08-1.2 9.12-4.26-.73-8.53-1.47-12.79-2.2Z" class="cls-5"/><path d="M133.28 90.07h-.09l-12.79-2.2a.472.472 0 0 1-.32-.21.448.448 0 0 1-.08-.37c1.69-9.85 1.95-19.87.77-29.78a.5.5 0 0 1 .43-.56l12.89-1.53c.28-.04.52.16.56.44.36 3 .6 6.06.73 9.08 0 .13-.04.26-.13.36-.09.1-.21.16-.35.16l-6.38.26c.02.62.04 1.24.05 1.86l5.42-.08c.28.02.5.22.51.49.05 3.12-.03 6.28-.24 9.39 0 .13-.07.26-.17.34-.1.09-.23.14-.36.12l-5.41-.36c-.04.63-.09 1.25-.15 1.88l6.35.58c.13.01.25.08.34.18.08.1.13.23.11.37-.28 3.05-.69 6.13-1.21 9.16-.04.24-.25.42-.49.42Zm-12.21-3.11 11.8 2.03c.45-2.67.81-5.39 1.07-8.09l-6.35-.58a.52.52 0 0 1-.34-.18.483.483 0 0 1-.11-.37c.09-.95.16-1.9.22-2.85 0-.13.07-.26.17-.34.1-.09.23-.14.36-.12l5.41.36c.17-2.76.24-5.55.21-8.31l-5.42.08c-.26.04-.5-.22-.51-.49-.01-.95-.04-1.89-.08-2.84-.01-.28.2-.51.48-.52l6.37-.26c-.12-2.67-.34-5.35-.64-8l-11.89 1.41c1.11 9.68.85 19.46-.75 29.08Z"/><path d="M15.4 93.05c-4.72.38-11.51-14.73-6.99-18.19 8.91-6.82 41-29.53 41-29.53l16.4 42.66s-44.28 4.56-50.41 5.05Z" style="fill:#ff5b2b"/><path d="M15.23 93.56c-2.76 0-5.84-4.25-7.49-8.57-1.47-3.83-2.15-8.6.36-10.53 8.82-6.75 40.69-29.31 41.01-29.54.13-.09.29-.12.43-.07.15.04.27.16.32.3l16.4 42.66c.06.15.04.31-.04.44s-.22.22-.38.24c-.44.05-44.35 4.57-50.42 5.05h-.21Zm.17-.51Zm33.77-46.93C44.97 49.09 16.89 69 8.71 75.26c-1.71 1.31-1.72 4.99-.04 9.37 1.76 4.6 4.69 8.04 6.69 7.92 5.65-.45 44.24-4.42 49.75-4.99L49.17 46.11Z"/><path d="M49.41 45.34c-12.48 4.72 6 46.59 16.4 42.66 10.4-3.93-3.46-47.55-16.4-42.66Z"/><g style="clip-path:url(#clippath)"><path d="M59.99 65.49c1.84 4.87-.61 10.31-5.48 12.15-4.87 1.84-10.31-.61-12.15-5.48-1.84-4.87.61-10.31 5.48-12.15 4.87-1.84 10.31.61 12.15 5.48Z" class="cls-6"/><path d="M51.17 78.75c-1.39 0-2.77-.3-4.08-.88a9.859 9.859 0 0 1-5.2-5.54c-.94-2.48-.85-5.17.24-7.59a9.871 9.871 0 0 1 5.53-5.2c2.48-.94 5.17-.86 7.59.24a9.859 9.859 0 0 1 5.2 5.54c.94 2.48.85 5.17-.24 7.59a9.871 9.871 0 0 1-5.53 5.2c-1.14.43-2.33.65-3.52.65Zm.01-18.86c-1.07 0-2.13.19-3.16.58-2.23.84-4 2.5-4.98 4.68a8.844 8.844 0 0 0-.21 6.83c.84 2.23 2.5 4 4.68 4.98 2.17.98 4.6 1.06 6.83.21 2.23-.84 4-2.5 4.98-4.68.98-2.17 1.06-4.6.21-6.83-.84-2.23-2.5-4-4.68-4.98a8.87 8.87 0 0 0-3.66-.79Z"/></g><path d="M68.55 64.35c-2.55-7.91-7.4-17.38-13.38-20.26-2.17-1.04-4.31-1.18-6.38-.4-7.47 2.83-5.98 14.81-2.09 25.09 3.44 9.09 10.71 21.36 17.73 21.25.67-.01 1.34-.14 2.01-.39.12-.04.23-.1.33-.17 5.95-2.69 5.23-14.46 1.79-25.12Zm-3.36 22c-3.76 1.42-10.88-7.37-15.21-18.82-4-10.58-3.98-19.03.05-20.56 1.15-.43 2.33-.34 3.61.28 4.1 1.98 8.64 9.11 11.56 18.17 3.31 10.28 3.31 19.67-.02 20.93Z" style="fill:#ff7ec8"/><path d="M65.68 65.28c-2.96-9.19-7.6-16.44-11.82-18.47-1.41-.68-2.72-.78-4-.29-2.19.83-3.35 3.37-3.36 7.35 0 3.81 1.04 8.6 3.02 13.85 3.71 9.82 10.27 19.3 14.8 19.3.36 0 .71-.06 1.05-.19 3.63-1.37 3.77-10.84.32-21.55Zm-.67 20.61C61.89 87.07 55 79.4 50.45 67.36c-1.91-5.06-2.96-9.85-2.96-13.5 0-3.48.97-5.76 2.71-6.42 1.01-.38 2.06-.3 3.22.26 3.99 1.92 8.42 8.94 11.3 17.88 3.51 10.88 2.98 19.29.28 20.3Z"/><path d="M69.02 64.2c-2.58-8-7.52-17.61-13.64-20.56-2.29-1.11-4.57-1.25-6.77-.41-7.82 2.96-6.36 15.23-2.38 25.73 2.83 7.48 10.24 21.57 18.1 21.57h.11c.61 0 1.21-.13 1.8-.31.13-.02.25-.06.37-.11 6.63-2.51 5.99-14.82 2.42-25.91Zm-2.77 24.97c-.14.05-.28.08-.43.08-.12 0-.23.05-.32.13-.36.08-.73.14-1.09.14h-.09c-6.79 0-13.98-12.49-17.17-20.92-3.8-10.05-5.32-21.75 1.8-24.44 1.93-.73 3.95-.6 5.98.38 5.84 2.81 10.61 12.16 13.12 19.96 3.43 10.64 4.2 22.39-1.82 24.67Z"/><path d="m58.78 39.5-3.38-2.2 9.63-18.36 6.6 4.28L58.78 39.5z" class="cls-2"/><path d="M58.78 40a.53.53 0 0 1-.27-.08l-3.38-2.19a.494.494 0 0 1-.17-.65l9.63-18.37c.07-.12.18-.22.32-.25s.28-.01.4.06l6.6 4.28c.12.08.2.2.22.34.02.14-.01.28-.1.39L59.18 39.81c-.1.12-.24.19-.39.19Zm-2.73-2.87 2.62 1.7 12.22-15.49-5.68-3.69-9.16 17.48Z"/><path d="m73.2 89.82 1.53-3.72 19.83 6.05-2.98 7.28-18.38-9.61z" class="cls-2"/><path d="M91.58 99.93c-.08 0-.16-.02-.23-.06l-18.38-9.61c-.23-.12-.33-.39-.23-.63l1.53-3.73c.1-.24.36-.36.61-.29l19.83 6.06c.13.04.25.14.31.26.06.13.06.27.01.4l-2.98 7.28a.5.5 0 0 1-.46.31ZM73.83 89.59l17.49 9.14 2.57-6.26-18.87-5.76-1.18 2.89Z"/><path d="M66.74 53.64c-3.79 1.64-5.11 2.96-6.75 6.75-1.64-3.79-2.96-5.11-6.75-6.75 3.79-1.64 5.11-2.96 6.75-6.75 1.64 3.79 2.96 5.11 6.75 6.75Z" class="cls-2"/><path d="M59.99 60.88c-.2 0-.38-.12-.46-.3-1.59-3.68-2.8-4.9-6.49-6.49-.18-.08-.3-.26-.3-.46s.12-.38.3-.46c3.68-1.59 4.9-2.8 6.49-6.49.16-.37.76-.37.92 0 1.59 3.68 2.8 4.9 6.49 6.49.18.08.3.26.3.46s-.12.38-.3.46c-3.68 1.59-4.9 2.8-6.49 6.49-.08.18-.26.3-.46.3Zm-5.54-7.25c2.83 1.35 4.18 2.71 5.54 5.54 1.35-2.83 2.71-4.19 5.54-5.54-2.83-1.35-4.19-2.71-5.54-5.54-1.35 2.83-2.71 4.18-5.54 5.54Z"/><path d="M75.68 63.12c-2.69 1.16-3.63 2.1-4.79 4.79-1.16-2.69-2.1-3.63-4.79-4.79 2.69-1.16 3.63-2.1 4.79-4.79 1.16 2.69 2.1 3.63 4.79 4.79Z" class="cls-2"/><path d="M70.89 68.41c-.2 0-.38-.12-.46-.3-1.11-2.57-1.96-3.42-4.53-4.53-.18-.08-.3-.26-.3-.46s.12-.38.3-.46c2.57-1.11 3.42-1.96 4.53-4.53.16-.37.76-.37.92 0 1.11 2.57 1.96 3.42 4.53 4.53.18.08.3.26.3.46s-.12.38-.3.46c-2.57 1.11-3.42 1.96-4.53 4.53-.08.18-.26.3-.46.3Zm-3.6-5.29c1.78.89 2.71 1.83 3.6 3.6.89-1.78 1.83-2.71 3.6-3.6-1.78-.89-2.71-1.83-3.6-3.6-.89 1.78-1.83 2.71-3.6 3.6Z"/></g></svg>