<svg xmlns="http://www.w3.org/2000/svg" id="Layer_2" data-name="Layer 2" viewBox="0 0 134.42 130.62"><defs><style>.cls-1{fill:#ff991e}.cls-2{fill:#00a5da}.cls-3{fill:#fff}.cls-4{fill:#ff5b2b}</style></defs><g id="OBJECTS"><path d="M131.95 85.7c-1.54-1.27-3.62-1.79-5.6-1.41-1.5.3-3.05.57-4.6.8V67.56c3.87-1.07 6.15-3.32 7.4-5.05 2.16-2.96 3.25-7.07 3.25-12.24 0-.64-.02-1.3-.06-1.95.04-.68.06-1.32.06-1.94 0-5.35-1.09-9.57-3.23-12.54-1.69-2.36-4.89-5.27-10.57-5.69-.62-.05-1.28-.07-1.96-.07-2.6 0-5.38.35-8 .71-1.02.14-2.1.25-3.21.34-.02-.07-.04-.15-.07-.22 1.79-1.27 2.85-3.3 2.85-5.52s-1.06-4.25-2.85-5.51a6.69 6.69 0 0 0-.94-6.14c-1.28-1.76-3.37-2.84-5.54-2.78a6.697 6.697 0 0 0-4.36-4.41c-2.06-.67-4.4-.28-6.12 1.01a6.84 6.84 0 0 0-6.13-1.01 6.697 6.697 0 0 0-4.36 4.41c-2.15-.04-4.26 1.02-5.54 2.78a6.743 6.743 0 0 0-.94 6.14 6.724 6.724 0 0 0-2.85 5.51c0 .3.02.6.07.91h-.05a6.16 6.16 0 0 0-1.62-.63c-3.78-.9-7.81-1.85-11.9-2.67-.41-.08-.87-.12-1.32-.12-.43-.17-.86-.3-1.28-.38-4.39-.81-8.31-1.36-12-1.66a6.82 6.82 0 0 0-3.34.58 6.815 6.815 0 0 0-3.3-.88h-.33c-3.5 0-6.93.24-10.18.72-.8.12-1.56.37-2.26.76-.79-.11-1.6-.07-2.38.11-4.4 1-8.71 2.49-12.8 4.45-2.92 1.39-4.44 4.68-3.62 7.81l.06.24a6.66 6.66 0 0 0-.06 3.65C4.19 43.6 6.26 53.14 8.6 65.44 3.15 66.94.03 71.48.03 77.96c0 .71.03 1.39.1 1.98-.07.63-.1 1.26-.1 1.91 0 1.93.22 3.71.66 5.29-.24.71-.37 1.45-.37 2.2v12.54a6.74 6.74 0 0 0 6.06 6.72c1.87.2 4.04.05 7.02-.5a6.732 6.732 0 0 0-.89 3.34c0 2.22 1.06 4.25 2.85 5.52a6.69 6.69 0 0 0 .94 6.14 6.783 6.783 0 0 0 5.46 2.78h.08a6.718 6.718 0 0 0 4.36 4.41c2.07.67 4.4.28 6.12-1.01 1.16.87 2.58 1.34 4.04 1.34.71 0 1.41-.11 2.09-.33a6.717 6.717 0 0 0 4.36-4.41c2.16.03 4.26-1.02 5.54-2.78 1.3-1.79 1.64-4.06.94-6.14a6.728 6.728 0 0 0 2.85-5.52c0-1.48-.48-2.89-1.35-4.05 3.95.62 6.99.67 9.68.21 2.47-.41 4.69-1.34 6.59-2.76 1.66 2.12 3.67 3.97 5.98 5.52 3.25 2.17 6.77 3.61 10.46 4.27 4.27.77 8.27.36 11.8-1.19.73-.32 1.45-.69 2.14-1.11.32.57.71 1.09 1.17 1.54a6.73 6.73 0 0 0 4.74 1.94h.11c9.83-.16 18.68-2.12 27.06-5.99a6.779 6.779 0 0 0 3.92-6.13V90.93c0-2.03-.9-3.93-2.47-5.22ZM88.04 41.48v2.74c-.28.02-.56.03-.84.05v-2.34c.3-.14.58-.29.85-.46Z"/><path d="M131.63 81.86a6.25 6.25 0 0 0-5.19-1.3c-1.69.34-3.43.63-5.2.89V62.96c3.84-.96 6.18-3.13 7.5-4.96 2.09-2.87 3.15-6.89 3.15-11.95 0-.63-.02-1.28-.06-1.98.04-.67.06-1.3.06-1.91 0-5.24-1.06-9.37-3.14-12.25-1.62-2.27-4.72-5.07-10.2-5.48-.61-.05-1.26-.07-1.93-.07-2.56 0-5.32.35-7.93.7-1.19.16-2.41.29-3.66.37a6.02 6.02 0 0 0-.29-.94 6.259 6.259 0 0 0 0-10.64c.8-1.97.56-4.26-.73-6.04a6.264 6.264 0 0 0-5.06-2.58c-.15 0-.3 0-.45.02a6.266 6.266 0 0 0-10.11-3.29A6.275 6.275 0 0 0 84.35.49a6.266 6.266 0 0 0-6.07 4.76c-.15-.01-.3-.02-.45-.02-1.96 0-3.86.93-5.06 2.58a6.249 6.249 0 0 0-.73 6.04 6.259 6.259 0 0 0-2.96 5.32c0 .49.07.97.17 1.43-.16-.01-.31-.03-.47-.03-.1 0-.2.02-.3.02-.5-.29-1.04-.52-1.63-.66-3.77-.9-7.79-1.84-11.88-2.66-.41-.08-.82-.12-1.23-.12h-.09c-.41-.17-.84-.3-1.28-.39-4.36-.81-8.27-1.35-11.95-1.65a6.224 6.224 0 0 0-3.33.65c-.96-.6-2.09-.94-3.28-.94h-.32c-3.48 0-6.88.24-10.11.72-.81.12-1.57.39-2.24.78-.33-.05-.66-.08-.99-.08-.46 0-.92.05-1.38.15A60.6 60.6 0 0 0 6.08 20.8a6.256 6.256 0 0 0-3.36 7.23c.03.13.07.25.1.38a6.241 6.241 0 0 0-.1 3.51c1.94 7.42 4.05 17.15 6.42 29.65C3.66 62.88.49 67.21.49 73.72c0 .68.03 1.36.1 2.04-.06.62-.1 1.23-.1 1.85 0 1.95.23 3.73.68 5.31-.26.69-.39 1.43-.39 2.18v12.54c0 3.21 2.42 5.9 5.62 6.22.51.05 1.06.08 1.62.08 1.48 0 3.15-.18 5.27-.58.4-.07.81-.16 1.21-.24a6.268 6.268 0 0 0-1.52 4.08c0 2.2 1.15 4.2 2.96 5.32-.8 1.97-.56 4.26.73 6.04 1.2 1.65 3.1 2.58 5.06 2.58.15 0 .3 0 .45-.02a6.266 6.266 0 0 0 10.11 3.29c1.13.95 2.56 1.47 4.04 1.47a6.266 6.266 0 0 0 6.07-4.76c.15.01.3.02.45.02 1.96 0 3.86-.93 5.06-2.58a6.249 6.249 0 0 0 .73-6.04 6.259 6.259 0 0 0 2.96-5.32c0-1.89-.85-3.63-2.24-4.79 2.8.51 5.18.76 7.27.76 1.34 0 2.57-.1 3.72-.3 2.58-.43 4.86-1.45 6.76-2.97a25.35 25.35 0 0 0 6.17 5.81c3.2 2.14 6.65 3.55 10.27 4.19 1.37.25 2.73.37 4.03.37 2.66 0 5.17-.51 7.48-1.53.89-.39 1.74-.85 2.54-1.37.32.7.76 1.35 1.32 1.9a6.273 6.273 0 0 0 4.39 1.8h.1c9.76-.16 18.55-2.1 26.86-5.94a6.258 6.258 0 0 0 3.63-5.68V86.69c0-1.87-.84-3.65-2.29-4.84ZM88.54 36.49v3.98c-.61.04-1.21.07-1.84.11v-3.2c.61-.25 1.18-.57 1.69-1 .05.04.11.07.16.11Z" class="cls-3"/><path d="M36.33 126.39c-1.46 0-2.87-.47-4.04-1.34a6.825 6.825 0 0 1-6.12 1.01 6.717 6.717 0 0 1-4.36-4.41h-.08a6.77 6.77 0 0 1-5.46-2.78 6.743 6.743 0 0 1-.94-6.14 6.724 6.724 0 0 1-2.85-5.51c0-1.17.31-2.32.89-3.34-2.98.55-5.12.7-7.02.5a6.74 6.74 0 0 1-6.06-6.72V85.12c0-.75.12-1.49.37-2.2C.22 81.34 0 79.56 0 77.63c0-.65.03-1.27.1-1.91-.07-.59-.1-1.27-.1-1.98 0-6.48 3.12-11.01 8.57-12.52-2.34-12.29-4.41-21.84-6.33-29.16-.31-1.2-.29-2.46.06-3.65l-.06-.24c-.82-3.13.7-6.41 3.62-7.81 4.09-1.96 8.4-3.45 12.8-4.45.78-.18 1.59-.21 2.38-.11.7-.39 1.46-.64 2.26-.76 3.26-.48 6.68-.72 10.18-.72h.33c1.16 0 2.3.31 3.3.88a6.82 6.82 0 0 1 3.34-.58c3.69.3 7.62.85 12 1.66.43.08.86.21 1.28.38.52.02.91.04 1.32.12 4.09.82 8.12 1.77 11.9 2.67.54.13 1.07.34 1.62.63h.05c-.04-.31-.07-.61-.07-.91 0-2.22 1.06-4.25 2.85-5.51a6.69 6.69 0 0 1 .94-6.14c1.28-1.76 3.4-2.83 5.54-2.78A6.718 6.718 0 0 1 82.24.33c2.06-.67 4.4-.28 6.13 1.01A6.825 6.825 0 0 1 94.49.33c2.11.69 3.71 2.32 4.36 4.41 2.17-.06 4.26 1.02 5.54 2.78 1.3 1.79 1.64 4.06.94 6.14 1.79 1.27 2.85 3.3 2.85 5.51s-1.06 4.25-2.85 5.52c.02.07.04.14.07.22 1.11-.08 2.19-.2 3.21-.34 2.62-.36 5.4-.71 8-.71.68 0 1.34.02 1.96.07 5.68.42 8.89 3.33 10.57 5.69 2.15 2.97 3.23 7.19 3.23 12.54 0 .62-.02 1.26-.06 1.94.04.65.06 1.31.06 1.95 0 5.17-1.09 9.29-3.25 12.24-1.25 1.73-3.53 3.98-7.4 5.05v17.53c1.56-.24 3.1-.51 4.6-.8 2-.39 4.06.14 5.6 1.41a6.73 6.73 0 0 1 2.47 5.22v12.76c0 2.63-1.54 5.03-3.92 6.13-8.37 3.87-17.22 5.83-27.06 5.99h-.11a6.73 6.73 0 0 1-4.74-1.94c-.46-.45-.85-.97-1.17-1.54-.68.42-1.4.79-2.14 1.11-3.53 1.55-7.52 1.96-11.8 1.19-3.69-.66-7.21-2.1-10.46-4.27-2.31-1.55-4.33-3.41-5.98-5.52-1.9 1.42-4.11 2.35-6.59 2.76-2.7.46-5.73.41-9.68-.21a6.73 6.73 0 0 1 1.35 4.05c0 2.22-1.06 4.25-2.85 5.51a6.69 6.69 0 0 1-.94 6.14 6.795 6.795 0 0 1-5.54 2.78 6.697 6.697 0 0 1-4.36 4.41c-.68.22-1.38.33-2.09.33Zm-4.03-2.48c.11 0 .23.04.32.12a5.828 5.828 0 0 0 5.49 1.07 5.713 5.713 0 0 0 3.81-4.1c.06-.24.28-.39.52-.38a5.78 5.78 0 0 0 5.07-2.36c1.18-1.62 1.43-3.7.68-5.56-.09-.23 0-.49.2-.61a5.737 5.737 0 0 0 2.72-4.89c0-1.7-.75-3.31-2.06-4.41a.506.506 0 0 1-.13-.6c.1-.21.32-.32.54-.28 4.56.83 7.9.96 10.82.46 2.48-.42 4.68-1.38 6.53-2.87.11-.08.24-.12.38-.11.13.02.26.09.34.2 1.65 2.19 3.68 4.11 6.05 5.69 3.14 2.1 6.53 3.48 10.08 4.12 4.09.73 7.87.35 11.22-1.12.86-.37 1.69-.82 2.46-1.33a.499.499 0 0 1 .73.22c.3.66.71 1.25 1.21 1.75a5.704 5.704 0 0 0 4.04 1.65c9.79-.16 18.5-2.09 26.75-5.9a5.777 5.777 0 0 0 3.34-5.23V86.68c0-1.73-.77-3.35-2.1-4.45a5.788 5.788 0 0 0-4.77-1.2c-1.7.34-3.45.64-5.22.9a.5.5 0 0 1-.57-.5V62.94c0-.23.16-.43.38-.48 3.8-.95 6.02-3.12 7.21-4.76 2.03-2.78 3.06-6.7 3.06-11.65 0-.62-.02-1.26-.06-1.95.04-.72.06-1.34.06-1.94 0-5.14-1.03-9.16-3.05-11.96-1.56-2.19-4.54-4.88-9.84-5.28-.6-.05-1.23-.07-1.89-.07-2.54 0-5.28.34-7.86.7-1.17.16-2.41.29-3.69.37-.24 0-.47-.15-.52-.39a4.99 4.99 0 0 0-.27-.87c-.09-.23 0-.48.2-.61a5.757 5.757 0 0 0 0-9.78.497.497 0 0 1-.2-.61c.76-1.86.5-3.93-.68-5.56-1.16-1.6-3.11-2.51-5.07-2.36-.25 0-.46-.14-.52-.38a5.713 5.713 0 0 0-3.81-4.1c-1.87-.61-4-.19-5.49 1.07-.19.16-.46.16-.64 0a5.828 5.828 0 0 0-5.49-1.07 5.713 5.713 0 0 0-3.81 4.1c-.06.24-.28.4-.52.38-1.98-.15-3.91.76-5.07 2.36a5.715 5.715 0 0 0-.67 5.56c.09.23 0 .49-.2.61a5.737 5.737 0 0 0-2.72 4.89c0 .42.05.85.16 1.31.04.16 0 .32-.11.44-.1.12-.26.18-.42.17-.28-.02-.39-.03-.54-.02-.05 0-.11.01-.16.01-.09 0-.19-.02-.27-.06-.52-.29-1.01-.49-1.5-.61-3.77-.9-7.79-1.84-11.86-2.66a6.18 6.18 0 0 0-1.13-.11c-.07 0-.22 0-.28-.03-.39-.16-.78-.28-1.18-.36-4.35-.81-8.24-1.34-11.9-1.64-1.06-.09-2.12.12-3.06.59-.16.08-.34.07-.49-.02-.91-.56-1.95-.86-3.02-.87h-.32c-3.45 0-6.83.24-10.03.71-.73.11-1.43.35-2.06.72-.1.06-.22.08-.33.06-.72-.12-1.47-.09-2.18.07-4.33.98-8.56 2.45-12.59 4.37a5.762 5.762 0 0 0-3.09 6.65l.1.38c.02.09.02.19 0 .28a5.727 5.727 0 0 0-.09 3.23c1.95 7.43 4.05 17.14 6.43 29.69.05.26-.12.52-.38.58-5.33 1.27-8.26 5.41-8.26 11.66 0 .68.03 1.33.09 1.99-.06.7-.09 1.29-.09 1.9 0 1.9.22 3.64.66 5.17.03.1.03.21-.01.31-.24.65-.36 1.32-.36 2.01v12.54a5.75 5.75 0 0 0 5.17 5.73c1.81.19 3.87.04 6.75-.49.24-.04.49-.1.73-.15l.47-.1c.21-.04.42.05.53.24.11.18.09.42-.05.58a5.718 5.718 0 0 0-1.4 3.75c0 2.01 1.02 3.84 2.72 4.89.21.13.29.39.2.61-.76 1.86-.5 3.94.68 5.56a5.76 5.76 0 0 0 4.66 2.37c.1 0 .28 0 .42-.01.23-.02.46.14.52.38.48 1.95 1.9 3.48 3.81 4.1 1.87.61 3.99.19 5.49-1.07a.49.49 0 0 1 .32-.12Zm54.39-82.83c-.13 0-.25-.05-.34-.13a.506.506 0 0 1-.16-.37v-3.2c0-.2.12-.39.31-.46a5.63 5.63 0 0 0 1.55-.92.5.5 0 0 1 .65 0c.01 0 .13.09.14.1.12.09.19.24.19.39v3.98c0 .26-.21.48-.47.5l-.47.03c-.45.03-.9.05-1.37.08h-.03Zm.5-3.37v2.34c.28-.02.56-.03.84-.05v-2.74c-.26.17-.55.32-.85.46Zm1.34-1.22Z"/><path d="M15.52 64.31c.03.18.17.33.34.39a55.78 55.78 0 0 0 10.26 2.15c.25.03.48-.13.54-.37 1.03-4.05 2.15-8.55 3.49-14.03l3.24 14.42c.05.23.25.39.49.39 3.24-.02 6.58-.25 10.23-.71.22-.03.39-.19.43-.41 2.64-15.18 4.99-28.01 7.18-39.22a.47.47 0 0 0-.08-.38.495.495 0 0 0-.32-.21c-4.16-.77-7.88-1.29-11.37-1.57a.502.502 0 0 0-.53.41c-.74 4.36-1.48 8.76-2.22 13.2-.58-2.66-1.15-5.32-1.73-7.98l-1.19-5.51a.494.494 0 0 0-.49-.39c-3.31-.01-6.52.21-9.57.66-.25.04-.43.25-.43.49v6.75c-.4 2.01-.81 4.01-1.21 5.99-.65-4.1-1.29-8.13-1.94-12.05a.47.47 0 0 0-.21-.33.482.482 0 0 0-.39-.07c-3.94.89-7.8 2.23-11.48 3.99a.5.5 0 0 0-.27.58c2.17 8.29 4.53 19.36 7.22 33.84Zm38.22.62h.1c4.02-.81 8.13-1.78 11.68-2.62.23-.05.38-.25.38-.49v-31.9c0-.23-.16-.43-.38-.49-3.54-.84-7.66-1.81-11.68-2.62a.49.49 0 0 0-.42.1c-.12.09-.18.24-.18.39v37.13c0 .15.07.29.18.39.09.07.2.11.32.11Zm15.15-3.44c8.6-2.05 16.37-3.81 24.27-4.59.26-.02.45-.24.45-.5v-6.02c0-.14-.06-.27-.15-.36a.505.505 0 0 0-.37-.14c-3.66.15-7.64.42-12.15.8V33.34c0-.24-.17-.44-.4-.49-3.98-.81-7.94-1.74-11.64-2.62-.15-.04-.31 0-.43.09s-.19.24-.19.39v30.28c0 .15.07.3.19.39.09.07.2.11.31.11.04 0 .08 0 .12-.01Zm47.73-3.76c.54 0 1.06-.02 1.56-.06 2.65-.22 4.58-1.22 5.9-3.06 1.34-1.83 2.05-4.79 2.05-8.55 0-3.95-.72-7.03-2.07-8.91-1.34-1.88-3.29-2.89-5.96-3.09-2.53-.19-5.53.17-8.64.6-4.58.63-9.37.73-14.64.31-.14 0-.28.04-.38.13-.1.09-.16.23-.16.37v20.79c0 .14.06.27.16.37.1.1.24.14.38.13 5.27-.42 10.06-.31 14.64.31 2.63.36 5.03.66 7.15.66Zm-3.34-11.72c0 1.23-.2 2.14-.59 2.7-.37.54-.9.88-1.62 1.02-.77.16-1.7.21-2.86.15l-1.26-.06v-7.47c.42-.01.84-.03 1.26-.05 1.27-.06 2.25-.02 3 .11.69.12 1.19.42 1.53.93.36.54.54 1.43.54 2.66ZM29.29 82.27c-1.24-.63-3.12-1.22-5.9-1.85-1.84-.43-2.97-.75-3.48-.91-.51-.16-.69-.3-.75-.31.06-.04.26-.12.76-.13.79-.03 1.6-.01 2.4.05.95.07 2.1.22 3.52.46 1.3.22 2.81.58 4.62 1.09.15.04.31.01.44-.08.12-.09.2-.24.2-.4v-5.74c0-.23-.16-.44-.39-.49-.79-.18-1.73-.36-2.84-.57l-.24-.05c-1.2-.23-2.44-.47-3.7-.73l-.34-.07c-1.14-.24-2.18-.45-3.1-.63-5.62-1.27-9.85-1.73-12.22.16-1.36 1.09-2.02 2.9-2.02 5.55 0 1.86.26 3.42.79 4.65.54 1.28 1.44 2.32 2.68 3.1 1.2.76 2.84 1.4 4.88 1.9 1.45.33 2.82.6 4.08.81.97.16 1.12.38 1.12.38 0 .04-.09.19-.51.36-.5.21-1.22.37-2.13.48-1.54.18-3.21.22-4.97.11-1.96-.13-3.59-.41-4.98-.88a.507.507 0 0 0-.66.48v8.65c0 .26.19.47.45.5.32.03.66.05 1.03.05 1.12 0 2.47-.16 4.22-.48 1.96-.36 3.96-.82 6.09-1.3l.25-.06c4.65-1.05 8.12-1.9 10.49-3.21 2.51-1.37 3.73-3.05 3.73-5.15 0-1.21-.24-2.29-.7-3.23-.48-.97-1.4-1.79-2.8-2.5Zm30.12-11.59c-2.32-.4-5.23-.25-9.14.47-3.51.65-6.55 1.46-9.05 2.43-2.63 1.02-4.55 2.28-5.89 3.87-1.41 1.67-2.09 3.8-2.09 6.49s.68 4.79 2.09 6.47c1.34 1.6 3.26 2.87 5.89 3.89 2.5.96 5.55 1.78 9.05 2.43 2.5.46 4.59.69 6.37.69 1.01 0 1.92-.07 2.76-.22 2.62-.44 4.65-1.77 6.03-3.95 1.36-2.15 2.05-5.28 2.05-9.31s-.69-7.2-2.05-9.34c-1.38-2.17-3.4-3.49-6.02-3.93Zm-4.82 13.26c0 1.7-.32 2.91-.93 3.5-.6.58-1.69.82-3.25.71-1.57-.11-2.69-.48-3.33-1.1-.62-.6-.93-1.65-.93-3.11s.31-2.51.93-3.11c.64-.62 1.76-.99 3.33-1.1.25-.02.49-.03.71-.03 1.19 0 2.04.25 2.54.73.61.59.93 1.8.93 3.5Zm45.59-21.37c-3.66.09-7.5.43-11.72 1.04-.25.04-.43.25-.43.49v22.11c0 2.04-.4 3.45-1.19 4.18-.52.48-1.21.69-2.13.62-2.28-.17-3.39-1.79-3.39-4.95V65.43c0-.15-.07-.29-.18-.39-.12-.1-.27-.13-.41-.1-4.05.79-8.15 1.73-11.68 2.54-.23.05-.39.25-.39.49v19.34c0 2.91.69 5.45 2.12 7.76 1.42 2.29 3.34 4.26 5.71 5.85 2.53 1.69 5.25 2.81 8.09 3.31 1.03.19 2.03.28 3 .28 1.87 0 3.61-.35 5.19-1.04 2.41-1.05 4.37-2.92 5.8-5.55 1.4-2.56 2.11-5.78 2.11-9.59V63.06c0-.13-.05-.26-.15-.36a.513.513 0 0 0-.36-.14Zm27.8 27.63a.512.512 0 0 0-.41-.1c-3.85.76-7.91 1.34-12.08 1.72V64.28c0-.24-.17-.44-.4-.49-3.77-.76-7.62-1.16-11.75-1.23-.14-.02-.26.05-.36.14-.1.09-.15.22-.15.36v41.76c0 .13.05.26.15.36a.5.5 0 0 0 .35.14c8.95-.15 16.97-1.92 24.54-5.41.18-.08.29-.26.29-.45v-8.87c0-.15-.07-.29-.18-.39Z"/><path d="M16.01 60.33c-2.41-12.98-4.82-24.68-7.23-33.87 3.79-1.81 7.58-3.1 11.37-3.95.79 4.78 1.57 9.71 2.36 14.76.59-2.85 1.19-5.75 1.78-8.68v-6.85c3.16-.47 6.33-.66 9.49-.65 1.16 5.35 2.31 10.72 3.47 16.05.88-5.31 1.77-10.58 2.65-15.77 3.77.31 7.55.87 11.32 1.57-2.39 12.25-4.79 25.47-7.18 39.23-3.39.43-6.78.69-10.17.71-1.24-5.49-2.47-11.01-3.71-16.5-1.33 5.46-2.67 10.86-4 16.09-3.39-.39-6.78-1.07-10.17-2.13Z" class="cls-4"/><path d="M33.89 63.36c-.23 0-.44-.16-.49-.39l-3.24-14.42c-1.34 5.48-2.46 9.98-3.49 14.03-.06.24-.29.41-.54.37a55.78 55.78 0 0 1-10.26-2.15.487.487 0 0 1-.34-.39c-2.69-14.48-5.05-25.55-7.22-33.84-.06-.23.05-.47.27-.58A54.62 54.62 0 0 1 20.06 22c.14-.03.28 0 .39.07.11.08.19.2.21.33.65 3.92 1.29 7.94 1.94 12.05.41-1.98.82-3.98 1.22-5.99v-6.75c0-.25.17-.46.42-.49 3.04-.45 6.26-.68 9.57-.66.23 0 .44.16.49.39l1.2 5.56c.57 2.65 1.14 5.3 1.72 7.94.74-4.44 1.48-8.84 2.22-13.2.04-.26.28-.43.53-.41 3.49.29 7.21.8 11.37 1.57.13.02.25.1.32.21.07.11.1.25.08.38-2.19 11.2-4.54 24.03-7.18 39.22-.04.22-.21.38-.43.41-3.64.46-6.99.69-10.23.71Zm-3.71-17.49c.23 0 .43.16.48.39l3.62 16.1c2.97-.03 6.03-.25 9.34-.66 2.58-14.81 4.88-27.38 7.02-38.38-3.75-.68-7.13-1.15-10.32-1.43a3046 3046 0 0 0-2.57 15.32c-.04.24-.24.41-.48.42-.25 0-.45-.16-.5-.39-.76-3.49-1.51-6.99-2.27-10.49l-1.12-5.17c-2.96 0-5.85.2-8.59.58v6.42c-.6 3.03-1.2 5.93-1.79 8.78-.05.24-.25.4-.5.4-.24 0-.44-.18-.48-.42-.76-4.86-1.52-9.62-2.27-14.23-3.56.84-7.04 2.06-10.38 3.62 2.13 8.21 4.45 19.08 7.08 33.21 3 .92 6.14 1.58 9.35 1.97 1.13-4.44 2.37-9.43 3.89-15.66.05-.22.26-.38.49-.38Z"/><path d="M53.74 60.54V23.41c3.89.78 7.77 1.69 11.66 2.62v31.9c-3.89.93-7.77 1.84-11.66 2.62Z" class="cls-4"/><path d="M53.74 61.04c-.11 0-.23-.04-.32-.11a.484.484 0 0 1-.18-.39V23.41c0-.15.07-.29.18-.39.12-.09.27-.13.42-.1 4.02.81 8.14 1.78 11.68 2.62.23.05.38.25.38.49v31.9c0 .23-.16.43-.38.49-3.54.84-7.66 1.81-11.68 2.62h-.1Zm.5-37.02v35.91c3.67-.75 7.39-1.62 10.66-2.4V26.42c-3.27-.78-6.99-1.65-10.66-2.4Z"/><path d="M68.77 57.12V26.84c3.89.93 7.77 1.84 11.66 2.63v17.88c4.22-.37 8.45-.67 12.67-.85v6.02c-8.11.8-16.22 2.67-24.33 4.6Z" class="cls-4"/><path d="M68.77 57.62a.508.508 0 0 1-.5-.5V26.84c0-.15.07-.3.19-.39.12-.09.28-.13.43-.09 3.71.89 7.67 1.82 11.64 2.62.23.05.4.25.4.49v17.34c4.52-.38 8.5-.65 12.15-.8.14 0 .27.04.37.14.1.09.15.22.15.36v6.02c0 .26-.2.47-.45.5-7.89.77-15.66 2.54-24.27 4.59-.04 0-.08.01-.12.01Zm.5-30.15v29.02c8.24-1.96 15.72-3.64 23.33-4.42v-5.05c-3.65.16-7.62.43-12.13.82a.52.52 0 0 1-.38-.13.506.506 0 0 1-.16-.37V29.87c-3.64-.74-7.25-1.59-10.66-2.4Z"/><path d="M94.8 52.37V31.58c4.91.39 9.83.36 14.74-.32 3.28-.45 6.12-.78 8.53-.59 2.41.18 4.27 1.04 5.59 2.88 1.32 1.82 1.98 4.81 1.98 8.62 0 3.61-.65 6.48-1.95 8.26-1.3 1.8-3.15 2.66-5.54 2.85-2.39.2-5.26-.14-8.6-.59-4.91-.68-9.83-.71-14.74-.32Zm11.66-5.95c.58.02 1.16.05 1.73.07 1.16.06 2.15.01 2.99-.16.84-.17 1.48-.57 1.93-1.23.45-.65.67-1.66.67-2.99 0-1.33-.21-2.32-.63-2.94-.42-.62-1.04-1-1.86-1.14-.82-.14-1.86-.18-3.11-.12-.58.03-1.16.05-1.73.07v8.44Z" class="cls-4"/><path d="M116.62 53.84c-2.12 0-4.52-.3-7.15-.66-4.58-.63-9.37-.73-14.64-.31a.52.52 0 0 1-.38-.13.506.506 0 0 1-.16-.37V31.58c0-.14.06-.27.16-.37.1-.09.24-.14.38-.13 5.27.42 10.06.31 14.64-.31 3.11-.43 6.11-.79 8.64-.6 2.67.2 4.62 1.21 5.96 3.09 1.35 1.87 2.07 4.95 2.07 8.91s-.71 6.72-2.05 8.55c-1.33 1.84-3.26 2.84-5.9 3.06-.5.04-1.02.06-1.56.06Zm-15.67-2.23c3 0 5.87.19 8.66.57 3.24.44 6.11.79 8.49.59 2.37-.19 4.02-1.04 5.18-2.65 1.21-1.66 1.86-4.42 1.86-7.97 0-3.74-.65-6.62-1.88-8.32-1.18-1.65-2.84-2.5-5.22-2.67-2.43-.18-5.37.17-8.42.59-4.49.62-9.18.73-14.31.36v19.71c1.94-.14 3.83-.21 5.66-.21Zm8.13-4.6c-.29 0-.6 0-.92-.02-.58-.03-1.15-.05-1.73-.07-.27 0-.48-.23-.48-.5v-8.44c0-.27.21-.49.48-.5.58-.02 1.15-.04 1.73-.07 1.34-.06 2.39-.02 3.22.13.96.17 1.7.62 2.18 1.36.48.71.71 1.76.71 3.22s-.26 2.54-.76 3.27c-.52.75-1.27 1.24-2.24 1.43-.63.13-1.35.19-2.19.19Zm-2.12-1.07 1.26.06c1.16.05 2.09 0 2.86-.15.72-.15 1.24-.48 1.62-1.02.39-.56.59-1.47.59-2.7s-.18-2.12-.54-2.66c-.34-.5-.84-.81-1.53-.93-.75-.13-1.73-.17-3-.11-.42.02-.84.03-1.26.05v7.47Z"/><path d="M18.47 91.98c-2.19.49-4.29.97-6.31 1.35-2.02.38-3.73.57-5.11.43v-8.65c1.51.51 3.21.78 5.11.9 1.9.12 3.58.07 5.06-.11.96-.11 1.72-.28 2.27-.51.55-.23.82-.5.82-.82 0-.42-.51-.71-1.54-.88-1.03-.17-2.38-.42-4.05-.81-1.99-.49-3.57-1.1-4.72-1.83-1.16-.73-1.98-1.69-2.48-2.87-.5-1.17-.75-2.68-.75-4.45 0-6.89 4.55-7.28 13.64-5.22 1.03.2 2.18.44 3.45.7 1.27.26 2.51.5 3.71.73 1.2.23 2.22.42 3.06.61v5.74c-1.77-.5-3.33-.87-4.67-1.1-1.35-.23-2.54-.39-3.57-.47-.8-.06-1.62-.08-2.46-.05-.84.03-1.25.23-1.25.61 0 .31.37.59 1.11.81.74.23 1.91.55 3.52.92 2.57.58 4.5 1.16 5.78 1.81 1.28.65 2.14 1.41 2.58 2.28.43.87.65 1.87.65 3.01 0 1.94-1.16 3.46-3.47 4.72-2.31 1.28-5.77 2.12-10.36 3.16Z" class="cls-4"/><path d="M8.02 94.31c-.37 0-.71-.02-1.03-.05a.508.508 0 0 1-.45-.5v-8.65c0-.16.08-.31.21-.41.13-.09.3-.12.45-.07 1.39.47 3.02.75 4.98.88 1.75.11 3.43.08 4.97-.11.92-.11 1.63-.27 2.13-.48.42-.18.51-.32.51-.36s-.15-.22-1.12-.38c-1.25-.21-2.62-.48-4.08-.81-2.04-.5-3.68-1.14-4.88-1.9-1.23-.78-2.13-1.82-2.68-3.1-.52-1.22-.79-2.79-.79-4.65 0-2.65.66-4.46 2.02-5.55 2.37-1.89 6.6-1.43 12.22-.16.9.17 1.91.38 3.02.61l.41.09c1.27.26 2.5.5 3.7.73l.23.04c1.11.21 2.06.39 2.84.57.23.05.39.25.39.49v5.74c0 .16-.07.3-.2.4-.12.1-.29.12-.44.08-1.82-.51-3.33-.87-4.62-1.09-1.42-.24-2.57-.4-3.52-.47-.81-.06-1.62-.07-2.4-.05-.5.02-.7.1-.76.13.06.02.23.16.75.31.51.16 1.65.48 3.48.91 2.78.63 4.65 1.22 5.9 1.85 1.4.71 2.32 1.53 2.8 2.5.47.94.7 2.02.7 3.23 0 2.1-1.22 3.79-3.73 5.15-2.37 1.31-5.84 2.15-10.49 3.21l-.31.07c-2.1.47-4.08.92-6.02 1.28-1.75.33-3.1.48-4.22.48Zm-.47-1.01c1.13.06 2.55-.09 4.52-.46 1.92-.36 3.89-.8 5.98-1.27l.31-.07c4.56-1.03 7.97-1.86 10.23-3.11 2.19-1.19 3.21-2.55 3.21-4.28 0-1.05-.2-1.99-.6-2.79-.38-.76-1.17-1.45-2.36-2.05-1.17-.59-2.97-1.15-5.67-1.77-1.86-.43-3.03-.77-3.55-.93-.36-.11-1.46-.45-1.46-1.29 0-.48.3-1.07 1.74-1.11.82-.03 1.66-.01 2.51.05.98.07 2.16.23 3.61.48 1.17.2 2.52.51 4.09.94v-4.68c-.69-.15-1.5-.3-2.42-.48l-.23-.04c-1.21-.23-2.45-.47-3.72-.73l-.42-.09c-1.1-.23-2.11-.44-3.02-.61-6.34-1.44-9.63-1.45-11.39-.04-1.11.89-1.65 2.45-1.65 4.77 0 1.72.24 3.15.71 4.26.46 1.09 1.23 1.98 2.29 2.64 1.11.7 2.65 1.3 4.58 1.77 1.43.33 2.78.59 4.01.8.49.08 1.96.32 1.96 1.37 0 .54-.38.97-1.13 1.28-.59.25-1.38.43-2.4.55-1.6.19-3.34.23-5.15.11-1.75-.11-3.25-.35-4.58-.73v7.51Zm10.92-1.32Z"/><path d="M50.37 92.35c-3.5-.65-6.49-1.45-8.96-2.4-2.47-.96-4.37-2.16-5.69-3.74-1.32-1.58-1.98-3.61-1.98-6.15 0-2.57.66-4.6 1.98-6.17 1.32-1.57 3.21-2.77 5.69-3.73 2.47-.95 5.46-1.76 8.96-2.4 3.5-.64 6.49-.89 8.96-.47 2.47.41 4.37 1.63 5.69 3.7 1.32 2.07 1.98 5.16 1.98 9.07 0 3.88-.66 6.96-1.98 9.04-1.32 2.09-3.21 3.31-5.69 3.72-2.47.42-5.46.17-8.96-.47Zm0-7.6c1.7.12 2.92-.14 3.64-.85.72-.7 1.08-2 1.08-3.86 0-1.86-.36-3.16-1.08-3.86-.72-.7-1.94-.97-3.64-.85-1.7.12-2.92.54-3.64 1.24-.72.7-1.08 1.85-1.08 3.47s.36 2.76 1.08 3.46c.72.7 1.94 1.12 3.64 1.24Z" class="cls-4"/><path d="M56.65 93.52c-1.79 0-3.88-.23-6.37-.69-3.51-.65-6.55-1.46-9.05-2.42-2.63-1.02-4.56-2.29-5.89-3.89-1.41-1.68-2.09-3.8-2.09-6.47s.68-4.82 2.09-6.49c1.33-1.59 3.26-2.85 5.89-3.87 2.5-.96 5.55-1.78 9.05-2.43 3.91-.72 6.81-.87 9.14-.47 2.62.44 4.65 1.76 6.02 3.93 1.36 2.14 2.05 5.28 2.05 9.34s-.69 7.16-2.05 9.31c-1.37 2.18-3.4 3.51-6.03 3.95-.84.14-1.75.22-2.76.22Zm-6.19-1.67c3.79.7 6.58.85 8.79.47 2.37-.4 4.11-1.54 5.35-3.5 1.26-1.99 1.9-4.94 1.9-8.78s-.64-6.82-1.9-8.8c-1.23-1.94-2.98-3.08-5.35-3.48-2.21-.38-5-.23-8.79.47-3.44.63-6.43 1.43-8.87 2.38-2.47.95-4.26 2.13-5.48 3.58-1.25 1.49-1.86 3.4-1.86 5.85s.61 4.34 1.86 5.83c1.22 1.47 3.02 2.64 5.48 3.6 2.44.94 5.43 1.74 8.87 2.37Zm.66-6.57c-.25 0-.52 0-.79-.03-1.81-.13-3.14-.59-3.95-1.38-.83-.81-1.24-2.06-1.24-3.82s.4-3.02 1.24-3.82c.81-.79 2.14-1.25 3.95-1.38 1.89-.13 3.2.19 4.02.99.82.79 1.24 2.21 1.24 4.22s-.42 3.43-1.24 4.22c-.7.68-1.76 1.01-3.23 1.01Zm.02-9.47c-.23 0-.48 0-.73.03-1.57.11-2.69.48-3.33 1.1-.62.6-.93 1.65-.93 3.11s.31 2.5.93 3.11c.64.62 1.76.99 3.33 1.1 1.56.11 2.66-.13 3.25-.71.61-.59.93-1.8.93-3.5s-.32-2.91-.93-3.5c-.51-.49-1.33-.74-2.52-.74Z"/><path d="M84.68 99.86c-2.92-.52-5.56-1.67-7.9-3.24-2.35-1.57-4.2-3.49-5.57-5.7-1.37-2.22-2.05-4.66-2.05-7.5V64.08c3.89-.9 7.77-1.77 11.66-2.53v20.63c0 3.43 1.28 5.26 3.85 5.45 2.57.19 3.85-1.59 3.85-5.3V60.22c3.89-.56 7.77-.94 11.66-1.04v25.27c0 3.71-.68 6.85-2.05 9.35-1.37 2.49-3.22 4.3-5.57 5.33-2.35 1.03-4.98 1.25-7.9.73Z" class="cls-4"/><path d="M87.59 100.63c-.96 0-1.97-.09-3-.28-2.84-.51-5.56-1.62-8.09-3.31-2.37-1.59-4.3-3.56-5.71-5.85-1.43-2.32-2.12-4.86-2.12-7.76V64.09c0-.23.16-.44.39-.49 3.52-.81 7.61-1.74 11.68-2.54.15-.03.3 0 .41.1.12.1.18.24.18.39v20.63c0 3.16 1.11 4.78 3.39 4.95.91.06 1.61-.14 2.13-.62.79-.73 1.19-2.14 1.19-4.18V60.22c0-.25.18-.46.43-.49 4.23-.61 8.06-.95 11.72-1.04a.497.497 0 0 1 .51.5v25.27c0 3.8-.71 7.03-2.11 9.59-1.44 2.62-3.39 4.49-5.8 5.55-1.58.69-3.32 1.04-5.19 1.04ZM69.66 64.48v18.94c0 2.72.65 5.08 1.97 7.24 1.34 2.17 3.16 4.04 5.42 5.55 2.42 1.61 5.01 2.68 7.71 3.16 2.84.51 5.4.27 7.61-.7 2.21-.96 4-2.68 5.33-5.11 1.32-2.41 1.99-5.47 1.99-9.11V59.69c-3.34.1-6.84.42-10.66.96v21.67c0 2.36-.49 3.97-1.51 4.91-.72.67-1.69.97-2.88.89-1.97-.15-4.32-1.3-4.32-5.95V62.15c-3.71.74-7.41 1.58-10.66 2.32Z"/><path d="M103.32 100.93V59.17c3.89.06 7.77.44 11.66 1.22v28.08c4.22-.37 8.45-.94 12.67-1.78v8.87c-8.11 3.75-16.22 5.23-24.33 5.37Z" class="cls-4"/><path d="M103.32 101.43a.5.5 0 0 1-.35-.14.475.475 0 0 1-.15-.36V59.17c0-.13.05-.26.15-.36.1-.09.22-.15.36-.14 4.14.07 7.98.47 11.75 1.23.23.05.4.25.4.49v27.54c4.16-.38 8.22-.96 12.08-1.72.15-.03.3 0 .41.1.12.09.18.24.18.39v8.87c0 .19-.11.37-.29.45-7.56 3.5-15.59 5.27-24.54 5.41Zm.5-41.75v40.74c8.49-.2 16.13-1.89 23.33-5.18V87.3c-3.88.75-7.96 1.31-12.13 1.67a.52.52 0 0 1-.38-.13.506.506 0 0 1-.16-.37V60.8c-3.43-.67-6.92-1.04-10.66-1.12Z"/><path d="M16.01 60.33c-2.41-12.98-4.82-24.68-7.23-33.87 3.79-1.81 7.58-3.1 11.37-3.95.79 4.78 1.57 9.71 2.36 14.76.59-2.85 1.19-5.75 1.78-8.68v-6.85c3.16-.47 6.33-.66 9.49-.65 1.16 5.35 2.31 10.72 3.47 16.05.88-5.31 1.77-10.58 2.65-15.77 3.77.31 7.55.87 11.32 1.57-2.39 12.25-4.79 25.47-7.18 39.23-3.39.43-6.78.69-10.17.71-1.24-5.49-2.47-11.01-3.71-16.5-1.33 5.46-2.67 10.86-4 16.09-3.39-.39-6.78-1.07-10.17-2.13Z" class="cls-4"/><path d="M33.89 63.36c-.23 0-.44-.16-.49-.39l-3.24-14.42c-1.34 5.48-2.46 9.98-3.49 14.03-.06.24-.29.41-.54.37a55.78 55.78 0 0 1-10.26-2.15.487.487 0 0 1-.34-.39c-2.69-14.48-5.05-25.55-7.22-33.84-.06-.23.05-.47.27-.58A54.62 54.62 0 0 1 20.06 22c.14-.03.28 0 .39.07.11.08.19.2.21.33.65 3.92 1.29 7.94 1.94 12.05.41-1.98.82-3.98 1.22-5.99v-6.75c0-.25.17-.46.42-.49 3.04-.45 6.26-.68 9.57-.66.23 0 .44.16.49.39l1.2 5.56c.57 2.65 1.14 5.3 1.72 7.94.74-4.44 1.48-8.84 2.22-13.2.04-.26.28-.43.53-.41 3.49.29 7.21.8 11.37 1.57.13.02.25.1.32.21.07.11.1.25.08.38-2.19 11.2-4.54 24.03-7.18 39.22-.04.22-.21.38-.43.41-3.64.46-6.99.69-10.23.71Zm-3.71-17.49c.23 0 .43.16.48.39l3.62 16.1c2.97-.03 6.03-.25 9.34-.66 2.58-14.81 4.88-27.38 7.02-38.38-3.75-.68-7.13-1.15-10.32-1.43a3046 3046 0 0 0-2.57 15.32c-.04.24-.24.41-.48.42-.25 0-.45-.16-.5-.39-.76-3.49-1.51-6.99-2.27-10.49l-1.12-5.17c-2.96 0-5.85.2-8.59.58v6.42c-.6 3.03-1.2 5.93-1.79 8.78-.05.24-.25.4-.5.4-.24 0-.44-.18-.48-.42-.76-4.86-1.52-9.62-2.27-14.23-3.56.84-7.04 2.06-10.38 3.62 2.13 8.21 4.45 19.08 7.08 33.21 3 .92 6.14 1.58 9.35 1.97 1.13-4.44 2.37-9.43 3.89-15.66.05-.22.26-.38.49-.38Z"/><path d="M53.74 60.54V23.41c3.89.78 7.77 1.69 11.66 2.62v31.9c-3.89.93-7.77 1.84-11.66 2.62Z" class="cls-4"/><path d="M53.74 61.04c-.11 0-.23-.04-.32-.11a.484.484 0 0 1-.18-.39V23.41c0-.15.07-.29.18-.39.12-.09.27-.13.42-.1 4.02.81 8.14 1.78 11.68 2.62.23.05.38.25.38.49v31.9c0 .23-.16.43-.38.49-3.54.84-7.66 1.81-11.68 2.62h-.1Zm.5-37.02v35.91c3.67-.75 7.39-1.62 10.66-2.4V26.42c-3.27-.78-6.99-1.65-10.66-2.4Z"/><path d="M68.77 57.12V26.84c3.89.93 7.77 1.84 11.66 2.63v17.88c4.22-.37 8.45-.67 12.67-.85v6.02c-8.11.8-16.22 2.67-24.33 4.6Z" class="cls-4"/><path d="M68.77 57.62a.508.508 0 0 1-.5-.5V26.84c0-.15.07-.3.19-.39.12-.09.28-.13.43-.09 3.71.89 7.67 1.82 11.64 2.62.23.05.4.25.4.49v17.34c4.52-.38 8.5-.65 12.15-.8.14 0 .27.04.37.14.1.09.15.22.15.36v6.02c0 .26-.2.47-.45.5-7.89.77-15.66 2.54-24.27 4.59-.04 0-.08.01-.12.01Zm.5-30.15v29.02c8.24-1.96 15.72-3.64 23.33-4.42v-5.05c-3.65.16-7.62.43-12.13.82a.52.52 0 0 1-.38-.13.506.506 0 0 1-.16-.37V29.87c-3.64-.74-7.25-1.59-10.66-2.4Z"/><path d="M94.8 52.37V31.58c4.91.39 9.83.36 14.74-.32 3.28-.45 6.12-.78 8.53-.59 2.41.18 4.27 1.04 5.59 2.88 1.32 1.82 1.98 4.81 1.98 8.62 0 3.61-.65 6.48-1.95 8.26-1.3 1.8-3.15 2.66-5.54 2.85-2.39.2-5.26-.14-8.6-.59-4.91-.68-9.83-.71-14.74-.32Zm11.66-5.95c.58.02 1.16.05 1.73.07 1.16.06 2.15.01 2.99-.16.84-.17 1.48-.57 1.93-1.23.45-.65.67-1.66.67-2.99 0-1.33-.21-2.32-.63-2.94-.42-.62-1.04-1-1.86-1.14-.82-.14-1.86-.18-3.11-.12-.58.03-1.16.05-1.73.07v8.44Z" class="cls-4"/><path d="M116.62 53.84c-2.12 0-4.52-.3-7.15-.66-4.58-.63-9.37-.73-14.64-.31a.52.52 0 0 1-.38-.13.506.506 0 0 1-.16-.37V31.58c0-.14.06-.27.16-.37.1-.09.24-.14.38-.13 5.27.42 10.06.31 14.64-.31 3.11-.43 6.11-.79 8.64-.6 2.67.2 4.62 1.21 5.96 3.09 1.35 1.87 2.07 4.95 2.07 8.91s-.71 6.72-2.05 8.55c-1.33 1.84-3.26 2.84-5.9 3.06-.5.04-1.02.06-1.56.06Zm-15.67-2.23c3 0 5.87.19 8.66.57 3.24.44 6.11.79 8.49.59 2.37-.19 4.02-1.04 5.18-2.65 1.21-1.66 1.86-4.42 1.86-7.97 0-3.74-.65-6.62-1.88-8.32-1.18-1.65-2.84-2.5-5.22-2.67-2.43-.18-5.37.17-8.42.59-4.49.62-9.18.73-14.31.36v19.71c1.94-.14 3.83-.21 5.66-.21Zm8.13-4.6c-.29 0-.6 0-.92-.02-.58-.03-1.15-.05-1.73-.07-.27 0-.48-.23-.48-.5v-8.44c0-.27.21-.49.48-.5.58-.02 1.15-.04 1.73-.07 1.34-.06 2.39-.02 3.22.13.96.17 1.7.62 2.18 1.36.48.71.71 1.76.71 3.22s-.26 2.54-.76 3.27c-.52.75-1.27 1.24-2.24 1.43-.63.13-1.35.19-2.19.19Zm-2.12-1.07 1.26.06c1.16.05 2.09 0 2.86-.15.72-.15 1.24-.48 1.62-1.02.39-.56.59-1.47.59-2.7s-.18-2.12-.54-2.66c-.34-.5-.84-.81-1.53-.93-.75-.13-1.73-.17-3-.11-.42.02-.84.03-1.26.05v7.47Z"/><path d="M18.47 91.98c-2.19.49-4.29.97-6.31 1.35-2.02.38-3.73.57-5.11.43v-8.65c1.51.51 3.21.78 5.11.9 1.9.12 3.58.07 5.06-.11.96-.11 1.72-.28 2.27-.51.55-.23.82-.5.82-.82 0-.42-.51-.71-1.54-.88-1.03-.17-2.38-.42-4.05-.81-1.99-.49-3.57-1.1-4.72-1.83-1.16-.73-1.98-1.69-2.48-2.87-.5-1.17-.75-2.68-.75-4.45 0-6.89 4.55-7.28 13.64-5.22 1.03.2 2.18.44 3.45.7 1.27.26 2.51.5 3.71.73 1.2.23 2.22.42 3.06.61v5.74c-1.77-.5-3.33-.87-4.67-1.1-1.35-.23-2.54-.39-3.57-.47-.8-.06-1.62-.08-2.46-.05-.84.03-1.25.23-1.25.61 0 .31.37.59 1.11.81.74.23 1.91.55 3.52.92 2.57.58 4.5 1.16 5.78 1.81 1.28.65 2.14 1.41 2.58 2.28.43.87.65 1.87.65 3.01 0 1.94-1.16 3.46-3.47 4.72-2.31 1.28-5.77 2.12-10.36 3.16Z" class="cls-4"/><path d="M8.02 94.31c-.37 0-.71-.02-1.03-.05a.508.508 0 0 1-.45-.5v-8.65c0-.16.08-.31.21-.41.13-.09.3-.12.45-.07 1.39.47 3.02.75 4.98.88 1.75.11 3.43.08 4.97-.11.92-.11 1.63-.27 2.13-.48.42-.18.51-.32.51-.36s-.15-.22-1.12-.38c-1.25-.21-2.62-.48-4.08-.81-2.04-.5-3.68-1.14-4.88-1.9-1.23-.78-2.13-1.82-2.68-3.1-.52-1.22-.79-2.79-.79-4.65 0-2.65.66-4.46 2.02-5.55 2.37-1.89 6.6-1.43 12.22-.16.9.17 1.91.38 3.02.61l.41.09c1.27.26 2.5.5 3.7.73l.23.04c1.11.21 2.06.39 2.84.57.23.05.39.25.39.49v5.74c0 .16-.07.3-.2.4-.12.1-.29.12-.44.08-1.82-.51-3.33-.87-4.62-1.09-1.42-.24-2.57-.4-3.52-.47-.81-.06-1.62-.07-2.4-.05-.5.02-.7.1-.76.13.06.02.23.16.75.31.51.16 1.65.48 3.48.91 2.78.63 4.65 1.22 5.9 1.85 1.4.71 2.32 1.53 2.8 2.5.47.94.7 2.02.7 3.23 0 2.1-1.22 3.79-3.73 5.15-2.37 1.31-5.84 2.15-10.49 3.21l-.31.07c-2.1.47-4.08.92-6.02 1.28-1.75.33-3.1.48-4.22.48Zm-.47-1.01c1.13.06 2.55-.09 4.52-.46 1.92-.36 3.89-.8 5.98-1.27l.31-.07c4.56-1.03 7.97-1.86 10.23-3.11 2.19-1.19 3.21-2.55 3.21-4.28 0-1.05-.2-1.99-.6-2.79-.38-.76-1.17-1.45-2.36-2.05-1.17-.59-2.97-1.15-5.67-1.77-1.86-.43-3.03-.77-3.55-.93-.36-.11-1.46-.45-1.46-1.29 0-.48.3-1.07 1.74-1.11.82-.03 1.66-.01 2.51.05.98.07 2.16.23 3.61.48 1.17.2 2.52.51 4.09.94v-4.68c-.69-.15-1.5-.3-2.42-.48l-.23-.04c-1.21-.23-2.45-.47-3.72-.73l-.42-.09c-1.1-.23-2.11-.44-3.02-.61-6.34-1.44-9.63-1.45-11.39-.04-1.11.89-1.65 2.45-1.65 4.77 0 1.72.24 3.15.71 4.26.46 1.09 1.23 1.98 2.29 2.64 1.11.7 2.65 1.3 4.58 1.77 1.43.33 2.78.59 4.01.8.49.08 1.96.32 1.96 1.37 0 .54-.38.97-1.13 1.28-.59.25-1.38.43-2.4.55-1.6.19-3.34.23-5.15.11-1.75-.11-3.25-.35-4.58-.73v7.51Zm10.92-1.32Z"/><path d="M50.37 92.35c-3.5-.65-6.49-1.45-8.96-2.4-2.47-.96-4.37-2.16-5.69-3.74-1.32-1.58-1.98-3.61-1.98-6.15 0-2.57.66-4.6 1.98-6.17 1.32-1.57 3.21-2.77 5.69-3.73 2.47-.95 5.46-1.76 8.96-2.4 3.5-.64 6.49-.89 8.96-.47 2.47.41 4.37 1.63 5.69 3.7 1.32 2.07 1.98 5.16 1.98 9.07 0 3.88-.66 6.96-1.98 9.04-1.32 2.09-3.21 3.31-5.69 3.72-2.47.42-5.46.17-8.96-.47Zm0-7.6c1.7.12 2.92-.14 3.64-.85.72-.7 1.08-2 1.08-3.86 0-1.86-.36-3.16-1.08-3.86-.72-.7-1.94-.97-3.64-.85-1.7.12-2.92.54-3.64 1.24-.72.7-1.08 1.85-1.08 3.47s.36 2.76 1.08 3.46c.72.7 1.94 1.12 3.64 1.24Z" class="cls-4"/><path d="M56.65 93.52c-1.79 0-3.88-.23-6.37-.69-3.51-.65-6.55-1.46-9.05-2.42-2.63-1.02-4.56-2.29-5.89-3.89-1.41-1.68-2.09-3.8-2.09-6.47s.68-4.82 2.09-6.49c1.33-1.59 3.26-2.85 5.89-3.87 2.5-.96 5.55-1.78 9.05-2.43 3.91-.72 6.81-.87 9.14-.47 2.62.44 4.65 1.76 6.02 3.93 1.36 2.14 2.05 5.28 2.05 9.34s-.69 7.16-2.05 9.31c-1.37 2.18-3.4 3.51-6.03 3.95-.84.14-1.75.22-2.76.22Zm-6.19-1.67c3.79.7 6.58.85 8.79.47 2.37-.4 4.11-1.54 5.35-3.5 1.26-1.99 1.9-4.94 1.9-8.78s-.64-6.82-1.9-8.8c-1.23-1.94-2.98-3.08-5.35-3.48-2.21-.38-5-.23-8.79.47-3.44.63-6.43 1.43-8.87 2.38-2.47.95-4.26 2.13-5.48 3.58-1.25 1.49-1.86 3.4-1.86 5.85s.61 4.34 1.86 5.83c1.22 1.47 3.02 2.64 5.48 3.6 2.44.94 5.43 1.74 8.87 2.37Zm.66-6.57c-.25 0-.52 0-.79-.03-1.81-.13-3.14-.59-3.95-1.38-.83-.81-1.24-2.06-1.24-3.82s.4-3.02 1.24-3.82c.81-.79 2.14-1.25 3.95-1.38 1.89-.13 3.2.19 4.02.99.82.79 1.24 2.21 1.24 4.22s-.42 3.43-1.24 4.22c-.7.68-1.76 1.01-3.23 1.01Zm.02-9.47c-.23 0-.48 0-.73.03-1.57.11-2.69.48-3.33 1.1-.62.6-.93 1.65-.93 3.11s.31 2.5.93 3.11c.64.62 1.76.99 3.33 1.1 1.56.11 2.66-.13 3.25-.71.61-.59.93-1.8.93-3.5s-.32-2.91-.93-3.5c-.51-.49-1.33-.74-2.52-.74Z"/><path d="M84.68 99.86c-2.92-.52-5.56-1.67-7.9-3.24-2.35-1.57-4.2-3.49-5.57-5.7-1.37-2.22-2.05-4.66-2.05-7.5V64.08c3.89-.9 7.77-1.77 11.66-2.53v20.63c0 3.43 1.28 5.26 3.85 5.45 2.57.19 3.85-1.59 3.85-5.3V60.22c3.89-.56 7.77-.94 11.66-1.04v25.27c0 3.71-.68 6.85-2.05 9.35-1.37 2.49-3.22 4.3-5.57 5.33-2.35 1.03-4.98 1.25-7.9.73Z" class="cls-4"/><path d="M87.59 100.63c-.96 0-1.97-.09-3-.28-2.84-.51-5.56-1.62-8.09-3.31-2.37-1.59-4.3-3.56-5.71-5.85-1.43-2.32-2.12-4.86-2.12-7.76V64.09c0-.23.16-.44.39-.49 3.52-.81 7.61-1.74 11.68-2.54.15-.03.3 0 .41.1.12.1.18.24.18.39v20.63c0 3.16 1.11 4.78 3.39 4.95.91.06 1.61-.14 2.13-.62.79-.73 1.19-2.14 1.19-4.18V60.22c0-.25.18-.46.43-.49 4.23-.61 8.06-.95 11.72-1.04a.497.497 0 0 1 .51.5v25.27c0 3.8-.71 7.03-2.11 9.59-1.44 2.62-3.39 4.49-5.8 5.55-1.58.69-3.32 1.04-5.19 1.04ZM69.66 64.48v18.94c0 2.72.65 5.08 1.97 7.24 1.34 2.17 3.16 4.04 5.42 5.55 2.42 1.61 5.01 2.68 7.71 3.16 2.84.51 5.4.27 7.61-.7 2.21-.96 4-2.68 5.33-5.11 1.32-2.41 1.99-5.47 1.99-9.11V59.69c-3.34.1-6.84.42-10.66.96v21.67c0 2.36-.49 3.97-1.51 4.91-.72.67-1.69.97-2.88.89-1.97-.15-4.32-1.3-4.32-5.95V62.15c-3.71.74-7.41 1.58-10.66 2.32Z"/><path d="M103.32 100.93V59.17c3.89.06 7.77.44 11.66 1.22v28.08c4.22-.37 8.45-.94 12.67-1.78v8.87c-8.11 3.75-16.22 5.23-24.33 5.37Z" class="cls-4"/><path d="M103.32 101.43a.5.5 0 0 1-.35-.14.475.475 0 0 1-.15-.36V59.17c0-.13.05-.26.15-.36.1-.09.22-.15.36-.14 4.14.07 7.98.47 11.75 1.23.23.05.4.25.4.49v27.54c4.16-.38 8.22-.96 12.08-1.72.15-.03.3 0 .41.1.12.09.18.24.18.39v8.87c0 .19-.11.37-.29.45-7.56 3.5-15.59 5.27-24.54 5.41Zm.5-41.75v40.74c8.49-.2 16.13-1.89 23.33-5.18V87.3c-3.88.75-7.96 1.31-12.13 1.67a.52.52 0 0 1-.38-.13.506.506 0 0 1-.16-.37V60.8c-3.43-.67-6.92-1.04-10.66-1.12Z"/><path d="m101.44 19.17-6.75 2.05 4.26 5.63-6.68-2.31.15 7.06-4.04-5.8-4.03 5.8.14-7.06-6.67 2.31 4.26-5.63-6.76-2.05 6.76-2.05-4.26-5.63 6.67 2.32-.14-7.06 4.03 5.8 4.04-5.8-.15 7.06 6.68-2.32-4.26 5.63 6.75 2.05z" class="cls-1"/><path d="M92.42 32.1c-.16 0-.31-.08-.41-.21l-3.63-5.21-3.63 5.21c-.13.18-.35.26-.56.19a.517.517 0 0 1-.35-.49l.13-6.34-5.99 2.08c-.21.07-.44 0-.57-.18a.51.51 0 0 1 0-.6l3.83-5.06-6.07-1.84c-.21-.06-.35-.26-.35-.48s.14-.41.35-.48l6.07-1.84-3.83-5.06a.51.51 0 0 1 0-.6c.13-.18.36-.25.57-.18l5.99 2.08-.13-6.34c0-.22.14-.42.35-.49.21-.07.44 0 .56.19l3.63 5.21 3.63-5.21c.13-.18.35-.26.56-.19.21.07.35.27.35.49l-.13 6.34 5.99-2.08c.21-.07.44 0 .57.18.13.18.13.42 0 .6l-3.83 5.06 6.07 1.84c.21.06.35.26.35.48s-.14.41-.35.48l-6.07 1.84 3.83 5.06c.13.18.14.42 0 .6-.13.18-.36.25-.57.18l-5.99-2.08.13 6.34c0 .22-.14.42-.35.49-.05.02-.1.02-.15.02Zm-7.93-8.06c.1 0 .21.03.29.1.13.1.21.25.21.41l-.11 5.41 3.09-4.44a.507.507 0 0 1 .82 0l3.09 4.44-.11-5.41c0-.16.07-.32.21-.41a.5.5 0 0 1 .46-.07l5.12 1.77-3.27-4.31c-.1-.13-.13-.3-.08-.46.05-.16.17-.28.33-.32l5.18-1.57-5.18-1.57a.502.502 0 0 1-.33-.32.504.504 0 0 1 .08-.46l3.27-4.31-5.12 1.77a.505.505 0 0 1-.67-.48l.11-5.41-3.09 4.44c-.19.27-.63.27-.82 0L84.88 8.4l.11 5.41c0 .16-.07.32-.21.41a.5.5 0 0 1-.46.07l-5.12-1.77 3.27 4.32c.1.13.13.3.08.46-.05.16-.17.28-.33.32l-5.18 1.57 5.18 1.57c.16.05.28.17.33.32.05.16.02.33-.08.46l-3.27 4.31 5.12-1.77c.05-.02.11-.03.16-.03Z"/><path d="m101.44 19.17-6.75 2.05 4.26 5.63-6.68-2.31.15 7.06-4.04-5.8-4.03 5.8.14-7.06-6.67 2.31 4.26-5.63-6.76-2.05 6.76-2.05-4.26-5.63 6.67 2.32-.14-7.06 4.03 5.8 4.04-5.8-.15 7.06 6.68-2.32-4.26 5.63 6.75 2.05z" class="cls-1"/><path d="M92.42 32.1c-.16 0-.31-.08-.41-.21l-3.63-5.21-3.63 5.21c-.13.18-.35.26-.56.19a.517.517 0 0 1-.35-.49l.13-6.34-5.99 2.08c-.21.07-.44 0-.57-.18a.51.51 0 0 1 0-.6l3.83-5.06-6.07-1.84c-.21-.06-.35-.26-.35-.48s.14-.41.35-.48l6.07-1.84-3.83-5.06a.51.51 0 0 1 0-.6c.13-.18.36-.25.57-.18l5.99 2.08-.13-6.34c0-.22.14-.42.35-.49.21-.07.44 0 .56.19l3.63 5.21 3.63-5.21c.13-.18.35-.26.56-.19.21.07.35.27.35.49l-.13 6.34 5.99-2.08c.21-.07.44 0 .57.18.13.18.13.42 0 .6l-3.83 5.06 6.07 1.84c.21.06.35.26.35.48s-.14.41-.35.48l-6.07 1.84 3.83 5.06c.13.18.14.42 0 .6-.13.18-.36.25-.57.18l-5.99-2.08.13 6.34c0 .22-.14.42-.35.49-.05.02-.1.02-.15.02Zm-7.93-8.06c.1 0 .21.03.29.1.13.1.21.25.21.41l-.11 5.41 3.09-4.44a.507.507 0 0 1 .82 0l3.09 4.44-.11-5.41c0-.16.07-.32.21-.41a.5.5 0 0 1 .46-.07l5.12 1.77-3.27-4.31c-.1-.13-.13-.3-.08-.46.05-.16.17-.28.33-.32l5.18-1.57-5.18-1.57a.502.502 0 0 1-.33-.32.504.504 0 0 1 .08-.46l3.27-4.31-5.12 1.77a.505.505 0 0 1-.67-.48l.11-5.41-3.09 4.44c-.19.27-.63.27-.82 0L84.88 8.4l.11 5.41c0 .16-.07.32-.21.41a.5.5 0 0 1-.46.07l-5.12-1.77 3.27 4.32c.1.13.13.3.08.46-.05.16-.17.28-.33.32l-5.18 1.57 5.18 1.57c.16.05.28.17.33.32.05.16.02.33-.08.46l-3.27 4.31 5.12-1.77c.05-.02.11-.03.16-.03Z"/><path d="M94.08 19.08s-2.55 3.09-5.7 3.09-5.7-3.09-5.7-3.09 2.55-3.09 5.7-3.09 5.7 3.09 5.7 3.09Z" class="cls-3"/><path d="M88.38 22.67c-3.34 0-5.97-3.14-6.08-3.27a.511.511 0 0 1 0-.64c.11-.13 2.74-3.27 6.08-3.27s5.97 3.14 6.08 3.27c.15.19.15.45 0 .64-.11.13-2.74 3.27-6.08 3.27Zm-5.02-3.59c.73.75 2.73 2.59 5.02 2.59s4.29-1.84 5.02-2.59c-.73-.76-2.73-2.59-5.02-2.59s-4.3 1.83-5.02 2.59Z"/><path d="M90.64 19.08c0 1.25-1.01 2.26-2.26 2.26s-2.26-1.01-2.26-2.26 1.01-2.26 2.26-2.26 2.26 1.01 2.26 2.26Z" class="cls-2"/><path d="M88.38 21.84c-1.52 0-2.76-1.24-2.76-2.76s1.24-2.76 2.76-2.76 2.76 1.24 2.76 2.76-1.24 2.76-2.76 2.76Zm0-4.52c-.97 0-1.76.79-1.76 1.76s.79 1.76 1.76 1.76 1.76-.79 1.76-1.76-.79-1.76-1.76-1.76Z"/><path d="m45.36 107.2-6.76 2.05 4.26 5.63-6.67-2.31.14 7.06-4.03-5.8-4.04 5.8.15-7.06-6.68 2.31 4.26-5.63-6.75-2.05 6.75-2.05-4.26-5.62 6.68 2.31-.15-7.06 4.04 5.8 4.03-5.8-.14 7.06 6.67-2.31-4.26 5.62 6.76 2.05z" class="cls-1"/><path d="M36.33 120.13c-.16 0-.31-.08-.41-.21l-3.63-5.21-3.63 5.21c-.13.18-.36.26-.57.19a.517.517 0 0 1-.35-.49l.13-6.34-5.99 2.08c-.21.07-.44 0-.57-.18a.51.51 0 0 1 0-.6l3.83-5.06-6.07-1.84a.5.5 0 0 1 0-.96l6.07-1.84-3.83-5.06a.51.51 0 0 1 0-.6c.13-.18.36-.25.57-.18l5.99 2.08-.13-6.34c0-.22.14-.42.35-.49.21-.07.44 0 .57.19l3.63 5.21 3.63-5.21c.13-.18.36-.26.56-.19.21.07.35.27.35.49l-.13 6.34 5.99-2.08c.21-.07.44 0 .57.18.13.18.13.42 0 .6l-3.83 5.06 6.07 1.84c.21.06.35.26.35.48s-.14.41-.35.48l-6.07 1.84 3.83 5.06c.13.18.13.42 0 .6s-.36.25-.57.18l-5.99-2.08.13 6.34c0 .22-.14.42-.35.49-.05.02-.1.02-.15.02Zm-4.03-6.8c.16 0 .32.08.41.21l3.09 4.44-.11-5.41c0-.16.07-.32.21-.41a.5.5 0 0 1 .46-.07l5.12 1.77-3.27-4.31c-.1-.13-.13-.3-.08-.46.05-.16.17-.28.33-.32l5.18-1.57-5.18-1.57a.502.502 0 0 1-.33-.32.504.504 0 0 1 .08-.46l3.27-4.31-5.12 1.77a.505.505 0 0 1-.67-.48l.11-5.41-3.09 4.44c-.19.27-.63.27-.82 0l-3.09-4.44.11 5.41c0 .16-.07.32-.21.41a.5.5 0 0 1-.46.07l-5.12-1.77 3.26 4.31c.1.13.13.3.08.46-.05.16-.17.28-.33.32l-5.18 1.57 5.18 1.57c.16.05.28.17.33.32.05.16.02.33-.08.46l-3.27 4.31 5.12-1.77a.5.5 0 0 1 .46.07c.13.1.21.25.21.41l-.11 5.41 3.09-4.44c.09-.13.25-.21.41-.21Z"/><path d="m45.36 107.2-6.76 2.05 4.26 5.63-6.67-2.31.14 7.06-4.03-5.8-4.04 5.8.15-7.06-6.68 2.31 4.26-5.63-6.75-2.05 6.75-2.05-4.26-5.62 6.68 2.31-.15-7.06 4.04 5.8 4.03-5.8-.14 7.06 6.67-2.31-4.26 5.62 6.76 2.05z" class="cls-1"/><path d="M36.33 120.13c-.16 0-.31-.08-.41-.21l-3.63-5.21-3.63 5.21c-.13.18-.36.26-.57.19a.517.517 0 0 1-.35-.49l.13-6.34-5.99 2.08c-.21.07-.44 0-.57-.18a.51.51 0 0 1 0-.6l3.83-5.06-6.07-1.84a.5.5 0 0 1 0-.96l6.07-1.84-3.83-5.06a.51.51 0 0 1 0-.6c.13-.18.36-.25.57-.18l5.99 2.08-.13-6.34c0-.22.14-.42.35-.49.21-.07.44 0 .57.19l3.63 5.21 3.63-5.21c.13-.18.36-.26.56-.19.21.07.35.27.35.49l-.13 6.34 5.99-2.08c.21-.07.44 0 .57.18.13.18.13.42 0 .6l-3.83 5.06 6.07 1.84c.21.06.35.26.35.48s-.14.41-.35.48l-6.07 1.84 3.83 5.06c.13.18.13.42 0 .6s-.36.25-.57.18l-5.99-2.08.13 6.34c0 .22-.14.42-.35.49-.05.02-.1.02-.15.02Zm-4.03-6.8c.16 0 .32.08.41.21l3.09 4.44-.11-5.41c0-.16.07-.32.21-.41a.5.5 0 0 1 .46-.07l5.12 1.77-3.27-4.31c-.1-.13-.13-.3-.08-.46.05-.16.17-.28.33-.32l5.18-1.57-5.18-1.57a.502.502 0 0 1-.33-.32.504.504 0 0 1 .08-.46l3.27-4.31-5.12 1.77a.505.505 0 0 1-.67-.48l.11-5.41-3.09 4.44c-.19.27-.63.27-.82 0l-3.09-4.44.11 5.41c0 .16-.07.32-.21.41a.5.5 0 0 1-.46.07l-5.12-1.77 3.26 4.31c.1.13.13.3.08.46-.05.16-.17.28-.33.32l-5.18 1.57 5.18 1.57c.16.05.28.17.33.32.05.16.02.33-.08.46l-3.27 4.31 5.12-1.77a.5.5 0 0 1 .46.07c.13.1.21.25.21.41l-.11 5.41 3.09-4.44c.09-.13.25-.21.41-.21Z"/><path d="M37.99 107.11s-2.55 3.09-5.7 3.09-5.7-3.09-5.7-3.09 2.55-3.09 5.7-3.09 5.7 3.09 5.7 3.09Z" class="cls-3"/><path d="M32.3 110.7c-3.34 0-5.97-3.14-6.08-3.27a.511.511 0 0 1 0-.64c.11-.13 2.74-3.27 6.08-3.27s5.97 3.14 6.08 3.27c.15.18.15.45 0 .64-.11.13-2.74 3.27-6.08 3.27Zm-5.02-3.59c.73.75 2.73 2.59 5.02 2.59s4.29-1.84 5.02-2.59c-.73-.76-2.73-2.59-5.02-2.59s-4.3 1.83-5.02 2.59Z"/><circle cx="32.3" cy="107.11" r="2.26" class="cls-2"/><path d="M32.3 109.87c-1.52 0-2.76-1.24-2.76-2.76s1.24-2.76 2.76-2.76 2.76 1.24 2.76 2.76-1.24 2.76-2.76 2.76Zm0-4.52c-.97 0-1.76.79-1.76 1.76s.79 1.76 1.76 1.76 1.76-.79 1.76-1.76-.79-1.76-1.76-1.76Z"/></g></svg>