<svg xmlns="http://www.w3.org/2000/svg" width="163" height="168" fill="none"><path fill="#6EDAA8" d="M104.268 145.32a32.06 32.06 0 0 0 3.44-11.57 78.646 78.646 0 0 0 11.62-16.22 101.113 101.113 0 0 0 6-12.61 99.406 99.406 0 0 0 3.6-11.72c.74-2.89 1.44-5.81 2.12-8.65 1.14-4.74 2.31-9.65 3.71-14.35.27-.91.53-1.74.79-2.55.15-.44.29-.76.52-1.3.07-.15.14-.32.21-.5.46-1.06.83-2.09 1.18-3.09.14-.4.28-.79.43-1.19l.21-.55.24-.61c.21-.53.44-1.06.67-1.58.42-.91.88-1.84 1.38-2.75a53.84 53.84 0 0 1 3.23-5.21c1.76-2.54 3.69-5 5.73-7.56a98.704 98.704 0 0 0 9.83-14.07c2.88-5.23 3.88-10.02 3.18-14.63a15.717 15.717 0 0 0-2.84-7.29 18.057 18.057 0 0 0-2.06-2.3 17.543 17.543 0 0 0-4.86-3.25c-4-1.78-8.79-2.22-14.26-1.31a35.488 35.488 0 0 0-11.28 4.07 48.446 48.446 0 0 0-9.38 6.88 54.375 54.375 0 0 0-3.82 3.91c-.35.4-.67.79-1 1.14-.33.35-.56.7-.81 1a70.057 70.057 0 0 0-7 8.91 55.123 55.123 0 0 0-6.94 14.69c-4.16-2.42-8.36-4.63-12.57-6.58-3.45-1.6-7.12-3.13-10.89-4.52a85.584 85.584 0 0 0-10.4-3.35 38.553 38.553 0 0 0-11.83-1c-4.06.294-8 1.508-11.52 3.55a22.173 22.173 0 0 0-6.75 6.09c-5.89.55-10.66 2.74-13.88 6.39a21.37 21.37 0 0 0-4.8 16.1 28.87 28.87 0 0 0-6.82 4.25 23 23 0 0 0-8 12.29 31.19 31.19 0 0 0 .72 15.46 47.602 47.602 0 0 0 6.74 13.87 60.21 60.21 0 0 0 5.71 7 43.314 43.314 0 0 0 .83 9.23c1.23 6.05 3.76 10.91 7.53 14.45.45.43.94.85 1.43 1.24a29.998 29.998 0 0 0 2.86 10.69 30.615 30.615 0 0 0 6.77 9.14l.1.1a40.214 40.214 0 0 0 9.55 6.53 51.117 51.117 0 0 0 10.88 3.91 53.095 53.095 0 0 0 11.54 1.43 47.41 47.41 0 0 0 11.54-1.32 45.065 45.065 0 0 0 11-4.19 40.27 40.27 0 0 0 9.54-7.15 38.055 38.055 0 0 0 6.88-9.35Z"/><path fill="#133324" d="M99.807 143.011a26.992 26.992 0 0 0 2.91-9.87c.05-.53.08-1.06.1-1.59a71.3 71.3 0 0 0 12.14-16.49 98.633 98.633 0 0 0 5.7-12 96.451 96.451 0 0 0 3.4-11.13c2-7.72 3.6-15.54 5.87-23.18.27-.9.55-1.79.84-2.68.256-.752.553-1.49.89-2.21.57-1.33 1-2.7 1.51-4l.07-.19s.11-.28.16-.42l.27-.69c.24-.6.5-1.19.76-1.77.48-1.05 1-2.07 1.53-3.08a66.077 66.077 0 0 1 3.52-5.67c4.92-7.1 11.12-13.47 15.28-21.16 1.92-3.54 3.24-7.42 2.64-11.5a10.991 10.991 0 0 0-1.89-5 12.586 12.586 0 0 0-5-4c-3.56-1.59-7.59-1.58-11.38-1a30.868 30.868 0 0 0-9.7 3.51 42.7 42.7 0 0 0-8.4 6.18 48.188 48.188 0 0 0-3.43 3.54c-.63.71-1.19 1.49-1.83 2.18a62.95 62.95 0 0 0-6.46 8.26 47.394 47.394 0 0 0-7.32 17.64c-.14.77-.24 1.55-.32 2.33a152.589 152.589 0 0 0-18.18-10.06c-3.45-1.6-7-3-10.52-4.36a81 81 0 0 0-9.86-3.09 34 34 0 0 0-10.3-1 21.91 21.91 0 0 0-9.36 2.87 16.14 16.14 0 0 0-6.46 6.79 1.76 1.76 0 0 0-.69-.12c-4.46.13-9.2 1.34-12.26 4.81-3.06 3.47-4.05 8.42-3.51 13 .138 1.09.332 2.17.58 3.24a21.84 21.84 0 0 0-9.26 4.69 18 18 0 0 0-6.32 9.53 26.13 26.13 0 0 0 .65 13 42.718 42.718 0 0 0 6 12.37 56.89 56.89 0 0 0 6.69 7.92c-.3 4.69-.22 17.19 8.39 23.39.402.523.84 1.018 1.31 1.48-.05.165-.07.338-.06.51a25.091 25.091 0 0 0 2.44 10 26.19 26.19 0 0 0 5.77 7.73 35.336 35.336 0 0 0 8.36 5.7 46.256 46.256 0 0 0 9.8 3.53 47.627 47.627 0 0 0 10.44 1.29c3.475.023 6.94-.373 10.32-1.18a40.329 40.329 0 0 0 9.77-3.73 35.86 35.86 0 0 0 8.37-6.27 33.37 33.37 0 0 0 6.03-8.05Zm-52.82-107.4h.06-.11.05Zm-23.09 19.58v-1.09a.417.417 0 0 0 0-.13 9.72 9.72 0 0 1 .25-1.6c.1-.467.22-.927.36-1.38l.11-.32v-.12c.092-.256.199-.506.32-.75.203-.445.43-.88.68-1.3.117-.208.247-.408.39-.6l.09-.11.26-.32c.308-.377.642-.73 1-1.06a2.1 2.1 0 0 1 .27-.24h.07l.64-.45c.402-.258.82-.492 1.25-.7l.26-.13c.28-.12.57-.23.86-.33.456-.16.92-.298 1.39-.41.22-.06.43-.11.65-.15l.39-.08h.22a14.92 14.92 0 0 1 2.42-.24 16.67 16.67 0 0 0 .22 6.48 31.872 31.872 0 0 0 3.79 8.93 61.638 61.638 0 0 0 6.31 8.83 60.39 60.39 0 0 0 16.55 13.46 51.33 51.33 0 0 0 20 6.43 30.9 30.9 0 0 0 7.06-.09 2.07 2.07 0 0 0 0 .22c0 .21 0 .43.06.64.025.4.025.8 0 1.2a3.024 3.024 0 0 0 0 .31c0 .22-.06.43-.1.65-.073.396-.17.786-.29 1.17 0 .18-.11.35-.17.53l-.16.4a13.404 13.404 0 0 1-1.25 2.25l-.13.18c-.13.18-.27.35-.42.53-.264.318-.544.622-.84.91-.23.23-.51.43-.76.67a.671.671 0 0 1-.12.12l-.28.21-.65.44c-.39.26-.8.5-1.22.73l-.69.35-.24.11h-.17c-.917.404-1.863.738-2.83 1-.46.12-.93.22-1.4.31l-.64.12h-.08l-.52.07c-1 .13-2 .2-3 .24-1 .04-2 0-3 0l-1.47-.08-.81-.07h-.44a48.134 48.134 0 0 1-6.06-1.11c-1-.25-1.94-.52-2.89-.83-.45-.14-.9-.29-1.34-.45l-.69-.24-.14-.06-.38-.14a51.131 51.131 0 0 1-10.53-5.9h-.05a2.825 2.825 0 0 0-.28-.2l-.59-.44-1.22-1c-.86-.69-1.7-1.41-2.51-2.15a57.047 57.047 0 0 1-4.67-4.79l-1-1.18-.27-.34-.58-.75c-.67-.87-1.31-1.75-1.92-2.65a62.07 62.07 0 0 1-3.47-5.74c-.52-1-1-2-1.49-3-.11-.22-.21-.44-.31-.66l-.18-.4.06.14-.11-.26c-.23-.53-.46-1.07-.67-1.61a53.377 53.377 0 0 1-2.06-6 28.67 28.67 0 0 1-.51-2.3 2.587 2.587 0 0 1 0-.27v-.08a.767.767 0 0 0 0-.15 20.898 20.898 0 0 1-.33-3.18Zm-6.51 46.56v-.05l-.26-.33c-.213-.26-.413-.52-.6-.78-.367-.48-.727-.97-1.08-1.47-.7-1-1.366-2.02-2-3.06-.57-1-1.11-1.93-1.61-2.93a26.122 26.122 0 0 1-.66-1.38v-.16c-.11-.24 0 0 0 .06 0-.1-.09-.2-.13-.29l-.3-.71a32.613 32.613 0 0 1-1.75-5.86c0-.23-.09-.46-.13-.69v-.18c0-.12 0-.24-.05-.35-.07-.5-.12-1-.16-1.51-.06-.999-.06-2 0-3v-.69c0-.13 0-.27.05-.4.06-.5.15-1 .25-1.5s.19-.82.31-1.22c0-.1.07-.21.11-.31.04-.1.14-.36.22-.53.35-.796.773-1.56 1.26-2.28l.17-.25.39-.51c.28-.36.58-.7.89-1a21.1 21.1 0 0 1 2-1.91l.13-.11.09-.07c.2-.15.4-.31.6-.45.37-.28.75-.54 1.15-.79.754-.484 1.54-.918 2.35-1.3l.27-.13.62-.25a18.336 18.336 0 0 1 2.44-.73h.14a64.365 64.365 0 0 0 2.69 6.74 61.591 61.591 0 0 0 7.08 11.86 55.279 55.279 0 0 0 20.9 17 50.195 50.195 0 0 0 12.43 3.86c4.355.793 8.81.867 13.19.22h.07c.005.063.005.127 0 .19-.06.25-.12.49-.2.73-.08.24-.09.28-.13.42-.04.14 0 .07 0 .11v.07c-.07.19 0 .06 0 0a3.011 3.011 0 0 0-.11.31l-.15.35c-.12.27-.25.53-.38.8-.25.49-.53 1-.82 1.43l-.42.64-.07.09c-.09.11-.17.24-.25.35-.32.42-.66.83-1 1.24a25.142 25.142 0 0 1-2.1 2.16l-.57.51-.27.23-.24.2a.777.777 0 0 0-.12.1l-.28.21c-.2.16-.41.31-.62.46a26.939 26.939 0 0 1-2.58 1.66c-.44.26-.89.5-1.35.73l-.64.32-.37.17-.17.08-.12.06h-.11l-.33.14-.77.31c-.48.18-1 .36-1.46.52-1 .32-1.94.59-2.93.82-.5.12-1 .22-1.52.32l-.41.07h-.38l-.42.06a33.71 33.71 0 0 1-6.19.25c-.52 0-1.08-.14-1.61-.11h-.44l-.86-.12c-1.08-.15-2.14-.35-3.2-.59s-2.1-.52-3.14-.84c-.5-.16-1-.32-1.49-.5l-.41-.14h-.06c-.23-.12-.5-.19-.74-.29-2.029-.803-4-1.746-5.9-2.82-1-.53-1.89-1.09-2.81-1.69-.46-.29-.92-.6-1.37-.91l-.62-.43h-.05l-.38-.27a57.642 57.642 0 0 1-10.51-9.96Zm71.37 49.22a34.905 34.905 0 0 1-7.51 4.57 39.984 39.984 0 0 1-9.41 2.75c-3.35.503-6.748.597-10.12.28a46.475 46.475 0 0 1-11.16-2.56 38.892 38.892 0 0 1-8.5-4.4 28.755 28.755 0 0 1-5.24-4.86 24.289 24.289 0 0 1-3-4.87 22.466 22.466 0 0 1-1.5-5.1 3.84 3.84 0 0 1-.07-.58 5.46 5.46 0 0 1 1.18.51c.44.19.89.35 1.34.5.89.29 1.803.501 2.73.63 1.87.282 3.775.238 5.63-.13a9.34 9.34 0 0 0 3.95-1.64 41.625 41.625 0 0 1-14.06-3 17.902 17.902 0 0 1-8-7.3 24.69 24.69 0 0 1-2.55-6.52 20.932 20.932 0 0 1-.57-6.74c0-.19.21-.81.07-.94.51.47-.26-.26.63.48a56.543 56.543 0 0 0 11.67 7.55 44.736 44.736 0 0 0 13.07 4c3.513.495 7.077.495 10.59 0a14.153 14.153 0 0 0-1.92 2.82c-.404.803-.72 1.648-.94 2.52a9.871 9.871 0 0 0-.28 2.71v.68c0 .23.07.45.11.67.036.223.086.444.15.66.07.22.12.43.2.64.08.21.17.42.26.62.097.199.204.392.32.58l.16.29.2.26c.13.179.27.349.42.51.09-.89.11-1.68.24-2.45.111-.742.268-1.477.47-2.2a19.65 19.65 0 0 1 .69-2c.27-.67.57-1.32.89-2 .66-1.3 1.42-2.59 2.23-3.91l.76-1.22a32.314 32.314 0 0 0 10.74-5.17 24.582 24.582 0 0 0 8.69-10.86 12.7 12.7 0 0 0 .75-3.17 2.451 2.451 0 0 0 0-.26 17.676 17.676 0 0 0 7.41-4.52 14 14 0 0 0 4-10.51 11.87 11.87 0 0 0-.19-1.34 11.599 11.599 0 0 0 7.58-7.21c1-3.21-.15-6.61-1.79-9.39a41.097 41.097 0 0 0-2.76-4 84.643 84.643 0 0 0-3.88-4.69 96.19 96.19 0 0 0-17.51-15.21c-1.507-1.04-3.04-2.04-4.6-3a1.2 1.2 0 0 0-.37-.15c-.4-.23-.82-.45-1.24-.65a18.19 18.19 0 0 0-4.66-1.55 13.191 13.191 0 0 0-2.52-.19 9.16 9.16 0 0 0-1.27.11 6.331 6.331 0 0 0-1.27.3c.37.24.73.45 1.09.66l1 .61 2.05 1.14c1.35.73 2.69 1.42 4.07 2.08l1.26.58c.073.06.15.113.23.16 1.573.993 3.143 2.014 4.71 3.06l1.1.77.22.16.6.43c.74.54 1.47 1.09 2.2 1.65a96.942 96.942 0 0 1 8.4 7.28 122.906 122.906 0 0 1 3.88 4.06c.6.66 1.18 1.34 1.75 2 .15.17.29.34.43.52l.19.23.91 1.16a40.06 40.06 0 0 1 2.79 3.94c.365.606.699 1.23 1 1.87l.06.16c.07.16.13.32.19.48.13.35.24.708.33 1.07 0 .16.07.32.11.49a1.255 1.255 0 0 0 0 .19c.038.332.058.666.06 1v.49c.01.03.01.061 0 .09a.148.148 0 0 1 0 .07 6.669 6.669 0 0 1-.26 1.07.459.459 0 0 1-.06.14.16.16 0 0 1 0 .06c-.06.16-.14.31-.21.46-.07.15-.22.39-.34.58l-.2.26c-.09.11-.19.28-.26.36l-.38.42c-.13.14-.26.27-.4.4l-.26.23c-.1.08-.29.2-.09.07-.608.436-1.246.827-1.91 1.17l-.21.1h.07-.08l-.54.21c-.37.13-.74.25-1.11.35-.37.1-.75.19-1.13.26a2.94 2.94 0 0 1-.58.11h.22-.58c-.82.1-1.64.16-2.45.18-.81.02-1.62 0-2.43 0l-1.18-.07h-.91a42.558 42.558 0 0 1-4.9-.86 49.3 49.3 0 0 1-4.67-1.37l-.56-.2-.25-.08c-.41-.13-.83-.32-1.23-.48-.81-.32-1.6-.67-2.39-1a57.636 57.636 0 0 1-8.91-5.07c-.16-.1-.31-.21-.46-.32l-.18-.14-1-.77a41.43 41.43 0 0 1-2-1.62c-1.333-1.1-2.6-2.25-3.8-3.45-1.2-1.2-2.363-2.46-3.49-3.78l-.45-.33-.18-.22-.84-1.06a194.342 194.342 0 0 1-1.5-2c-1-1.41-1.9-2.85-2.75-4.34-.39-.69-.77-1.39-1.13-2.1-.16-.3-.31-.61-.45-.92l-.21-.44c-.1-.32-.09-.24 0-.13.09.11 0 .07 0 .11v-.08a1.012 1.012 0 0 1-.07-.15 22.357 22.357 0 0 1-1.38-4.29c0-.17-.07-.35-.1-.52.005-.07.005-.14 0-.21 0-.37-.09-.73-.11-1.1-.02-.37 0-.7 0-1v-.78c.07-.32.08-.66.14-1 .06-.34.17-.76.28-1.13 0-.17.1-.33.16-.5l.06-.15a9.65 9.65 0 0 1 .48-1c.158-.305.331-.602.52-.89l.21-.33.05-.08a.301.301 0 0 1 .07-.08l.06-.08c.434-.56.912-1.086 1.43-1.57.25-.24.52-.46.78-.69-.44.39 0 0 .13-.1l.51-.37a17.756 17.756 0 0 1 1.84-1.36l.88-.43h.08c.28-.09.23-.09.15-.06h.06l.55-.23c.702-.27 1.42-.497 2.15-.68l1-.24.53-.1.29-.05c.78-.1 1.56-.16 2.34-.19.78-.03 1.6 0 2.39 0l1.16.08h.23l.7.09c3.207.497 6.36 1.29 9.42 2.37.83.27 1.66.55 2.48.85l1.22.44.53.19.37.14c1.7.667 3.39 1.334 5.07 2a145.725 145.725 0 0 1 19.18 9.93c1.48.9 2.947 1.83 4.4 2.79.163.106.347.174.54.2v2.5l.06 1c.229 2.67.78 5.302 1.64 7.84a30.544 30.544 0 0 0 1.58 3.73c.3.59.61 1.18 1 1.75.16.29.34.57.52.85l.27.42c.095.136.179.28.25.43.02-.17.02-.34 0-.51v-.5c0-.33-.08-.66-.13-1l-.28-1.94c-.19-1.28-.38-2.54-.56-3.8-.36-2.52-.66-5-.87-7.52-.05-.62-.1-1.25-.13-1.87 0-.31-.05-.63-.06-.94-.01-.31 0-.63 0-.95v-.31c.01-.103.01-.207 0-.31a34.144 34.144 0 0 1 1.7-9.64c.14-.44.29-.88.45-1.32.06-.15.15-.4.2-.55l.08-.2c.28-.73.59-1.44.91-2.16a62.128 62.128 0 0 1 2-4c.68-1.21 1.4-2.4 2.17-3.56.34-.52.69-1 1-1.55l.16-.22.15-.21.53-.72c1-1.34 2.07-2.64 3.19-3.88.87-1 1.68-2 2.53-2.91a50.453 50.453 0 0 1 3.32-3.44c.62-.57 1.25-1.13 1.89-1.67l.21-.17.09-.08.36-.28 1-.8a38.562 38.562 0 0 1 4.2-2.71c.71-.4 1.44-.77 2.18-1.11l.15-.07.35-.15c.49-.21 1-.41 1.5-.59a23.76 23.76 0 0 1 2.31-.73c.39-.11.78-.2 1.18-.29.2 0 .39-.09.59-.12h.26l.32-.06c.56-.09 1.54-.19 2.26-.23a22.43 22.43 0 0 1 2.46 0c.382.014.762.047 1.14.1.478.065.952.155 1.42.27.837.2 1.641.517 2.39.94a8.208 8.208 0 0 1 3.41 3.3l.15.29v.19l.12.32c.142.403.259.813.35 1.23.065.29.109.584.13.88.048.455.071.913.07 1.37a14.069 14.069 0 0 1-.93 4.79 49.557 49.557 0 0 1-6.4 10.61c-2.55 3.42-5.29 6.69-7.86 10.1a67.84 67.84 0 0 0-7.06 11.19 56.024 56.024 0 0 0-2.38 5.85l-.3.87-.15.4c.14-.39 0 0-.06.16-.3.76-.67 1.5-1 2.26a49.84 49.84 0 0 0-1.66 5.23c-.53 1.82-1 3.66-1.49 5.5-1 3.83-1.88 7.67-2.81 11.51-.93 3.84-1.83 7.41-2.92 11.06a72.562 72.562 0 0 1-4.41 11.15 100.492 100.492 0 0 1-6.82 11.88 54.035 54.035 0 0 1-4.28 5.74c-1.11 1.28-2.3 2.49-3.53 3.66l-.26.2-.51.36-1 .74c-.35.23-.69.47-1 .71-.31.24-.69.46-1 .69-.68.46-1.39.9-2.1 1.34l-1.06.65c-.35.22-.72.42-1.08.63-2.88 1.67-5.86 3.2-8.9 4.64-3.04 1.44-6.16 2.82-9.35 4.21a20.67 20.67 0 0 0 2.62-.16c.86-.09 1.72-.23 2.58-.39a44.14 44.14 0 0 0 5.08-1.26 47.398 47.398 0 0 0 9.61-4.2c.77-.44 1.51-.91 2.25-1.39.37-.24.73-.5 1.09-.75.36-.25.72-.51 1.06-.78.34-.27.82-.63 1.21-.95a24.64 24.64 0 0 1-1.21 4.93 28.271 28.271 0 0 1-3.27 6.08 34.31 34.31 0 0 1-5.89 6.22Z"/></svg>