<svg xmlns="http://www.w3.org/2000/svg" id="Layer_2" data-name="Layer 2" viewBox="0 0 237.11 219.31"><defs><filter id="drop-shadow-1" width="240.92" height="223.12" x="0" y="0" filterUnits="userSpaceOnUse"><feOffset dx="3.81" dy="3.81"/><feGaussianBlur result="blur"/><feFlood flood-color="#3c2a1b" flood-opacity=".11"/><feComposite in2="blur" operator="in"/><feComposite in="SourceGraphic"/></filter><style>.cls-2{fill:#e6557e}.cls-3{fill:#1d1d1b}</style></defs><g id="OBJECTS" style="filter:url(#drop-shadow-1)"><path d="M42.64 166.94c5.47 9.71 5.07 21.91-1.05 31.21-3.15 4.78 2.43 10.59 7.02 9.52 1.59.05 3.25-.45 4.75-1.75 10.52-9.13 21.62-20.69 36.93-17.87 13.85 2.55 20.39 16.47 25.94 27.9 3.37 6.94 14.9 2.08 12.49-5.27-3.92-11.94 6.04-21.94 16.96-24.63 14.16-3.49 28.73 2.44 41.58 7.88 2.59 1.1 5.22 1.35 7.59-.53 2-1.6 3.39-4.6 2.45-7.18-1.36-3.76-2.73-7.52-4.09-11.29 7.17-.23 14.09-2.98 17.59-9.77 1.95-3.79 2.41-8.36 1.44-12.51 5.39-.49 10.83-.21 16.23.92 6.53 1.37 11.61-6.35 6.65-11.42-2.71-2.76-5.41-5.53-8.12-8.29-1.81-1.84-4.97-4.13-6.25-6.38-1.29-2.26.56-7.2.99-9.7l1.74-10.36c2.49-14.8 4.97-29.59 7.46-44.39.56-3.32-.84-7.78-4.77-8.41-12.02-1.9-24.02-4.48-35.64-8.13-1.41-.44-3.57-.96-4.68-2.02-1.35-1.28-1.01-2.74-.88-4.54.48-6.29 1.32-12.57 1.98-18.84.64-6.1-7.79-8.74-11.67-4.83-7.11 7.16-17.74 10.52-27.63 7.92-9.51-2.49-17.18-10.01-20.09-19.36-1.89-6.07-9.01-6.19-12.49-1.63C107.58 13 98.83 23.38 86.22 26.2 73.6 29.02 64.47 19.08 54.5 13.22c-4.91-2.89-12.01 1.95-10.04 7.72 3.77 11.03 3.3 24.06-5.29 32.8-3.54 3.6-8.14 6.29-13.19 7.03-3.07.45-6.23 0-9.29-.31-3.89-.39-7.46-.39-11.34.16-4.95.69-6.73 8.36-3.02 11.42 10.69 8.81 17.99 21.63 19.19 35.55.51 5.88.88 14.32-2.82 19.36-1.83 2.5-4.75 4.07-7.32 5.66-3.34 2.07-6.62 4.24-9.4 7.04-4.41 4.44-.9 11.23 4.83 11.67 13.55 1.03 28.49 2.61 35.82 15.62Z" style="fill:#fff"/><path d="M227.26 144.62c-13.1-7.42-28.1-21.06-29.63-37-1.51-15.76 13.19-25.67 25.23-32.43.55-.31.34-1.35-.35-1.27-12.46 1.43-27.5 2.27-36.5-8.22-10.02-11.66-7.26-28.1-1.91-41.15.27-.67-.69-1.09-1.14-.66-9.34 8.69-22.46 14.99-35.46 12.22-11.22-2.39-20.98-11.82-21.56-23.59-.02-.54-.76-.97-1.17-.49-7.91 9.51-14.08 22.44-26.89 26.06-14.48 4.1-28.36-4.03-38.08-14.16-.46-.47-1.37.02-1.14.66 4.25 12.16 7.83 28.04-2.23 38.43-10.9 11.27-28.19 8.93-42.15 6.98-.5-.07-.74.69-.21.78l.32.06c.03.05.08.08.14.12 14.44 7.8 28.86 18.66 31.83 35.88 3.08 17.9-10.05 31.1-26.02 36.23-.72.24-.6 1.32.18 1.34 13.01.29 29.46 1.26 35.99 14.67 6 12.33 2.38 28.29-4.54 39.41-.4.65.56 1.42 1.07.82 5.5-6.36 12.62-11.19 19.86-15.35 7.76-4.45 16.69-7.86 25.78-6.36 16.79 2.77 20.67 20.28 22.74 34.53.1.66 1.22.66 1.32 0 2.18-14.54 10.2-28.81 24.8-33.78 14.81-5.04 31.71 3.24 43.93 11.3.73.49 1.42-.69.69-1.18-.02-.02-.04-.02-.06-.04-4.54-11.17-10.36-24.32-3.06-35.74 8.12-12.72 24.93-9.06 37.03-6 .56.14.9-.39.81-.82.63.04 1.05-.89.39-1.27Z" class="cls-3"/><path d="M222.69 141.57c.66.37.24 1.3-.39 1.27.09.43-.24.97-.81.82-12.1-3.06-28.91-6.72-37.03 6-7.3 11.43-1.48 24.58 3.06 35.74.02.02.05.02.06.04.73.49.05 1.67-.69 1.18-12.22-8.06-29.12-16.34-43.93-11.3-14.61 4.98-22.62 19.25-24.8 33.78-.1.66-1.22.66-1.32 0-2.07-14.25-5.95-31.76-22.74-34.53-9.09-1.5-18.02 1.91-25.78 6.36-7.25 4.16-14.36 8.99-19.86 15.35-.51.59-1.47-.18-1.07-.82 6.92-11.12 10.54-27.08 4.54-39.41-6.53-13.42-22.98-14.38-35.99-14.67-.78-.02-.9-1.11-.18-1.34 15.97-5.13 29.1-18.33 26.02-36.23-2.97-17.22-17.39-28.08-31.83-35.88a.58.58 0 0 1-.14-.12l-.32-.06c-.53-.09-.29-.85.21-.78 13.96 1.95 31.25 4.28 42.15-6.98 10.06-10.39 6.48-26.27 2.23-38.43-.23-.65.69-1.14 1.14-.66 9.73 10.12 23.61 18.26 38.08 14.16C106.11 31.44 112.28 18.5 120.19 9c.4-.48 1.14-.05 1.17.49.59 11.77 10.34 21.2 21.56 23.59 13 2.77 26.12-3.53 35.46-12.22.45-.43 1.41 0 1.14.66-5.35 13.05-8.11 29.49 1.91 41.15 9 10.49 24.04 9.65 36.5 8.22.69-.08.9.96.35 1.27-12.04 6.75-26.74 16.66-25.23 32.43 1.53 15.94 16.53 29.58 29.63 37Zm-7.88-69c-12.52 1.2-26.64.83-35.06-9.84-8.93-11.31-7.23-26.31-2.52-39.04-9.76 8.22-22.91 13.7-35.7 10.44-10.84-2.77-19.99-11.74-21.36-22.94-8.2 10.24-14.93 23.13-28.97 25.75-13.28 2.48-25.57-4.12-34.9-13.04 3.92 12.18 6.22 27.08-3.49 37.05-10.55 10.84-26.6 9.59-40.39 7.29 15.15 7.49 29.29 20.04 31.02 37.8 1.6 16.35-9.75 28.39-23.93 34.07 12.78.5 27.39 2.6 33.59 15.25 5.46 11.13 3.4 25.12-1.99 36.17 5.69-5.43 12.6-9.84 19.49-13.41 7.32-3.79 15.57-6.26 23.86-4.87 15.79 2.65 20.72 17.79 23.09 31.66 2.93-13.23 10.76-25.5 23.9-30.5 14.89-5.66 31.83 1.88 44.58 10.03-5.81-11.07-10.04-25.93-1.8-36.82 8.67-11.46 24.56-8.7 36.65-5.51-13.26-7.81-27.69-21.52-29.19-37.54-1.42-15.07 11.32-25.06 23.11-32Z" class="cls-3"/><path d="M179.74 62.73c8.42 10.67 22.54 11.05 35.06 9.84-11.79 6.94-24.53 16.93-23.11 32 1.51 16.02 15.94 29.74 29.19 37.54-12.09-3.19-27.98-5.95-36.65 5.51-8.24 10.89-4.01 25.75 1.8 36.82-12.75-8.15-29.68-15.69-44.58-10.03-13.14 5-20.97 17.27-23.9 30.5-2.37-13.87-7.3-29.01-23.09-31.66-8.29-1.39-16.54 1.08-23.86 4.87-6.89 3.57-13.8 7.97-19.49 13.41 5.39-11.05 7.45-25.04 1.99-36.17-6.2-12.65-20.82-14.74-33.59-15.25 14.18-5.69 25.53-17.72 23.93-34.07-1.74-17.76-15.88-30.32-31.02-37.8 13.79 2.29 29.84 3.54 40.39-7.29 9.71-9.98 7.41-24.87 3.49-37.05 9.33 8.93 21.62 15.52 34.9 13.04 14.03-2.62 20.76-15.51 28.97-25.75 1.37 11.21 10.52 20.18 21.36 22.94 12.79 3.26 25.93-2.21 35.7-10.44-4.71 12.72-6.41 27.72 2.52 39.04Z" style="fill:#15b9c4"/><path d="M220.21 64.94c.08.16.13.35.08.57-5.33 23.21-8.51 46.6-12.24 70.09-.02.1-.07.17-.13.23.02.02.03.03.04.05.44.43.15 1.39-.54 1.31-6.5-.78-13.15-1.03-19.58-2.21a.363.363 0 0 1-.32-.29c-.21.13-.47.17-.68 0-.96-.73-1.71-1.8-2.33-2.81-.31-.51-.62-1.04-.82-1.6-.12-.32-.03-.55-.03-.78-.31-.1-.61-.19-.91-.31-.23-.08-.29-.46 0-.51.21-.05.43-.07.64-.1a.553.553 0 0 1-.1-.32c-.82-20.25.38-40.72.66-60.98.04-2.63.07-5.24.11-7.87.02-1.5-.42-4 .22-5.42.65-1.45.99-1.61 2.5-1.95 1.4-.31 3.73.66 5.03.92 2.46.5 4.92.99 7.38 1.48 4.92.99 9.85 1.99 14.77 2.97.51.1.71.66.63 1.1-.02.09-.04.18-.05.28.93.77 1.83 1.54 2.71 2.37 1.02.97 2.17 1.96 2.91 3.17.12.19.1.41.03.59Zm-8.01-3.01c.09-2.69.37-2.46-2.38-3.52-2.78-1.06-6.31-1.26-9.23-1.85-3.26-.66-6.83-1.87-10.16-2.05-3.99-.21-4.5.58-4.56 3.94-.03 1.64-.05 3.28-.08 4.92-.12 7.21-.23 14.43-.35 21.64-.22 14.39.1 28.91-.92 43.27 0 .07-.03.13-.05.19 2.77-.21 5.65.32 8.38.62 3.09.35 6.21.71 9.27 1.28v-.06c1.61-13.77 3.45-27.51 5.55-41.2 1.09-7.13 2.26-14.26 3.49-21.37.31-1.81.95-3.98 1.02-5.82Z" class="cls-3"/><path d="M209.82 58.4c2.75 1.06 2.47.84 2.38 3.52-.07 1.84-.72 4.01-1.02 5.82-1.23 7.11-2.4 14.24-3.49 21.37-2.1 13.69-3.94 27.43-5.55 41.2v.06c-3.06-.58-6.18-.94-9.27-1.28-2.73-.3-5.61-.83-8.38-.62.02-.06.04-.12.05-.19 1.01-14.37.7-28.89.92-43.27.12-7.21.23-14.42.35-21.64.03-1.64.05-3.28.08-4.92.06-3.36.57-4.15 4.56-3.94 3.32.18 6.89 1.39 10.16 2.05 2.92.59 6.46.79 9.23 1.85Z" class="cls-2"/><path d="M205.89 149.35c1.55 4.08.62 8.15-2.64 11.05-7.09 6.35-18.97 4.33-21.85-4.71-1.21-1.81-1.86-4.01-1.66-6.46.47-5.49 5.55-9.29 10.81-8.85.1-.06.21-.11.34-.12 2.01-.16 3.96.3 5.66 1.2 4.06 1.27 7.74 3.72 9.33 7.88ZM190 158.78c5.26.5 10.48-3.06 10.3-8.78-.15-4.97-4.8-8.14-9.4-8.25-.18 0-.31-.06-.42-.14-4.86.34-9.3 3.76-8.97 9.05.05.8.21 1.53.45 2.23.09.07.16.18.19.34 0 .12.05.23.07.35 1.33 2.99 4.35 4.88 7.79 5.2Z" class="cls-3"/><path d="M200.3 150c.18 5.72-5.03 9.28-10.3 8.78-3.44-.32-6.46-2.21-7.79-5.2-.02-.12-.06-.23-.07-.35a.539.539 0 0 0-.19-.34c-.24-.7-.4-1.43-.45-2.23-.33-5.29 4.11-8.71 8.97-9.05.11.08.24.14.42.14 4.6.11 9.25 3.27 9.4 8.25Z" class="cls-2"/><path d="M179.38 133.05c.27.37.04.77-.3.94 0 .07 0 .13-.04.2-2.75 6.45-1.01 13.58-3.44 20.05.13.48-.11 1.04-.73.97-16.89-1.82-33.84-3.19-50.69-5.36-.09 0-.16-.05-.22-.09-.21.1-.48.1-.74-.1-1.74-1.38-3.49-2.98-4.76-4.84h-.3c-.54-.02-.68-.62-.42-.94a.705.705 0 0 1-.32-.59c-.04-2.34.05-4.69.2-7.03l1.08-.07c.16 2.36.24 4.75.2 7.1 0 .15-.05.27-.11.37 16.86-.53 33.82.8 50.57 2.77h.04l1.35.16s.03 0 .05.02c.34-6.39 1.43-12.66 1.39-19.12l.32-1.36c.15-.25.53-.38.77-.13 2.11 2.25 4.28 4.58 6.08 7.07Z" class="cls-3"/><path d="m172.53 126.11-.32 1.36c-.1.03-.19.05-.3.05-8.8-.43-17.7-.82-26.46-1.82-.04.09-.06.19-.1.28-.25.5-1 .56-1.37.17-.06-.06-.13-.12-.19-.19a.863.863 0 0 1 0-1.21c.05-.05.09-.1.14-.14.02-.03.06-.04.08-.06.58-2.04.09-5.29.17-7.25.1-2.56.22-5.1.39-7.65.28-4.47.67-8.91 1.14-13.36.96-8.92 2.11-17.94 4.29-26.65.03-.13.11-.22.21-.28l.26-.61c.21-.07.48 0 .58.27.74 1.99 1.84 3.73 3.37 5.2.02.02.03.05.05.07.18-.04.38.06.41.31 1.06 8.28-.24 16.91-.95 25.18-.7 8.33-1.14 16.6-.44 24.94 6.15.23 12.31.67 18.42 1.07.28.02.48.14.62.32Z" class="cls-3"/><path d="M172.22 127.47c.04 6.46-1.05 12.73-1.39 19.12-.02 0-.03-.02-.05-.02l-1.35-.16h-.04c-16.74-1.97-33.7-3.29-50.57-2.77.06-.1.1-.22.11-.37.04-2.36-.04-4.75-.2-7.1 0-.28-.03-.56-.05-.84 6.67-6.06 11.76-14.15 14.33-21.98 4.52-13.75 1.37-30.54-9.89-39.67.25-2.11.58-5.15 2.4-5.97 1.63-.72 6.67.56 8.39.7 5.26.41 10.57.95 15.84 1.08.21 0 .36-.06.48-.15-.1.06-.18.15-.21.28-2.18 8.71-3.32 17.73-4.29 26.65-.48 4.45-.87 8.89-1.14 13.36-.17 2.55-.29 5.09-.39 7.65-.08 1.96.41 5.21-.17 7.25-.02.02-.06.03-.08.06-.05.04-.09.09-.14.14-.33.34-.33.88 0 1.21.06.07.13.13.19.19.37.39 1.12.33 1.37-.17.04-.09.06-.19.1-.28 8.76 1 17.66 1.39 26.46 1.82.11 0 .2-.02.3-.05Z" class="cls-2"/><path d="m150.47 68.74-.26.61c-.12.09-.27.15-.48.15-5.27-.13-10.57-.68-15.84-1.08-1.72-.14-6.75-1.41-8.39-.7-1.82.82-2.15 3.86-2.4 5.97 11.26 9.13 14.4 25.93 9.89 39.67-2.57 7.83-7.66 15.92-14.33 21.98.02.28.04.56.05.84l-1.08.07c-6.66 5.7-14.74 9.36-23.4 8.85.1.88.18 1.76.25 2.64.02.27-.18.43-.4.47 0 .32-.16.64-.51.72-16.74 3.76-34.01 6.61-50.93 9.47-.39.07-.67-.21-.73-.51l-.1.03c.2.59-.6 1.21-1.15.7-1.21-1.14-2.47-2.24-3.81-3.24-.73-.54-1.64-1.03-2.32-1.7h-.28c-.28.19-.7.15-.79-.29-.02-.11-.05-.22-.07-.33l1.08-.22c8.44-2.12 17.28-2.99 25.84-4.48 8.78-1.53 17.52-3.36 26.29-4.88.14-.02.27-.01.39.02-2.17-5.84-3.16-12.37-4.56-18.43l-.32-1.56.47-.09c.07-.01.13-.01.19-.01.11-.03.23-.03.34.05 2.62 1.67 5.26 3.45 7.65 5.45.13.11.19.24.19.38.09.09.17.19.21.34.45 1.68.88 3.38 1.26 5.1 32.41 3.39 46.49-44.76 25.34-63.42-.62-.39-1.24-.78-1.89-1.12a.329.329 0 0 1-.13-.49c-2.77-2-6.03-3.55-9.84-4.51-15.15-3.82-31.71 3.88-39.65 17.1-8.47 14.1-5.27 30.72 4.06 43.38l-1.23.31c-5.11-5.39-8.16-12.54-9.12-19.99-.91-7.06.05-14.39 2.88-20.72 9.62-21.53 43.13-31.9 59.29-12.41-.06-3.35.42-6.49 4.3-6.58 7.58-.17 15.77.76 23.29 1.66.48.05.73.43.74.8Z" class="cls-3"/><path d="M117.78 71.3c21.15 18.66 7.07 66.81-25.34 63.42-.39-1.72-.82-3.42-1.26-5.1a.731.731 0 0 0-.21-.34c0-.14-.06-.27-.19-.38-2.39-2-5.03-3.78-7.65-5.45a.382.382 0 0 0-.34-.05c-.06 0-.12 0-.19.01l-.47.09c-3.92.82-7.85 1.55-11.78 2.25 0-.02 0-.05-.03-.08-9.33-12.66-12.52-29.29-4.06-43.38 7.94-13.22 24.5-20.92 39.65-17.1 3.81.96 7.07 2.51 9.84 4.51-.1.15-.09.37.13.49.65.35 1.27.74 1.89 1.12Zm-7.86 20.62c1.12-5.93-2.89-11.87-8.76-12.64.04-.21-.05-.43-.29-.48-7.26-1.4-15.43 1.7-17.52 9.38-2 7.31 3.88 14.2 11.08 14.91 7 .71 14.15-4.13 15.49-11.17Z" class="cls-2"/><path d="M101.16 79.28c5.87.78 9.89 6.72 8.76 12.64-1.34 7.04-8.49 11.88-15.49 11.17-7.2-.72-13.08-7.6-11.08-14.91 2.09-7.68 10.26-10.78 17.52-9.38.24.05.33.27.29.48Zm6.82 11.29c-.22.07-.47.03-.66-.22-3-3.84-8.53-5.5-12.96-3.02-4.47 2.49-5.67 7.76-4.65 12.42.67.4 1.38.75 2.15 1.01 8.56 3.01 15.18-3.7 16.12-10.19Z" class="cls-3"/><path d="M87.01 143.5c-.12-.03-.25-.04-.39-.02-8.77 1.52-17.51 3.35-26.29 4.88-8.56 1.48-17.4 2.36-25.84 4.48-2.36-16.31-5.31-32.53-7.78-48.82-1.17-7.76-3.49-16.26-3.51-24.09 0-2.93-.2-2.68 2.66-3.5 2.29-.67 4.97-.77 7.34-1.04 4.44-.52 8.89-.81 13.35-.98.29-.02.5-.14.64-.32.56 18.15 3.19 36.66 6.06 54.57.04.23.17.39.34.48.05.2.21.38.45.36 9.54-.5 19.15-2.12 28.42-4.42 1.39 6.07 2.39 12.59 4.56 18.43Z" class="cls-2"/><path d="m82.13 123.5.32 1.56c-9.27 2.3-18.88 3.92-28.42 4.42-.24.02-.4-.16-.45-.36a.65.65 0 0 1-.34-.48c-2.87-17.91-5.5-36.42-6.06-54.57-.14.18-.35.3-.64.32-4.46.18-8.91.47-13.35.98-2.37.28-5.05.38-7.34 1.04-2.86.83-2.66.57-2.66 3.5.02 7.84 2.34 16.34 3.51 24.09 2.47 16.29 5.42 32.51 7.78 48.82l-1.08.22c-5.21-25.27-8.71-51-12.35-76.54-.06-.42.1-.95.58-1.03 8.24-1.57 16.53-2.53 24.91-2.81.12-.01.22 0 .31.04.11-.12.29-.18.5-.08 2.37 1.1 4.55 2.65 6.6 4.28.17-.14.49-.11.55.16 1.89 8.43 2.59 17.17 3.86 25.72.17 1.12.34 2.25.52 3.37.45 3 .92 6.01 1.4 9.01.28 1.77.85 11.16 2.29 11.93 2.18-.37 4.36-.74 6.53-1.12l1.23-.31s.02.06.03.08c3.93-.7 7.86-1.43 11.78-2.25Z" class="cls-3"/></g></svg>