<svg xmlns="http://www.w3.org/2000/svg" width="973" height="555" fill="none"><path fill="#000" d="M486.5 0c70.196 0 134.305 26.064 183.176 69.043 15.912 13.993 38.177 18.816 58.825 14.054A200.068 200.068 0 0 1 773.5 78C883.681 78 973 167.319 973 277.5S883.681 477 773.5 477a200.057 200.057 0 0 1-44.999-5.098c-20.647-4.762-42.913.061-58.825 14.055C620.805 528.935 556.696 555 486.5 555c-70.197 0-134.305-26.065-183.177-69.043-15.912-13.994-38.177-18.817-58.825-14.055A200.048 200.048 0 0 1 199.5 477C89.32 477 0 387.681 0 277.5S89.32 78 199.5 78a200.06 200.06 0 0 1 44.998 5.097c20.648 4.762 42.913-.061 58.825-14.054C352.195 26.064 416.304 0 486.5 0Z"/></svg>