<svg xmlns="http://www.w3.org/2000/svg" id="Layer_2" data-name="Layer 2" viewBox="0 0 198.55 91.75"><defs><style>.cls-2{fill:#ff7ec8}</style></defs><g id="OBJECTS"><path d="M154.57 3.78H43.99C19.73 3.78 0 23.51 0 47.77s19.73 43.99 43.99 43.99h110.58c24.25 0 43.99-19.73 43.99-43.99S178.82 3.78 154.57 3.78Z"/><path d="M43.99 87.47C20.01 87.47.5 67.97.5 43.99S20.01.5 43.99.5h110.58c23.98 0 43.49 19.51 43.49 43.49s-19.51 43.49-43.49 43.49H43.99Z" style="fill:#fff"/><path d="M154.57 87.97H43.99C19.73 87.97 0 68.24 0 43.99S19.73 0 43.99 0h110.58c24.25 0 43.99 19.73 43.99 43.99s-19.73 43.99-43.99 43.99ZM43.99 1C20.28 1 1 20.28 1 43.99s19.28 42.99 42.99 42.99h110.58c23.7 0 42.99-19.28 42.99-42.99S178.27 1 154.57 1H43.99Z"/><path d="M43.99 82.54c-21.26 0-38.55-17.29-38.55-38.55S22.73 5.43 43.99 5.43h110.58c21.26 0 38.55 17.3 38.55 38.55s-17.29 38.55-38.55 38.55H43.99Z" style="fill:#ffd70e"/><path d="M154.57 83.04H43.99c-21.53 0-39.05-17.52-39.05-39.05S22.45 4.93 43.99 4.93h110.58c21.53 0 39.05 17.52 39.05 39.05s-17.52 39.05-39.05 39.05ZM43.99 5.93C23 5.93 5.93 23 5.93 43.99S23 82.04 43.98 82.04h110.58c20.98 0 38.05-17.07 38.05-38.05S175.55 5.93 154.57 5.93H43.99Z"/><path d="M43.99 77.61c-18.54 0-33.62-15.08-33.62-33.62s15.08-33.62 33.62-33.62h110.58c18.54 0 33.62 15.08 33.62 33.62s-15.08 33.62-33.62 33.62H43.99Z" style="fill:#9a7eff"/><path d="M154.57 78.11H43.99c-18.81 0-34.12-15.31-34.12-34.12S25.17 9.87 43.99 9.87h110.58c18.81 0 34.12 15.31 34.12 34.12s-15.31 34.12-34.12 34.12ZM43.99 10.87c-18.26 0-33.12 14.86-33.12 33.12s14.86 33.12 33.12 33.12h110.58c18.26 0 33.12-14.86 33.12-33.12s-14.86-33.12-33.12-33.12H43.99Z"/><path d="M43.99 72.67c-15.82 0-28.68-12.87-28.68-28.68S28.18 15.3 43.99 15.3h110.58c15.82 0 28.68 12.87 28.68 28.69s-12.87 28.68-28.68 28.68H43.99Z" style="fill:#00a5da"/><path d="M154.57 73.17H43.99c-16.09 0-29.19-13.09-29.19-29.18S27.89 14.8 43.99 14.8h110.58c16.09 0 29.18 13.09 29.18 29.19s-13.09 29.18-29.18 29.18ZM43.99 15.8c-15.54 0-28.19 12.64-28.19 28.19s12.64 28.18 28.19 28.18h110.58c15.54 0 28.18-12.64 28.18-28.18S170.11 15.8 154.57 15.8H43.99Z"/><path d="M154.57 67.74H43.99c-13.12 0-23.75-10.63-23.75-23.75s10.63-23.75 23.75-23.75h110.58c13.12 0 23.75 10.63 23.75 23.75s-10.63 23.75-23.75 23.75Z" style="fill:#00bf9f"/><path d="M154.57 68.24H43.99c-13.37 0-24.25-10.88-24.25-24.25s10.88-24.25 24.25-24.25h110.58c13.37 0 24.25 10.88 24.25 24.25s-10.88 24.25-24.25 24.25ZM43.99 20.74c-12.82 0-23.25 10.43-23.25 23.25s10.43 23.25 23.25 23.25h110.58c12.82 0 23.25-10.43 23.25-23.25s-10.43-23.25-23.25-23.25H43.99Z"/><path d="M51.16 44.55c-.88-.65-2.1-1.11-3.71-1.41 1.73.15 3.16.49 4.28 1 .15.07.33.06.48-.03.14-.09.23-.25.23-.42v-8.85c0-.21-.13-.4-.33-.47l-.93-.34c-.68-.24-1.74-.46-3.26-.69-1.49-.22-3.11-.33-4.82-.33-3.58 0-6.32.67-8.15 2-1.88 1.36-2.84 3.25-2.84 5.62s.72 4.07 2.13 5.05c.8.56 1.84.98 3.09 1.28-.41-.05-.8-.1-1.19-.17-1.56-.27-2.16-.44-2.4-.53-.36-.14-.63-.25-.81-.33a.515.515 0 0 0-.48.04c-.14.09-.23.25-.23.42v7.7c0 .2.12.38.3.46l.84.38c.58.25 1.65.48 3.27.73 1.58.24 3.43.36 5.49.36 3.65 0 6.41-.61 8.2-1.82 1.85-1.25 2.79-3.03 2.79-5.3 0-1.91-.66-3.37-1.97-4.33ZM76.1 33.32H65.92c-.28 0-.5.22-.5.5v13.02c0 .11-.03.18-.11.25-.19.18-.51.1-.6.02-.04-.04-.09-.11-.09-.27V33.82c0-.28-.22-.5-.5-.5H53.98c-.28 0-.5.22-.5.5V45.7c0 3.45.91 6.06 2.71 7.76 1.79 1.69 4.63 2.55 8.43 2.55h.8c3.83 0 6.67-.85 8.46-2.53 1.8-1.69 2.71-4.3 2.71-7.77V33.83c0-.28-.22-.5-.5-.5Zm21.41 1.9c-1.81-1.26-4.64-1.9-8.42-1.9H77.86c-.28 0-.5.22-.5.5v21.37c0 .28.22.5.5.5H88.5c.28 0 .5-.22.5-.5v-5.44c1.29-.01 2.42-.06 3.38-.15 2.63-.26 4.58-.93 5.79-2.01 1.42-1.27 2.15-3.18 2.15-5.69 0-3.13-.95-5.37-2.81-6.67Zm-7.75 8.47v1.42c0 .17-.05.25-.1.3-.07.07-.15.1-.27.1h-.4v-2.19h.4c.15 0 .23.05.28.1.04.04.09.11.09.27Zm29.02 3.05h-6.46v-.24h6.18c.28 0 .5-.22.5-.5v-1.95c0-.28-.22-.5-.5-.5h-6.18v-.24h6.18c.28 0 .5-.22.5-.5v-9c0-.28-.22-.5-.5-.5h-17.32c-.28 0-.5.22-.5.5v21.37c0 .28.22.5.5.5h17.6c.28 0 .5-.22.5-.5v-7.95c0-.28-.22-.5-.5-.5ZM143 41.89c0-3.13-.95-5.37-2.81-6.67-1.81-1.26-4.64-1.9-8.42-1.9h-11.23c-.28 0-.5.22-.5.5v21.37c0 .28.22.5.5.5h10.64c.28 0 .5-.22.5-.5v-5.03c.36 1.47.61 3.18.76 5.07.02.26.24.46.5.46h10.18c.15 0 .29-.07.39-.18.1-.11.13-.27.11-.41-.61-3.19-1.51-5.91-2.67-8.1 1.36-1.17 2.06-2.88 2.06-5.11Zm-10.56 1.8v1.86c0 .17-.05.25-.1.3-.07.07-.15.1-.27.1h-.4v-2.62h.4c.15 0 .23.05.28.1.04.04.09.11.09.27Zm34.27 3.23c-.26-1.22-.68-2.08-1.27-2.59v-.02c.25-.34.48-.86.7-1.6.22-.73.33-1.52.33-2.37 0-2.46-.89-4.28-2.64-5.4-1.71-1.09-4.33-1.62-8.03-1.62h-11.32c-.28 0-.5.22-.5.5v21.37c0 .28.22.5.5.5h14.81c2.49 0 4.4-.61 5.68-1.81 1.28-1.21 1.94-2.87 1.94-4.94 0-.76-.07-1.44-.2-2.02Zm-8.6-.05c0 .11-.03.2-.12.28-.1.1-.18.12-.25.12h-2.13v-.76h2.13c.11 0 .19.03.26.1s.1.15.1.27Zm-2.49-2.88v-1.47h.4c.15 0 .23.05.28.1.02.02.09.08.09.27V44h-.76Z"/><path d="M43.1 29.4c1.69 0 3.27.11 4.75.32 1.47.22 2.53.44 3.17.66l.93.34v8.85c-1.67-.76-3.96-1.14-6.87-1.14v.8c2.68.21 4.61.74 5.78 1.61 1.18.87 1.76 2.18 1.76 3.93 0 2.1-.86 3.73-2.57 4.89-1.71 1.16-4.35 1.73-7.92 1.73-2.04 0-3.85-.12-5.41-.36-1.57-.24-2.62-.47-3.15-.7l-.84-.37v-7.7c.19.08.46.2.84.34.37.14 1.2.33 2.49.56 1.29.23 2.68.34 4.16.34v-.74c-2.52-.19-4.41-.72-5.69-1.61-1.28-.89-1.92-2.43-1.92-4.64s.88-3.94 2.63-5.21 4.37-1.9 7.86-1.9Z" class="cls-2"/><path d="M42.14 51.89c-2.06 0-3.9-.12-5.49-.36-1.62-.25-2.7-.48-3.27-.73l-.84-.38a.505.505 0 0 1-.3-.46v-7.7a.504.504 0 0 1 .71-.46c.18.08.45.19.81.33.23.09.84.26 2.4.53.39.07.78.13 1.19.17-1.25-.3-2.29-.72-3.09-1.28-1.42-.98-2.13-2.68-2.13-5.05s.95-4.26 2.84-5.62c1.83-1.32 4.57-2 8.15-2 1.71 0 3.33.11 4.82.33 1.52.22 2.59.45 3.26.69l.93.34c.2.07.33.26.33.47v8.85c0 .17-.09.33-.23.42-.14.09-.32.11-.48.03-1.12-.51-2.55-.85-4.28-1 1.6.3 2.83.76 3.7 1.41 1.3.96 1.97 2.42 1.97 4.33 0 2.27-.94 4.05-2.79 5.3-1.79 1.21-4.54 1.82-8.2 1.82Zm-8.9-2.25.54.24c.49.21 1.51.43 3.03.66 1.54.23 3.33.35 5.34.35 3.45 0 6.02-.55 7.64-1.65 1.58-1.06 2.35-2.53 2.35-4.47 0-1.6-.51-2.75-1.56-3.53-1.09-.81-2.95-1.31-5.53-1.51a.501.501 0 0 1-.46-.5v-.8c0-.28.22-.5.5-.5 2.58 0 4.72.3 6.37.9v-7.75l-.6-.22c-.6-.21-1.64-.43-3.07-.64-1.44-.21-3.01-.32-4.67-.32-3.36 0-5.91.61-7.56 1.81-1.63 1.18-2.42 2.75-2.42 4.81s.56 3.43 1.7 4.23c1.2.83 3.03 1.34 5.44 1.52.26.02.46.24.46.5v.74c0 .28-.22.5-.5.5-1.51 0-2.94-.12-4.25-.35-1.33-.23-2.18-.43-2.58-.58l-.15-.06v6.63Z"/><path d="M65.92 29.71H76.1v11.88c0 3.34-.85 5.81-2.55 7.41-1.7 1.6-4.41 2.4-8.12 2.4h-.8c-3.69 0-6.39-.8-8.09-2.41-1.7-1.61-2.55-4.07-2.55-7.39V29.72h10.14v13.02c0 .27.08.48.25.63.16.15.38.23.63.23s.47-.08.65-.25c.18-.16.26-.37.26-.62V29.71Z" class="cls-2"/><path d="M65.43 51.89h-.8c-3.81 0-6.64-.86-8.43-2.55-1.8-1.7-2.71-4.31-2.71-7.76V29.7c0-.28.22-.5.5-.5h10.14c.28 0 .5.22.5.5v13.02c0 .16.05.23.09.27.09.08.41.16.6-.02.08-.07.11-.14.11-.25V29.7c0-.28.22-.5.5-.5h10.18c.28 0 .5.22.5.5v11.88c0 3.47-.91 6.08-2.71 7.77-1.79 1.68-4.63 2.53-8.46 2.53ZM54.48 30.21v11.38c0 3.16.81 5.53 2.4 7.03 1.6 1.51 4.2 2.28 7.74 2.28h.8c3.56 0 6.18-.76 7.78-2.26 1.59-1.49 2.39-3.86 2.39-7.04V30.22h-9.18v12.52c0 .38-.15.72-.42.98-.53.5-1.45.5-1.97.02-.19-.17-.41-.49-.41-1V30.22h-9.14Z"/><path d="M77.86 51.08V29.71h11.23c3.69 0 6.4.6 8.13 1.81 1.73 1.21 2.6 3.29 2.6 6.26 0 2.37-.66 4.14-1.98 5.32-1.13 1.01-2.97 1.64-5.51 1.89-1.07.1-2.35.15-3.83.15v5.94H77.86Zm10.64-9.19h.9c.25 0 .45-.08.62-.25a.89.89 0 0 0 .25-.65v-1.42c0-.27-.08-.48-.25-.63a.896.896 0 0 0-.62-.23h-.9v3.19Z" class="cls-2"/><path d="M88.5 51.58H77.86c-.28 0-.5-.22-.5-.5V29.71c0-.28.22-.5.5-.5h11.23c3.78 0 6.61.64 8.42 1.9 1.87 1.3 2.81 3.54 2.81 6.67 0 2.51-.72 4.42-2.15 5.69-1.21 1.08-3.16 1.75-5.79 2.01-.96.09-2.1.14-3.38.15v5.44c0 .28-.22.5-.5.5Zm-10.14-1H88v-5.44c0-.28.22-.5.5-.5 1.46 0 2.74-.05 3.79-.15 2.42-.24 4.17-.83 5.22-1.76 1.2-1.07 1.81-2.73 1.81-4.95 0-2.78-.8-4.75-2.38-5.85-1.64-1.14-4.28-1.72-7.85-1.72H78.36v20.37Zm11.04-8.19h-.9c-.28 0-.5-.22-.5-.5V38.7c0-.28.22-.5.5-.5h.9c.37 0 .7.13.96.37.19.18.41.49.41 1v1.42c0 .4-.14.75-.39 1s-.59.39-.97.39Zm-.4-1h.4c.14 0 .22-.05.27-.1.05-.05.1-.12.1-.3v-1.42c0-.16-.05-.23-.09-.27-.05-.04-.12-.1-.28-.1H89v2.19Z"/><path d="M101.18 29.71h17.32v9h-6.68v1.24h6.68v1.95h-6.68v1.24h6.96v7.95h-17.6V29.72Z" class="cls-2"/><path d="M118.78 51.58h-17.6c-.28 0-.5-.22-.5-.5V29.71c0-.28.22-.5.5-.5h17.32c.28 0 .5.22.5.5v9c0 .28-.22.5-.5.5h-6.18v.24h6.18c.28 0 .5.22.5.5v1.95c0 .28-.22.5-.5.5h-6.18v.24h6.46c.28 0 .5.22.5.5v7.95c0 .28-.22.5-.5.5Zm-17.1-1h16.6v-6.95h-6.46c-.28 0-.5-.22-.5-.5v-1.24c0-.28.22-.5.5-.5H118v-.95h-6.18c-.28 0-.5-.22-.5-.5V38.7c0-.28.22-.5.5-.5H118v-8h-16.32v20.37Z"/><path d="M131.18 44.83v6.25h-10.64V29.71h11.23c3.69 0 6.4.6 8.13 1.81 1.73 1.21 2.6 3.29 2.6 6.26 0 2.25-.73 3.91-2.2 4.98 1.24 2.21 2.17 4.98 2.81 8.32h-10.18c-.16-2.08-.45-3.92-.87-5.51l-.22-.74h-.68Zm0-2.51h.9c.25 0 .45-.08.62-.25a.89.89 0 0 0 .25-.65v-1.86c0-.27-.08-.48-.25-.63a.896.896 0 0 0-.62-.23h-.9v3.62Z" class="cls-2"/><path d="M143.12 51.58h-10.18c-.26 0-.48-.2-.5-.46-.15-1.89-.41-3.6-.76-5.07v5.03c0 .28-.22.5-.5.5h-10.64c-.28 0-.5-.22-.5-.5V29.71c0-.28.22-.5.5-.5h11.23c3.78 0 6.61.64 8.42 1.9 1.87 1.3 2.81 3.54 2.81 6.67 0 2.22-.69 3.94-2.06 5.11 1.16 2.18 2.05 4.9 2.67 8.1.03.15-.01.3-.11.41-.09.12-.24.18-.39.18Zm-9.72-1h9.11c-.62-3.01-1.51-5.56-2.64-7.57-.12-.22-.06-.5.14-.65 1.34-.98 1.99-2.48 1.99-4.58 0-2.78-.8-4.75-2.38-5.85-1.64-1.14-4.28-1.72-7.85-1.72h-10.73v20.37h9.64v-5.75c0-.28.22-.5.5-.5h.68c.22 0 .42.15.48.36l.22.74c.39 1.5.67 3.23.85 5.15Zm-1.32-7.76h-.9c-.28 0-.5-.22-.5-.5V38.7c0-.28.22-.5.5-.5h.9c.38 0 .7.12.96.37.19.18.41.49.41 1v1.86c0 .4-.14.75-.39 1-.26.26-.59.39-.97.39Zm-.4-1h.4c.11 0 .19-.03.27-.1.05-.05.1-.12.1-.3v-1.86c0-.16-.05-.23-.09-.27-.05-.04-.12-.1-.28-.1h-.4v2.62Z"/><path d="M144.48 51.08V29.71h11.32c3.57 0 6.15.52 7.76 1.55 1.61 1.03 2.41 2.69 2.41 4.98 0 .8-.1 1.55-.31 2.23-.21.68-.41 1.17-.62 1.45l-.31.43c.7.35 1.2 1.21 1.48 2.57.12.56.19 1.2.19 1.92 0 1.94-.59 3.46-1.78 4.58-1.19 1.11-2.96 1.67-5.34 1.67h-14.81Zm12.4-10.7v-1.61c0-.27-.08-.48-.25-.63a.896.896 0 0 0-.62-.23h-.9v2.47h1.76Zm.87 1.51h-2.63v1.76h2.63c.23 0 .43-.09.6-.26.18-.18.26-.39.26-.63s-.08-.45-.25-.62a.869.869 0 0 0-.62-.25Z" class="cls-2"/><path d="M159.29 51.58h-14.81c-.28 0-.5-.22-.5-.5V29.71c0-.28.22-.5.5-.5h11.32c3.7 0 6.33.53 8.03 1.62 1.75 1.12 2.64 2.94 2.64 5.4 0 .85-.11 1.65-.33 2.37-.22.74-.45 1.26-.69 1.6v.02c.58.51 1 1.36 1.26 2.59.13.58.2 1.27.2 2.02 0 2.07-.65 3.74-1.94 4.94-1.28 1.2-3.19 1.81-5.68 1.81Zm-14.31-1h14.31c2.23 0 3.91-.52 4.99-1.53 1.09-1.02 1.62-2.4 1.62-4.21 0-.68-.06-1.29-.17-1.81-.26-1.2-.67-1.95-1.22-2.23a.483.483 0 0 1-.26-.33c-.04-.14 0-.29.08-.41l.31-.43c.12-.17.31-.53.55-1.31.19-.63.29-1.33.29-2.08 0-2.13-.71-3.62-2.18-4.56-1.52-.97-4.04-1.47-7.49-1.47h-10.82v20.37Zm12.77-6.42h-2.63c-.28 0-.5-.22-.5-.5V41.9c0-.28.22-.5.5-.5h2.63c.38 0 .71.14.97.39.26.26.39.6.39.97s-.14.72-.41.99c-.27.27-.6.41-.96.41Zm-2.13-1h2.13c.07 0 .15-.01.25-.12.08-.08.12-.17.12-.28s-.03-.19-.1-.27a.34.34 0 0 0-.26-.1h-2.13v.76Zm1.26-2.28h-1.76c-.28 0-.5-.22-.5-.5v-2.47c0-.28.22-.5.5-.5h.9c.38 0 .7.12.96.37.18.17.41.49.41 1v1.61c0 .28-.22.5-.5.5Zm-1.26-1h.76v-1.11c0-.19-.06-.25-.09-.27-.05-.05-.12-.1-.28-.1h-.4v1.47Z"/></g></svg>