<svg xmlns="http://www.w3.org/2000/svg" width="417" height="417" fill="none"><path fill="#E2F8EE" stroke="#4AA87D" stroke-width="15" d="M201.945 17.298c12.279-14.559 35.267-12.58 44.883 3.861h.001l3.89 6.65 3.754 6.418 6.45-3.699 6.68-3.83h.003c16.518-9.482 37.446.235 40.858 18.978l1.38 7.58 1.333 7.32 7.331-1.274 7.589-1.322c18.765-3.262 35.11 13.036 31.903 31.81l-.001.006-1.29 7.59-1.246 7.326 7.315 1.312 7.579 1.361h.003c18.751 3.357 28.533 24.254 19.106 40.805h-.001l-3.81 6.691-3.679 6.461 6.428 3.735 6.66 3.87h.001c16.471 9.568 18.516 32.548 3.994 44.877l-5.869 4.979-5.671 4.812 4.764 5.711 4.93 5.91.001.001c12.201 14.623 6.267 36.917-11.593 43.54l-7.22 2.671-6.985 2.583 2.534 7.003 2.618 7.235v.001c6.471 17.918-6.737 36.84-25.786 36.942l-7.698.04-7.442.039-.02 7.441-.019 7.701v.001c-.048 19.049-18.932 32.311-36.865 25.896l-.003-.001-7.25-2.59-7.005-2.502-2.559 6.985-2.65 7.229c-6.557 17.874-28.837 23.883-43.502 11.727h-.001l-5.926-4.918-5.725-4.749-4.797 5.684-4.969 5.891-.001.001c-12.279 14.558-35.267 12.579-44.883-3.861h-.001l-3.89-6.651-3.754-6.418-6.45 3.698-6.68 3.831-.004.002c-16.517 9.481-37.445-.236-40.857-18.979l-1.38-7.58-1.333-7.32-7.33 1.274-7.59 1.32c-18.762 3.262-35.102-13.032-31.902-31.81v-.004l1.29-7.59 1.246-7.326-7.315-1.313-7.58-1.36h-.002c-18.75-3.357-28.533-24.254-19.106-40.806l.001-.001 3.81-6.689 3.68-6.461-6.43-3.735-6.66-3.87c-16.47-9.568-18.516-32.547-3.996-44.876l5.87-4.981 5.672-4.811-4.764-5.712-4.93-5.91v-.001c-12.202-14.622-6.269-36.918 11.592-43.541l7.22-2.669 6.985-2.583-2.534-7.003-2.62-7.241c-6.467-17.917 6.74-36.836 25.788-36.938l-.001-.001 7.7-.04 7.441-.037.02-7.443.02-7.699c.047-19.05 18.93-32.313 36.864-25.898h.003l7.25 2.591 7.004 2.502 2.56-6.984 2.649-7.23c6.556-17.872 28.835-23.883 43.5-11.73v.001l5.93 4.92 5.725 4.75 4.797-5.684 4.969-5.891.001-.001Z"/><path fill="#4AA87D" d="M209.248 332.384h-2.198a7.073 7.073 0 0 1-7.072-7.072V91.072A7.074 7.074 0 0 1 207.05 84h2.198a7.074 7.074 0 0 1 7.072 7.073v234.239a7.07 7.07 0 0 1-7.072 7.072Z"/><path fill="#4AA87D" d="M83.95 209.291v-2.198a7.073 7.073 0 0 1 7.073-7.072h234.239a7.074 7.074 0 0 1 7.072 7.072v2.198a7.074 7.074 0 0 1-7.072 7.072H91.022a7.074 7.074 0 0 1-7.072-7.072Z"/><path fill="#4AA87D" d="m147.006 318.239-1.903-1.099a7.077 7.077 0 0 1-2.589-9.668l117.12-202.859a7.077 7.077 0 0 1 9.668-2.589l1.903 1.099a7.077 7.077 0 0 1 2.589 9.668l-117.12 202.86c-1.962 3.385-6.291 4.542-9.668 2.588Z"/><path fill="#4AA87D" d="m101.14 271.24-1.098-1.903a7.077 7.077 0 0 1 2.588-9.668l202.859-117.12a7.079 7.079 0 0 1 9.669 2.589l1.099 1.903a7.077 7.077 0 0 1-2.589 9.668l-202.859 117.12a7.079 7.079 0 0 1-9.669-2.589Z"/><path fill="#4AA87D" d="m100.043 148.986 1.099-1.903a7.076 7.076 0 0 1 9.668-2.588l202.859 117.119a7.079 7.079 0 0 1 2.589 9.669l-1.099 1.902a7.077 7.077 0 0 1-9.668 2.589l-202.859-117.12a7.083 7.083 0 0 1-2.589-9.668Z"/><path fill="#4AA87D" d="m147.042 103.123 1.903-1.099a7.077 7.077 0 0 1 9.668 2.589l117.12 202.866a7.079 7.079 0 0 1-2.589 9.669l-1.902 1.098a7.078 7.078 0 0 1-9.669-2.588L144.454 112.799c-1.955-3.393-.797-7.722 2.588-9.676Z"/></svg>