<svg xmlns="http://www.w3.org/2000/svg" viewBox="0 0 174.27 118.79"><defs><filter id="drop-shadow-1" width="199" height="144" x="-8.25" y="-8.8" filterUnits="userSpaceOnUse"><feOffset dx="4" dy="4"/><feGaussianBlur result="blur" stdDeviation="4"/><feFlood flood-color="#41008c" flood-opacity=".25"/><feComposite in2="blur" operator="in"/><feComposite in="SourceGraphic"/></filter><style>.cls-11{fill:#fff}</style></defs><g style="isolation:isolate"><g id="Layer_2" data-name="Layer 2"><g id="OBJECTS" style="filter:url(#drop-shadow-1)"><path d="M168.29 77.12c-.1-9.89-7.54-18.06-17.11-19.31-3.14-10.81-6.84-19.49-11.5-27.04C127.37 10.83 109.35.49 86.11.01c-24.39-.5-44.55 11.9-58.19 35.75-3.9 6.81-7.24 14.54-9.96 23.02-7.07 3.01-11.9 9.99-11.98 17.91C2.28 79.73 0 84.34 0 89.28c0 8.5 6.56 15.51 14.88 16.21 5.14 7.94 14.28 12.87 24.44 12.87 8.54 0 16.46-3.53 21.83-9.49 2.29.76 4.71 1.15 7.19 1.15 7.89 0 14.82-3.98 18.65-9.93 3.77 6.18 10.84 10.36 18.92 10.36 2.49 0 4.91-.39 7.2-1.14 5.37 5.96 13.29 9.48 21.83 9.48 10.16 0 19.3-4.93 24.44-12.87 8.33-.71 14.88-7.71 14.88-16.21 0-4.94-2.28-9.55-5.98-12.59Zm-78.15-1.56a21.557 21.557 0 0 0-2.87 3.55c-.87-1.44-1.92-2.77-3.13-3.98-.79-9.54-8.81-17.06-18.56-17.06-.64 0-1.27.03-1.9.1 6.25-12.21 13.02-14.84 21.09-14.84h.64c10.59.22 17.58 3.99 22.67 12.22.57.92 1.12 1.91 1.66 2.97-.35-.02-.7-.03-1.05-.03-9.74 0-17.76 7.52-18.56 17.06Z" class="cls-11"/><path d="M164.16 79.13c.07-.6.1-1.2.1-1.8 0-8.81-7.31-15.95-16.18-15.65-3.2-11.75-6.98-20.94-11.83-28.8-11.54-18.69-28.44-28.4-50.22-28.84-22.84-.48-41.74 11.22-54.61 33.72-4.04 7.07-7.47 15.18-10.21 24.13-6.58 1.94-11.2 8.03-11.2 15.01 0 .6.04 1.21.11 1.81-3.71 2.17-6.08 6.2-6.08 10.57 0 6.75 5.49 12.24 12.24 12.24.31 0 .62-.01.93-.04 4.11 7.86 12.59 12.84 22.12 12.84 8.38 0 16.05-3.9 20.58-10.33 2.58 1.31 5.46 1.99 8.45 1.99 9.81 0 17.79-7.45 17.79-16.6 0-4.81-2.16-9.27-5.98-12.42v-.27c0-8.04-6.54-14.59-14.59-14.59-1.7 0-3.37.29-4.94.86-.43-1.4-1.05-2.75-1.83-4 6.34-13.77 14.16-19.68 25.96-19.68h.73c11.95.24 20.21 4.74 26.02 14.14 1.24 2.01 2.38 4.24 3.47 6.79-.55 1.01-1 2.07-1.34 3.16-1.58-.57-3.25-.86-4.95-.86-8.04 0-14.59 6.54-14.59 14.59v.27c-3.82 3.15-5.98 7.61-5.98 12.42 0 9.16 7.98 16.61 17.79 16.61 2.99 0 5.87-.68 8.45-1.99 4.53 6.43 12.19 10.33 20.57 10.33 9.53 0 18-4.98 22.12-12.84.31.02.62.04.93.04 6.75 0 12.24-5.49 12.24-12.24 0-4.38-2.38-8.41-6.08-10.58Z" style="fill:#430069"/><path d="M149.32 77.34h-26.47c-.57-2.4-1.19-4.84-1.89-7.28-1.81-6.33-4.13-12.64-7.37-17.9-6.29-10.17-15.2-15.02-28.03-15.28-18.05-.36-27.17 11.71-34.7 36.8H20.6c2.02-8.86 5.74-22.14 12.93-34.71C45.94 17.26 64.08 6.02 85.99 6.47c20.9.43 37.12 9.74 48.2 27.69 8.76 14.19 12.45 30.89 15.13 43.18Z" style="fill:#95d033"/><path d="M56.63 22.12c-.32 0-.63-.15-.82-.43-.31-.45-.2-1.08.25-1.39 8.95-6.2 19.93-9.47 30.9-9.2.55.01.99.47.98 1.02a.99.99 0 0 1-1.02.98c-10.56-.26-21.11 2.88-29.71 8.84-.17.12-.37.18-.57.18Z" class="cls-11"/><path d="M149.32 77.34h-9.07c-.52-2.58-.94-5.63-1.27-9.16-4.44-48.41-40.34-56.88-40.34-56.88-57.59-9.79-69.88 53.8-71.27 62.38h-6.78c2.02-8.86 5.74-22.14 12.93-34.71C45.94 17.26 64.08 6.02 85.99 6.47c20.9.43 37.12 9.74 48.2 27.69 8.76 14.19 12.45 30.89 15.13 43.18Z" style="fill:#729c76"/><path d="M149.32 77.34h-15.56c-.68-1.97-1.13-3.98-1.24-5.93-.26-4.4-.97-10.81-3.08-17.55-4.48-14.31-15.24-30.05-41.29-30.87C49.8 21.79 35.7 72.21 35.7 72.21l-9.25 1.47h-5.86c2.02-8.87 5.74-22.14 12.92-34.71C45.94 17.27 64.08 6.01 85.99 6.46c20.62.42 36.68 9.5 47.74 26.97.16.23.31.48.46.72 5.94 9.62 9.55 20.39 12.08 30.15 1.21 4.65 2.18 9.06 3.05 13.03Z" style="fill:#ff232e"/><path d="M120.96 70.06c-1.81-6.33-4.13-12.64-7.37-17.9-6.29-10.17-15.2-15.02-28.03-15.28-18.05-.36-27.17 11.71-34.7 36.8h-6.9c4.13-15.57 16.1-44.84 43.79-44.23 30.4.66 33.2 30.01 33.21 40.61Z" style="fill:#0095d2"/><path d="M141.19 77.34h-7.42c-.69-1.98-1.13-3.98-1.24-5.93-.81-13.72-6.05-47.2-44.38-48.41C49.81 21.79 35.7 72.22 35.7 72.22l-9.25 1.47h-2.1c7.01-18.16 29.68-66.86 68.24-57.96 41.02 9.46 48.22 38.74 48.61 61.61Z" style="fill:#ffb900"/><path d="M77.66 78.1c.05-.46.08-.93.08-1.41 0-6.72-5.45-12.17-12.17-12.17-2.47 0-4.77.74-6.69 2-.71-7.35-6.91-13.1-14.45-13.1-6.84 0-12.57 4.73-14.1 11.1-1.45-.55-3.03-.85-4.68-.85-7.31 0-13.23 5.92-13.23 13.23 0 1.1.14 2.17.39 3.19-3.72 1.4-6.37 4.98-6.37 9.19 0 5.42 4.4 9.82 9.82 9.82.81 0 1.6-.1 2.35-.29 3.21 7.66 11.27 13.09 20.7 13.09 8.63 0 16.11-4.55 19.78-11.2 2.57 1.79 5.78 2.86 9.25 2.86 8.49 0 15.37-6.35 15.37-14.18 0-4.61-2.38-8.69-6.06-11.29Zm90.16 11.62c0 5.42-4.4 9.82-9.83 9.82-.81 0-1.59-.1-2.35-.29-3.22 7.65-11.27 13.09-20.7 13.09-8.64 0-16.11-4.55-19.78-11.19-2.58 1.79-5.78 2.86-9.25 2.86-1.91 0-3.75-.32-5.44-.92-5.8-2.02-9.93-7.19-9.93-13.26 0-4.61 2.38-8.69 6.06-11.29-.05-.46-.09-.93-.09-1.4 0-6.72 5.45-12.16 12.17-12.16 2.47 0 4.77.74 6.68 2 .23-2.41 1.05-4.63 2.31-6.54.6-.91 1.29-1.75 2.08-2.49 2.52-2.44 5.92-3.96 9.68-4.06h.38c2 0 3.91.41 5.64 1.14 4.19 1.77 7.38 5.45 8.46 9.95.75-.28 1.53-.5 2.35-.64.75-.14 1.54-.21 2.34-.21 7.31 0 13.23 5.92 13.23 13.24 0 1.1-.14 2.16-.39 3.18a9.81 9.81 0 0 1 6.37 9.19Z" style="fill:#b5f4ff"/><path d="M92.33 12.25c-.06 0-.13 0-.19-.02-4.68-.92-9.31-1.21-13.78-.85-.54.04-1.03-.37-1.08-.92-.04-.55.37-1.03.92-1.08 4.65-.36 9.47-.07 14.32.89a.999.999 0 0 1-.19 1.98ZM30.87 54.67a.998.998 0 0 1-.94-1.34c8.56-23.54 22.2-37.73 40.52-42.18.54-.13 1.08.2 1.21.74.13.54-.2 1.08-.74 1.21-17.64 4.28-30.8 18.05-39.12 40.92-.15.41-.53.66-.94.66Z" class="cls-11"/><path d="M161.45 80.52c.25-1.02.39-2.09.39-3.18 0-7.32-5.92-13.24-13.23-13.24-.8 0-1.58.07-2.34.21-2.54-9.76-6.15-20.53-12.08-30.15-.15-.24-.3-.48-.46-.72 2.04 7.47-.8 15.61 1.74 21.56 2.39 5.59 3.07 9.29 2.86 11.75 6.27 5.93 9.75 14.66 3.14 21.72-4.71 5.04-12.75 7.85-19.46 5.52-2.7-.94-5.01-2.41-6.71-4.29-3.1 5.85-8.91 10.22-14.83 13.38 1.69.61 3.52.92 5.44.92 3.47 0 6.67-1.06 9.25-2.86 3.67 6.64 11.14 11.19 19.78 11.19 9.43 0 17.48-5.44 20.7-13.09.75.18 1.54.29 2.35.29 5.43 0 9.83-4.4 9.83-9.82a9.8 9.8 0 0 0-6.37-9.19Z" style="fill:#adc0e0;mix-blend-mode:multiply"/></g></g></g></svg>