<svg xmlns="http://www.w3.org/2000/svg" id="Layer_2" data-name="Layer 2" viewBox="0 0 171.12 89.73"><defs><style>.cls-1{fill:#fff}.cls-2{fill:#ff5b2b}</style></defs><g id="OBJECTS"><path d="M169.93 33.12c.07-.5.1-.94.1-1.38 0-.59-.05-1.18-.14-1.74.09-.56.14-1.15.14-1.74 0-1.68-.36-3.21-1.06-4.57l1.04-8.49c.09-.76.04-1.53-.15-2.27l.15-1.21c.21-1.73-.33-3.48-1.49-4.79a6.12 6.12 0 0 0-4.58-2.06h-10.61c-.35 0-.7.03-1.07.1-.37-.07-.73-.1-1.07-.1h-10.61c-.74 0-1.46.13-2.16.4-.86-.44-1.81-.67-2.77-.67h-10.23c-1.3 0-2.57.42-3.61 1.18-2.25-.98-4.91-1.48-7.92-1.48h-2.47c-4.38 0-7.97 1.03-10.68 3.06-2.7-2.03-6.29-3.06-10.67-3.06H87.6c-3.33 0-6.24.61-8.64 1.82-.39-.22-.77-.38-1.14-.49l-.84-.25c-.93-.29-2.14-.52-3.91-.76-1.62-.21-3.34-.32-5.12-.32-5.2 0-9.36 1.39-12.35 4.13a13.308 13.308 0 0 0-3 4.02v-1.74c0-3.37-2.74-6.11-6.11-6.11H29.84c-1.27 0-2.49.39-3.52 1.12-2.19-.76-4.79-1.12-7.95-1.12H7.5c-3.37 0-6.11 2.74-6.11 6.11v22.15c-.9 1.09-1.4 2.46-1.4 3.88v18.43c0 3.37 2.74 6.11 6.11 6.11h3.11v3.11c0 3.37 2.74 6.11 6.11 6.11h3.11v3.93c0 3.37 2.74 6.11 6.11 6.11h3.11v3.08c0 3.37 2.74 6.11 6.11 6.11h28.77c3.37 0 6.11-2.74 6.11-6.11v-3.08h3.11c3.37 0 6.11-2.74 6.11-6.11V70.5h3.11c1.78 0 3.45-.77 4.61-2.1a6.123 6.123 0 0 0 4.61 2.1h3.11v3.93c0 3.37 2.74 6.11 6.11 6.11h3.11v3.08c0 3.37 2.74 6.11 6.11 6.11h28.77c3.37 0 6.11-2.74 6.11-6.11v-3.08h3.11c3.37 0 6.11-2.74 6.11-6.11V70.5h3.11c3.37 0 6.11-2.74 6.11-6.11v-3.11h3.11c3.37 0 6.11-2.74 6.11-6.11V36.74c0-1.32-.41-2.57-1.2-3.62Z"/><path d="M169.4 28.95a9.882 9.882 0 0 0-.03-3.26c.1-.56.15-1.14.15-1.74 0-1.87-.46-3.35-1.08-4.48l1.06-8.64c.09-.74.03-1.48-.16-2.18l.16-1.3c.2-1.59-.3-3.2-1.37-4.4a5.604 5.604 0 0 0-4.2-1.89h-10.61c-.36 0-.72.04-1.07.11-.35-.07-.71-.11-1.07-.11h-10.61c-.76 0-1.51.16-2.19.45-.81-.46-1.75-.72-2.74-.72h-10.23c-1.34 0-2.57.47-3.54 1.26-2.23-1.03-4.9-1.56-7.99-1.56h-2.47c-4.45 0-8.03 1.08-10.68 3.19C98.09 1.56 94.51.49 90.07.49H87.6c-3.4 0-6.29.64-8.65 1.89-.4-.24-.81-.44-1.27-.58l-.84-.25c-.91-.28-2.09-.51-3.83-.74C71.42.6 69.72.5 67.96.5c-5.07 0-9.12 1.34-12.02 3.99-1.82 1.67-3.1 3.79-3.84 6.34V6.4c0-3.1-2.51-5.61-5.61-5.61H29.84c-1.3 0-2.49.45-3.44 1.19-2.16-.79-4.81-1.19-8.03-1.19H7.51C4.41.8 1.9 3.31 1.9 6.41v22.34c-.87.99-1.4 2.28-1.4 3.69v18.43c0 3.1 2.51 5.61 5.61 5.61h3.61v3.61c0 3.1 2.51 5.61 5.61 5.61h3.61v4.43c0 3.1 2.51 5.61 5.61 5.61h3.61v3.58c0 3.1 2.51 5.61 5.61 5.61h28.77c3.1 0 5.61-2.51 5.61-5.61v-3.58h3.61c3.1 0 5.61-2.51 5.61-5.61V65.7h3.61c1.91 0 3.59-.95 4.61-2.41a5.592 5.592 0 0 0 4.61 2.41h3.61v4.43c0 3.1 2.51 5.61 5.61 5.61h3.61v3.58c0 3.1 2.51 5.61 5.61 5.61h28.77c3.1 0 5.61-2.51 5.61-5.61v-3.58h3.61c3.1 0 5.61-2.51 5.61-5.61V65.7h3.61c3.1 0 5.61-2.51 5.61-5.61v-3.61h3.61c3.1 0 5.61-2.51 5.61-5.61V32.44c0-1.32-.46-2.53-1.22-3.49Z" class="cls-1"/><path d="M137.37 85.43H108.6c-3.37 0-6.11-2.74-6.11-6.11v-3.08h-3.11c-3.37 0-6.11-2.74-6.11-6.11V66.2h-3.11c-1.78 0-3.45-.77-4.61-2.1a6.123 6.123 0 0 1-4.61 2.1h-3.11v3.93c0 3.37-2.74 6.11-6.11 6.11h-3.11v3.08c0 3.37-2.74 6.11-6.11 6.11H33.73c-3.37 0-6.11-2.74-6.11-6.11v-3.08h-3.11c-3.37 0-6.11-2.74-6.11-6.11V66.2h-3.11c-3.37 0-6.11-2.74-6.11-6.11v-3.11H6.07c-3.37 0-6.11-2.74-6.11-6.11V32.44c0-1.41.49-2.79 1.4-3.88V6.41C1.4 3.04 4.14.3 7.5.3h10.88c3.16 0 5.76.37 7.95 1.12A6.015 6.015 0 0 1 29.85.3H46.5c3.37 0 6.11 2.74 6.11 6.11v1.74c.76-1.55 1.76-2.89 3-4.02C58.61 1.39 62.76 0 67.96 0c1.78 0 3.5.11 5.12.32 1.77.23 2.98.47 3.91.76l.84.25c.37.11.75.27 1.14.49C81.37.61 84.28 0 87.61 0h2.47c4.38 0 7.96 1.03 10.67 3.06 2.71-2.03 6.3-3.06 10.68-3.06h2.47c3.01 0 5.67.5 7.92 1.48A6.137 6.137 0 0 1 125.43.3h10.23c.96 0 1.92.23 2.77.67.7-.27 1.42-.4 2.16-.4h10.61c.34 0 .7.03 1.07.1.37-.07.73-.1 1.07-.1h10.61c1.75 0 3.42.75 4.58 2.06a6.122 6.122 0 0 1 1.49 4.79l-.15 1.21c.19.74.24 1.51.15 2.27l-1.04 8.49c.7 1.36 1.06 2.89 1.06 4.57 0 .59-.05 1.18-.14 1.74.09.56.14 1.15.14 1.74 0 .44-.03.88-.1 1.38.78 1.06 1.2 2.31 1.2 3.62v18.43c0 3.37-2.74 6.11-6.11 6.11h-3.11v3.11c0 3.37-2.74 6.11-6.11 6.11h-3.11v3.93c0 3.37-2.74 6.11-6.11 6.11h-3.11v3.08c0 3.37-2.74 6.11-6.11 6.11ZM85.56 62.78c.16 0 .32.08.41.21.96 1.37 2.52 2.2 4.2 2.2h3.61c.28 0 .5.22.5.5v4.43c0 2.82 2.29 5.11 5.11 5.11H103c.28 0 .5.22.5.5v3.58c0 2.82 2.29 5.11 5.11 5.11h28.77c2.82 0 5.11-2.29 5.11-5.11v-3.58c0-.28.22-.5.5-.5h3.61c2.82 0 5.11-2.29 5.11-5.11v-4.43c0-.28.22-.5.5-.5h3.61c2.82 0 5.11-2.29 5.11-5.11v-3.61c0-.28.22-.5.5-.5h3.61c2.82 0 5.11-2.29 5.11-5.11V32.43c0-1.16-.38-2.26-1.11-3.17a.483.483 0 0 1-.1-.38c.08-.53.12-.99.12-1.44 0-.57-.05-1.12-.14-1.65v-.17c.09-.53.14-1.09.14-1.65 0-1.57-.34-3-1.02-4.24a.525.525 0 0 1-.06-.3l1.06-8.64c.08-.67.03-1.33-.15-1.98a.408.408 0 0 1-.01-.19l.16-1.3a5.11 5.11 0 0 0-1.24-4.01 5.09 5.09 0 0 0-3.83-1.72h-10.61c-.31 0-.63.03-.97.1-.06.01-.13.01-.19 0-.34-.07-.66-.1-.97-.1h-10.61c-.68 0-1.35.14-2 .41-.14.06-.3.05-.44-.02-.76-.43-1.63-.65-2.5-.65h-10.23c-1.17 0-2.32.41-3.22 1.15-.15.12-.35.15-.53.07-2.18-1-4.79-1.51-7.78-1.51h-2.47c-4.32 0-7.81 1.04-10.37 3.08-.18.15-.44.15-.62 0-2.55-2.04-6.04-3.08-10.35-3.08h-2.47c-3.28 0-6.12.62-8.42 1.83-.15.08-.34.08-.49-.01-.41-.25-.79-.42-1.16-.53l-.84-.25c-.88-.27-2.04-.5-3.75-.72a37.87 37.87 0 0 0-4.99-.31c-4.94 0-8.87 1.3-11.68 3.86-1.73 1.59-2.98 3.64-3.69 6.11-.07.24-.3.39-.55.36a.505.505 0 0 1-.43-.5V6.45c0-2.82-2.29-5.11-5.11-5.11H29.88c-1.14 0-2.23.37-3.13 1.08a.49.49 0 0 1-.48.08c-2.13-.78-4.7-1.16-7.86-1.16H7.5c-2.82 0-5.11 2.29-5.11 5.11v22.34c0 .12-.04.24-.12.33A5.09 5.09 0 0 0 1 32.48v18.43c0 2.82 2.29 5.11 5.11 5.11h3.61c.28 0 .5.22.5.5v3.61c0 2.82 2.29 5.11 5.11 5.11h3.61c.28 0 .5.22.5.5v4.43c0 2.82 2.29 5.11 5.11 5.11h3.61c.28 0 .5.22.5.5v3.58c0 2.82 2.29 5.11 5.11 5.11h28.77c2.82 0 5.11-2.29 5.11-5.11v-3.58c0-.28.22-.5.5-.5h3.61c2.82 0 5.11-2.29 5.11-5.11v-4.43c0-.28.22-.5.5-.5h3.61c1.67 0 3.24-.82 4.2-2.2.09-.13.25-.21.41-.21Z"/><path d="M165.01 31.94H6.11c-.28 0-.5.22-.5.5v18.43c0 .28.22.5.5.5h8.72v8.72c0 .28.22.5.5.5h8.71v9.54c0 .28.22.5.5.5h8.72v8.69c0 .28.22.5.5.5h28.77c.28 0 .5-.22.5-.5v-8.69h8.71c.28 0 .5-.22.5-.5v-9.54h8.72c.28 0 .5-.22.5-.5v-8.72h8.22v8.72c0 .28.22.5.5.5h8.71v9.54c0 .28.22.5.5.5h8.72v8.69c0 .28.22.5.5.5h28.77c.28 0 .5-.22.5-.5v-8.69h8.71c.28 0 .5-.22.5-.5v-9.54h8.72c.28 0 .5-.22.5-.5v-8.72h8.71c.28 0 .5-.22.5-.5V32.44c0-.28-.22-.5-.5-.5Z"/><path d="M33.75 50.87h9.22v9.22h-9.22zm9.22 9.63h9.22v9.22h-9.22zm65.63-9.63h9.22v9.22h-9.22zm9.21 9.63h9.22v9.22h-9.22z" class="cls-1"/><path d="M27.68 19.99c.23-.33.45-.83.67-1.54.21-.7.32-1.47.32-2.28 0-2.37-.86-4.12-2.55-5.21-1.64-1.05-4.17-1.57-7.73-1.57H7.5c-.28 0-.5.22-.5.5v20.54c0 .28.22.5.5.5h14.24c2.4 0 4.24-.59 5.47-1.74 1.24-1.16 1.87-2.77 1.87-4.76 0-.73-.06-1.38-.19-1.95-.25-1.17-.65-1.99-1.21-2.49Zm-7.09 2.44c0 .1-.03.18-.11.26-.09.09-.17.11-.23.11h-2.03v-.69h2.03c.13 0 .2.05.24.09.06.07.09.14.09.24Zm-2.36-2.79v-1.38h.36c.14 0 .21.05.25.09.02.02.08.07.08.24v1.05h-.69Zm28.54 2.65h-6.19v-.19h5.92c.28 0 .5-.22.5-.5v-1.87c0-.28-.22-.5-.5-.5h-5.92v-.19h5.92c.28 0 .5-.22.5-.5V9.89c0-.28-.22-.5-.5-.5H29.85c-.28 0-.5.22-.5.5v20.54c0 .28.22.5.5.5h16.91c.28 0 .5-.22.5-.5v-7.64c0-.28-.22-.5-.5-.5Zm29.45-12.11-.89-.27c-.61-.19-1.58-.37-2.98-.55-1.38-.18-2.85-.27-4.39-.27-3.76 0-6.64.89-8.57 2.66-1.94 1.77-2.93 4.54-2.93 8.23s1 6.51 2.96 8.4c1.96 1.89 4.81 2.84 8.46 2.84s6.39-.35 8.35-1.04c.2-.07.33-.26.33-.47v-8.89c0-.14-.06-.27-.16-.37a.52.52 0 0 0-.38-.13l-.71.06c-1.45.12-3.11.18-4.95.18-.66 0-1.19 0-1.58-.03v-.67c3.17.01 5.6.16 7.2.44.14.02.29-.02.41-.11s.18-.23.18-.38v-9.16c0-.22-.15-.42-.36-.48Zm37.67-1.09h-2.47c-3.69 0-6.44.9-8.16 2.68-1.46 1.5-2.3 3.73-2.52 6.64-.23-2.9-1.06-5.14-2.51-6.64-1.72-1.78-4.46-2.68-8.15-2.68h-2.47c-3.69 0-6.44.9-8.16 2.68-1.72 1.77-2.59 4.56-2.59 8.28s.88 6.54 2.6 8.38c1.73 1.85 4.48 2.79 8.15 2.79h2.47c3.68 0 6.41-.94 8.14-2.79 1.45-1.56 2.29-3.82 2.52-6.74.23 2.91 1.07 5.18 2.53 6.74 1.73 1.85 4.48 2.79 8.15 2.79h2.47c3.68 0 6.41-.94 8.14-2.79 1.72-1.84 2.59-4.66 2.59-8.38s-.87-6.51-2.58-8.28c-1.72-1.78-4.46-2.68-8.15-2.68ZM113 19.37v3.45c0 .15-.05.22-.1.26-.1.09-.43.1-.51.02-.04-.04-.09-.11-.09-.28v-3.45c0-.14.04-.21.09-.25.04-.04.09-.08.23-.08.12 0 .21.03.28.1.07.06.1.13.1.23Zm-23.81 0v3.45c0 .15-.05.22-.09.26-.16.15-.44.1-.51.02-.04-.04-.09-.11-.09-.28v-3.45c0-.14.04-.21.09-.25.04-.04.09-.08.23-.08.12 0 .21.03.28.1.07.07.1.13.1.23Zm49.49 2.92h-2.53V9.89c0-.28-.22-.5-.5-.5h-10.23c-.28 0-.5.22-.5.5v20.54c0 .28.22.5.5.5h13.26c.28 0 .5-.22.5-.5v-7.64c0-.28-.22-.5-.5-.5Zm11.4.97 1.6-13.05a.497.497 0 0 0-.12-.39.48.48 0 0 0-.37-.17h-10.61c-.14 0-.28.06-.38.17-.09.11-.14.25-.12.39l1.66 13.05c.03.25.24.44.5.44h.74c-.78.14-1.42.45-1.9.95-.67.68-1.01 1.62-1.01 2.79s.33 2.1.99 2.77c.66.67 1.62 1.01 2.87 1.01h3.86c1.22 0 2.18-.34 2.85-1.01.67-.67 1.01-1.6 1.01-2.78s-.34-2.11-1.01-2.79c-.49-.49-1.12-.81-1.9-.95h.83c.25 0 .47-.19.5-.44Zm11.43.44h.83c.25 0 .47-.19.5-.44l1.6-13.05a.497.497 0 0 0-.12-.39.48.48 0 0 0-.37-.17h-10.61c-.14 0-.28.06-.38.17-.09.11-.14.25-.12.39l1.67 13.05c.03.25.24.44.5.44h.74c-.78.14-1.42.45-1.9.95-.67.68-1.01 1.62-1.01 2.79s.33 2.1.99 2.77c.66.67 1.62 1.01 2.87 1.01h3.86c1.22 0 2.18-.34 2.85-1.01.67-.67 1.01-1.6 1.01-2.78s-.34-2.11-1.01-2.79c-.49-.49-1.12-.81-1.9-.95Z"/><path d="M7.51 26.95V6.41h10.88c3.43 0 5.92.5 7.46 1.49 1.55.99 2.32 2.59 2.32 4.79 0 .77-.1 1.49-.3 2.14-.2.65-.4 1.12-.59 1.4l-.3.42c.67.34 1.15 1.16 1.43 2.47.12.54.18 1.15.18 1.84 0 1.86-.57 3.33-1.71 4.4-1.14 1.07-2.85 1.6-5.13 1.6H7.51Zm11.91-10.29v-1.55c0-.26-.08-.46-.24-.61a.832.832 0 0 0-.59-.22h-.86v2.38h1.69Zm.84 1.46h-2.53v1.69h2.53c.22 0 .41-.08.58-.25s.25-.37.25-.61-.08-.43-.24-.59a.807.807 0 0 0-.59-.24Z" class="cls-2"/><path d="M21.74 27.45H7.5c-.28 0-.5-.22-.5-.5V6.41c0-.28.22-.5.5-.5h10.88c3.56 0 6.09.51 7.73 1.57 1.69 1.08 2.55 2.84 2.55 5.21 0 .82-.11 1.59-.32 2.28-.22.71-.43 1.22-.67 1.54.56.5.96 1.32 1.21 2.49.12.56.19 1.22.19 1.95 0 2-.63 3.6-1.87 4.76-1.23 1.15-3.07 1.74-5.47 1.74ZM8 26.45h13.74c2.14 0 3.75-.49 4.79-1.47s1.55-2.3 1.55-4.03c0-.65-.06-1.24-.17-1.74-.24-1.15-.64-1.86-1.16-2.13a.483.483 0 0 1-.26-.33c-.04-.14 0-.29.08-.41l.3-.42c.11-.16.3-.51.52-1.25.18-.6.28-1.27.28-1.99 0-2.04-.68-3.46-2.09-4.36-1.46-.93-3.88-1.41-7.19-1.41H8.01v19.54Zm12.26-6.14h-2.53c-.28 0-.5-.22-.5-.5v-1.69c0-.28.22-.5.5-.5h2.53a1.313 1.313 0 0 1 1.34 1.33c0 .37-.14.7-.4.96s-.58.4-.93.4Zm-2.03-1h2.03c.06 0 .13-.01.23-.11.07-.07.11-.15.11-.26s-.03-.18-.09-.24a.318.318 0 0 0-.24-.09h-2.03v.69Zm1.19-2.15h-1.69c-.28 0-.5-.22-.5-.5v-2.38c0-.28.22-.5.5-.5h.86c.36 0 .69.12.94.36.26.24.4.58.4.97v1.55c0 .28-.22.5-.5.5Zm-1.19-1h.69v-1.05c0-.17-.06-.22-.08-.24-.04-.04-.11-.09-.25-.09h-.36v1.38Z"/><path d="M29.86 6.41h16.65v8.65h-6.42v1.19h6.42v1.87h-6.42v1.19h6.69v7.64H29.87V6.41Z" class="cls-2"/><path d="M46.77 27.45H29.86c-.28 0-.5-.22-.5-.5V6.41c0-.28.22-.5.5-.5h16.65c.28 0 .5.22.5.5v8.65c0 .28-.22.5-.5.5h-5.92v.19h5.92c.28 0 .5.22.5.5v1.87c0 .28-.22.5-.5.5h-5.92v.19h6.19c.28 0 .5.22.5.5v7.64c0 .28-.22.5-.5.5Zm-16.41-1h15.91v-6.64h-6.19c-.28 0-.5-.22-.5-.5v-1.19c0-.28.22-.5.5-.5H46v-.87h-5.92c-.28 0-.5-.22-.5-.5v-1.19c0-.28.22-.5.5-.5H46V6.91H30.35v19.54Z"/><path d="M68.29 15.89v1.63c.4.04 1.09.06 2.08.06 1.86 0 3.53-.06 4.99-.18l.71-.06v8.89c-1.92.67-4.65 1.01-8.19 1.01s-6.24-.9-8.11-2.71c-1.87-1.8-2.81-4.48-2.81-8.04s.92-6.18 2.76-7.86c1.84-1.68 4.59-2.53 8.23-2.53 1.53 0 2.97.09 4.33.27 1.36.18 2.32.36 2.9.54l.89.27v9.16c-1.72-.3-4.32-.45-7.79-.45Z" class="cls-2"/><path d="M67.89 27.74c-3.65 0-6.5-.96-8.46-2.84-1.97-1.89-2.96-4.72-2.96-8.4s.98-6.46 2.93-8.23c1.93-1.76 4.81-2.66 8.57-2.66 1.54 0 3.02.09 4.39.27 1.4.18 2.38.37 2.98.55l.89.27c.21.06.36.26.36.48v9.16c0 .15-.06.29-.18.38-.11.09-.26.13-.41.11-1.61-.28-4.03-.42-7.2-.44v.67c.39.02.92.03 1.58.03 1.84 0 3.51-.06 4.95-.18l.71-.06c.14-.02.28.04.38.13.1.09.16.23.16.37v8.89c0 .21-.13.4-.33.47-1.97.69-4.78 1.04-8.35 1.04Zm.07-21.13c-3.5 0-6.16.81-7.9 2.4-1.73 1.58-2.6 4.1-2.6 7.49s.89 5.98 2.66 7.68c1.77 1.7 4.38 2.57 7.77 2.57s5.85-.29 7.69-.87V17.9h-.17c-1.47.13-3.17.19-5.04.19-1.02 0-1.71-.02-2.13-.06a.5.5 0 0 1-.45-.5V15.9c0-.28.22-.5.5-.5 3.11 0 5.56.12 7.29.36V7.55l-.54-.16c-.55-.17-1.49-.34-2.82-.52-1.33-.17-2.76-.26-4.26-.26Z"/><path d="M87.61 6.11h2.47c3.57 0 6.16.84 7.79 2.53 1.62 1.68 2.44 4.33 2.44 7.94s-.82 6.29-2.45 8.04c-1.63 1.75-4.23 2.63-7.77 2.63h-2.47c-3.55 0-6.14-.88-7.79-2.63-1.65-1.75-2.47-4.43-2.47-8.04s.82-6.25 2.45-7.94c1.63-1.68 4.24-2.53 7.8-2.53Zm.39 9.78v3.45c0 .26.07.47.22.62.15.16.35.24.59.24s.46-.08.62-.24c.17-.16.25-.37.25-.62v-3.45c0-.24-.08-.44-.25-.6-.17-.16-.38-.24-.62-.24s-.45.08-.59.24a.84.84 0 0 0-.22.6Z" class="cls-2"/><path d="M90.08 27.74h-2.47c-3.68 0-6.42-.94-8.15-2.79-1.73-1.84-2.6-4.66-2.6-8.38s.87-6.51 2.59-8.28c1.73-1.78 4.47-2.68 8.16-2.68h2.47c3.69 0 6.43.9 8.15 2.68 1.71 1.77 2.58 4.56 2.58 8.28s-.87 6.54-2.59 8.38c-1.73 1.85-4.46 2.79-8.14 2.79ZM87.61 6.61c-3.41 0-5.91.8-7.44 2.37-1.53 1.58-2.31 4.13-2.31 7.59s.78 6.05 2.33 7.7c1.54 1.64 4.04 2.47 7.42 2.47h2.47c3.39 0 5.88-.83 7.41-2.47 1.54-1.65 2.32-4.24 2.32-7.7s-.77-6.01-2.3-7.59c-1.52-1.58-4.02-2.37-7.43-2.37h-2.47Zm1.21 14.09c-.39 0-.72-.14-.96-.4-.24-.25-.36-.58-.36-.97v-3.45c0-.36.12-.69.36-.94.48-.51 1.4-.52 1.93-.02.27.26.41.59.41.96v3.45c0 .39-.14.74-.41.99-.26.25-.6.37-.97.37Zm0-5.14c-.14 0-.19.04-.23.08-.04.05-.09.11-.09.25v3.45c0 .17.05.24.09.28.07.08.35.13.51-.02.05-.04.09-.11.09-.26v-3.45c0-.1-.03-.17-.1-.23-.07-.07-.16-.1-.28-.1Z"/><path d="M111.42 6.11h2.47c3.57 0 6.16.84 7.79 2.53 1.62 1.68 2.44 4.33 2.44 7.94s-.82 6.29-2.45 8.04c-1.63 1.75-4.23 2.63-7.77 2.63h-2.47c-3.55 0-6.14-.88-7.79-2.63-1.65-1.75-2.47-4.43-2.47-8.04s.82-6.25 2.45-7.94c1.63-1.68 4.24-2.53 7.8-2.53Zm.39 9.78v3.45c0 .26.07.47.22.62.15.16.35.24.59.24s.46-.08.62-.24c.17-.16.25-.37.25-.62v-3.45c0-.24-.08-.44-.25-.6-.17-.16-.38-.24-.62-.24s-.45.08-.59.24a.84.84 0 0 0-.22.6Z" class="cls-2"/><path d="M113.89 27.74h-2.47c-3.67 0-6.42-.94-8.15-2.79-1.73-1.84-2.6-4.66-2.6-8.38s.87-6.51 2.59-8.28c1.73-1.78 4.47-2.68 8.16-2.68h2.47c3.69 0 6.43.9 8.15 2.68 1.71 1.77 2.58 4.56 2.58 8.28s-.87 6.54-2.59 8.38c-1.73 1.85-4.46 2.79-8.14 2.79Zm-2.47-21.13c-3.41 0-5.91.8-7.44 2.37-1.53 1.58-2.31 4.13-2.31 7.59s.78 6.05 2.33 7.7c1.54 1.64 4.04 2.47 7.42 2.47h2.47c3.39 0 5.88-.83 7.41-2.47 1.54-1.65 2.32-4.24 2.32-7.7s-.77-6.01-2.3-7.59c-1.52-1.58-4.02-2.37-7.43-2.37h-2.47Zm1.21 14.09c-.38 0-.72-.14-.96-.4-.24-.25-.36-.58-.36-.97v-3.45c0-.36.12-.68.36-.94.48-.51 1.4-.52 1.93-.02.27.26.41.59.41.96v3.45c0 .39-.14.74-.41.99-.26.24-.59.37-.97.37Zm0-5.14c-.14 0-.19.04-.23.08-.04.04-.09.11-.09.25v3.45c0 .17.05.24.09.28.08.08.42.07.51-.02.05-.04.1-.11.1-.26v-3.45c0-.1-.03-.17-.1-.23-.07-.07-.16-.1-.28-.1Z"/><path d="M125.42 6.41h10.23v12.9h3.03v7.64h-13.26V6.41Z" class="cls-2"/><path d="M138.68 27.45h-13.26c-.28 0-.5-.22-.5-.5V6.41c0-.28.22-.5.5-.5h10.23c.28 0 .5.22.5.5v12.4h2.53c.28 0 .5.22.5.5v7.64c0 .28-.22.5-.5.5Zm-12.76-1h12.26v-6.64h-2.53c-.28 0-.5-.22-.5-.5V6.91h-9.23v19.54Z"/><path d="M149.59 19.72h-7.34l-1.66-13.05h10.61l-1.61 13.05Zm-5.65.92h3.86c1.09 0 1.92.29 2.5.88.57.58.86 1.4.86 2.44s-.29 1.85-.86 2.42c-.57.57-1.41.86-2.5.86h-3.86c-1.11 0-1.95-.29-2.51-.86-.56-.58-.85-1.38-.85-2.42s.29-1.85.86-2.44c.57-.58 1.41-.88 2.5-.88Z" class="cls-2"/><path d="M147.8 27.74h-3.86c-1.24 0-2.21-.34-2.87-1.01-.66-.67-.99-1.6-.99-2.77s.34-2.11 1.01-2.79c.48-.49 1.12-.81 1.9-.95h-.74c-.25 0-.46-.19-.5-.44l-1.66-13.05a.497.497 0 0 1 .5-.56h10.61c.14 0 .28.06.37.17.09.11.14.25.12.39l-1.6 13.05c-.03.25-.24.44-.5.44h-.83c.78.14 1.42.45 1.9.95.67.68 1.01 1.62 1.01 2.79s-.34 2.11-1.01 2.78c-.67.67-1.63 1.01-2.85 1.01Zm-3.86-6.6c-.96 0-1.66.24-2.14.73-.48.49-.72 1.17-.72 2.09s.23 1.59.7 2.07c.46.47 1.19.71 2.16.71h3.86c.95 0 1.67-.24 2.14-.71.48-.48.72-1.16.72-2.07s-.24-1.59-.72-2.09c-.48-.49-1.18-.73-2.14-.73h-3.86Zm-1.25-1.92h6.46l1.48-12.05h-9.48l1.54 12.05Z"/><path d="M162.34 19.72H155l-1.66-13.05h10.61l-1.61 13.05Zm-5.65.92h3.86c1.09 0 1.92.29 2.5.88.57.58.86 1.4.86 2.44s-.29 1.85-.86 2.42c-.57.57-1.41.86-2.5.86h-3.86c-1.11 0-1.95-.29-2.51-.86-.56-.58-.85-1.38-.85-2.42s.29-1.85.86-2.44c.57-.58 1.41-.88 2.5-.88Z" class="cls-2"/><path d="M160.56 27.74h-3.86c-1.24 0-2.21-.34-2.87-1.01-.66-.67-.99-1.6-.99-2.77s.34-2.11 1.01-2.79c.48-.49 1.12-.81 1.9-.95h-.74c-.25 0-.46-.19-.5-.44l-1.67-13.05a.497.497 0 0 1 .5-.56h10.61c.14 0 .28.06.37.17.09.11.14.25.12.39l-1.6 13.05c-.03.25-.24.44-.5.44h-.83c.78.14 1.42.45 1.9.95.67.68 1.01 1.62 1.01 2.79s-.34 2.11-1.01 2.78c-.67.67-1.63 1.01-2.85 1.01Zm-3.87-6.6c-.96 0-1.66.24-2.14.73-.48.49-.72 1.17-.72 2.09s.23 1.59.7 2.07c.46.47 1.19.71 2.15.71h3.86c.95 0 1.67-.24 2.14-.71.48-.48.72-1.16.72-2.07s-.23-1.59-.72-2.09c-.48-.49-1.18-.73-2.14-.73h-3.86Zm-1.25-1.92h6.46l1.48-12.05h-9.48l1.54 12.05Z"/></g></svg>