<svg xmlns="http://www.w3.org/2000/svg" width="150" height="150" fill="none"><path fill="#26132B" d="M87.536 4.074a72.35 72.35 0 0 0-35.12 2.58l-.15.05a72.12 72.12 0 0 0 17.06 140.29 71.528 71.528 0 0 0 28.56-3.49 72.112 72.112 0 0 0 49.097-73.744A72.107 72.107 0 0 0 87.536 4.074Z"/><path fill="#E5A0FA" d="M86.696 8.863a67.27 67.27 0 1 0 52.16 45 67.073 67.073 0 0 0-52.16-45Z"/><path fill="#26132B" d="M43.306 48.873c-1.9.71-3.11 2.71-3.59 5.45a4.48 4.48 0 1 1 .53 8.63 29.79 29.79 0 0 0 1 3.22c3 8 8.81 13.22 13 11.66 4.19-1.56 5.05-9.3 2-17.3s-8.81-13.22-12.94-11.66Zm40.53-13.519c-1.89.71-3.11 2.72-3.59 5.45a4.48 4.48 0 1 1 .54 8.63 29.694 29.694 0 0 0 1 3.22c3 8 8.81 13.23 12.95 11.67 4.14-1.56 5.05-9.31 2-17.31-3.05-8-8.76-13.22-12.9-11.66Zm5.589 82.78a38.888 38.888 0 0 1-49.12-24.5 1.42 1.42 0 0 1 .62-1.69 1.369 1.369 0 0 1 2 .76 36.096 36.096 0 0 0 45.645 22.845 36.092 36.092 0 0 0 22.845-45.645 1.385 1.385 0 0 1 .328-1.567 1.381 1.381 0 0 1 2.272.667 38.88 38.88 0 0 1-24.59 49.13Z"/></svg>