<svg xmlns="http://www.w3.org/2000/svg" viewBox="0 0 121.12 142.08"><defs><style>.cls-5{fill:#fff}</style></defs><g style="isolation:isolate"><g id="Layer_2" data-name="Layer 2"><g id="OBJECTS"><path d="M106.06 82.06c0-2.3-1.22-4.44-3.22-5.59l-21.6-12.49 36.99-24.59a6.457 6.457 0 0 0 2.87-5.72 6.44 6.44 0 0 0-3.47-5.38L64.56.73a6.448 6.448 0 0 0-8.04 1.73l-45.9 58.3a6.45 6.45 0 0 0-1.27 5.17 6.448 6.448 0 0 0 3.05 4.37l25.34 15.03-36.36 46.32a6.442 6.442 0 0 0 .2 8.2 6.41 6.41 0 0 0 2.78 1.88c1.71.59 3.65.45 5.31-.51l93.16-53.57c2-1.15 3.23-3.28 3.24-5.59Z" class="cls-5"/><path d="M102.03 82.06c0-.87-.46-1.66-1.21-2.1L73.6 64.22 116 36.03c.71-.47 1.12-1.29 1.08-2.14-.04-.85-.54-1.62-1.3-2.02L62.7 4.3c-1.03-.54-2.3-.26-3.01.65l-45.9 58.3a2.424 2.424 0 0 0 .66 3.58L43.74 84.2 4.55 134.13c-.72.91-.68 2.2.07 3.08.29.33.65.57 1.04.7.64.22 1.37.17 1.99-.19l93.16-53.57a2.41 2.41 0 0 0 1.21-2.09Z" style="fill:#430069"/><path d="m69.02 64.36 30.59 17.7-81.71 46.98-11.45 6.59 40.89-52.11-31.65-18.77 45.89-58.3 38.35 19.92 14.74 7.65-45.65 30.34z" style="fill:#ffd800"/><path d="M53.72 78.94a1 1 0 0 1-.49-.13c-4.66-2.61-9.23-5.42-13.65-8.13-4.41-2.71-8.97-5.51-13.6-8.1s0 0-.01 0a1.02 1.02 0 0 1-.28-.52c-.05-.29.02-.58.2-.81 3.88-4.92 7.81-9.69 11.97-14.74 5.41-6.57 11.01-13.36 16.49-20.52.34-.44.96-.52 1.4-.19.44.34.52.96.19 1.4-5.5 7.19-11.11 14-16.53 20.58-3.88 4.71-7.57 9.18-11.19 13.75.28.15.61.34.98.54.08.05 2.02 1.13 2.21 1.27.08.06.15.13.21.21 3.13 1.84 6.21 3.73 9.22 5.58 4.4 2.7 8.95 5.5 13.58 8.09a1 1 0 0 1 .38 1.36c-.18.33-.52.51-.87.51Zm5.17-56.39c-.22 0-.44-.07-.63-.22a1.01 1.01 0 0 1-.15-1.41l6.1-7.52c.35-.43.98-.49 1.41-.15.43.35.49.98.15 1.41l-6.1 7.52c-.2.24-.49.37-.78.37Z" class="cls-5"/><path d="m69.02 64.36 30.59 17.69-81.71 46.98 64.24-46.89-32.03-19.91s31.96-23.5 49.82-35.86l14.73 7.65-45.65 30.34Z" style="fill:#adc0e0;mix-blend-mode:multiply"/></g></g></g></svg>