<svg xmlns="http://www.w3.org/2000/svg" width="314" height="231" fill="none"><path fill="#2D69FF" d="M132.127 14.306C83.13 26.199 42.899 55.439 16.363 93.912-8.442 129.879 3.6 179.466 42.142 200.053c41.227 22.024 90.391 29.561 139.388 17.662 48.997-11.893 89.228-41.133 115.763-79.606 24.807-35.967 12.764-85.555-25.777-106.14-41.227-22.02-90.391-29.556-139.388-17.663Z"/><path fill="#D5E8F9" d="M176.674 197.537c75.527-18.337 127.818-69.99 116.795-115.37-11.023-45.38-81.186-67.302-156.714-48.965C61.227 51.54 8.936 103.192 19.959 148.572c11.024 45.379 81.187 67.302 156.715 48.965Z"/><path fill="#2D69FF" d="m147.557 77.141 18.599 21.98 28.643-2.506a.178.178 0 0 1 .168.27l-15.11 24.492 11.26 26.51a.18.18 0 0 1-.206.244l-27.936-6.849-21.684 18.889c-.109.097-.283.026-.296-.122l-2.159-28.72-24.659-14.835c-.122-.077-.109-.263.026-.315l26.6-10.903 6.446-28.058a.178.178 0 0 1 .308-.077Z"/></svg>