<svg xmlns="http://www.w3.org/2000/svg" id="Layer_2" data-name="Layer 2" viewBox="0 0 163.66 90.87"><defs><style>.cls-1{fill:#ffd70e}</style></defs><g id="OBJECTS"><path d="M158.19 32.54c-.85-2.26-2.04-4.25-3.51-5.94-.07-.62-.22-1.22-.44-1.8l-5-13.19a7.526 7.526 0 0 0-4.76-4.52l-1.64-.53c-1.52-.47-3.53-.88-6.32-1.26-2.65-.37-5.45-.56-8.3-.56-.76 0-1.49.03-2.16.06-.89-.04-1.79-.06-2.7-.06-3.78 0-6.95.44-9.68 1.34-.38-.33-.73-.6-1.07-.83-2.86-1.99-6.51-3-10.85-3-.52 0-1.48 0-2.52.12-.85-.08-1.62-.12-2.35-.12-1.6 0-6.44 0-9.95 2.95H30.77c-.38 0-.77.04-1.23.11-.45-.08-.85-.11-1.24-.11H7.58c-2.49 0-4.82 1.22-6.24 3.27a7.6 7.6 0 0 0-.85 6.99l12.08 31.86c1.11 2.92 3.96 4.89 7.08 4.89h30.59c-2.16 4.5-1.94 10.24.65 17.08 2.62 6.92 6.59 12.28 11.8 15.95 5.25 3.7 11.52 5.58 18.64 5.58 1.44 0 2.79 0 4.05-.03h.33c.16.02.32.03.48.03 5.82 0 10.32-.14 13.75-.44.99-.09 1.95-.37 2.86-.85 2.97.89 6.23 1.34 9.69 1.34h3.83c.1 0 .19 0 .28-.01h.42c.11 0 .22.01.33.01h3.83c8.44 0 14.21-2.69 17.14-7.99 2.66-4.81 2.51-10.97-.47-18.83-1.71-4.51-3.9-8.35-6.53-11.44 1.8.07 3.57.08 5.1.01.91.03 1.84.05 2.79.05 7.44 0 12.5-1.44 15.91-4.54 2.01-1.82 6.32-6.98 3.06-15.59Zm-49.46 3.3 2.73 7.19c-.98-.07-1.85-.11-2.7-.11h-2.03a6.77 6.77 0 0 0-.29-.99l-2.31-6.1h4.61Z"/><path d="M162.01 30.47c-.86-2.26-2.04-4.24-3.52-5.91-.06-.62-.2-1.24-.43-1.84l-5-13.19a7.08 7.08 0 0 0-4.45-4.23l-1.64-.53c-1.49-.46-3.47-.86-6.24-1.24-2.63-.37-5.4-.55-8.24-.55-.75 0-1.47.03-2.18.06-.89-.04-1.78-.06-2.68-.06-3.85 0-7.09.47-9.79 1.4-.4-.35-.81-.69-1.24-.99-2.77-1.93-6.32-2.91-10.57-2.91-.56 0-1.47 0-2.56.11-.74-.07-1.51-.11-2.3-.11-1.67 0-6.4.01-9.76 2.95H35.05c-.42 0-.82.05-1.23.12-.41-.07-.82-.12-1.24-.12H11.87a7.05 7.05 0 0 0-5.82 3.06 7.065 7.065 0 0 0-.79 6.53l12.08 31.86a7.08 7.08 0 0 0 6.62 4.57h31.41c-2.48 4.47-2.39 10.31.3 17.4 2.59 6.82 6.5 12.11 11.62 15.72 5.16 3.64 11.34 5.49 18.35 5.49 1.43 0 2.79 0 4.06-.03.27 0 .53.03.8.03 5.81 0 10.29-.14 13.71-.44 1.02-.09 1.98-.4 2.84-.89 2.98.91 6.23 1.37 9.74 1.37h3.83c.16 0 .31-.02.46-.02.19 0 .38.02.57.02h3.83c8.25 0 13.87-2.6 16.7-7.73 2.59-4.68 2.42-10.7-.5-18.41-1.87-4.93-4.3-9-7.22-12.18 1.35.07 2.74.12 4.19.12.72 0 1.41-.02 2.09-.05.91.03 1.83.05 2.78.05 7.31 0 12.26-1.4 15.58-4.42 1.93-1.75 6.08-6.72 2.93-15.04Zm-51.75 9.41-2.57-6.78h5.68l3.13 8.26c-1.12-.1-2.27-.17-3.45-.17h-2.44c-.08-.44-.18-.88-.34-1.31Z" style="fill:#fff"/><path d="M125.48 88.62h-3.83c-.11 0-.23 0-.34-.01h-.42c-.09 0-.18.01-.28.01h-3.83c-3.46 0-6.72-.45-9.69-1.34-.9.48-1.86.76-2.86.85-3.43.3-7.93.44-13.75.44-.16 0-.32 0-.48-.01h-.33c-1.26 0-2.62.01-4.05.01-7.12 0-13.39-1.88-18.64-5.58-5.2-3.67-9.17-9.04-11.8-15.95-2.59-6.83-2.81-12.57-.65-17.08H23.94c-3.13 0-5.98-1.97-7.08-4.89L4.79 13.22a7.574 7.574 0 0 1 7.09-10.26H32.6c.39 0 .79.04 1.24.11a7 7 0 0 1 1.23-.11h56.17C94.75.01 99.59.01 101.19.01c.73 0 1.5.04 2.35.12 1.03-.12 1.96-.12 2.52-.12 4.35 0 8 1.01 10.85 3 .34.24.69.51 1.07.83 2.73-.9 5.9-1.34 9.68-1.34.91 0 1.81.03 2.7.06.67-.04 1.4-.06 2.16-.06 2.86 0 5.65.19 8.3.56 2.79.39 4.79.79 6.32 1.26l1.64.53a7.55 7.55 0 0 1 4.76 4.52l5 13.19c.22.58.37 1.19.44 1.8 1.47 1.69 2.66 3.69 3.51 5.94 3.27 8.6-1.05 13.77-3.06 15.59-3.42 3.1-8.47 4.54-15.91 4.54-.95 0-1.88-.02-2.79-.05-1.53.07-3.31.06-5.1-.01 2.63 3.09 4.82 6.94 6.53 11.44 2.98 7.86 3.13 14.01.47 18.83-2.93 5.3-8.7 7.99-17.14 7.99Zm-4.4-1.02h.29c.1.01.19.02.29.02h3.83c8.05 0 13.52-2.51 16.26-7.47 2.51-4.54 2.34-10.42-.53-17.99-1.83-4.83-4.23-8.87-7.12-12.01a.487.487 0 0 1-.08-.55c.09-.18.28-.29.48-.29 2.21.12 4.28.15 6.23.07.94.03 1.86.05 2.8.05 7.18 0 12.02-1.36 15.24-4.29 1.86-1.68 5.84-6.46 2.8-14.49-.83-2.2-1.99-4.13-3.43-5.75a.503.503 0 0 1-.12-.29c-.06-.58-.19-1.16-.4-1.71l-5-13.19a6.553 6.553 0 0 0-4.13-3.93l-1.64-.53c-1.46-.46-3.42-.85-6.15-1.23-2.61-.36-5.36-.55-8.17-.55-.75 0-1.46.03-2.16.06-.93-.04-1.81-.06-2.7-.06-3.79 0-6.94.45-9.63 1.38-.17.06-.36.02-.49-.1-.44-.39-.83-.69-1.2-.95-2.68-1.87-6.14-2.82-10.28-2.82-.54 0-1.43 0-2.51.11-.92-.07-1.65-.11-2.35-.11-1.53 0-6.2 0-9.44 2.83-.09.08-.21.12-.33.12H35.08c-.34 0-.7.04-1.14.11-.06.01-.12.01-.17 0-.43-.08-.8-.11-1.15-.11H11.87c-2.16 0-4.18 1.06-5.41 2.84a6.594 6.594 0 0 0-.74 6.07L17.8 44.7a6.599 6.599 0 0 0 6.15 4.24h31.41c.18 0 .34.09.43.25.09.15.09.34 0 .5-2.41 4.34-2.3 10.05.33 16.98 2.55 6.73 6.4 11.94 11.44 15.49 5.08 3.58 11.15 5.4 18.06 5.4 1.43 0 2.78 0 4.06-.03h.37c.14.02.29.03.43.03 5.79 0 10.26-.14 13.67-.44.92-.08 1.81-.36 2.64-.83.12-.07.26-.08.39-.04 2.93.9 6.16 1.35 9.6 1.35h4.05c.08 0 .16 0 .24-.01Zm-4.58-45.75h-.04c-1.28-.11-2.36-.17-3.41-.17h-2.44c-.24 0-.45-.18-.49-.42-.08-.46-.18-.86-.32-1.22s-2.57-6.78-2.57-6.78a.475.475 0 0 1 .06-.46.49.49 0 0 1 .41-.22h5.68c.21 0 .39.13.47.32l3.13 8.26c.06.16.04.34-.07.48-.1.12-.24.2-.4.2Zm-5.49-1.17h2.03c.85 0 1.73.03 2.7.11l-2.73-7.2h-4.61l2.31 6.1c.12.3.21.63.29.99Z"/><path d="M40.49 30.36a.501.501 0 0 0-.47-.32h-4.36l-7.47-19.69a.501.501 0 0 0-.47-.32H11.86a.49.49 0 0 0-.41.22c-.09.14-.11.31-.06.46l12.08 31.86c.07.19.26.32.47.32H44.5c.16 0 .32-.08.41-.22.09-.14.11-.31.06-.46l-4.49-11.85Zm33.3 12.31c.09-.14.11-.31.06-.46l-4.49-11.85a.501.501 0 0 0-.47-.32H58.86l-.32-.84h9.23c.16 0 .32-.08.41-.22.09-.14.11-.31.06-.46l-1.1-2.9a.501.501 0 0 0-.47-.32h-9.61l-.32-.84h9.23c.16 0 .32-.08.41-.22.09-.14.11-.31.06-.46l-5.09-13.42a.501.501 0 0 0-.47-.32H35.06a.49.49 0 0 0-.41.22c-.09.14-.11.31-.06.46l12.08 31.86c.07.19.26.32.47.32h26.23c.16 0 .32-.08.41-.22Zm-5.25-18.55c.07.19.26.32.47.32h5.19l6.87 18.12c.07.19.26.32.47.32h17.24c.16 0 .32-.08.41-.22.09-.14.11-.31.06-.46l-6.74-17.76h4.9c.16 0 .32-.08.41-.22.09-.14.11-.31.06-.46l-5.09-13.42a.501.501 0 0 0-.47-.32h-28.4a.49.49 0 0 0-.41.22c-.09.14-.11.31-.06.46l5.09 13.42Zm33.31-4.4-1.15 6.21c-.03.15.01.3.11.41.09.11.24.18.38.18h10.65c.17 0 .33-.09.42-.24l.24-.38c.46-.63.77-1.83.92-3.65.23-2.01-.22-4.49-1.31-7.38-1.09-2.88-2.48-4.92-4.12-6.06-1.65-1.15-3.94-1.73-6.81-1.73s-4.85.54-5.77 1.66c-.94 1.14-.95 2.87-.04 5.29 1.35 3.56 3.53 5.47 6.48 5.69ZM151 32.8c-1.03-2.71-2.73-4.77-5.07-6.11-2.24-1.29-5.41-2.11-9.43-2.44l-.08-.22c3.94.06 7.29.62 9.97 1.67a.5.5 0 0 0 .65-.64l-5-13.19a.511.511 0 0 0-.31-.3l-1.58-.51c-1.1-.34-2.85-.68-5.18-1.01-2.33-.32-4.8-.49-7.33-.49-5.38 0-8.98.98-10.99 2.98-2.04 2.03-2.41 4.83-1.09 8.3 1.28 3.39 3.21 5.8 5.71 7.18 2.39 1.31 5.51 2.13 9.28 2.43l.05.13c-1.93-.03-3.8-.2-5.58-.49-2.01-.33-3.34-.6-3.95-.81-.63-.21-1.1-.38-1.42-.5a.497.497 0 0 0-.53.11c-.14.14-.18.35-.11.53l4.35 11.48c.05.13.16.24.29.29l1.46.56c.97.35 2.67.7 5.2 1.06 2.49.35 5.29.53 8.34.53 5.5 0 9.15-.89 11.16-2.71 2.06-1.86 2.46-4.5 1.2-7.83ZM93.34 64.96a.487.487 0 0 0-.49-.32l-10.72.41c-.16 0-.31.09-.4.22a.48.48 0 0 0-.05.45l.95 2.5h-.77l-1.75-4.62h11.68c.16 0 .32-.08.41-.22.09-.14.11-.31.06-.46l-5.11-13.46a.488.488 0 0 0-.37-.31l-1.65-.32c-1.15-.22-2.86-.44-5.08-.65-2.23-.22-4.51-.32-6.76-.32-5.8 0-9.74 1.37-11.71 4.08-1.98 2.71-1.89 6.95.25 12.6 2.11 5.57 5.23 9.84 9.26 12.68 4.03 2.84 8.93 4.29 14.56 4.29s9.95-.14 13.14-.42a.49.49 0 0 0 .42-.67l-5.86-15.44Zm28.71-13.18c-3.58-2.67-8.25-4.02-13.86-4.02h-3.83c-5.7 0-9.41 1.4-11.05 4.16-1.64 2.78-1.37 6.94.83 12.74 2.15 5.66 5.08 9.93 8.72 12.69 3.65 2.77 8.34 4.18 13.93 4.18h3.83c5.67 0 9.35-1.46 10.95-4.34 1.57-2.84 1.27-7.18-.9-12.89-2.15-5.66-5.05-9.87-8.62-12.53Zm-10.91 10.97c.04-.07.16-.11.35-.11.28 0 .55.09.82.28.27.19.46.41.56.69l2.03 5.35c.06.16.12.38.03.51-.03.04-.1.15-.41.15-.27 0-.52-.09-.76-.27a1.62 1.62 0 0 1-.55-.75l-2.03-5.35c-.08-.22-.1-.39-.03-.5Z"/><path d="M16.73 10.53h15.86l7.59 20.01h4.7l4.49 11.85H28.81L16.73 10.53Z" class="cls-1"/><path d="M50.1 42.89H28.47L16.01 10.03h16.93l7.59 20.01h4.7l4.87 12.85Zm-20.94-1h19.49l-4.11-10.85h-4.7l-7.59-20.01H17.46l11.7 30.86Z"/><path d="M39.92 10.53h25.82l5.09 13.42h-9.96l.7 1.84h9.96l1.1 2.9h-9.96l.7 1.84h10.37l4.49 11.85H52L39.92 10.52Z" class="cls-1"/><path d="M78.96 42.89h-27.3L39.2 10.03h26.89l5.47 14.42H61.6l.32.84h9.96l1.48 3.9H63.4l.32.84h10.37l4.87 12.85Zm-26.61-1h25.16L73.4 31.04H63.03l-1.08-2.84h9.96l-.72-1.9h-9.96l-1.08-2.84h9.96L65.4 11.04H40.65l11.7 30.86Z"/><path d="m73.87 23.94-5.09-13.42h28.4l5.09 13.42h-5.62l6.99 18.44H86.4l-6.99-18.44h-5.53Z" class="cls-1"/><path d="M104.37 42.89H86.06l-6.99-18.44h-5.53l-5.47-14.42h29.47l5.47 14.42h-5.62l6.99 18.44Zm-17.63-1h16.17l-6.99-18.44h5.62l-4.71-12.42H69.5l4.71 12.42h5.53l6.99 18.44Z"/><path d="M100.7 13.85c-.84-2.21-.85-3.81-.04-4.8.81-.98 2.61-1.48 5.39-1.48s4.96.55 6.52 1.64c1.57 1.09 2.88 3.04 3.94 5.83 1.07 2.83 1.5 5.21 1.28 7.15-.15 1.72-.42 2.86-.83 3.41l-.26.41h-10.65l1.26-6.78c-3.04 0-5.25-1.8-6.61-5.39Z" class="cls-1"/><path d="M116.98 26.52h-11.53l1.26-6.8c-2.95-.22-5.13-2.14-6.48-5.69-.92-2.42-.9-4.15.04-5.29.92-1.12 2.81-1.66 5.77-1.66s5.16.58 6.81 1.73c1.64 1.14 3.03 3.19 4.12 6.06 1.1 2.89 1.54 5.37 1.31 7.38-.15 1.82-.46 3.02-.92 3.65l-.38.62Zm-10.32-1h9.77l.11-.18c.26-.36.58-1.17.75-3.19.21-1.86-.21-4.19-1.25-6.93-1.02-2.69-2.28-4.57-3.76-5.6-1.47-1.03-3.57-1.55-6.24-1.55s-4.29.44-5 1.29c-.68.83-.64 2.28.12 4.3 1.29 3.41 3.3 5.07 6.14 5.07h.6l-1.26 6.78Z"/><path d="M132.51 10.07c2.52 0 4.94.16 7.26.48 2.32.32 4.02.65 5.1.99l1.58.51 5 13.19c-2.92-1.14-6.55-1.71-10.88-1.71l.45 1.2c4.11.31 7.29 1.11 9.53 2.4 2.24 1.29 3.86 3.24 4.85 5.85 1.19 3.14.83 5.56-1.06 7.28-1.9 1.72-5.51 2.58-10.82 2.58-3.04 0-5.8-.18-8.27-.53-2.47-.35-4.17-.7-5.1-1.04l-1.45-.55-4.35-11.48c.32.12.8.29 1.44.51.64.22 1.98.49 4.03.83 2.05.34 4.18.51 6.39.51l-.42-1.11c-3.86-.28-6.99-1.07-9.39-2.4-2.41-1.32-4.23-3.63-5.48-6.92s-.92-5.88.97-7.77c1.9-1.89 5.44-2.83 10.63-2.83Z" class="cls-1"/><path d="M143.51 43.35c-3.05 0-5.85-.18-8.34-.53-2.52-.36-4.22-.71-5.2-1.06l-1.67-.63-4.83-12.73 1.04.4c.32.12.79.29 1.42.5.61.21 1.94.48 3.95.81 1.78.29 3.66.46 5.58.49l-.05-.13c-3.77-.3-6.89-1.12-9.28-2.43-2.5-1.37-4.42-3.79-5.71-7.18-1.32-3.47-.95-6.27 1.09-8.3 2.01-2.01 5.6-2.98 10.99-2.98 2.53 0 5 .16 7.33.49 2.33.32 4.08.66 5.18 1.01l1.81.58 5.48 14.46-1.05-.41c-2.69-1.05-6.04-1.6-9.97-1.67l.08.22c4.02.33 7.19 1.15 9.43 2.44 2.33 1.34 4.04 3.4 5.07 6.11 1.26 3.33.86 5.97-1.19 7.83-2.01 1.82-5.66 2.71-11.16 2.71Zm-14.43-3.01 1.24.47c.89.32 2.57.66 4.99 1.01 2.44.35 5.2.52 8.2.52 5.17 0 8.69-.82 10.49-2.45 1.75-1.58 2.05-3.79.93-6.74-.94-2.49-2.5-4.37-4.63-5.6-2.16-1.25-5.3-2.03-9.32-2.33l-.32-.02-.82-2.17h.72c3.88 0 7.25.46 10.03 1.37l-4.53-11.95-1.35-.43c-1.05-.33-2.74-.65-5.02-.97a52.19 52.19 0 0 0-7.19-.48c-5.03 0-8.49.9-10.28 2.69-1.76 1.75-2.04 4.12-.86 7.24 1.2 3.16 2.97 5.4 5.26 6.65 2.33 1.28 5.42 2.07 9.19 2.34l.32.02.79 2.08h-.72c-2.24 0-4.41-.17-6.47-.51-2.1-.35-3.44-.62-4.11-.85-.15-.05-.29-.1-.42-.14l3.89 10.26Z"/><path d="m84.24 63.11 2.13 5.62h1.84L87 65.55l10.72-.41 5.86 15.44c-3.18.28-7.55.41-13.1.41s-10.3-1.4-14.27-4.2c-3.97-2.8-6.99-6.95-9.08-12.45-2.09-5.5-2.19-9.54-.31-12.12s5.65-3.87 11.3-3.87c2.24 0 4.48.11 6.72.32 2.23.22 3.91.43 5.04.65l1.64.32 5.11 13.46h-12.4Z" class="cls-1"/><path d="M90.49 81.49c-5.63 0-10.53-1.44-14.56-4.29-4.03-2.84-7.14-7.11-9.26-12.68-2.14-5.64-2.22-9.88-.25-12.6 1.97-2.71 5.91-4.08 11.71-4.08 2.25 0 4.53.11 6.76.32 2.23.21 3.94.43 5.08.65l1.92.38 5.46 14.4h-12.4l1.75 4.62h.77l-1.2-3.15 11.78-.46 6.22 16.4-.66.06c-3.19.28-7.61.42-13.14.42ZM78.14 48.85c-5.46 0-9.13 1.23-10.9 3.67-1.77 2.42-1.64 6.34.37 11.65 2.04 5.38 5.04 9.49 8.9 12.22 3.86 2.72 8.56 4.1 13.98 4.1 5.13 0 9.29-.12 12.39-.36l-5.49-14.49-9.67.37 1.22 3.21h-2.91l-2.51-6.62h12.4l-4.75-12.53-1.37-.27c-1.11-.21-2.79-.43-4.99-.64-2.2-.21-4.45-.32-6.67-.32Z"/><path d="M109.22 48.26h3.83c5.53 0 10.05 1.31 13.57 3.92 3.51 2.61 6.33 6.72 8.45 12.31 2.12 5.59 2.43 9.75.93 12.47-1.5 2.72-5.01 4.08-10.51 4.08h-3.83c-5.5 0-10.04-1.36-13.63-4.08-3.58-2.72-6.43-6.88-8.56-12.47-2.12-5.59-2.41-9.7-.87-12.31 1.54-2.61 5.08-3.92 10.62-3.92Zm6.35 15.17 2.03 5.35c.15.4.39.72.71.97.32.25.68.37 1.06.37s.66-.12.83-.37c.17-.25.18-.57.02-.97l-2.03-5.35c-.14-.37-.39-.68-.74-.92-.35-.25-.72-.37-1.11-.37s-.64.12-.78.37-.14.55 0 .92Z" class="cls-1"/><path d="M125.48 81.54h-3.83c-5.59 0-10.27-1.41-13.93-4.18-3.64-2.76-6.58-7.03-8.72-12.69-2.2-5.8-2.47-9.96-.83-12.74 1.63-2.76 5.35-4.16 11.05-4.16h3.83c5.62 0 10.28 1.35 13.86 4.02 3.57 2.66 6.47 6.88 8.62 12.53 2.17 5.71 2.47 10.05.9 12.89-1.59 2.88-5.27 4.34-10.95 4.34Zm-16.26-32.78c-5.32 0-8.74 1.24-10.19 3.67-1.46 2.46-1.15 6.46.9 11.88 2.08 5.48 4.9 9.6 8.39 12.25 3.48 2.64 7.96 3.98 13.32 3.98h3.83c5.28 0 8.67-1.29 10.07-3.82 1.42-2.57 1.1-6.63-.96-12.05-2.08-5.48-4.86-9.54-8.28-12.09-3.41-2.53-7.87-3.82-13.27-3.82h-3.83Zm10.16 21.85c-.5 0-.95-.16-1.36-.47-.4-.3-.69-.7-.88-1.19l-2.03-5.35c-.19-.51-.19-.96.03-1.34.16-.29.5-.63 1.22-.63.48 0 .95.15 1.39.46.44.3.75.69.92 1.16l2.03 5.35c.26.7.1 1.16-.08 1.43s-.55.59-1.24.59Zm-3.03-7.97c-.19 0-.3.04-.35.11-.06.11-.05.28.03.5s2.03 5.35 2.03 5.35c.12.31.3.56.55.75.24.18.48.27.76.27.31 0 .39-.11.42-.15.09-.13.03-.35-.03-.51l-2.03-5.35c-.1-.27-.29-.5-.56-.69-.27-.19-.54-.28-.82-.28Z"/></g></svg>