<svg xmlns="http://www.w3.org/2000/svg" id="Layer_2" data-name="Layer 2" viewBox="0 0 152.28 96.1"><defs><style>.cls-1{fill:#ffd70e}.cls-3{fill:#00a5da}.cls-5{fill:#9a7eff}</style></defs><g id="OBJECTS"><path d="M152.15 52.4c.09-.67.13-1.35.13-2.02 0-2.34-.56-4.35-1.68-5.98-.5-.73-1.09-1.36-1.77-1.88.04-.52.06-1.01.06-1.51 0-.66-.03-1.32-.1-1.96.07-.65.1-1.27.1-1.89 0-6-2.62-9.48-4.81-11.35-3.08-2.61-7.19-3.69-11.79-3.05-4.31.59-8.22 2.3-11.63 5.08a26.32 26.32 0 0 0-2.87 2.72c-.29-.33-.6-.65-.92-.94-2.89-2.68-6.86-3.8-11.46-3.17-3.15.43-6.19 1.6-9.03 3.46.09-.64.13-1.3.13-1.96 0-.61-.05-1.22-.14-1.82.1-.66.14-1.35.14-2.04 0-3.82-1.65-6.98-4.63-8.91-2.42-1.56-5.37-2.14-8.73-1.68-3.38.46-6.29 1.88-8.63 4.19-.73.73-1.37 1.51-1.9 2.33-.52-4.1-2.11-7.48-4.74-10.06-1.93-1.9-5.42-4.17-11.04-4.17-1.06 0-2.17.08-3.3.23-6.29.86-11.81 3.82-16.44 8.78-.28-.39-.58-.76-.9-1.11-1.61-1.76-4.52-3.87-9.25-3.87-.77 0-1.57.06-2.39.17-4.25.58-8.32 2.3-12.08 5.1-3.47 2.59-6.63 6-9.39 10.16-1.06 1.6-1.8 2.99-2.27 4.27-.55 1.5-.83 3.06-.83 4.64 0 .62.05 1.22.16 1.81-.11.68-.16 1.37-.16 2.04 0 .62.05 1.22.16 1.81-.11.68-.16 1.37-.16 2.04 0 .57.05 1.14.14 1.7-.1.64-.14 1.27-.14 1.89 0 2.39.81 4.59 2.36 6.36 1.94 2.22 4.72 3.29 7.55 2.9 1.24-.17 2.95-.68 4.62-2.09-.25 1.58-.63 3.91-.68 4.23-.74 4.48-1.24 7.74-1.54 9.98-.33 2.46-.49 4.53-.49 6.33 0 .61.02 1.21.07 1.72-.05.79-.07 1.49-.07 2.14 0 .61.02 1.21.07 1.72-.05.79-.07 1.49-.07 2.14 0 .59.02 1.15.06 1.63-.04.73-.06 1.38-.06 1.96 0 1.54 0 6.22 3.32 9.19 1.23 1.1 3.42 2.42 6.86 2.42a15 15 0 0 0 2.17-.16c4.83-.66 7.25-3.08 8.43-4.98 1.16-1.88 1.92-4.39 2.4-7.91 1.33-10.37 3.17-19.05 5.47-25.78 1.7-4.98 3.48-8.93 5.29-11.78l-.37 1.75c-.66 3.15-1.12 5.69-1.41 7.76-.3 2.19-.46 4.25-.46 6.14 0 .58.02 1.17.07 1.72-.04.77-.07 1.47-.07 2.13 0 .58.02 1.17.07 1.72-.04.77-.07 1.47-.07 2.13 0 .56.02 1.12.06 1.63-.04.72-.06 1.36-.06 1.95 0 5.96 1.87 10.7 5.57 14.09 3.76 3.44 8.82 4.8 14.85 3.97 3.67-.5 7.18-1.91 10.44-4.18 2.58 1.47 5.66 1.97 9.09 1.5 3.43-.47 6.71-2.03 10.02-4.76 3.51 1.75 7.75 2.32 12.61 1.65 3.82-.52 7.74-2.01 11.65-4.43.59-.37 1.18-.75 1.74-1.15 3.54 1.99 7.89 2.67 12.84 1.99 3.99-.55 7.53-1.84 10.53-3.83 2.99-1.98 5.44-4.55 7.27-7.62 1.43-2.38 2.15-5.06 2.15-7.98 0-.59-.04-1.17-.11-1.72.08-.63.11-1.24.11-1.87s-.04-1.25-.13-1.84c.09-.67.13-1.35.13-2.02s-.04-1.25-.13-1.84ZM74.27 85.86l-.04-.05.05.04v.02Z"/><path d="M22 89.8c-3.28 0-5.36-1.25-6.53-2.29-3.15-2.81-3.15-7.33-3.15-8.82 0-.57.02-1.21.06-1.93-.04-.53-.06-1.08-.06-1.66 0-.64.02-1.33.07-2.11-.05-.56-.07-1.15-.07-1.75 0-.64.02-1.33.07-2.11-.05-.56-.07-1.15-.07-1.75 0-1.77.16-3.82.49-6.26.3-2.23.8-5.49 1.54-9.97l.92-5.73c-1.85 2.09-3.92 2.8-5.42 3.01-.36.05-.73.08-1.09.08-2.3 0-4.44-1-6.02-2.81C1.28 44.02.51 41.94.51 39.66c0-.63.05-1.26.15-1.9-.1-.55-.15-1.11-.15-1.69 0-.68.06-1.37.17-2.05-.11-.59-.17-1.19-.17-1.8 0-.68.06-1.37.17-2.05-.11-.59-.17-1.19-.17-1.8 0-1.52.27-3.02.8-4.47.46-1.24 1.18-2.6 2.21-4.16 2.73-4.11 5.85-7.48 9.27-10.03 3.69-2.75 7.68-4.44 11.85-5.01.79-.11 1.57-.16 2.32-.16 4.55 0 7.34 2.01 8.88 3.7.44.49.85 1.02 1.21 1.58C41.67 4.66 47.24 1.6 53.6.73 54.72.58 55.8.5 56.83.5c5.45 0 8.82 2.19 10.69 4.03 2.88 2.83 4.47 6.65 4.74 11.35.62-1.31 1.5-2.53 2.61-3.63 2.26-2.24 5.07-3.6 8.34-4.05.72-.1 1.43-.15 2.11-.15 2.36 0 4.48.59 6.29 1.76 2.84 1.83 4.41 4.85 4.41 8.49 0 .69-.05 1.37-.15 2.04.1.6.15 1.2.15 1.81 0 .69-.05 1.37-.15 2.04.04.27.08.53.1.8 2.98-2.1 6.18-3.39 9.51-3.85.82-.11 1.63-.17 2.4-.17 3.4 0 6.39 1.11 8.65 3.21.41.38.83.82 1.25 1.34.98-1.12 2.04-2.16 3.2-3.1 3.33-2.72 7.16-4.39 11.38-4.97.85-.12 1.7-.18 2.51-.18 3.42 0 6.49 1.08 8.89 3.11 2.12 1.8 4.64 5.16 4.64 10.96 0 .61-.03 1.24-.1 1.89a18.114 18.114 0 0 1 .01 3.71c.72.51 1.36 1.16 1.88 1.93 1.06 1.54 1.59 3.46 1.59 5.69 0 .67-.05 1.34-.13 2.02.09.59.13 1.2.13 1.84 0 .67-.05 1.34-.13 2.02.09.59.13 1.2.13 1.84s-.04 1.24-.12 1.87c.08.55.12 1.13.12 1.72 0 2.82-.7 5.42-2.08 7.72-1.8 3.01-4.2 5.52-7.12 7.46-2.93 1.95-6.41 3.21-10.32 3.75-1.22.17-2.42.25-3.55.25-3.51 0-6.61-.79-9.24-2.34-.64.46-1.3.9-1.98 1.32-3.85 2.38-7.71 3.85-11.46 4.36-1.29.18-2.56.27-3.75.27-3.33 0-6.29-.68-8.85-2.02-3.31 2.79-6.62 4.39-10.02 4.86-.81.11-1.61.17-2.38.17-2.49 0-4.76-.61-6.67-1.77l-.12.09c-3.23 2.28-6.72 3.69-10.36 4.19-1.12.15-2.22.23-3.27.23-4.46 0-8.23-1.37-11.18-4.07-3.59-3.28-5.41-7.9-5.41-13.72 0-.59.02-1.22.06-1.93-.04-.57-.06-1.11-.06-1.66 0-.66.02-1.35.06-2.11-.04-.61-.06-1.18-.06-1.75 0-.66.02-1.35.06-2.1-.04-.61-.06-1.18-.06-1.75 0-1.86.15-3.9.45-6.07.28-2.05.74-4.58 1.4-7.73l.87-4.09c-2.34 2.91-4.61 7.57-6.76 13.86-2.31 6.77-4.16 15.48-5.49 25.88-.47 3.46-1.2 5.9-2.32 7.71-1.12 1.81-3.43 4.11-8.07 4.75-.73.1-1.44.15-2.11.15Z" style="fill:#fff"/><path d="M22 90.3c-3.44 0-5.63-1.31-6.86-2.42-3.32-2.96-3.32-7.65-3.32-9.19 0-.58.02-1.23.06-1.96-.04-.47-.06-1.04-.06-1.63 0-.65.02-1.35.07-2.14-.05-.5-.07-1.11-.07-1.72 0-.65.02-1.35.07-2.14-.05-.5-.07-1.1-.07-1.72 0-1.8.16-3.87.49-6.33.3-2.24.8-5.5 1.54-9.98.05-.33.43-2.65.68-4.23-1.67 1.4-3.38 1.92-4.62 2.09-2.83.39-5.61-.68-7.55-2.9C.82 44.26 0 42.06 0 39.67c0-.62.05-1.26.14-1.89-.1-.55-.14-1.12-.14-1.7 0-.68.05-1.36.16-2.05-.11-.59-.16-1.2-.16-1.81 0-.68.05-1.36.16-2.04-.11-.59-.16-1.2-.16-1.81 0-1.58.28-3.14.83-4.64.47-1.27 1.21-2.67 2.27-4.26 2.76-4.15 5.92-7.57 9.39-10.16 3.76-2.8 7.83-4.52 12.08-5.1.82-.11 1.62-.17 2.39-.17 4.73 0 7.64 2.1 9.25 3.87.32.35.62.72.9 1.11C41.72 4.05 47.25 1.1 53.53.23 54.67.07 55.78 0 56.83 0c5.62 0 9.1 2.27 11.04 4.17 2.63 2.58 4.22 5.96 4.74 10.06.53-.83 1.17-1.61 1.9-2.33 2.34-2.32 5.24-3.73 8.63-4.19 3.35-.46 6.3.12 8.73 1.68 2.99 1.93 4.63 5.09 4.63 8.91 0 .69-.05 1.37-.14 2.04.1.6.14 1.21.14 1.82 0 .66-.04 1.32-.13 1.96 2.85-1.87 5.88-3.03 9.03-3.46 4.62-.63 8.57.49 11.46 3.17.32.3.63.62.92.94.89-.98 1.85-1.89 2.87-2.72 3.4-2.78 7.32-4.49 11.63-5.08 4.61-.63 8.71.44 11.79 3.05 2.2 1.86 4.81 5.35 4.81 11.35 0 .62-.03 1.24-.1 1.89a19.244 19.244 0 0 1 .04 3.47c.68.52 1.27 1.15 1.77 1.88 1.11 1.63 1.68 3.64 1.68 5.98 0 .67-.04 1.34-.13 2.02.09.59.13 1.21.13 1.84 0 .67-.04 1.34-.13 2.02.09.59.13 1.21.13 1.84s-.04 1.24-.11 1.87c.08.56.11 1.13.11 1.72 0 2.91-.72 5.6-2.15 7.98a23.636 23.636 0 0 1-7.27 7.62c-3 1.99-6.54 3.28-10.53 3.83-4.96.68-9.3 0-12.84-1.99-.57.4-1.15.79-1.74 1.15-3.91 2.42-7.83 3.91-11.65 4.43-4.84.66-9.09.1-12.61-1.65-3.31 2.73-6.59 4.29-10.02 4.76-3.45.47-6.51-.04-9.09-1.5-3.26 2.27-6.77 3.68-10.44 4.18-6.03.83-11.09-.53-14.85-3.97-3.7-3.38-5.57-8.12-5.57-14.09 0-.59.02-1.24.06-1.95-.04-.52-.06-1.08-.06-1.63 0-.67.02-1.37.07-2.13-.04-.56-.07-1.14-.07-1.72 0-.67.02-1.37.07-2.13-.04-.56-.07-1.14-.07-1.72 0-1.88.15-3.94.46-6.13.29-2.07.75-4.61 1.41-7.76l.37-1.75c-1.82 2.84-3.59 6.79-5.29 11.78-2.3 6.74-4.14 15.41-5.47 25.78-.48 3.52-1.24 6.03-2.4 7.91-1.18 1.91-3.6 4.32-8.43 4.98-.75.1-1.48.16-2.17.16Zm-6.74-45.36c.07 0 .15.02.21.05.2.1.32.31.28.53l-.92 5.73c-.74 4.47-1.24 7.73-1.54 9.95-.32 2.42-.48 4.44-.48 6.19 0 .58.02 1.16.07 1.7-.05.84-.07 1.52-.07 2.15 0 .58.02 1.16.07 1.71-.05.84-.07 1.52-.07 2.15 0 .56.02 1.1.06 1.62-.04.78-.06 1.41-.06 1.97 0 1.43 0 5.78 2.98 8.44 1.1.99 3.07 2.16 6.2 2.16.65 0 1.33-.05 2.04-.15 4.45-.61 6.65-2.79 7.71-4.52 1.08-1.75 1.8-4.14 2.25-7.51 1.34-10.43 3.19-19.17 5.51-25.98 2.17-6.35 4.47-11.06 6.84-14.01a.496.496 0 0 1 .87.42l-.87 4.09c-.66 3.13-1.12 5.64-1.4 7.69-.3 2.15-.45 4.16-.45 6 0 .55.02 1.12.06 1.71-.04.81-.06 1.49-.06 2.14 0 .55.02 1.12.06 1.71-.04.81-.06 1.49-.06 2.14 0 .54.02 1.07.05 1.63-.04.76-.05 1.38-.05 1.96 0 5.67 1.77 10.16 5.25 13.35 3.54 3.24 8.31 4.5 14.04 3.72 3.56-.49 6.97-1.87 10.14-4.1.16-.11.5-.21.67-.11 2.43 1.47 5.37 1.99 8.72 1.53 3.32-.45 6.52-2.01 9.76-4.74.16-.13.38-.15.55-.06 3.38 1.78 7.54 2.36 12.3 1.7 3.68-.5 7.47-1.95 11.26-4.29.66-.41 1.32-.85 1.95-1.3.16-.12.38-.13.55-.02 3.39 2 7.61 2.69 12.48 2.02 3.84-.53 7.24-1.76 10.11-3.67 2.86-1.9 5.21-4.36 6.97-7.3 1.33-2.22 2.01-4.73 2.01-7.47 0-.56-.04-1.12-.11-1.65v-.13c.08-.61.11-1.21.11-1.81s-.04-1.2-.13-1.76v-.14c.09-.65.13-1.31.13-1.96 0-.61-.04-1.2-.13-1.76v-.14c.09-.65.13-1.31.13-1.96 0-2.13-.51-3.95-1.5-5.41a7.39 7.39 0 0 0-1.76-1.81.489.489 0 0 1-.21-.46c.06-.59.08-1.14.08-1.7 0-.65-.03-1.29-.1-1.91v-.11c.07-.64.1-1.24.1-1.84 0-5.62-2.43-8.86-4.46-10.58-2.86-2.43-6.68-3.42-11.01-2.82-4.12.56-7.87 2.2-11.13 4.86-1.13.92-2.18 1.94-3.14 3.04-.1.11-.24.18-.39.17-.15 0-.29-.07-.38-.19-.36-.45-.77-.89-1.2-1.29-2.67-2.47-6.33-3.5-10.65-2.91-3.25.45-6.38 1.71-9.29 3.76-.15.1-.34.12-.5.05a.506.506 0 0 1-.29-.41c-.02-.26-.06-.51-.1-.77v-.16c.1-.64.14-1.3.14-1.97 0-.58-.05-1.16-.14-1.73v-.16c.1-.64.14-1.3.14-1.97 0-3.46-1.48-6.33-4.18-8.07-2.22-1.43-4.94-1.96-8.05-1.53-3.17.44-5.88 1.75-8.06 3.91-1.06 1.05-1.9 2.23-2.51 3.49-.1.21-.32.32-.55.28a.49.49 0 0 1-.4-.46c-.27-4.58-1.81-8.29-4.59-11.03C65.32 3.06 62.06.95 56.78.95c-1.01 0-2.07.08-3.16.23-6.24.86-11.71 3.86-16.26 8.93a.49.49 0 0 1-.41.16c-.16-.01-.3-.1-.38-.23-.35-.54-.74-1.05-1.16-1.51-1.47-1.62-4.14-3.54-8.51-3.54-.72 0-1.48.05-2.25.16-4.09.56-8 2.21-11.62 4.91-3.38 2.52-6.46 5.85-9.15 9.91-1.01 1.53-1.72 2.86-2.16 4.06-.51 1.39-.77 2.84-.77 4.3 0 .58.05 1.16.16 1.71.01.06.01.12 0 .18-.11.66-.16 1.32-.16 1.97 0 .58.05 1.16.16 1.71.01.06.01.12 0 .18-.11.66-.16 1.32-.16 1.97 0 .54.05 1.08.14 1.6.01.06.01.11 0 .17-.1.61-.15 1.23-.15 1.82 0 2.15.73 4.12 2.11 5.71 1.71 1.97 4.16 2.91 6.66 2.57 1.35-.19 3.33-.83 5.12-2.84.1-.11.23-.17.37-.17Zm58.97 35.07.04.05v-.02l-.04-.04Z"/><path d="M83.16 36.8c2.06-.28 3.72-1.07 4.97-2.38 1.25-1.3 1.87-2.91 1.87-4.83 0-1.59-.55-2.73-1.66-3.45-1.11-.71-2.55-.95-4.32-.7-1.97.27-3.61 1.06-4.94 2.37-1.32 1.31-1.98 2.81-1.98 4.49s.5 2.92 1.51 3.72c1.01.8 2.52 1.06 4.54.78Z" class="cls-1"/><path d="M81.72 37.41c-1.43 0-2.57-.33-3.4-1-1.13-.9-1.7-2.28-1.7-4.11s.72-3.44 2.13-4.84c1.39-1.38 3.15-2.23 5.22-2.51 1.89-.26 3.46 0 4.66.78 1.25.81 1.89 2.11 1.89 3.87 0 2.05-.68 3.79-2.01 5.18-1.32 1.38-3.09 2.23-5.26 2.52-.54.07-1.04.11-1.51.11Zm3.59-11.56c-.38 0-.79.03-1.21.09-1.85.25-3.41 1-4.65 2.23-1.23 1.22-1.83 2.57-1.83 4.13s.43 2.62 1.32 3.33c.89.71 2.29.93 4.16.68 1.94-.27 3.52-1.02 4.68-2.23 1.17-1.21 1.73-2.68 1.73-4.49 0-1.42-.47-2.41-1.43-3.03-.74-.48-1.67-.72-2.77-.72Z"/><path d="M145.24 53.58c-.36-.53-.85-.75-1.48-.66-.72.1-1.37.55-1.95 1.35-1.68 2.39-3.16 4.13-4.43 5.22-1.27 1.09-2.89 1.77-4.86 2.04-2.74.38-4.68-.46-5.84-2.51 5.72-2.18 9.76-4.62 12.14-7.32 2.38-2.7 3.57-5.71 3.57-9.03 0-2.83-.84-4.96-2.52-6.39-1.68-1.43-3.92-1.95-6.7-1.57-3.12.43-5.92 1.65-8.39 3.67-2.47 2.02-4.41 4.56-5.8 7.6-1.39 3.05-2.09 6.23-2.09 9.55 0 1 .07 1.94.19 2.84-1.31 1.41-2.63 2.59-3.97 3.55-2.28 1.64-4.41 2.59-6.38 2.86-4.85.67-7.28-1.79-7.28-7.36 0-2.02.29-3.91.86-5.67.58-1.76 1.34-3.2 2.31-4.32.96-1.12 1.99-1.75 3.1-1.9.58-.08 1.02.03 1.33.32.31.29.47.75.47 1.38s-.12 1.31-.36 2.07c-.05.2-.12.52-.22.97-.1.45-.14.84-.14 1.17 0 .77.28 1.33.83 1.69.55.36 1.28.47 2.2.35 1.44-.2 2.6-1.05 3.49-2.57.89-1.51 1.33-3.28 1.33-5.3 0-2.45-.73-4.35-2.2-5.72-1.47-1.36-3.52-1.86-6.16-1.5-2.69.37-5.26 1.51-7.71 3.43-2.45 1.92-4.44 4.45-5.98 7.59-1.54 3.14-2.31 6.66-2.31 10.55 0 .85.06 1.65.16 2.42-.89 1.1-1.66 2-2.32 2.7-1.3 1.38-2.38 2.13-3.24 2.25-.91.13-1.56-.17-1.95-.89-.39-.71-.58-1.79-.58-3.24 0-1.87.58-5.53 1.73-10.97.91-4.5 1.37-7.34 1.37-8.55 0-1.63-1.23-2.28-3.67-1.95-1.59.22-2.74.66-3.46 1.34-.72.68-1.3 1.81-1.73 3.41-.86 3.05-1.57 6.3-2.13 9.77-.46 2.88-.72 5.3-.8 7.27-1.27 1.53-2.43 2.72-3.45 3.58-1.51 1.27-3.06 2.01-4.65 2.22-1.68.23-2.99-.09-3.93-.98-.94-.88-1.41-2.33-1.41-4.35 0-1.73.24-3.83.72-6.3l4.39-21.21c.62-3.11.94-5.72.94-7.84 0-3.75-1-6.6-2.99-8.56-1.99-1.96-4.96-2.67-8.9-2.13-5 .68-9.34 3.12-13.04 7.3-3.7 4.18-6.75 9.99-9.15 17.43.77-5.39 1.15-9.48 1.15-12.26 0-3.12-.66-5.41-1.98-6.86-1.32-1.45-3.3-2-5.94-1.63-3.17.43-6.2 1.73-9.08 3.87-2.88 2.15-5.5 4.99-7.85 8.53-.77 1.16-1.3 2.14-1.58 2.92-.29.78-.43 1.58-.43 2.4s.25 1.52.76 2.09 1.09.82 1.77.73c.82-.11 1.56-.67 2.23-1.68 2.06-3.07 4-5.36 5.8-6.88 1.8-1.52 3.3-2.36 4.5-2.53 1.59-.22 2.38.76 2.38 2.92 0 1.92-.24 4.84-.72 8.75-.53 4.59-1.13 8.98-1.8 13.18-.67 4.2-1.06 6.59-1.15 7.18-.72 4.38-1.23 7.64-1.51 9.79-.29 2.15-.43 3.98-.43 5.46 0 2.21.38 3.66 1.15 4.34.77.69 2.04.91 3.82.67 1.87-.26 3.13-.91 3.78-1.96.65-1.05 1.14-2.82 1.48-5.32 1.39-10.85 3.31-19.87 5.76-27.05 2.45-7.18 5.12-12.51 8-15.98 2.88-3.47 5.76-5.4 8.65-5.8 1.58-.22 2.81.07 3.67.87.86.79 1.3 1.96 1.3 3.5 0 .96-.07 1.94-.22 2.95a45.99 45.99 0 0 1-.58 3.21c-.24 1.14-.41 1.93-.5 2.37l-2.88 13.58c-.62 2.97-1.07 5.41-1.33 7.32-.26 1.91-.4 3.66-.4 5.24 0 4.08 1.15 7.18 3.46 9.29 2.31 2.11 5.5 2.88 9.58 2.32 2.69-.37 5.26-1.42 7.71-3.15 1.35-.95 2.7-2.16 4.06-3.61.27.62.58 1.18.94 1.7 1.42 2.02 3.69 2.81 6.81 2.38 3.27-.45 6.74-2.75 10.4-6.9.38.46.78.91 1.23 1.31 2.62 2.31 6.28 3.14 10.99 2.49 2.93-.4 5.97-1.58 9.12-3.52 1.89-1.17 3.61-2.54 5.18-4.12.37.49.76.96 1.2 1.38 2.55 2.41 6.12 3.3 10.74 2.67 3.03-.41 5.63-1.35 7.82-2.8a17.14 17.14 0 0 0 5.3-5.55c.82-1.36 1.23-2.91 1.23-4.64 0-1.01-.18-1.78-.54-2.3Zm-19.64-.19c0-2.93.61-5.51 1.84-7.75 1.23-2.23 2.73-3.47 4.5-3.71.86-.12 1.55.06 2.05.55.5.48.76 1.18.76 2.09 0 1.78-.82 3.45-2.45 5.02-1.63 1.57-3.87 2.88-6.7 3.94v-.14Z" style="fill:#ff7ec8"/><path d="M21.98 84.3c-1.24 0-2.18-.29-2.85-.89-.89-.79-1.32-2.34-1.32-4.72 0-1.5.15-3.37.44-5.53.29-2.14.8-5.44 1.52-9.81.09-.54.41-2.57.98-6.09l.17-1.09c.67-4.16 1.27-8.59 1.8-13.16.48-3.88.72-6.8.72-8.69 0-1.07-.21-1.82-.61-2.17-.28-.24-.67-.32-1.2-.25-1.1.15-2.53.96-4.25 2.41-1.76 1.48-3.68 3.77-5.71 6.78-.75 1.12-1.62 1.76-2.58 1.89-.85.12-1.59-.19-2.21-.9-.58-.67-.88-1.49-.88-2.42 0-.87.16-1.74.46-2.57.3-.82.85-1.84 1.64-3.02 2.37-3.57 5.06-6.48 7.97-8.66 2.94-2.19 6.07-3.52 9.31-3.97 2.8-.39 4.95.22 6.38 1.79 1.4 1.54 2.11 3.96 2.11 7.2 0 1.93-.19 4.51-.56 7.71 2.14-5.43 4.72-9.86 7.68-13.21 3.76-4.25 8.25-6.77 13.35-7.46 4.08-.56 7.22.2 9.32 2.27 2.08 2.05 3.14 5.05 3.14 8.92 0 2.13-.32 4.8-.95 7.94l-4.4 21.21c-.47 2.42-.71 4.5-.71 6.19 0 1.86.42 3.2 1.25 3.98.83.78 1.98 1.05 3.52.84 1.48-.2 2.96-.91 4.39-2.11.96-.8 2.06-1.94 3.28-3.38.09-1.97.36-4.37.8-7.16.55-3.46 1.27-6.76 2.14-9.82.46-1.7 1.07-2.89 1.87-3.64.81-.75 2.03-1.23 3.73-1.47 1.64-.22 2.78-.03 3.49.58.5.44.75 1.06.75 1.86 0 1.24-.45 4.07-1.38 8.64-1.14 5.39-1.72 9.05-1.72 10.87 0 1.35.17 2.36.52 3 .29.53.73.73 1.44.63.51-.07 1.44-.49 2.95-2.09.61-.65 1.34-1.5 2.17-2.51-.09-.8-.14-1.54-.14-2.27 0-3.95.79-7.57 2.36-10.77 1.56-3.2 3.62-5.81 6.12-7.77 2.51-1.97 5.18-3.16 7.95-3.54 2.78-.38 4.99.17 6.57 1.63 1.56 1.45 2.36 3.5 2.36 6.08 0 2.1-.47 3.97-1.4 5.55-.97 1.65-2.26 2.59-3.86 2.81-1.03.14-1.89 0-2.54-.42-.69-.45-1.06-1.18-1.06-2.11 0-.37.05-.8.16-1.28.1-.45.17-.78.22-.98.23-.74.35-1.38.35-1.95 0-.48-.11-.82-.31-1.01-.2-.18-.5-.25-.92-.19-.97.13-1.91.72-2.79 1.73-.91 1.06-1.66 2.46-2.21 4.14-.56 1.7-.84 3.56-.84 5.51 0 2.8.64 4.78 1.89 5.87 1.09.95 2.71 1.29 4.82.99 1.88-.26 3.95-1.19 6.15-2.77 1.24-.88 2.49-2 3.73-3.31-.11-.91-.16-1.78-.16-2.67 0-3.37.72-6.65 2.13-9.75 1.42-3.1 3.42-5.72 5.94-7.78 2.53-2.07 5.44-3.34 8.64-3.78 2.92-.4 5.31.17 7.09 1.68 1.79 1.52 2.7 3.8 2.7 6.77 0 3.42-1.24 6.57-3.69 9.36-2.34 2.66-6.3 5.09-11.77 7.24 1.07 1.51 2.72 2.08 5.02 1.77 1.86-.26 3.41-.9 4.61-1.92 1.23-1.05 2.7-2.78 4.35-5.13.66-.92 1.43-1.44 2.29-1.56.81-.11 1.49.19 1.96.88.42.62.63 1.46.63 2.59 0 1.81-.44 3.46-1.3 4.89-1.38 2.3-3.21 4.23-5.45 5.71-2.24 1.49-4.94 2.46-8.03 2.88-4.75.65-8.5-.29-11.15-2.8-.3-.29-.6-.61-.9-.99a28.633 28.633 0 0 1-4.87 3.8c-3.19 1.97-6.32 3.18-9.31 3.59-4.84.66-8.67-.22-11.39-2.61-.31-.27-.6-.57-.91-.92-3.6 3.96-7.07 6.19-10.32 6.64-3.3.45-5.76-.42-7.29-2.59-.24-.34-.47-.72-.67-1.12-1.23 1.25-2.45 2.31-3.64 3.15-2.5 1.77-5.17 2.85-7.93 3.23-4.22.58-7.58-.25-9.99-2.45-2.4-2.2-3.62-5.45-3.62-9.66 0-1.61.13-3.39.4-5.31.26-1.9.71-4.38 1.34-7.35l3.39-15.96c.24-1.13.43-2.2.57-3.18.14-.97.21-1.94.21-2.88 0-1.4-.37-2.43-1.14-3.13-.76-.69-1.82-.93-3.27-.74-2.74.38-5.54 2.27-8.33 5.62-2.83 3.41-5.49 8.73-7.91 15.82-2.43 7.12-4.36 16.19-5.74 26.96-.35 2.6-.86 4.4-1.55 5.52-.73 1.18-2.12 1.92-4.14 2.19-.49.07-.95.1-1.37.1Zm-.01-53.42c.6 0 1.11.17 1.51.52.64.56.96 1.52.96 2.92 0 1.93-.24 4.89-.72 8.81-.53 4.58-1.13 9.02-1.8 13.2l-.17 1.09c-.57 3.53-.89 5.56-.98 6.1-.72 4.35-1.23 7.64-1.51 9.78-.28 2.12-.43 3.94-.43 5.4 0 2.55.54 3.57.99 3.97.65.58 1.8.77 3.42.54 1.71-.23 2.86-.82 3.43-1.73.61-.98 1.08-2.71 1.41-5.12 1.39-10.83 3.34-19.97 5.79-27.15 2.46-7.2 5.18-12.63 8.09-16.13 2.95-3.55 5.97-5.56 8.96-5.97 1.73-.24 3.1.1 4.08.99.97.89 1.46 2.19 1.46 3.86 0 .98-.07 2-.22 3.02-.14 1.01-.34 2.1-.58 3.25l-3.39 15.96c-.62 2.95-1.07 5.4-1.33 7.28-.26 1.87-.39 3.61-.39 5.17 0 3.92 1.11 6.92 3.3 8.92 2.18 1.99 5.27 2.73 9.18 2.2 2.6-.36 5.12-1.39 7.49-3.06 1.3-.92 2.64-2.11 3.99-3.54.11-.12.28-.18.45-.15.17.03.31.14.37.29.26.59.56 1.13.89 1.61 1.31 1.87 3.38 2.58 6.33 2.17 3.13-.43 6.53-2.7 10.1-6.74.1-.11.23-.18.39-.17.15 0 .29.07.38.19.41.51.79.91 1.17 1.25 2.49 2.2 6.05 3 10.59 2.37 2.85-.39 5.85-1.55 8.92-3.45 1.83-1.13 3.54-2.5 5.08-4.05.1-.1.25-.15.39-.15.14.01.28.08.37.2.4.54.77.95 1.14 1.31 2.42 2.29 5.89 3.15 10.32 2.54 2.94-.4 5.5-1.32 7.61-2.72 2.11-1.4 3.84-3.22 5.14-5.39.77-1.28 1.15-2.75 1.15-4.38 0-.9-.15-1.58-.45-2.02-.25-.37-.56-.51-1-.45-.58.08-1.11.45-1.61 1.14-1.7 2.41-3.22 4.2-4.51 5.31-1.34 1.15-3.06 1.87-5.12 2.15-2.95.4-5.08-.53-6.34-2.76a.513.513 0 0 1 .26-.72c5.61-2.14 9.63-4.55 11.94-7.18 2.28-2.6 3.44-5.52 3.44-8.7 0-2.67-.79-4.69-2.35-6.01-1.56-1.32-3.68-1.81-6.31-1.45-3.02.41-5.76 1.61-8.15 3.56-2.4 1.96-4.31 4.46-5.66 7.43a22.27 22.27 0 0 0-1.86 12.12c.02.15-.03.3-.13.4-1.34 1.44-2.7 2.65-4.04 3.61-2.34 1.67-4.56 2.66-6.6 2.94-2.41.33-4.3-.08-5.61-1.23-1.48-1.29-2.23-3.52-2.23-6.62 0-2.06.3-4.02.89-5.82.59-1.81 1.4-3.32 2.4-4.49 1.04-1.21 2.19-1.9 3.41-2.07.73-.1 1.31.05 1.74.45.42.39.63.98.63 1.74 0 .67-.13 1.42-.38 2.22-.04.16-.11.48-.2.92-.09.41-.13.77-.13 1.07 0 .6.19 1 .6 1.27.45.29 1.07.38 1.86.27 1.29-.18 2.32-.94 3.13-2.33.84-1.43 1.26-3.13 1.26-5.05 0-2.33-.67-4.08-2.04-5.35-1.34-1.25-3.28-1.71-5.75-1.37-2.59.35-5.1 1.48-7.47 3.33-2.38 1.86-4.34 4.36-5.84 7.42-1.5 3.06-2.25 6.53-2.25 10.33 0 .75.05 1.52.16 2.36.02.14-.02.27-.11.38-.89 1.11-1.68 2.02-2.35 2.73-1.39 1.48-2.55 2.26-3.54 2.4-1.42.2-2.12-.52-2.45-1.15-.43-.79-.64-1.93-.64-3.47 0-1.92.57-5.55 1.74-11.08.9-4.44 1.36-7.28 1.36-8.44 0-.5-.13-.86-.41-1.1-.46-.4-1.4-.53-2.7-.35-1.47.2-2.55.61-3.19 1.21-.65.61-1.18 1.68-1.59 3.17-.86 3.03-1.57 6.3-2.11 9.71-.45 2.83-.72 5.26-.8 7.21 0 .11-.04.22-.12.3-1.3 1.55-2.48 2.78-3.51 3.64-1.58 1.32-3.23 2.11-4.9 2.34-1.83.25-3.29-.12-4.34-1.11-1.04-.97-1.56-2.56-1.56-4.71 0-1.75.25-3.91.73-6.39l4.4-21.22c.61-3.07.93-5.67.93-7.74 0-3.59-.96-6.35-2.84-8.2-1.87-1.84-4.72-2.51-8.48-1.99-4.85.67-9.14 3.07-12.73 7.14-3.64 4.11-6.68 9.91-9.05 17.25-.08.25-.34.39-.59.33a.5.5 0 0 1-.38-.56c.76-5.35 1.15-9.45 1.15-12.19 0-2.98-.62-5.17-1.85-6.53-1.22-1.33-3.02-1.82-5.51-1.48-3.07.42-6.05 1.69-8.85 3.78-2.82 2.11-5.43 4.94-7.74 8.41-.74 1.12-1.26 2.07-1.53 2.81-.27.73-.4 1.48-.4 2.23 0 .7.21 1.28.63 1.77.4.45.82.63 1.32.56.66-.09 1.3-.58 1.89-1.46 2.08-3.09 4.06-5.44 5.89-6.99 1.89-1.6 3.45-2.46 4.76-2.64.17-.02.33-.03.48-.03ZM125.6 54.04c-.1 0-.2-.03-.29-.09a.507.507 0 0 1-.21-.41v-.14c0-3 .64-5.69 1.9-7.99 1.3-2.37 2.94-3.71 4.87-3.97 1.02-.14 1.85.09 2.47.68.6.58.91 1.41.91 2.46 0 1.91-.88 3.72-2.6 5.38-1.68 1.61-3.99 2.97-6.87 4.05-.06.02-.12.03-.18.03Zm6.84-11.64c-.13 0-.27.01-.42.03-1.6.22-2.99 1.38-4.13 3.46-1.1 2-1.69 4.32-1.77 6.91 2.44-.98 4.4-2.18 5.85-3.57 1.52-1.46 2.3-3.03 2.3-4.66 0-.78-.2-1.35-.6-1.73-.31-.3-.71-.44-1.22-.44Z"/><path d="M83.16 33.21c2.06-.28 3.72-1.07 4.97-2.38C89.38 29.53 90 27.92 90 26c0-1.58-.55-2.73-1.66-3.45-1.11-.71-2.55-.95-4.32-.7-1.97.27-3.61 1.06-4.94 2.37-1.32 1.31-1.98 2.81-1.98 4.49s.5 2.92 1.51 3.72c1.01.8 2.52 1.06 4.54.78Z" class="cls-3"/><path d="M81.72 33.82c-1.43 0-2.57-.33-3.4-1-1.13-.9-1.7-2.28-1.7-4.11s.72-3.44 2.13-4.84c1.4-1.38 3.15-2.23 5.22-2.51 1.89-.26 3.46 0 4.66.78 1.25.81 1.89 2.11 1.89 3.87 0 2.05-.68 3.79-2.01 5.18-1.32 1.38-3.09 2.23-5.26 2.52-.54.07-1.04.11-1.51.11Zm3.59-11.56c-.38 0-.79.03-1.22.09-1.85.25-3.41 1-4.65 2.23-1.23 1.22-1.83 2.57-1.83 4.13s.43 2.62 1.32 3.33c.89.71 2.29.93 4.16.68 1.94-.27 3.52-1.02 4.68-2.23 1.17-1.21 1.73-2.68 1.73-4.49 0-1.42-.47-2.41-1.43-3.03-.74-.48-1.67-.72-2.77-.72Z"/><path d="M145.24 49.99c-.36-.53-.85-.75-1.48-.66-.72.1-1.37.55-1.95 1.35-1.68 2.39-3.16 4.13-4.43 5.22-1.27 1.09-2.89 1.77-4.86 2.04-2.74.38-4.68-.46-5.84-2.51 5.72-2.18 9.76-4.62 12.14-7.32 2.38-2.7 3.57-5.71 3.57-9.03 0-2.83-.84-4.96-2.52-6.39-1.68-1.43-3.92-1.95-6.7-1.57-3.12.43-5.92 1.65-8.39 3.67-2.47 2.02-4.41 4.56-5.8 7.6-1.39 3.05-2.09 6.23-2.09 9.55 0 1 .07 1.94.19 2.84-1.31 1.41-2.63 2.59-3.97 3.55-2.28 1.64-4.41 2.59-6.38 2.86-4.85.67-7.28-1.79-7.28-7.36 0-2.02.29-3.91.86-5.67.58-1.76 1.34-3.2 2.31-4.32.96-1.12 1.99-1.75 3.1-1.9.58-.08 1.02.03 1.33.32.31.29.47.75.47 1.38s-.12 1.31-.36 2.07c-.05.2-.12.52-.22.97-.1.45-.14.84-.14 1.17 0 .77.28 1.33.83 1.69.55.36 1.28.47 2.2.35 1.44-.2 2.6-1.05 3.49-2.57.89-1.51 1.33-3.28 1.33-5.3 0-2.45-.73-4.35-2.2-5.72-1.47-1.36-3.52-1.86-6.16-1.5-2.69.37-5.26 1.51-7.71 3.44-2.45 1.92-4.44 4.45-5.98 7.59-1.54 3.14-2.31 6.66-2.31 10.55 0 .85.06 1.65.16 2.42-.89 1.1-1.66 2-2.32 2.7-1.3 1.38-2.38 2.13-3.24 2.25-.91.13-1.56-.17-1.95-.89-.39-.71-.58-1.79-.58-3.24 0-1.87.58-5.53 1.73-10.97.91-4.5 1.37-7.34 1.37-8.55 0-1.63-1.23-2.28-3.67-1.95-1.59.22-2.74.66-3.46 1.34-.72.68-1.3 1.81-1.73 3.41-.86 3.05-1.57 6.3-2.13 9.77-.46 2.88-.72 5.3-.8 7.27-1.27 1.53-2.43 2.72-3.45 3.58-1.51 1.27-3.06 2.01-4.65 2.22-1.68.23-2.99-.09-3.93-.98-.94-.88-1.41-2.33-1.41-4.35 0-1.73.24-3.83.72-6.3l4.39-21.21c.62-3.11.94-5.72.94-7.84 0-3.75-1-6.6-2.99-8.56-1.99-1.96-4.96-2.67-8.9-2.13-5 .69-9.34 3.12-13.04 7.3-3.7 4.18-6.75 9.99-9.15 17.43.77-5.39 1.15-9.48 1.15-12.26 0-3.12-.66-5.41-1.98-6.86-1.32-1.45-3.3-2-5.94-1.63-3.17.43-6.2 1.73-9.08 3.87-2.88 2.15-5.5 4.99-7.85 8.53-.77 1.16-1.3 2.14-1.58 2.92-.29.78-.43 1.58-.43 2.4s.25 1.52.76 2.09c.5.58 1.09.82 1.77.73.82-.11 1.56-.67 2.23-1.68 2.06-3.07 4-5.36 5.8-6.88 1.8-1.52 3.3-2.36 4.5-2.53 1.59-.22 2.38.76 2.38 2.92 0 1.92-.24 4.84-.72 8.75-.53 4.59-1.13 8.98-1.8 13.18-.67 4.2-1.06 6.59-1.15 7.18-.72 4.38-1.23 7.64-1.51 9.79-.29 2.15-.43 3.98-.43 5.46 0 2.21.38 3.66 1.15 4.34.77.69 2.04.91 3.82.67 1.87-.26 3.13-.91 3.78-1.96.65-1.05 1.14-2.82 1.48-5.32 1.39-10.86 3.31-19.87 5.76-27.05 2.45-7.18 5.12-12.51 8-15.98 2.88-3.47 5.76-5.4 8.65-5.8 1.58-.22 2.81.07 3.67.87.86.79 1.3 1.96 1.3 3.5 0 .96-.07 1.94-.22 2.95a45.99 45.99 0 0 1-.58 3.21c-.24 1.14-.41 1.93-.5 2.37l-2.88 13.58c-.62 2.97-1.07 5.41-1.33 7.32-.26 1.91-.4 3.66-.4 5.24 0 4.08 1.15 7.18 3.46 9.29 2.31 2.11 5.5 2.88 9.58 2.32 2.69-.37 5.26-1.42 7.71-3.15 1.35-.95 2.7-2.16 4.06-3.61.27.62.58 1.18.94 1.7 1.42 2.02 3.69 2.81 6.81 2.38 3.27-.45 6.74-2.75 10.4-6.9.38.46.78.91 1.23 1.31 2.62 2.31 6.28 3.14 10.99 2.49 2.93-.4 5.97-1.58 9.12-3.52 1.89-1.17 3.61-2.54 5.18-4.12.37.49.76.96 1.2 1.38 2.55 2.41 6.12 3.3 10.74 2.67 3.03-.41 5.63-1.35 7.82-2.8a17.14 17.14 0 0 0 5.3-5.55c.82-1.36 1.23-2.91 1.23-4.64 0-1.01-.18-1.78-.54-2.3Zm-19.64-.19c0-2.93.61-5.51 1.84-7.75 1.23-2.23 2.73-3.47 4.5-3.72.86-.12 1.55.06 2.05.55.5.48.76 1.18.76 2.09 0 1.78-.82 3.45-2.45 5.02-1.63 1.57-3.87 2.88-6.7 3.94v-.14Z" class="cls-3"/><path d="M21.98 80.71c-1.24 0-2.18-.29-2.85-.89-.89-.79-1.32-2.34-1.32-4.72 0-1.5.15-3.37.44-5.53.29-2.14.8-5.44 1.52-9.81.09-.54.41-2.57.98-6.09l.17-1.09c.67-4.16 1.27-8.59 1.8-13.16.48-3.88.72-6.8.72-8.69 0-1.07-.21-1.82-.61-2.17-.28-.24-.67-.32-1.2-.25-1.1.15-2.53.96-4.25 2.41-1.76 1.48-3.68 3.77-5.71 6.78-.75 1.12-1.62 1.76-2.58 1.89-.85.12-1.59-.19-2.21-.9C6.3 37.82 6 37 6 36.07c0-.87.16-1.74.46-2.57.3-.82.85-1.83 1.64-3.02 2.37-3.57 5.06-6.48 7.97-8.66 2.94-2.19 6.07-3.53 9.31-3.97 2.8-.39 4.95.22 6.38 1.79 1.4 1.54 2.11 3.96 2.11 7.2 0 1.93-.19 4.51-.56 7.71 2.14-5.43 4.72-9.86 7.68-13.21 3.76-4.25 8.25-6.77 13.35-7.46 4.08-.56 7.22.21 9.32 2.27 2.08 2.05 3.14 5.05 3.14 8.92 0 2.13-.32 4.8-.95 7.94l-4.4 21.21c-.47 2.42-.71 4.5-.71 6.19 0 1.86.42 3.2 1.25 3.98.83.78 1.98 1.06 3.52.84 1.48-.2 2.96-.91 4.39-2.11.96-.8 2.06-1.94 3.28-3.38.09-1.96.36-4.37.8-7.16.55-3.46 1.27-6.76 2.14-9.82.46-1.7 1.07-2.89 1.87-3.64.81-.75 2.03-1.24 3.73-1.47 1.64-.22 2.78-.03 3.49.58.5.44.75 1.06.75 1.86 0 1.24-.45 4.07-1.38 8.64-1.14 5.39-1.72 9.05-1.72 10.87 0 1.35.17 2.36.52 3 .29.53.73.73 1.44.63.51-.07 1.44-.49 2.95-2.09.61-.65 1.34-1.49 2.17-2.51-.09-.8-.14-1.54-.14-2.27 0-3.95.79-7.57 2.36-10.77 1.56-3.2 3.62-5.81 6.12-7.77 2.51-1.97 5.18-3.16 7.95-3.54 2.78-.38 4.99.17 6.57 1.63 1.56 1.45 2.36 3.5 2.36 6.08 0 2.1-.47 3.96-1.4 5.55-.97 1.65-2.26 2.59-3.86 2.81-1.03.14-1.89 0-2.54-.42-.7-.45-1.06-1.16-1.06-2.11 0-.37.05-.8.16-1.28.1-.45.17-.78.22-.98.23-.74.35-1.38.35-1.95 0-.48-.11-.82-.31-1.01-.2-.18-.5-.25-.92-.19-.97.13-1.91.72-2.79 1.73-.91 1.06-1.66 2.46-2.21 4.14-.56 1.7-.84 3.56-.84 5.51 0 2.8.64 4.78 1.89 5.87 1.09.95 2.71 1.28 4.82.99 1.88-.26 3.95-1.19 6.15-2.77 1.24-.88 2.49-2 3.73-3.31-.11-.91-.16-1.78-.16-2.67 0-3.37.72-6.65 2.13-9.75 1.42-3.1 3.42-5.72 5.94-7.78 2.54-2.07 5.44-3.34 8.64-3.78 2.92-.4 5.31.17 7.09 1.68 1.79 1.52 2.7 3.8 2.7 6.77 0 3.42-1.24 6.57-3.69 9.36-2.34 2.66-6.3 5.09-11.77 7.24 1.07 1.51 2.72 2.08 5.02 1.77 1.86-.26 3.41-.9 4.61-1.92 1.23-1.05 2.7-2.78 4.35-5.13.66-.92 1.43-1.44 2.29-1.56.82-.11 1.49.19 1.96.87.42.62.63 1.46.63 2.59 0 1.81-.44 3.46-1.3 4.89-1.38 2.3-3.21 4.23-5.45 5.71-2.24 1.49-4.94 2.46-8.03 2.88-4.75.65-8.5-.29-11.15-2.8-.3-.29-.6-.61-.9-.99a28.562 28.562 0 0 1-4.86 3.8c-3.19 1.97-6.33 3.18-9.31 3.59-4.84.66-8.67-.22-11.39-2.61-.31-.27-.6-.57-.91-.92-3.6 3.96-7.07 6.19-10.32 6.64-3.3.45-5.76-.42-7.29-2.59-.24-.34-.47-.72-.67-1.12-1.23 1.25-2.45 2.31-3.64 3.15-2.5 1.77-5.17 2.85-7.93 3.23-4.22.58-7.58-.25-9.99-2.45-2.4-2.2-3.62-5.45-3.62-9.66 0-1.61.13-3.39.4-5.31.26-1.9.71-4.38 1.34-7.35l3.39-15.96c.24-1.13.43-2.2.57-3.18.14-.97.21-1.94.21-2.88 0-1.4-.37-2.43-1.14-3.13-.76-.69-1.82-.93-3.27-.74-2.74.38-5.54 2.27-8.33 5.62-2.83 3.41-5.49 8.73-7.91 15.82-2.43 7.12-4.36 16.19-5.74 26.96-.35 2.6-.86 4.4-1.55 5.52-.73 1.18-2.12 1.92-4.14 2.19-.49.07-.95.1-1.37.1Zm-.01-53.42c.6 0 1.11.17 1.51.52.64.56.96 1.52.96 2.92 0 1.93-.24 4.89-.72 8.81-.53 4.58-1.14 9.02-1.8 13.2l-.17 1.09c-.57 3.53-.89 5.56-.98 6.1-.72 4.35-1.23 7.64-1.51 9.78-.28 2.12-.43 3.94-.43 5.4 0 2.55.54 3.57.99 3.97.65.58 1.8.77 3.42.54 1.71-.23 2.86-.82 3.43-1.73.61-.98 1.08-2.71 1.41-5.12 1.39-10.83 3.34-19.97 5.79-27.15 2.46-7.2 5.18-12.63 8.09-16.13 2.95-3.55 5.97-5.56 8.96-5.97 1.73-.24 3.1.1 4.08.99.97.89 1.46 2.19 1.46 3.87 0 .98-.07 2-.22 3.02-.14 1.01-.34 2.1-.58 3.25l-3.39 15.96c-.62 2.95-1.07 5.4-1.33 7.28-.26 1.87-.39 3.61-.39 5.17 0 3.92 1.11 6.92 3.3 8.92 2.18 1.99 5.27 2.73 9.18 2.2 2.6-.36 5.12-1.39 7.49-3.06 1.3-.92 2.64-2.11 3.99-3.54.11-.12.28-.18.45-.15.17.03.31.14.37.29.26.59.56 1.13.89 1.61 1.31 1.87 3.38 2.58 6.33 2.17 3.13-.43 6.53-2.7 10.1-6.74.1-.11.23-.17.39-.17.15 0 .29.07.38.19.41.51.79.91 1.17 1.25 2.49 2.2 6.05 3 10.59 2.37 2.85-.39 5.85-1.55 8.92-3.45 1.83-1.13 3.54-2.5 5.08-4.05.1-.1.25-.15.39-.15.14.01.28.08.37.2.4.54.77.95 1.14 1.31 2.42 2.29 5.89 3.15 10.32 2.54 2.94-.4 5.5-1.32 7.61-2.72 2.11-1.4 3.84-3.22 5.14-5.39.77-1.28 1.15-2.75 1.15-4.38 0-.9-.15-1.58-.45-2.02-.25-.37-.56-.51-1-.45-.58.08-1.11.45-1.61 1.14-1.7 2.41-3.22 4.2-4.51 5.31-1.34 1.15-3.06 1.87-5.12 2.15-2.95.4-5.08-.53-6.34-2.76a.513.513 0 0 1 .26-.72c5.61-2.14 9.63-4.55 11.94-7.18 2.28-2.6 3.44-5.52 3.44-8.7 0-2.67-.79-4.69-2.35-6.01-1.56-1.33-3.68-1.81-6.31-1.45-3.01.41-5.76 1.61-8.15 3.56-2.4 1.96-4.31 4.46-5.66 7.43a22.27 22.27 0 0 0-1.86 12.12c.02.15-.03.3-.13.4-1.34 1.44-2.7 2.65-4.04 3.61-2.34 1.67-4.56 2.66-6.6 2.94-2.41.33-4.3-.08-5.61-1.23-1.48-1.29-2.23-3.52-2.23-6.62 0-2.06.3-4.02.89-5.82.59-1.81 1.4-3.32 2.4-4.49 1.04-1.21 2.19-1.9 3.41-2.07.73-.1 1.31.05 1.74.45.42.39.63.98.63 1.74 0 .67-.13 1.42-.38 2.22-.04.16-.11.48-.2.92-.09.41-.13.77-.13 1.07 0 .6.19 1 .6 1.27.45.29 1.07.38 1.86.27 1.29-.18 2.32-.94 3.13-2.33.84-1.43 1.26-3.13 1.26-5.04 0-2.29-.69-4.09-2.04-5.35-1.34-1.25-3.28-1.71-5.75-1.37-2.59.36-5.1 1.48-7.47 3.33-2.38 1.86-4.34 4.36-5.84 7.42-1.5 3.06-2.25 6.53-2.25 10.33 0 .75.05 1.52.16 2.36.02.14-.02.27-.11.38-.9 1.11-1.69 2.03-2.35 2.73-1.39 1.48-2.55 2.26-3.54 2.4-1.42.2-2.12-.52-2.45-1.15-.43-.79-.64-1.93-.64-3.47 0-1.92.57-5.55 1.74-11.08.9-4.44 1.36-7.28 1.36-8.44 0-.5-.13-.86-.41-1.11-.46-.4-1.4-.52-2.7-.35-1.47.2-2.54.61-3.19 1.21-.65.61-1.18 1.68-1.59 3.17-.86 3.03-1.57 6.3-2.11 9.71-.45 2.83-.72 5.26-.8 7.21 0 .11-.04.22-.12.3-1.3 1.55-2.48 2.78-3.51 3.64-1.58 1.32-3.23 2.1-4.9 2.33-1.83.25-3.29-.12-4.34-1.11-1.04-.97-1.56-2.56-1.56-4.71 0-1.75.25-3.91.73-6.39l4.4-21.22c.61-3.06.93-5.67.93-7.74 0-3.59-.96-6.35-2.84-8.2-1.87-1.84-4.72-2.51-8.48-1.99-4.85.66-9.14 3.07-12.73 7.14-3.64 4.11-6.68 9.92-9.05 17.25-.08.25-.34.39-.59.33a.5.5 0 0 1-.38-.56c.76-5.35 1.15-9.45 1.15-12.19 0-2.98-.62-5.17-1.85-6.53-1.22-1.33-3.02-1.82-5.51-1.48-3.07.42-6.05 1.69-8.85 3.78-2.82 2.1-5.43 4.93-7.74 8.41-.74 1.12-1.26 2.07-1.53 2.82-.27.73-.4 1.48-.4 2.23 0 .7.21 1.28.63 1.77.4.45.82.63 1.32.56.66-.09 1.3-.58 1.89-1.46 2.08-3.09 4.06-5.44 5.89-6.99 1.89-1.6 3.45-2.46 4.76-2.64.17-.02.33-.03.48-.03ZM125.6 50.45c-.1 0-.2-.03-.29-.09a.507.507 0 0 1-.21-.41v-.14c0-3 .64-5.69 1.9-7.99 1.3-2.37 2.94-3.71 4.87-3.97 1.02-.14 1.85.09 2.47.68.6.58.91 1.41.91 2.46 0 1.91-.88 3.72-2.6 5.38-1.68 1.61-3.99 2.97-6.87 4.05-.06.02-.12.03-.18.03Zm6.84-11.64c-.13 0-.27.01-.42.03-1.6.22-2.99 1.38-4.13 3.46-1.1 2-1.69 4.32-1.77 6.91 2.44-.98 4.4-2.18 5.85-3.57 1.52-1.46 2.3-3.03 2.3-4.66 0-.78-.2-1.34-.6-1.73-.31-.3-.71-.44-1.22-.44Z"/><path d="M83.16 29.36c2.06-.28 3.72-1.07 4.97-2.38 1.25-1.3 1.87-2.91 1.87-4.83 0-1.59-.55-2.73-1.66-3.45-1.11-.71-2.55-.95-4.32-.7-1.97.27-3.61 1.06-4.94 2.37-1.32 1.31-1.98 2.81-1.98 4.49s.5 2.92 1.51 3.72c1.01.8 2.52 1.06 4.54.78Z" class="cls-5"/><path d="M81.72 29.96c-1.43 0-2.57-.33-3.4-1-1.13-.9-1.7-2.28-1.7-4.11s.72-3.44 2.13-4.84c1.4-1.38 3.15-2.23 5.22-2.51 1.89-.26 3.46 0 4.66.78 1.25.81 1.89 2.11 1.89 3.87 0 2.05-.68 3.79-2.01 5.18-1.32 1.38-3.09 2.23-5.26 2.52-.54.07-1.04.11-1.51.11Zm3.59-11.55c-.38 0-.79.03-1.22.09-1.85.25-3.41 1-4.65 2.23-1.23 1.22-1.83 2.57-1.83 4.13s.43 2.62 1.32 3.33c.89.71 2.29.93 4.16.68 1.94-.27 3.52-1.02 4.68-2.23 1.17-1.21 1.73-2.68 1.73-4.49 0-1.42-.47-2.41-1.43-3.03-.74-.48-1.67-.72-2.77-.72Z"/><path d="M145.24 46.14c-.36-.53-.85-.75-1.48-.66-.72.1-1.37.55-1.95 1.35-1.68 2.39-3.16 4.13-4.43 5.22-1.27 1.09-2.89 1.77-4.86 2.04-2.74.38-4.68-.46-5.84-2.51 5.72-2.18 9.76-4.62 12.14-7.32 2.38-2.7 3.57-5.71 3.57-9.03 0-2.83-.84-4.96-2.52-6.39-1.68-1.43-3.92-1.95-6.7-1.57-3.12.43-5.92 1.65-8.39 3.67-2.47 2.02-4.41 4.56-5.8 7.6-1.39 3.05-2.09 6.23-2.09 9.55 0 1 .07 1.94.19 2.84-1.31 1.41-2.63 2.59-3.97 3.55-2.28 1.64-4.41 2.59-6.38 2.86-4.85.67-7.28-1.79-7.28-7.36 0-2.02.29-3.91.86-5.67.58-1.76 1.34-3.2 2.31-4.32.96-1.11 1.99-1.75 3.1-1.9.58-.08 1.02.03 1.33.32.31.29.47.75.47 1.38s-.12 1.31-.36 2.07c-.05.2-.12.52-.22.97-.1.45-.14.84-.14 1.17 0 .77.28 1.33.83 1.69.55.36 1.28.47 2.2.35 1.44-.2 2.6-1.05 3.49-2.57.89-1.51 1.33-3.28 1.33-5.3 0-2.45-.73-4.35-2.2-5.72-1.47-1.36-3.52-1.86-6.16-1.5-2.69.37-5.26 1.51-7.71 3.43-2.45 1.92-4.44 4.45-5.98 7.59-1.54 3.14-2.31 6.66-2.31 10.55 0 .85.06 1.65.16 2.42-.89 1.1-1.66 2-2.32 2.7-1.3 1.38-2.38 2.13-3.24 2.25-.91.13-1.56-.17-1.95-.89-.39-.71-.58-1.79-.58-3.24 0-1.87.58-5.53 1.73-10.97.91-4.5 1.37-7.34 1.37-8.55 0-1.63-1.23-2.28-3.67-1.95-1.59.22-2.74.66-3.46 1.34-.72.68-1.3 1.81-1.73 3.41-.86 3.05-1.57 6.3-2.13 9.77-.46 2.88-.72 5.3-.8 7.27-1.27 1.53-2.43 2.72-3.45 3.58-1.51 1.27-3.06 2.01-4.65 2.22-1.68.23-2.99-.09-3.93-.98-.94-.88-1.41-2.33-1.41-4.35 0-1.73.24-3.83.72-6.3l4.39-21.21c.62-3.11.94-5.72.94-7.84 0-3.75-1-6.6-2.99-8.56-1.99-1.96-4.96-2.67-8.9-2.13-5 .68-9.34 3.12-13.04 7.3-3.7 4.18-6.75 9.99-9.15 17.43.77-5.39 1.15-9.48 1.15-12.26 0-3.12-.66-5.41-1.98-6.86-1.32-1.45-3.3-2-5.94-1.63-3.17.43-6.2 1.73-9.08 3.87-2.88 2.15-5.5 4.99-7.85 8.53-.77 1.16-1.3 2.14-1.58 2.92-.29.78-.43 1.58-.43 2.4s.25 1.52.76 2.09 1.09.82 1.77.73c.82-.11 1.56-.67 2.23-1.68 2.06-3.07 4-5.36 5.8-6.88 1.8-1.52 3.3-2.36 4.5-2.53 1.59-.22 2.38.76 2.38 2.92 0 1.92-.24 4.84-.72 8.75-.53 4.59-1.13 8.98-1.8 13.18-.67 4.2-1.06 6.59-1.15 7.18-.72 4.38-1.23 7.64-1.51 9.79-.29 2.15-.43 3.98-.43 5.46 0 2.21.38 3.66 1.15 4.34.77.69 2.04.91 3.82.67 1.87-.26 3.13-.91 3.78-1.96.65-1.05 1.14-2.82 1.48-5.32 1.39-10.86 3.31-19.87 5.76-27.05 2.45-7.18 5.12-12.51 8-15.98 2.88-3.47 5.76-5.4 8.65-5.8 1.58-.22 2.81.07 3.67.87.86.79 1.3 1.96 1.3 3.5 0 .96-.07 1.94-.22 2.95a45.99 45.99 0 0 1-.58 3.21c-.24 1.14-.41 1.93-.5 2.37L51.75 46.6c-.62 2.97-1.07 5.41-1.33 7.32-.26 1.91-.4 3.66-.4 5.24 0 4.08 1.15 7.18 3.46 9.29 2.31 2.11 5.5 2.88 9.58 2.32 2.69-.37 5.26-1.42 7.71-3.15 1.35-.95 2.7-2.16 4.06-3.61.27.62.58 1.18.94 1.7 1.42 2.02 3.69 2.81 6.81 2.38 3.27-.45 6.74-2.75 10.4-6.9.38.46.78.91 1.23 1.31 2.62 2.31 6.28 3.14 10.99 2.49 2.93-.4 5.97-1.58 9.12-3.52 1.89-1.17 3.61-2.54 5.18-4.12.37.49.76.96 1.2 1.38 2.55 2.41 6.12 3.3 10.74 2.67 3.03-.41 5.63-1.35 7.82-2.8a17.14 17.14 0 0 0 5.3-5.55c.82-1.36 1.23-2.91 1.23-4.64 0-1.01-.18-1.78-.54-2.3Zm-19.64-.19c0-2.93.61-5.51 1.84-7.75 1.23-2.23 2.73-3.47 4.5-3.72.86-.12 1.55.06 2.05.55.5.48.76 1.18.76 2.09 0 1.78-.82 3.45-2.45 5.02-1.63 1.57-3.87 2.88-6.7 3.94v-.14Z" class="cls-5"/><path d="M21.98 76.86c-1.24 0-2.18-.3-2.85-.89-.89-.79-1.32-2.34-1.32-4.72 0-1.5.15-3.37.44-5.53.29-2.14.8-5.44 1.52-9.81.09-.54.41-2.57.98-6.09l.17-1.09c.67-4.16 1.27-8.59 1.8-13.16.48-3.88.72-6.8.72-8.69 0-1.07-.21-1.82-.61-2.17-.28-.24-.67-.32-1.2-.25-1.1.15-2.53.96-4.25 2.41-1.76 1.48-3.68 3.77-5.71 6.78-.75 1.12-1.62 1.76-2.58 1.89-.85.12-1.59-.19-2.21-.9-.58-.67-.88-1.49-.88-2.42 0-.87.16-1.74.46-2.57.3-.82.85-1.83 1.64-3.02 2.37-3.57 5.06-6.48 7.97-8.66 2.94-2.19 6.07-3.52 9.31-3.97 2.8-.39 4.95.22 6.38 1.79 1.4 1.54 2.11 3.96 2.11 7.2 0 1.93-.19 4.51-.56 7.71 2.14-5.43 4.72-9.86 7.68-13.21 3.76-4.25 8.25-6.77 13.35-7.46 4.08-.56 7.22.2 9.32 2.27 2.08 2.05 3.14 5.05 3.14 8.92 0 2.13-.32 4.8-.95 7.94l-4.4 21.21c-.47 2.42-.71 4.5-.71 6.19 0 1.86.42 3.2 1.25 3.98.83.78 1.98 1.05 3.52.84 1.48-.2 2.96-.91 4.39-2.11.96-.8 2.06-1.94 3.28-3.38.09-1.96.36-4.37.8-7.16.55-3.46 1.27-6.76 2.14-9.82.46-1.7 1.07-2.89 1.87-3.64.81-.75 2.03-1.24 3.73-1.47 1.64-.23 2.78-.03 3.49.58.5.44.75 1.06.75 1.86 0 1.24-.45 4.07-1.38 8.64-1.14 5.39-1.72 9.05-1.72 10.87 0 1.35.17 2.36.52 3 .29.53.73.73 1.44.63.51-.07 1.44-.49 2.95-2.09.61-.65 1.34-1.49 2.17-2.51-.09-.8-.14-1.54-.14-2.27 0-3.95.79-7.57 2.36-10.77 1.56-3.2 3.62-5.81 6.12-7.77 2.51-1.97 5.18-3.16 7.95-3.54 2.78-.38 4.99.17 6.57 1.63 1.56 1.45 2.36 3.5 2.36 6.08 0 2.1-.47 3.97-1.4 5.55-.97 1.65-2.26 2.59-3.86 2.81-1.03.14-1.89 0-2.54-.42-.7-.45-1.06-1.16-1.06-2.11 0-.37.05-.8.16-1.28.1-.45.17-.78.22-.98.23-.74.35-1.38.35-1.95 0-.48-.11-.82-.31-1.01-.2-.18-.5-.25-.92-.19-.97.13-1.91.72-2.79 1.73-.91 1.06-1.66 2.46-2.21 4.15-.56 1.7-.84 3.56-.84 5.51 0 2.8.64 4.78 1.89 5.87 1.09.95 2.71 1.28 4.82.99 1.88-.26 3.95-1.19 6.15-2.77 1.24-.88 2.49-2 3.73-3.31-.11-.91-.16-1.78-.16-2.67 0-3.37.72-6.65 2.13-9.75 1.42-3.1 3.42-5.72 5.94-7.78 2.54-2.07 5.44-3.34 8.64-3.78 2.92-.4 5.31.17 7.09 1.68 1.79 1.52 2.7 3.8 2.7 6.77 0 3.42-1.24 6.57-3.69 9.36-2.34 2.66-6.3 5.09-11.77 7.24 1.07 1.51 2.72 2.08 5.02 1.77 1.86-.26 3.41-.9 4.61-1.92 1.23-1.05 2.7-2.78 4.35-5.13.66-.92 1.43-1.44 2.29-1.56.81-.11 1.49.19 1.96.88.42.62.63 1.46.63 2.59 0 1.81-.44 3.46-1.3 4.89-1.38 2.3-3.21 4.23-5.45 5.71-2.24 1.49-4.94 2.46-8.03 2.88-4.75.65-8.5-.29-11.15-2.8-.3-.29-.6-.61-.9-.99a28.633 28.633 0 0 1-4.87 3.8c-3.19 1.97-6.32 3.18-9.31 3.59-4.84.66-8.67-.22-11.39-2.61-.31-.27-.6-.57-.91-.92-3.6 3.96-7.07 6.19-10.32 6.64-3.3.45-5.76-.42-7.29-2.59-.24-.34-.47-.72-.67-1.12-1.22 1.25-2.45 2.31-3.64 3.15-2.5 1.77-5.17 2.85-7.93 3.23-4.22.58-7.58-.25-9.99-2.45-2.4-2.2-3.62-5.45-3.62-9.66 0-1.6.13-3.39.4-5.31.26-1.9.71-4.38 1.34-7.35l3.39-15.96c.24-1.13.43-2.2.57-3.18.14-.97.21-1.94.21-2.88 0-1.4-.37-2.43-1.14-3.13-.76-.69-1.82-.93-3.27-.74-2.74.38-5.54 2.27-8.33 5.62-2.83 3.41-5.49 8.73-7.91 15.82-2.43 7.12-4.36 16.19-5.74 26.96-.35 2.6-.86 4.4-1.55 5.52-.73 1.18-2.12 1.92-4.14 2.19-.49.07-.95.1-1.37.1Zm-.01-53.42c.6 0 1.11.17 1.51.52.64.56.96 1.52.96 2.92 0 1.93-.24 4.89-.72 8.81-.53 4.58-1.14 9.02-1.8 13.2l-.17 1.09c-.57 3.53-.89 5.56-.98 6.1-.72 4.35-1.23 7.64-1.51 9.78-.28 2.12-.43 3.94-.43 5.4 0 2.55.54 3.57.99 3.97.65.58 1.8.77 3.42.54 1.71-.23 2.86-.82 3.43-1.73.61-.98 1.08-2.71 1.41-5.12 1.39-10.83 3.34-19.97 5.79-27.15 2.46-7.2 5.18-12.63 8.09-16.13 2.95-3.55 5.97-5.56 8.96-5.97 1.73-.24 3.1.1 4.08.99.97.89 1.46 2.19 1.46 3.87 0 .98-.07 2-.22 3.02-.14 1.01-.34 2.1-.58 3.25l-3.39 15.96c-.62 2.95-1.07 5.4-1.33 7.28-.26 1.87-.39 3.61-.39 5.17 0 3.92 1.11 6.92 3.3 8.92 2.18 1.99 5.27 2.73 9.18 2.2 2.6-.36 5.12-1.39 7.49-3.06 1.3-.92 2.64-2.11 3.99-3.54.11-.12.28-.18.45-.15.17.03.31.14.37.29.26.59.56 1.13.89 1.61 1.31 1.87 3.38 2.58 6.33 2.17 3.13-.43 6.53-2.7 10.1-6.74.1-.11.23-.16.39-.17.15 0 .29.07.38.19.41.51.79.91 1.17 1.25 2.49 2.2 6.05 3 10.59 2.37 2.85-.39 5.85-1.55 8.92-3.45 1.83-1.13 3.54-2.5 5.08-4.05.1-.1.25-.15.39-.15.14.01.28.08.37.2.4.54.77.95 1.14 1.31 2.42 2.29 5.89 3.15 10.32 2.54 2.94-.4 5.5-1.32 7.61-2.72 2.11-1.4 3.84-3.22 5.14-5.39.77-1.28 1.15-2.75 1.15-4.38 0-.9-.15-1.58-.45-2.02-.25-.37-.56-.51-1-.45-.58.08-1.11.45-1.61 1.14-1.7 2.41-3.22 4.2-4.51 5.31-1.34 1.15-3.06 1.87-5.12 2.15-2.95.4-5.08-.53-6.34-2.76a.513.513 0 0 1 .26-.72c5.61-2.14 9.63-4.55 11.94-7.18 2.28-2.6 3.44-5.52 3.44-8.7 0-2.67-.79-4.69-2.35-6.01-1.56-1.32-3.68-1.81-6.31-1.45-3.01.41-5.76 1.61-8.15 3.56-2.4 1.96-4.31 4.46-5.66 7.43a22.27 22.27 0 0 0-1.86 12.12c.02.15-.03.3-.13.4-1.34 1.44-2.7 2.65-4.04 3.61-2.34 1.67-4.56 2.66-6.6 2.94-2.41.33-4.3-.08-5.61-1.23-1.48-1.29-2.23-3.52-2.23-6.62 0-2.06.3-4.02.89-5.82.59-1.82 1.4-3.32 2.4-4.49 1.04-1.21 2.19-1.9 3.41-2.07.73-.1 1.31.05 1.74.45.42.39.63.98.63 1.74 0 .67-.13 1.42-.38 2.22-.04.16-.11.48-.2.92-.09.41-.13.77-.13 1.07 0 .6.19 1 .6 1.27.45.29 1.07.38 1.86.27 1.29-.18 2.32-.94 3.13-2.33.84-1.43 1.26-3.13 1.26-5.05 0-2.29-.69-4.09-2.04-5.35-1.34-1.25-3.28-1.71-5.75-1.37-2.59.35-5.1 1.48-7.47 3.33-2.38 1.86-4.34 4.36-5.84 7.42-1.5 3.06-2.25 6.53-2.25 10.33 0 .75.05 1.52.16 2.36.02.14-.02.27-.11.38-.9 1.11-1.69 2.03-2.35 2.73-1.39 1.48-2.55 2.26-3.54 2.4-1.42.2-2.12-.52-2.45-1.15-.43-.79-.64-1.93-.64-3.47 0-1.92.57-5.55 1.74-11.08.9-4.44 1.36-7.28 1.36-8.44 0-.5-.13-.86-.41-1.1-.46-.4-1.4-.52-2.7-.35-1.47.2-2.54.61-3.19 1.21-.65.61-1.18 1.68-1.59 3.17-.86 3.03-1.57 6.3-2.11 9.71-.45 2.83-.72 5.26-.8 7.21 0 .11-.04.22-.12.3-1.3 1.55-2.48 2.78-3.51 3.64-1.58 1.32-3.23 2.1-4.9 2.33-1.83.25-3.29-.12-4.34-1.11-1.04-.97-1.56-2.56-1.56-4.71 0-1.75.25-3.91.73-6.39l4.4-21.22c.61-3.06.93-5.67.93-7.74 0-3.59-.96-6.35-2.84-8.2-1.87-1.84-4.72-2.51-8.48-1.99-4.85.66-9.14 3.06-12.73 7.13-3.64 4.11-6.68 9.91-9.05 17.25-.08.25-.34.39-.59.33a.5.5 0 0 1-.38-.56c.76-5.35 1.15-9.45 1.15-12.19 0-2.98-.62-5.17-1.85-6.53-1.22-1.33-3.01-1.82-5.51-1.48-3.07.42-6.05 1.69-8.85 3.78-2.82 2.1-5.43 4.93-7.74 8.41-.74 1.12-1.26 2.07-1.53 2.81-.27.73-.4 1.48-.4 2.23 0 .7.21 1.28.63 1.77.4.45.82.63 1.32.56.66-.09 1.3-.58 1.89-1.46 2.08-3.09 4.06-5.44 5.89-6.99 1.89-1.6 3.45-2.46 4.76-2.64.17-.02.33-.03.48-.03ZM125.6 46.59c-.1 0-.2-.03-.29-.09a.507.507 0 0 1-.21-.41v-.14c0-3 .64-5.69 1.9-7.99 1.3-2.37 2.94-3.71 4.87-3.97 1.02-.14 1.85.09 2.47.68.6.58.91 1.41.91 2.46 0 1.91-.88 3.72-2.6 5.38-1.68 1.61-3.99 2.97-6.87 4.05-.06.02-.12.03-.18.03Zm6.84-11.64c-.13 0-.27.01-.42.03-1.6.22-2.99 1.38-4.13 3.46-1.1 2-1.69 4.32-1.77 6.91 2.44-.98 4.4-2.18 5.85-3.57 1.52-1.46 2.3-3.03 2.3-4.66 0-.78-.2-1.35-.6-1.73-.31-.3-.71-.44-1.22-.44Z"/><path d="M83.16 25.5c2.06-.28 3.72-1.07 4.97-2.38 1.25-1.3 1.87-2.91 1.87-4.83 0-1.59-.55-2.73-1.66-3.45-1.11-.71-2.55-.95-4.32-.7-1.97.27-3.61 1.06-4.94 2.37-1.32 1.31-1.98 2.81-1.98 4.49s.5 2.92 1.51 3.72c1.01.8 2.52 1.06 4.54.78Z" class="cls-1"/><path d="M81.72 26.11c-1.43 0-2.57-.33-3.4-1-1.13-.9-1.7-2.28-1.7-4.11s.72-3.44 2.13-4.84c1.39-1.38 3.15-2.23 5.22-2.51 1.89-.26 3.46 0 4.66.78 1.25.81 1.89 2.11 1.89 3.87 0 2.05-.68 3.79-2.01 5.18-1.32 1.38-3.09 2.23-5.26 2.52-.54.07-1.04.11-1.51.11Zm3.59-11.56c-.38 0-.79.03-1.22.09-1.85.25-3.41 1-4.65 2.23-1.23 1.22-1.83 2.57-1.83 4.13s.43 2.62 1.32 3.33c.89.71 2.29.93 4.16.68 1.94-.27 3.52-1.02 4.68-2.23 1.17-1.21 1.73-2.68 1.73-4.49 0-1.42-.47-2.41-1.43-3.03-.74-.48-1.67-.72-2.77-.72Z"/><path d="M145.24 42.28c-.36-.53-.85-.75-1.48-.66-.72.1-1.37.55-1.95 1.35-1.68 2.39-3.16 4.13-4.43 5.22-1.27 1.09-2.89 1.77-4.86 2.04-2.74.38-4.68-.46-5.84-2.51 5.72-2.18 9.76-4.62 12.14-7.32 2.38-2.7 3.57-5.71 3.57-9.03 0-2.83-.84-4.96-2.52-6.39-1.68-1.43-3.92-1.95-6.7-1.57-3.12.43-5.92 1.65-8.39 3.67-2.47 2.02-4.41 4.56-5.8 7.6-1.39 3.05-2.09 6.23-2.09 9.55 0 1 .07 1.94.19 2.84-1.31 1.41-2.63 2.59-3.97 3.55-2.28 1.64-4.41 2.59-6.38 2.86-4.85.67-7.28-1.79-7.28-7.36 0-2.02.29-3.91.86-5.67.58-1.76 1.34-3.2 2.31-4.32.96-1.12 1.99-1.75 3.1-1.9.58-.08 1.02.03 1.33.32.31.29.47.75.47 1.38s-.12 1.31-.36 2.07c-.05.2-.12.52-.22.97-.1.45-.14.84-.14 1.17 0 .77.28 1.33.83 1.69.55.36 1.28.47 2.2.35 1.44-.2 2.6-1.05 3.49-2.57.89-1.51 1.33-3.28 1.33-5.3 0-2.45-.73-4.35-2.2-5.72-1.47-1.36-3.52-1.86-6.16-1.5-2.69.37-5.26 1.51-7.71 3.43-2.45 1.92-4.44 4.45-5.98 7.59-1.54 3.14-2.31 6.66-2.31 10.55 0 .85.06 1.65.16 2.42-.89 1.1-1.66 2-2.32 2.7-1.3 1.38-2.38 2.13-3.24 2.25-.91.13-1.56-.17-1.95-.89-.39-.71-.58-1.79-.58-3.24 0-1.87.58-5.53 1.73-10.97.91-4.5 1.37-7.34 1.37-8.55 0-1.63-1.23-2.28-3.67-1.95-1.59.22-2.74.66-3.46 1.34-.72.68-1.3 1.81-1.73 3.41-.86 3.05-1.57 6.3-2.13 9.77-.46 2.88-.72 5.3-.8 7.27-1.27 1.53-2.43 2.72-3.45 3.58-1.51 1.27-3.06 2.01-4.65 2.22-1.68.23-2.99-.1-3.93-.98s-1.41-2.33-1.41-4.35c0-1.73.24-3.83.72-6.3l4.39-21.21c.62-3.11.94-5.72.94-7.84 0-3.75-1-6.6-2.99-8.56-1.99-1.96-4.96-2.67-8.9-2.13-5 .69-9.34 3.12-13.04 7.3-3.7 4.18-6.75 9.99-9.15 17.43.77-5.39 1.15-9.48 1.15-12.26 0-3.12-.66-5.41-1.98-6.86-1.32-1.45-3.3-2-5.94-1.63-3.17.43-6.2 1.73-9.08 3.87-2.88 2.15-5.5 4.99-7.85 8.53-.77 1.16-1.3 2.14-1.58 2.92-.29.78-.43 1.58-.43 2.4s.25 1.52.76 2.09 1.09.82 1.77.73c.82-.11 1.56-.67 2.23-1.68 2.06-3.07 4-5.36 5.8-6.88 1.8-1.52 3.3-2.36 4.5-2.53 1.59-.22 2.38.75 2.38 2.92 0 1.92-.24 4.84-.72 8.75-.53 4.59-1.13 8.98-1.8 13.18-.67 4.2-1.06 6.59-1.15 7.18-.72 4.38-1.23 7.64-1.51 9.79-.29 2.15-.43 3.98-.43 5.46 0 2.21.38 3.66 1.15 4.34.77.69 2.04.91 3.82.67 1.87-.26 3.13-.91 3.78-1.96.65-1.05 1.14-2.82 1.48-5.32 1.39-10.86 3.31-19.87 5.76-27.05 2.45-7.18 5.12-12.51 8-15.98 2.88-3.47 5.76-5.4 8.65-5.8 1.58-.22 2.81.07 3.67.87.86.79 1.3 1.96 1.3 3.5 0 .96-.07 1.94-.22 2.95a45.99 45.99 0 0 1-.58 3.21c-.24 1.14-.41 1.93-.5 2.37l-2.88 13.58c-.62 2.97-1.07 5.41-1.33 7.32-.26 1.91-.4 3.66-.4 5.24 0 4.08 1.15 7.18 3.46 9.29 2.31 2.11 5.5 2.88 9.58 2.32 2.69-.37 5.26-1.42 7.71-3.15 1.35-.95 2.7-2.16 4.06-3.61.27.62.58 1.18.94 1.7 1.42 2.02 3.69 2.81 6.81 2.38 3.27-.45 6.74-2.75 10.4-6.9.38.46.78.91 1.23 1.31 2.62 2.31 6.28 3.14 10.99 2.49 2.93-.4 5.97-1.58 9.12-3.52 1.89-1.17 3.61-2.54 5.18-4.12.37.49.76.96 1.2 1.38 2.55 2.41 6.12 3.3 10.74 2.67 3.03-.41 5.63-1.35 7.82-2.8a17.14 17.14 0 0 0 5.3-5.55c.82-1.36 1.23-2.91 1.23-4.64 0-1.01-.18-1.78-.54-2.3Zm-19.64-.19c0-2.93.61-5.51 1.84-7.75 1.23-2.23 2.73-3.47 4.5-3.72.86-.12 1.55.06 2.05.55.5.48.76 1.18.76 2.09 0 1.78-.82 3.45-2.45 5.02-1.63 1.57-3.87 2.88-6.7 3.94v-.14Z" class="cls-1"/><path d="M21.98 73c-1.24 0-2.18-.29-2.85-.89-.89-.79-1.32-2.34-1.32-4.72 0-1.5.15-3.37.44-5.53.29-2.14.8-5.44 1.52-9.81.09-.54.41-2.57.98-6.09l.17-1.09c.67-4.16 1.27-8.59 1.8-13.16.48-3.88.72-6.8.72-8.69 0-1.07-.21-1.82-.61-2.17-.28-.24-.67-.32-1.2-.25-1.1.15-2.53.96-4.25 2.41-1.76 1.48-3.68 3.77-5.71 6.78-.75 1.12-1.62 1.76-2.58 1.89-.85.12-1.59-.19-2.21-.9-.58-.67-.88-1.49-.88-2.42 0-.87.16-1.74.46-2.57.3-.82.85-1.83 1.64-3.02 2.37-3.57 5.06-6.48 7.97-8.66 2.94-2.19 6.07-3.52 9.31-3.97 2.8-.39 4.95.22 6.38 1.79 1.4 1.54 2.11 3.96 2.11 7.2 0 1.93-.19 4.51-.56 7.71 2.14-5.43 4.72-9.86 7.68-13.21 3.76-4.25 8.25-6.77 13.35-7.46 4.08-.56 7.22.21 9.32 2.27 2.08 2.05 3.14 5.05 3.14 8.92 0 2.13-.32 4.8-.95 7.94l-4.4 21.21c-.47 2.42-.71 4.5-.71 6.19 0 1.86.42 3.2 1.25 3.98.83.78 1.98 1.06 3.52.84 1.48-.2 2.96-.91 4.39-2.11.96-.8 2.06-1.94 3.28-3.38.09-1.97.36-4.37.8-7.16.55-3.46 1.27-6.76 2.14-9.82.46-1.7 1.07-2.89 1.87-3.64.81-.75 2.03-1.24 3.73-1.47 1.64-.22 2.78-.03 3.49.58.5.44.75 1.06.75 1.86 0 1.24-.45 4.07-1.38 8.64-1.14 5.39-1.72 9.05-1.72 10.87 0 1.35.17 2.36.52 3 .29.53.73.73 1.44.63.51-.07 1.44-.49 2.95-2.09.61-.65 1.34-1.5 2.17-2.51-.09-.8-.14-1.54-.14-2.27 0-3.95.79-7.57 2.36-10.77 1.56-3.2 3.62-5.81 6.12-7.77 2.51-1.97 5.18-3.16 7.95-3.54 2.78-.38 4.99.17 6.57 1.63 1.56 1.45 2.36 3.5 2.36 6.08 0 2.1-.47 3.97-1.4 5.55-.97 1.65-2.26 2.59-3.86 2.81-1.03.14-1.89 0-2.54-.42-.7-.45-1.06-1.16-1.06-2.11 0-.37.05-.8.16-1.28.1-.45.17-.78.22-.98.23-.74.35-1.38.35-1.95 0-.48-.11-.82-.31-1.01-.2-.18-.5-.25-.92-.19-.97.13-1.91.72-2.79 1.73-.91 1.06-1.66 2.46-2.21 4.14-.56 1.7-.84 3.56-.84 5.51 0 2.8.64 4.78 1.89 5.87 1.09.95 2.71 1.29 4.82.99 1.88-.26 3.95-1.19 6.15-2.77 1.24-.88 2.49-2 3.73-3.31-.11-.91-.16-1.78-.16-2.67 0-3.37.72-6.65 2.13-9.75 1.42-3.1 3.42-5.72 5.94-7.78 2.54-2.07 5.44-3.34 8.64-3.78 2.92-.4 5.31.17 7.09 1.68 1.79 1.52 2.7 3.8 2.7 6.77 0 3.42-1.24 6.57-3.69 9.36-2.34 2.66-6.3 5.09-11.77 7.24 1.07 1.51 2.72 2.08 5.02 1.77 1.86-.26 3.41-.9 4.61-1.92 1.23-1.05 2.7-2.78 4.35-5.13.66-.92 1.43-1.44 2.29-1.56.81-.11 1.49.19 1.96.88.42.62.63 1.46.63 2.59 0 1.81-.44 3.46-1.3 4.89-1.38 2.3-3.21 4.23-5.45 5.71-2.24 1.49-4.94 2.46-8.03 2.88-4.75.65-8.5-.29-11.15-2.8-.3-.29-.6-.61-.9-.99a28.633 28.633 0 0 1-4.87 3.8c-3.19 1.97-6.32 3.18-9.31 3.59-4.84.66-8.67-.22-11.39-2.61-.31-.27-.6-.57-.91-.92-3.6 3.96-7.07 6.19-10.32 6.64-3.3.45-5.76-.42-7.29-2.59-.24-.34-.47-.72-.67-1.11-1.23 1.25-2.45 2.31-3.64 3.15-2.5 1.77-5.17 2.86-7.93 3.23-4.22.58-7.58-.25-9.99-2.45-2.4-2.2-3.62-5.45-3.62-9.66 0-1.61.13-3.39.4-5.31.26-1.9.71-4.38 1.34-7.35l3.39-15.96c.24-1.13.43-2.2.57-3.18.14-.97.21-1.94.21-2.88 0-1.4-.37-2.43-1.14-3.13-.76-.69-1.82-.93-3.27-.74-2.74.38-5.54 2.27-8.33 5.62-2.83 3.41-5.49 8.73-7.91 15.82-2.43 7.12-4.36 16.19-5.74 26.96-.35 2.6-.86 4.4-1.55 5.52-.73 1.18-2.12 1.92-4.14 2.19-.49.07-.95.1-1.37.1Zm-.01-53.42c.6 0 1.11.17 1.51.52.64.56.96 1.52.96 2.92 0 1.93-.24 4.89-.72 8.81-.53 4.58-1.14 9.02-1.8 13.2l-.17 1.09c-.57 3.53-.89 5.56-.98 6.1-.72 4.35-1.23 7.64-1.51 9.78-.28 2.12-.43 3.94-.43 5.4 0 2.55.54 3.57.99 3.97.65.58 1.8.77 3.42.54 1.71-.23 2.86-.82 3.43-1.73.61-.98 1.08-2.71 1.41-5.12 1.39-10.83 3.34-19.97 5.79-27.15 2.46-7.2 5.18-12.63 8.09-16.13 2.95-3.55 5.97-5.56 8.96-5.97 1.73-.24 3.1.1 4.08.99.97.89 1.46 2.19 1.46 3.87 0 .98-.07 2-.22 3.02-.14 1.01-.34 2.1-.58 3.25L52.27 42.9c-.62 2.95-1.07 5.4-1.33 7.28-.26 1.87-.39 3.61-.39 5.17 0 3.92 1.11 6.92 3.3 8.92 2.18 1.99 5.27 2.73 9.18 2.2 2.6-.36 5.12-1.39 7.49-3.06 1.3-.92 2.64-2.11 3.99-3.54.11-.12.28-.18.45-.15.17.03.31.14.37.29.26.59.56 1.13.89 1.61 1.31 1.87 3.38 2.58 6.33 2.17 3.13-.43 6.53-2.7 10.1-6.74.1-.11.23-.18.39-.17.15 0 .29.07.38.19.41.51.79.91 1.17 1.25 2.49 2.2 6.05 3 10.59 2.37 2.85-.39 5.85-1.55 8.92-3.45 1.83-1.13 3.54-2.5 5.08-4.05.1-.1.25-.15.39-.15.14.01.28.08.37.2.4.54.77.95 1.14 1.31 2.42 2.29 5.89 3.15 10.32 2.54 2.94-.4 5.5-1.32 7.61-2.72 2.11-1.4 3.84-3.22 5.14-5.39.77-1.28 1.15-2.75 1.15-4.38 0-.9-.15-1.58-.45-2.02-.25-.37-.56-.51-1-.45-.58.08-1.11.45-1.61 1.14-1.7 2.41-3.22 4.2-4.51 5.31-1.34 1.15-3.06 1.87-5.12 2.15-2.95.4-5.08-.53-6.34-2.76a.513.513 0 0 1 .26-.72c5.61-2.14 9.63-4.55 11.94-7.18 2.28-2.6 3.44-5.52 3.44-8.7 0-2.67-.79-4.69-2.35-6.01-1.56-1.32-3.68-1.81-6.31-1.45-3.01.41-5.76 1.61-8.15 3.56-2.4 1.96-4.31 4.46-5.66 7.43a22.27 22.27 0 0 0-1.86 12.12c.02.15-.03.3-.13.4-1.34 1.44-2.7 2.65-4.04 3.61-2.34 1.67-4.56 2.66-6.6 2.94-2.41.33-4.3-.08-5.61-1.23-1.48-1.29-2.23-3.52-2.23-6.62 0-2.06.3-4.02.89-5.82.59-1.82 1.4-3.32 2.4-4.49 1.04-1.21 2.19-1.9 3.41-2.07.73-.1 1.31.05 1.74.45.42.39.63.98.63 1.74 0 .67-.13 1.42-.38 2.22-.04.16-.11.48-.2.92-.09.41-.13.77-.13 1.07 0 .6.19 1 .6 1.27.45.29 1.07.38 1.86.27 1.29-.18 2.32-.94 3.13-2.33.84-1.43 1.26-3.13 1.26-5.05 0-2.29-.69-4.09-2.04-5.35-1.34-1.25-3.28-1.71-5.75-1.37-2.59.36-5.1 1.48-7.47 3.33-2.38 1.86-4.34 4.36-5.84 7.42-1.5 3.06-2.25 6.53-2.25 10.33 0 .75.05 1.52.16 2.36.02.14-.02.27-.11.38-.89 1.11-1.68 2.02-2.35 2.73-1.39 1.48-2.55 2.26-3.54 2.4-1.42.2-2.12-.52-2.45-1.15-.43-.79-.64-1.93-.64-3.47 0-1.92.57-5.55 1.74-11.08.9-4.44 1.36-7.28 1.36-8.44 0-.5-.13-.86-.41-1.11-.46-.4-1.4-.52-2.7-.35-1.47.2-2.54.61-3.19 1.21-.65.61-1.18 1.68-1.59 3.17-.86 3.03-1.57 6.3-2.11 9.71-.45 2.83-.72 5.26-.8 7.21 0 .11-.04.22-.12.3-1.3 1.55-2.48 2.78-3.51 3.64-1.58 1.32-3.23 2.1-4.9 2.33-1.83.25-3.29-.12-4.34-1.11-1.04-.97-1.56-2.56-1.56-4.71 0-1.75.25-3.91.73-6.39l4.4-21.22c.61-3.06.93-5.67.93-7.74 0-3.59-.96-6.35-2.84-8.2-1.87-1.84-4.72-2.51-8.48-1.99-4.85.67-9.14 3.07-12.73 7.14-3.64 4.11-6.68 9.91-9.05 17.25-.08.25-.34.39-.59.33a.5.5 0 0 1-.38-.56c.76-5.35 1.15-9.45 1.15-12.19 0-2.98-.62-5.17-1.85-6.53-1.22-1.33-3.02-1.82-5.51-1.48-3.07.42-6.05 1.69-8.85 3.78-2.82 2.11-5.43 4.94-7.74 8.41-.74 1.12-1.26 2.07-1.53 2.81-.27.73-.4 1.48-.4 2.23 0 .7.21 1.28.63 1.77.4.45.82.63 1.32.56.66-.09 1.3-.58 1.89-1.46 2.08-3.09 4.06-5.44 5.89-6.99 1.89-1.6 3.45-2.46 4.76-2.64.17-.02.33-.03.48-.03ZM125.6 42.74c-.1 0-.2-.03-.29-.09a.507.507 0 0 1-.21-.41v-.14c0-3 .64-5.69 1.9-7.99 1.3-2.37 2.94-3.71 4.87-3.97 1.02-.14 1.85.09 2.47.68.6.58.91 1.41.91 2.46 0 1.91-.88 3.72-2.6 5.38-1.68 1.61-3.99 2.97-6.87 4.05-.06.02-.12.03-.18.03Zm6.84-11.64c-.13 0-.27.01-.42.03-1.6.22-2.99 1.38-4.13 3.46-1.1 2-1.69 4.32-1.77 6.91 2.44-.98 4.4-2.18 5.85-3.57 1.52-1.46 2.3-3.03 2.3-4.66 0-.78-.2-1.35-.6-1.73-.31-.3-.71-.44-1.22-.44Z"/></g></svg>